<svg xmlns="http://www.w3.org/2000/svg" xml:space="preserve" style="fill-rule:evenodd;clip-rule:evenodd;stroke-linejoin:round;stroke-miterlimit:1.41421" viewBox="0 0 22 22"><path d="m18.703 1.405-7.675 7.732-7.674-7.732c-.54-.54-1.405-.54-1.892 0-.54.541-.54 1.406 0 1.892l7.675 7.731-7.732 7.675c-.54.54-.54 1.405 0 1.892.541.54 1.406.54 1.892 0l7.731-7.675 7.675 7.675c.54.54 1.405.54 1.892 0 .487-.541.54-1.405 0-1.892l-7.675-7.675 7.675-7.674c.54-.54.54-1.405 0-1.892-.484-.54-1.352-.54-1.892-.057Z" style="fill:#029df7"/></svg>