<?xml version="1.0" encoding="UTF-8"?><svg id="a" xmlns="http://www.w3.org/2000/svg" viewBox="0 0 22 22"><path d="m20.31,2.31c-.3-.56-.76-.83-1.4-.83H3.01c-.83,0-1.4.5-1.5,1.3,0,.07.03.2.07.23,2.1,2.4,4.19,4.72,6.32,7.09.1.1.13.2.13.37v6.55c0,.97.47,1.7,1.33,2.13.6.3,1.23.5,1.83.76.5.2.97.4,1.46.56.5.17.97-.07,1.13-.5.07-.17.1-.4.1-.6v-8.88c0-.13.03-.23.13-.33.76-.86,1.56-1.73,2.33-2.59,1.33-1.5,2.7-2.99,4.02-4.49.03-.03.1-.13.1-.2-.07-.2-.07-.4-.17-.56h0Zm-2,.86c-1.66,1.83-3.29,3.66-4.96,5.49-.03.03-.43.43-.93.9v9.21c-.07-.03-.13-.03-.17-.07-.7-.27-1.4-.56-2.1-.83-.43-.17-.63-.5-.63-.97v-7.35c-.47-.47-.86-.83-.9-.86-1.73-1.86-3.39-3.76-5.09-5.62-.03-.03-.07-.07-.1-.13h15.07c-.1.1-.13.17-.2.23h0Z" stroke-width="0"/></svg>