<svg xmlns="http://www.w3.org/2000/svg" xml:space="preserve" viewBox="0 0 1000 1000"><path fill="#029DF7" d="M981.4 50.7c-15.5-29.2-39.5-43-72.2-43H87.4c-43 0-72.2 25.8-77.4 67.1 0 3.4 1.7 10.3 3.4 12C121.8 210.6 230.1 331 340.1 453c5.2 5.2 6.9 10.3 6.9 18.9v338.7c0 49.9 24.1 87.7 68.8 110 30.9 15.5 63.6 25.8 94.6 39.5 25.8 10.3 49.9 20.6 75.6 29.2 25.8 8.6 49.9-3.4 58.5-25.8 3.4-8.6 5.2-20.6 5.2-30.9V473.5c0-6.9 1.7-12 6.9-17.2 39.5-44.7 80.8-89.4 120.4-134.1 68.8-77.4 139.3-154.7 208-232.1 1.7-1.7 5.2-6.9 5.2-10.3-3.6-10.2-3.6-20.5-8.8-29.1zM878.2 95.4C792.3 190 708 284.6 622.1 379.1c-1.7 1.7-22.4 22.4-48.1 46.4v476.2c-3.4-1.7-6.9-1.7-8.6-3.4-36.1-13.8-72.2-29.2-108.3-43-22.4-8.6-32.7-25.8-32.7-49.9V425.5c-24.1-24.1-44.7-43-46.4-44.7-89.4-96.3-175.4-194.3-263.1-290.6-1.7-1.7-3.4-3.4-5.2-6.9h778.8c-5.1 5.3-6.8 8.7-10.3 12.1z"/></svg>