<?xml version="1.0" encoding="utf-8"?>
<!-- Svg Vector Icons : http://www.onlinewebfonts.com/icon -->
<!DOCTYPE svg PUBLIC "-//W3C//DTD SVG 1.1//EN" "http://www.w3.org/Graphics/SVG/1.1/DTD/svg11.dtd">
<svg version="1.1" xmlns="http://www.w3.org/2000/svg" xmlns:xlink="http://www.w3.org/1999/xlink" x="0px" y="0px" viewBox="0 0 1000 1000" enable-background="new 0 0 1000 1000" xml:space="preserve">
<metadata> Svg Vector Icons : http://www.onlinewebfonts.com/icon </metadata>
<g><path d="M981.4,50.7c-15.5-29.2-39.5-43-72.2-43c-135.8,0-273.4,0-409.2,0c-51.6,0-103.2,0-154.7,0c-86,0-171.9,0-257.9,0c-43,0-72.2,25.8-77.4,67.1c0,3.4,1.7,10.3,3.4,12C121.8,210.6,230.1,331,340.1,453c5.2,5.2,6.9,10.3,6.9,18.9c0,113.5,0,225.2,0,338.7c0,49.9,24.1,87.7,68.8,110c30.9,15.5,63.6,25.8,94.6,39.5c25.8,10.3,49.9,20.6,75.6,29.2c25.8,8.6,49.9-3.4,58.5-25.8c3.4-8.6,5.2-20.6,5.2-30.9c0-153,0-306,0-459.1c0-6.9,1.7-12,6.9-17.2c39.5-44.7,80.8-89.4,120.4-134.1c68.8-77.4,139.3-154.7,208-232.1c1.7-1.7,5.2-6.9,5.2-10.3C986.6,69.6,986.6,59.3,981.4,50.7z M878.2,95.4C792.3,190,708,284.6,622.1,379.1c-1.7,1.7-22.4,22.4-48.1,46.4c0,144.4,0,340.4,0,476.2c-3.4-1.7-6.9-1.7-8.6-3.4c-36.1-13.8-72.2-29.2-108.3-43c-22.4-8.6-32.7-25.8-32.7-49.9c0-110,0-220.1,0-331.8c0-1.7,0-25.8,0-48.1c-24.1-24.1-44.7-43-46.4-44.7c-89.4-96.3-175.4-194.3-263.1-290.6c-1.7-1.7-3.4-3.4-5.2-6.9c259.6,0,517.5,0,778.8,0C883.4,88.6,881.7,92,878.2,95.4z" fill="#7E8991"/></g>
</svg>