<svg xmlns="http://www.w3.org/2000/svg" width="16" height="21"><path fill="#029DF7" fill-rule="evenodd" d="M2.667 0C1.215 0 0 1.215 0 2.667v15.11A2.232 2.232 0 0 0 2.222 20h13.111c.35 0 .667-.317.667-.667V4.667c-.002-.391-.286-.67-.667-.667C14.693 4 14 3.308 14 2.667s.692-1.334 1.333-1.334c.352.005.667-.314.667-.666 0-.352-.315-.672-.667-.667H2.667Zm0 1.333h10.368c-.233.395-.368.851-.368 1.334 0 .482.135.938.368 1.333H2.667c-.642 0-1.334-.692-1.334-1.333s.692-1.334 1.334-1.334ZM1.333 4.965c.394.233.852.368 1.334.368h12v13.334H2.222a.873.873 0 0 1-.889-.89V4.966Zm2.445 2.813a.667.667 0 0 0 0 1.333h8.444a.667.667 0 0 0 0-1.333H3.778Zm0 3.555a.667.667 0 0 0 0 1.334h8.444a.667.667 0 0 0 0-1.334H3.778Zm0 3.556a.667.667 0 0 0 0 1.333h8.444a.667.667 0 0 0 0-1.333H3.778Z"/></svg>