<?xml version="1.0" encoding="UTF-8"?><svg id="a" xmlns="http://www.w3.org/2000/svg" viewBox="0 0 22 22"><path d="m5.67,1c-1.45,0-2.67,1.22-2.67,2.67v15.11c0,1.23,1,2.22,2.22,2.22h13.11c.35,0,.67-.32.67-.67V5.67c0-.39-.29-.67-.67-.67-.64,0-1.33-.69-1.33-1.33s.69-1.33,1.33-1.33c.35,0,.67-.31.67-.67s-.31-.67-.67-.67c0,0-12.67,0-12.67,0Zm0,1.33h10.37c-.23.39-.37.85-.37,1.33s.14.94.37,1.33H5.67c-.64,0-1.33-.69-1.33-1.33s.69-1.33,1.33-1.33Zm-1.33,3.63c.39.23.85.37,1.33.37h12v13.33H5.22c-.48,0-.88-.37-.89-.86,0-.01,0-.02,0-.03V5.97h0Zm2.44,2.81c-.37.01-.65.32-.64.69.01.35.29.63.64.64h8.44c.37-.01.65-.32.64-.69-.01-.35-.29-.63-.64-.64H6.78Zm0,3.56c-.37,0-.67.3-.67.67,0,.37.3.67.67.67h8.44c.37,0,.67-.3.67-.67,0-.37-.3-.67-.67-.67H6.78Zm0,3.56c-.37.01-.65.32-.64.69.01.35.29.63.64.64h8.44c.37-.01.65-.32.64-.69-.01-.35-.29-.63-.64-.64H6.78Z" fill-rule="evenodd" stroke-width="0"/></svg>