<?xml version="1.0" encoding="UTF-8" standalone="no"?>
<svg width="16px" height="21px" viewBox="0 0 16 21" version="1.1" xmlns="http://www.w3.org/2000/svg" xmlns:xlink="http://www.w3.org/1999/xlink">
    <!-- Generator: Sketch 39.1 (31720) - http://www.bohemiancoding.com/sketch -->
    <title>Slice 1</title>
    <desc>Created with Sketch.</desc>
    <defs></defs>
    <g id="Page-1" stroke="none" stroke-width="1" fill="none" fill-rule="evenodd">
        <path d="M2.66666667,5.21153877e-05 C1.21540741,5.21153877e-05 0,1.21545952 0,2.66671878 L0,17.7778299 C0,18.9976817 1.00237037,20.0000521 2.22222222,20.0000521 L15.3333333,20.0000521 C15.682963,20.0000521 16,19.6830151 16,19.3333854 L16,4.66671878 C15.9976296,4.27560767 15.7140741,3.99649656 15.3333333,4.00005212 C14.6921481,4.00005212 14,3.30790397 14,2.66671878 C14,2.0255336 14.6921481,1.33338545 15.3333333,1.33338545 C15.6853333,1.33812619 16,1.01871878 16,0.666718782 C16,0.314718782 15.6853333,-0.00468862535 15.3333333,5.21153877e-05 L2.66666667,5.21153877e-05 Z M2.66666667,1.33338545 L13.0346667,1.33338545 C12.8020741,1.72805212 12.6666667,2.18405212 12.6666667,2.66671878 C12.6666667,3.14938545 12.8020741,3.60538545 13.0346667,4.00005212 L2.66666667,4.00005212 C2.02548148,4.00005212 1.33333333,3.30790397 1.33333333,2.66671878 C1.33333333,2.0255336 2.02548148,1.33338545 2.66666667,1.33338545 Z M1.33333333,4.96538545 C1.72681481,5.19797804 2.18518519,5.33338545 2.66666667,5.33338545 L14.6666667,5.33338545 L14.6666667,18.6667188 L2.22222222,18.6667188 C1.71881481,18.6667188 1.33333333,18.2812373 1.33333333,17.7778299 L1.33333333,4.96538545 Z M3.77777778,7.77782989 C3.40977778,7.77782989 3.11111111,8.07649656 3.11111111,8.44449656 C3.11111111,8.81249656 3.40977778,9.11116323 3.77777778,9.11116323 L12.2222222,9.11116323 C12.5902222,9.11116323 12.8888889,8.81249656 12.8888889,8.44449656 C12.8888889,8.07649656 12.5902222,7.77782989 12.2222222,7.77782989 L3.77777778,7.77782989 Z M3.77777778,11.3333854 C3.40977778,11.3333854 3.11111111,11.6320521 3.11111111,12.0000521 C3.11111111,12.3680521 3.40977778,12.6667188 3.77777778,12.6667188 L12.2222222,12.6667188 C12.5902222,12.6667188 12.8888889,12.3680521 12.8888889,12.0000521 C12.8888889,11.6320521 12.5902222,11.3333854 12.2222222,11.3333854 L3.77777778,11.3333854 Z M3.77777778,14.888941 C3.40977778,14.888941 3.11111111,15.1876077 3.11111111,15.5556077 C3.11111111,15.9236077 3.40977778,16.2222743 3.77777778,16.2222743 L12.2222222,16.2222743 C12.5902222,16.2222743 12.8888889,15.9236077 12.8888889,15.5556077 C12.8888889,15.1876077 12.5902222,14.888941 12.2222222,14.888941 L3.77777778,14.888941 Z" fill="#7E8991"></path>
    </g>
</svg>