<svg xmlns="http://www.w3.org/2000/svg" width="23" height="23"><g fill="none" fill-rule="evenodd"><path stroke="#029DF7" stroke-width="1.5" d="M11.762 1.525A10.223 10.223 0 0 0 1.525 11.762 10.223 10.223 0 0 0 11.762 22 10.223 10.223 0 0 0 22 11.762 10.223 10.223 0 0 0 11.762 1.525Z"/><path fill="#029DF7" d="M11.762 17.45a1.224 1.224 0 0 1-1.228-1.229c0-.682.546-1.229 1.228-1.229.683 0 1.23.547 1.23 1.23 0 .682-.547 1.228-1.23 1.228Zm2.775-6.916a5.038 5.038 0 0 1-.455.524c-.113.113-.25.227-.41.41a3.808 3.808 0 0 0-.432.432 3.516 3.516 0 0 0-.296.319 1.485 1.485 0 0 0-.273.978v.706h-1.775v-.956a2.018 2.018 0 0 1 .16-.955c.182-.296.385-.568.66-.818l1.137-1.138c.25-.272.363-.614.363-.979a1.34 1.34 0 0 0-.386-.955 1.394 1.394 0 0 0-.979-.386 1.373 1.373 0 0 0-1 .364c-.273.25-.433.614-.456.979H8.484a3.222 3.222 0 0 1 1.092-2.184 3.492 3.492 0 0 1 2.344-.796 3.317 3.317 0 0 1 2.275.75c.591.5.887 1.23.887 2.14-.02.563-.203 1.132-.545 1.565Z"/></g></svg>