<?xml version="1.0" encoding="UTF-8"?><svg id="a" xmlns="http://www.w3.org/2000/svg" viewBox="0 0 22 22"><path d="m20.6,18.31l-4.01-4.01c2.44-3.37,2.15-8.11-.89-11.14-1.61-1.62-3.81-2.53-6.09-2.52-2.28,0-4.48.91-6.09,2.52-3.36,3.36-3.36,8.82,0,12.18,0,0,0,0,0,0,1.61,1.62,3.81,2.53,6.09,2.52,1.78,0,3.55-.55,5.05-1.64l4.01,4.01c.26.26.61.4.96.4.75,0,1.36-.61,1.36-1.36,0-.36-.14-.71-.4-.96h0Zm-15.73-4.32c-2.62-2.62-2.62-6.87,0-9.49,1.26-1.26,2.96-1.97,4.74-1.97,1.79,0,3.48.7,4.74,1.97,2.62,2.62,2.62,6.87,0,9.49-1.26,1.26-2.96,1.97-4.74,1.97-1.78,0-3.49-.7-4.74-1.97Z" fill-rule="evenodd" stroke-width="0"/></svg>