<svg xmlns="http://www.w3.org/2000/svg" width="20" height="20"><path fill="#029DF7" fill-rule="evenodd" d="m19.602 17.679-4.014-4.013c2.445-3.368 2.151-8.107-.886-11.143A8.585 8.585 0 0 0 8.612 0a8.585 8.585 0 0 0-6.09 2.523 8.613 8.613 0 0 0 0 12.181 8.587 8.587 0 0 0 6.09 2.523c1.776 0 3.55-.546 5.053-1.638l4.013 4.013c.265.265.613.398.962.398a1.36 1.36 0 0 0 .962-2.322ZM3.869 13.357a6.717 6.717 0 0 1 0-9.489 6.665 6.665 0 0 1 4.744-1.965c1.792 0 3.477.698 4.744 1.965a6.717 6.717 0 0 1 0 9.489 6.667 6.667 0 0 1-4.744 1.965 6.664 6.664 0 0 1-4.744-1.965Z"/></svg>