<?xml version="1.0" encoding="UTF-8" standalone="no"?>
<svg width="23px" height="23px" viewBox="0 0 23 23" version="1.1" xmlns="http://www.w3.org/2000/svg" xmlns:xlink="http://www.w3.org/1999/xlink">
    <!-- Generator: Sketch 39.1 (31720) - http://www.bohemiancoding.com/sketch -->
    <title>Group</title>
    <desc>Created with Sketch.</desc>
    <defs></defs>
    <g id="Page-1" stroke="none" stroke-width="1" fill="none" fill-rule="evenodd">
        <g id="Group" transform="translate(1.000000, 1.000000)">
            <path d="M10.7625,0.525 C5.09744667,0.525 0.525,5.09744667 0.525,10.7625 C0.525,16.4275533 5.09744667,21 10.7625,21 C16.4275533,21 21,16.4275533 21,10.7625 C21,5.09744667 16.4275533,0.525 10.7625,0.525 Z" id="Path" stroke="#7E8991" stroke-width="1.5"></path>
            <path d="M10.7625,16.45 C10.08,16.45 9.53369667,15.9036967 9.53369667,15.2211967 C9.53369667,14.5386967 10.08,13.9923933 10.7625,13.9923933 L10.7625,13.9923933 C11.445,13.9923933 11.9913033,14.5386967 11.9913033,15.2211967 C11.9913033,15.9036967 11.445,16.45 10.7625,16.45 Z M13.5373933,9.53369667 C13.4011967,9.71630333 13.24134,9.89739333 13.0823933,10.0575533 C12.9686433,10.1713033 12.8324467,10.2850533 12.67259,10.4673567 C12.4899833,10.6263033 12.3537867,10.7637133 12.2400367,10.89991 C12.1262867,11.01366 12.0125367,11.12741 11.9439833,11.2187133 C11.73893,11.4911067 11.6476267,11.8560167 11.6712867,12.1972667 L11.6712867,12.9025167 L9.89648333,12.9025167 L9.89648333,11.94732 C9.87373333,11.6285167 9.91893,11.3100167 10.0551267,10.9924267 C10.2377333,10.69607 10.44127,10.4236767 10.71518,10.17373 L11.85268,9.03623 C12.1026267,8.76353333 12.2163767,8.42228333 12.2163767,8.05737333 C12.2163767,7.69367667 12.08018,7.35242667 11.8302333,7.10248 C11.5799833,6.85223 11.2162867,6.71603333 10.8513767,6.71603333 C10.48768,6.69358667 10.1239833,6.82978333 9.85007333,7.07973 C9.57768,7.32998 9.41752,7.69367667 9.39507333,8.05858667 L7.48377,8.05858667 C7.55262667,7.21714 7.93877,6.42119333 8.57637667,5.87489 C9.23643,5.32858667 10.0551267,5.05619333 10.9202333,5.07864 C11.73893,5.03344333 12.5576267,5.30614 13.1952333,5.82969333 C13.78643,6.32989 14.0824833,7.05849667 14.0824833,7.96849667 C14.06125,8.53239333 13.8786433,9.10114333 13.5373933,9.53369667 Z" id="Page-1" fill="#7E8991"></path>
        </g>
    </g>
</svg>