<?xml version="1.0" encoding="utf-8"?>
<!-- Generator: Adobe Illustrator 28.1.0, SVG Export Plug-In . SVG Version: 6.00 Build 0)  -->
<svg version="1.1" id="Layer_1" xmlns="http://www.w3.org/2000/svg" xmlns:xlink="http://www.w3.org/1999/xlink" x="0px" y="0px"
	 viewBox="0 0 200 80" style="enable-background:new 0 0 200 80;" xml:space="preserve">
<polygon points="16.67,23.67 16.67,56.02 31.93,56.02 31.93,29.73 "/>
<polygon points="33.76,29.73 33.76,56.02 49.02,56.02 49.02,23.67 "/>
<polygon points="116.89,37.39 111.18,37.39 111.18,32.21 105.62,32.21 105.62,47.62 111.18,47.62 111.18,41.99 116.89,41.99 
	116.89,47.62 122.45,47.62 122.45,32.21 116.89,32.21 "/>
<path d="M132.67,41.27l1.79-4.92l1.77,4.92H132.67z M131.2,32.21l-6.38,15.41h5.6l0.8-2.26h6.44l0.82,2.26h5.73l-6.38-15.41H131.2z"
	/>
<path d="M156.02,38.71c-0.56,0.28-1.19,0.4-1.81,0.35h-2.67v-2.98h2.72c0.61-0.05,1.22,0.07,1.76,0.33
	c0.18,0.12,0.32,0.29,0.41,0.49s0.13,0.41,0.11,0.63c0.02,0.23-0.01,0.45-0.1,0.66C156.35,38.4,156.2,38.58,156.02,38.71z
	 M161.18,40.13c0.44-0.81,0.65-1.72,0.62-2.63c0-3.52-2.42-5.29-7.26-5.29h-8.16v15.41h5.17v-4.7h2.65l2.78,4.7h5.34l-3.09-5.76
	C160.03,41.49,160.71,40.89,161.18,40.13z"/>
<path d="M171.81,41.27l1.79-4.92l1.76,4.92H171.81z M176.98,32.21h-6.68l-6.35,15.41h5.6l0.8-2.26h6.44l0.82,2.26h5.73L176.98,32.21
	z"/>
<polygon points="71.4,41.56 67.42,32.21 61.23,32.21 61.23,47.62 66.21,47.62 66.21,40.11 69.31,47.62 73.3,47.62 76.4,40.11 
	76.4,47.62 81.48,47.62 81.48,32.21 75.38,32.21 "/>
<path d="M93.51,43.8c-0.81,0.01-1.61-0.22-2.29-0.67s-1.21-1.08-1.53-1.83c-0.32-0.75-0.4-1.58-0.25-2.38
	c0.15-0.8,0.54-1.53,1.11-2.11c0.57-0.58,1.3-0.97,2.1-1.13s1.62-0.08,2.37,0.23s1.39,0.84,1.84,1.52s0.69,1.47,0.68,2.29
	c-0.01,1.08-0.44,2.12-1.21,2.88c-0.77,0.76-1.8,1.19-2.88,1.19H93.51z M98.52,32.55c-1.58-0.67-3.29-0.99-5.01-0.94
	c-1.76-0.05-3.51,0.29-5.13,0.98c-1.33,0.58-2.46,1.55-3.24,2.79c-0.73,1.33-1.11,2.83-1.11,4.35c0.01,1.52,0.4,3.02,1.14,4.34
	c0.77,1.24,1.9,2.21,3.24,2.79c1.57,0.66,3.26,0.98,4.96,0.94c1.76,0.05,3.52-0.29,5.14-0.98c1.34-0.58,2.47-1.55,3.24-2.79
	c0.73-1.33,1.11-2.83,1.11-4.35c-0.01-1.52-0.4-3.02-1.14-4.35C100.96,34.1,99.84,33.13,98.52,32.55z"/>
</svg>
