<svg xmlns="http://www.w3.org/2000/svg" xmlns:xlink="http://www.w3.org/1999/xlink" version="1.1" style="shape-rendering:geometricPrecision; text-rendering:geometricPrecision; image-rendering:optimizeQuality; fill-rule:evenodd; clip-rule:evenodd" viewBox="673.5 877.26 2918 2511.67">
    <g><path style="opacity:0.996" fill="#41afae" d="M 1772.5,877.5 C 1880.45,873.542 1961.95,917.542 2017,1009.5C 2054.25,1083.12 2057.25,1158.12 2026,1234.5C 1993.06,1304.77 1939.56,1351.6 1865.5,1375C 1770.16,1399.25 1686.5,1378.25 1614.5,1312C 1547.45,1240.64 1525.61,1157.14 1549,1061.5C 1572.77,983.732 1621.93,928.565 1696.5,896C 1721.13,886.343 1746.46,880.176 1772.5,877.5 Z"/></g>
    <g><path style="opacity:0.995" fill="#7ed6d2" d="M 2594.5,1152.5 C 2669.24,1152.6 2725.4,1184.6 2763,1248.5C 2792.32,1308.01 2791.32,1367.01 2760,1425.5C 2719.03,1489.9 2660.2,1519.74 2583.5,1515C 2515.1,1505.4 2465.93,1469.56 2436,1407.5C 2409.32,1338.93 2418.32,1275.59 2463,1217.5C 2497.73,1177.55 2541.56,1155.89 2594.5,1152.5 Z"/></g>
    <g><path style="opacity:0.996" fill="#41afaf" d="M 2122.5,1627.5 C 2064.03,1686.47 2005.37,1745.3 1946.5,1804C 1952.1,1809.09 1957.1,1814.59 1961.5,1820.5C 1939.98,1798.81 1917.98,1777.64 1895.5,1757C 1821.06,1701.05 1738.73,1685.38 1648.5,1710C 1547.89,1744.39 1486.39,1813.56 1464,1917.5C 1450.41,2002.5 1471.08,2077.83 1526,2143.5C 1588.74,2210.98 1666.24,2240.48 1758.5,2232C 1815.33,2225.08 1865,2202.74 1907.5,2165C 1957.37,2114.97 2007.37,2065.13 2057.5,2015.5C 2115.25,2074.75 2173.58,2133.58 2232.5,2192C 2233.09,2192.46 2233.76,2192.63 2234.5,2192.5C 2178.98,2249.19 2122.65,2305.02 2065.5,2360C 1945.71,2458.63 1808.38,2498.3 1653.5,2479C 1496.34,2453.73 1374.51,2374.9 1288,2242.5C 1214.58,2120.66 1192.58,1990 1222,1850.5C 1257.29,1705.63 1338.46,1594.8 1465.5,1518C 1597.55,1444.77 1736.22,1429.1 1881.5,1471C 1963.13,1496.62 2034.13,1539.29 2094.5,1599C 2104.04,1608.37 2113.37,1617.87 2122.5,1627.5 Z"/></g>
    <g><path style="opacity:0.996" fill="#7dd5d2" d="M 2355.5,2214.5 C 2360.11,2217.77 2364.44,2221.43 2368.5,2225.5C 2370.46,2227.96 2372.63,2230.3 2375,2232.5C 2433.7,2173.63 2492.53,2114.97 2551.5,2056.5C 2594.07,2103.29 2646.07,2118.46 2707.5,2102C 2770.02,2078.34 2803.02,2033.01 2806.5,1966C 2803.77,1905 2775.1,1861.33 2720.5,1835C 2666.22,1814.2 2616.22,1821.53 2570.5,1857C 2534.83,1892.67 2499.17,1928.33 2463.5,1964C 2462.55,1964.48 2461.55,1964.65 2460.5,1964.5C 2460.5,1963.83 2460.17,1963.5 2459.5,1963.5C 2459.5,1962.83 2459.17,1962.5 2458.5,1962.5C 2458.5,1961.83 2458.17,1961.5 2457.5,1961.5C 2457.5,1960.83 2457.17,1960.5 2456.5,1960.5C 2456.5,1959.83 2456.17,1959.5 2455.5,1959.5C 2455.5,1958.83 2455.17,1958.5 2454.5,1958.5C 2454.5,1957.83 2454.17,1957.5 2453.5,1957.5C 2453.5,1956.83 2453.17,1956.5 2452.5,1956.5C 2452.5,1955.83 2452.17,1955.5 2451.5,1955.5C 2451.5,1954.83 2451.17,1954.5 2450.5,1954.5C 2450.5,1953.83 2450.17,1953.5 2449.5,1953.5C 2449.5,1952.83 2449.17,1952.5 2448.5,1952.5C 2448.5,1951.83 2448.17,1951.5 2447.5,1951.5C 2447.5,1950.83 2447.17,1950.5 2446.5,1950.5C 2446.5,1949.83 2446.17,1949.5 2445.5,1949.5C 2445.5,1948.83 2445.17,1948.5 2444.5,1948.5C 2444.5,1947.83 2444.17,1947.5 2443.5,1947.5C 2443.5,1946.83 2443.17,1946.5 2442.5,1946.5C 2442.5,1945.83 2442.17,1945.5 2441.5,1945.5C 2441.5,1944.83 2441.17,1944.5 2440.5,1944.5C 2440.5,1943.83 2440.17,1943.5 2439.5,1943.5C 2439.5,1942.83 2439.17,1942.5 2438.5,1942.5C 2430.17,1934.5 2421.83,1926.5 2413.5,1918.5C 2405.83,1910.17 2397.83,1902.17 2389.5,1894.5C 2380.17,1884.5 2370.5,1874.83 2360.5,1865.5C 2352.5,1856.83 2344.17,1848.5 2335.5,1840.5C 2328.5,1832.83 2321.17,1825.5 2313.5,1818.5C 2303.83,1808.5 2294.17,1798.5 2284.5,1788.5C 2326.02,1745.81 2368.36,1703.98 2411.5,1663C 2512.44,1583.69 2626.11,1557.02 2752.5,1583C 2876.18,1614.06 2965.68,1686.89 3021,1801.5C 3067.96,1910.36 3068.29,2019.36 3022,2128.5C 2969.29,2239.53 2883.79,2312.03 2765.5,2346C 2644.3,2375.42 2532.63,2354.75 2430.5,2284C 2403.5,2263.17 2378.5,2240.01 2355.5,2214.5 Z"/></g>
    <g><path style="opacity:0.998" fill="#47b3b2" d="M 2122.5,1627.5 C 2138.17,1642.5 2153.5,1657.83 2168.5,1673.5C 2110.03,1732.47 2051.37,1791.3 1992.5,1850C 1994.04,1851.71 1995.7,1853.21 1997.5,1854.5C 1997.5,1855.17 1997.5,1855.83 1997.5,1856.5C 1985.17,1844.83 1973.17,1832.83 1961.5,1820.5C 1957.1,1814.59 1952.1,1809.09 1946.5,1804C 2005.37,1745.3 2064.03,1686.47 2122.5,1627.5 Z"/></g>
    <g><path style="opacity:0.998" fill="#4bb5b4" d="M 2168.5,1673.5 C 2170.5,1674.83 2172.17,1676.5 2173.5,1678.5C 2115.17,1737.5 2056.5,1796.17 1997.5,1854.5C 1995.7,1853.21 1994.04,1851.71 1992.5,1850C 2051.37,1791.3 2110.03,1732.47 2168.5,1673.5 Z"/></g>
    <g><path style="opacity:0.997" fill="#4bb5b4" d="M 2173.5,1678.5 C 2176.17,1680.5 2178.5,1682.83 2180.5,1685.5C 2121.5,1744.17 2062.5,1802.83 2003.5,1861.5C 2001.5,1859.83 1999.5,1858.17 1997.5,1856.5C 1997.5,1855.83 1997.5,1855.17 1997.5,1854.5C 2056.5,1796.17 2115.17,1737.5 2173.5,1678.5 Z"/></g>
    <g><path style="opacity:0.997" fill="#4eb7b7" d="M 2180.5,1685.5 C 2194.83,1699.17 2208.83,1713.17 2222.5,1727.5C 2163.5,1786.17 2104.5,1844.83 2045.5,1903.5C 2031.17,1889.83 2017.17,1875.83 2003.5,1861.5C 2062.5,1802.83 2121.5,1744.17 2180.5,1685.5 Z"/></g>
    <g><path style="opacity:0.997" fill="#53bab9" d="M 2222.5,1727.5 C 2230.5,1734.83 2238.17,1742.5 2245.5,1750.5C 2186.83,1809.5 2128.17,1868.5 2069.5,1927.5C 2061.17,1919.83 2053.17,1911.83 2045.5,1903.5C 2104.5,1844.83 2163.5,1786.17 2222.5,1727.5 Z"/></g>
    <g><path style="opacity:0.997" fill="#55bcbb" d="M 2245.5,1750.5 C 2253.5,1757.83 2261.17,1765.5 2268.5,1773.5C 2209.5,1832.17 2150.5,1890.83 2091.5,1949.5C 2083.83,1942.5 2076.5,1935.17 2069.5,1927.5C 2128.17,1868.5 2186.83,1809.5 2245.5,1750.5 Z"/></g>
    <g><path style="opacity:0.999" fill="#5abfbe" d="M 2268.5,1773.5 C 2273.83,1778.5 2279.17,1783.5 2284.5,1788.5C 2294.17,1798.5 2303.83,1808.5 2313.5,1818.5C 2255.92,1877.58 2197.75,1936.25 2139,1994.5C 2138.54,1995.09 2138.37,1995.76 2138.5,1996.5C 2128.17,1986.5 2117.83,1976.5 2107.5,1966.5C 2107.17,1966.5 2106.83,1966.5 2106.5,1966.5C 2101.89,1960.56 2096.89,1954.89 2091.5,1949.5C 2150.5,1890.83 2209.5,1832.17 2268.5,1773.5 Z"/></g>
    <g><path style="opacity:1" fill="#5ec2c0" d="M 2313.5,1818.5 C 2321.17,1825.5 2328.5,1832.83 2335.5,1840.5C 2276.83,1899.5 2218.17,1958.5 2159.5,2017.5C 2152.17,2010.83 2145.17,2003.83 2138.5,1996.5C 2138.37,1995.76 2138.54,1995.09 2139,1994.5C 2197.75,1936.25 2255.92,1877.58 2313.5,1818.5 Z"/></g>
    <g><path style="opacity:0.999" fill="#61c3c2" d="M 2335.5,1840.5 C 2344.17,1848.5 2352.5,1856.83 2360.5,1865.5C 2301.12,1923.88 2242.45,1982.88 2184.5,2042.5C 2175.83,2034.5 2167.5,2026.17 2159.5,2017.5C 2218.17,1958.5 2276.83,1899.5 2335.5,1840.5 Z"/></g>
    <g><path style="opacity:0.998" fill="#65c6c4" d="M 2360.5,1865.5 C 2370.5,1874.83 2380.17,1884.5 2389.5,1894.5C 2330.12,1952.88 2271.45,2011.88 2213.5,2071.5C 2203.5,2062.17 2193.83,2052.5 2184.5,2042.5C 2242.45,1982.88 2301.12,1923.88 2360.5,1865.5 Z"/></g>
    <g><path style="opacity:0.998" fill="#68c8c6" d="M 2389.5,1894.5 C 2397.83,1902.17 2405.83,1910.17 2413.5,1918.5C 2354.83,1977.5 2296.17,2036.5 2237.5,2095.5C 2229.17,2087.83 2221.17,2079.83 2213.5,2071.5C 2271.45,2011.88 2330.12,1952.88 2389.5,1894.5 Z"/></g>
    <g><path style="opacity:0.998" fill="#6dcbc9" d="M 2413.5,1918.5 C 2421.83,1926.5 2430.17,1934.5 2438.5,1942.5C 2439.17,1942.5 2439.5,1942.83 2439.5,1943.5C 2440.17,1943.5 2440.5,1943.83 2440.5,1944.5C 2441.17,1944.5 2441.5,1944.83 2441.5,1945.5C 2442.17,1945.5 2442.5,1945.83 2442.5,1946.5C 2443.17,1946.5 2443.5,1946.83 2443.5,1947.5C 2444.17,1947.5 2444.5,1947.83 2444.5,1948.5C 2445.17,1948.5 2445.5,1948.83 2445.5,1949.5C 2446.17,1949.5 2446.5,1949.83 2446.5,1950.5C 2447.17,1950.5 2447.5,1950.83 2447.5,1951.5C 2448.17,1951.5 2448.5,1951.83 2448.5,1952.5C 2449.17,1952.5 2449.5,1952.83 2449.5,1953.5C 2450.17,1953.5 2450.5,1953.83 2450.5,1954.5C 2451.17,1954.5 2451.5,1954.83 2451.5,1955.5C 2452.17,1955.5 2452.5,1955.83 2452.5,1956.5C 2453.17,1956.5 2453.5,1956.83 2453.5,1957.5C 2454.17,1957.5 2454.5,1957.83 2454.5,1958.5C 2455.17,1958.5 2455.5,1958.83 2455.5,1959.5C 2456.17,1959.5 2456.5,1959.83 2456.5,1960.5C 2457.17,1960.5 2457.5,1960.83 2457.5,1961.5C 2458.17,1961.5 2458.5,1961.83 2458.5,1962.5C 2459.17,1962.5 2459.5,1962.83 2459.5,1963.5C 2459.5,1963.83 2459.5,1964.17 2459.5,1964.5C 2400.83,2023.5 2342.17,2082.5 2283.5,2141.5C 2267.83,2126.5 2252.5,2111.17 2237.5,2095.5C 2296.17,2036.5 2354.83,1977.5 2413.5,1918.5 Z"/></g>
    <g><path style="opacity:0.997" fill="#71cdcb" d="M 2459.5,1964.5 C 2459.83,1964.5 2460.17,1964.5 2460.5,1964.5C 2464.83,1969.17 2469.17,1973.83 2473.5,1978.5C 2414.5,2037.17 2355.5,2095.83 2296.5,2154.5C 2292.44,2150.43 2288.11,2146.77 2283.5,2143.5C 2283.5,2142.83 2283.5,2142.17 2283.5,2141.5C 2342.17,2082.5 2400.83,2023.5 2459.5,1964.5 Z"/></g>
    <g><path style="opacity:1" fill="#117878" d="M 2107.5,1966.5 C 2117.83,1976.5 2128.17,1986.5 2138.5,1996.5C 2145.17,2003.83 2152.17,2010.83 2159.5,2017.5C 2167.5,2026.17 2175.83,2034.5 2184.5,2042.5C 2193.83,2052.5 2203.5,2062.17 2213.5,2071.5C 2221.17,2079.83 2229.17,2087.83 2237.5,2095.5C 2252.5,2111.17 2267.83,2126.5 2283.5,2141.5C 2283.5,2142.17 2283.5,2142.83 2283.5,2143.5C 2267.5,2160.17 2251.17,2176.5 2234.5,2192.5C 2233.76,2192.63 2233.09,2192.46 2232.5,2192C 2173.58,2133.58 2115.25,2074.75 2057.5,2015.5C 2074.78,1999.89 2091.45,1983.55 2107.5,1966.5 Z"/></g>
    <g><path style="opacity:0.997" fill="#74cfcd" d="M 2473.5,1978.5 C 2484.5,1988.83 2495.17,1999.5 2505.5,2010.5C 2446.53,2068.97 2387.7,2127.63 2329,2186.5C 2326.56,2183.55 2323.73,2181.22 2320.5,2179.5C 2312.5,2171.17 2304.5,2162.83 2296.5,2154.5C 2355.5,2095.83 2414.5,2037.17 2473.5,1978.5 Z"/></g>
    <g><path style="opacity:0.996" fill="#238c8c" d="M 2106.5,1966.5 C 2106.83,1966.5 2107.17,1966.5 2107.5,1966.5C 2091.45,1983.55 2074.78,1999.89 2057.5,2015.5C 2073.5,1998.83 2089.83,1982.5 2106.5,1966.5 Z"/></g>
    <g><path style="opacity:0.998" fill="#79d2d0" d="M 2505.5,2010.5 C 2518.83,2023.17 2531.83,2036.17 2544.5,2049.5C 2486.17,2108.5 2427.5,2167.17 2368.5,2225.5C 2364.44,2221.43 2360.11,2217.77 2355.5,2214.5C 2343.5,2203.17 2331.83,2191.5 2320.5,2179.5C 2323.73,2181.22 2326.56,2183.55 2329,2186.5C 2387.7,2127.63 2446.53,2068.97 2505.5,2010.5 Z"/></g>
    <g><path style="opacity:0.998" fill="#7cd5d1" d="M 2544.5,2049.5 C 2547.17,2051.5 2549.5,2053.83 2551.5,2056.5C 2492.53,2114.97 2433.7,2173.63 2375,2232.5C 2372.63,2230.3 2370.46,2227.96 2368.5,2225.5C 2427.5,2167.17 2486.17,2108.5 2544.5,2049.5 Z"/></g>
    <g><path style="opacity:0.984" fill="#fefffe" d="M 733.5,2723.5 C 743.839,2723.33 754.172,2723.5 764.5,2724C 799.295,2729.8 818.795,2750.3 823,2785.5C 824.32,2802.81 824.82,2820.14 824.5,2837.5C 808.167,2837.5 791.833,2837.5 775.5,2837.5C 775.667,2823.16 775.5,2808.83 775,2794.5C 771.832,2773.7 759.999,2766.2 739.5,2772C 731.101,2776.62 726.601,2783.78 726,2793.5C 725.333,2857.5 725.333,2921.5 726,2985.5C 728.453,3002.49 738.286,3009.99 755.5,3008C 767.78,3005.05 774.28,2997.21 775,2984.5C 775.5,2966.17 775.667,2947.84 775.5,2929.5C 791.833,2929.5 808.167,2929.5 824.5,2929.5C 824.667,2946.84 824.5,2964.17 824,2981.5C 821.8,3029.37 796.8,3054.03 749,3055.5C 711.498,3056.45 687.498,3039.12 677,3003.5C 675.275,2994.35 674.109,2985.19 673.5,2976C 674.019,2910.54 674.853,2845.04 676,2779.5C 682.262,2747.4 701.429,2728.74 733.5,2723.5 Z"/></g>
    <g><path style="opacity:0.99" fill="#fefffe" d="M 923.5,2723.5 C 936.213,2723.13 948.88,2723.63 961.5,2725C 994.293,2733.47 1012.46,2754.64 1016,2788.5C 1016.67,2855.83 1016.67,2923.17 1016,2990.5C 1010.86,3029.64 988.691,3051.14 949.5,3055C 928.306,3057.3 908.64,3052.96 890.5,3042C 873.864,3028.57 864.697,3011.07 863,2989.5C 862.333,2922.83 862.333,2856.17 863,2789.5C 867.141,2752.54 887.308,2730.54 923.5,2723.5 Z M 931.5,2770.5 C 951.432,2767.28 962.598,2775.61 965,2795.5C 965.667,2858.17 965.667,2920.83 965,2983.5C 961.235,3005.14 948.735,3012.64 927.5,3006C 918.746,3000.34 914.246,2992.17 914,2981.5C 913.333,2919.83 913.333,2858.17 914,2796.5C 914.165,2783.79 919.998,2775.13 931.5,2770.5 Z"/></g>
    <g><path style="opacity:0.984" fill="#fefffe" d="M 1061.5,2727.5 C 1086.23,2726.85 1110.73,2727.52 1135,2729.5C 1145.5,2805.52 1156.17,2881.52 1167,2957.5C 1177.57,2881.15 1188.24,2804.82 1199,2728.5C 1223.43,2727.51 1247.93,2727.17 1272.5,2727.5C 1272.5,2835.17 1272.5,2942.83 1272.5,3050.5C 1256.17,3050.5 1239.83,3050.5 1223.5,3050.5C 1223.67,2970.5 1223.5,2890.5 1223,2810.5C 1211,2889.83 1199,2969.17 1187,3048.5C 1179.9,3049.81 1172.57,3050.48 1165,3050.5C 1157.43,3050.48 1150.1,3049.81 1143,3048.5C 1131.09,2968.82 1119.09,2889.15 1107,2809.5C 1106.5,2889.83 1106.33,2970.17 1106.5,3050.5C 1091.5,3050.5 1076.5,3050.5 1061.5,3050.5C 1061.5,2942.83 1061.5,2835.17 1061.5,2727.5 Z"/></g>
    <g><path style="opacity:0.981" fill="#fefffe" d="M 1320.5,2727.5 C 1345.07,2727.17 1369.57,2727.51 1394,2728.5C 1404.57,2804.85 1415.24,2881.18 1426,2957.5C 1436.76,2881.18 1447.43,2804.85 1458,2728.5C 1482.43,2727.51 1506.93,2727.17 1531.5,2727.5C 1531.5,2835.17 1531.5,2942.83 1531.5,3050.5C 1515.17,3050.5 1498.83,3050.5 1482.5,3050.5C 1482.67,2970.83 1482.5,2891.17 1482,2811.5C 1470,2890.83 1458,2970.17 1446,3049.5C 1431.58,3050.49 1417.08,3050.82 1402.5,3050.5C 1390.34,2970.18 1378.17,2889.85 1366,2809.5C 1365.5,2889.83 1365.33,2970.17 1365.5,3050.5C 1350.5,3050.5 1335.5,3050.5 1320.5,3050.5C 1320.5,2942.83 1320.5,2835.17 1320.5,2727.5 Z"/></g>
    <g><path style="opacity:0.979" fill="#fefffe" d="M 1577.5,2727.5 C 1594.83,2727.5 1612.17,2727.5 1629.5,2727.5C 1629.33,2813.5 1629.5,2899.5 1630,2985.5C 1633.67,3004.1 1644.84,3011.26 1663.5,3007C 1672.53,3004.12 1677.7,2997.96 1679,2988.5C 1679.5,2901.5 1679.67,2814.5 1679.5,2727.5C 1696.17,2727.5 1712.83,2727.5 1729.5,2727.5C 1729.67,2814.83 1729.5,2902.17 1729,2989.5C 1722.98,3033.35 1697.82,3055.35 1653.5,3055.5C 1605.46,3054.29 1580.29,3029.62 1578,2981.5C 1577.5,2896.83 1577.33,2812.17 1577.5,2727.5 Z"/></g>
    <g><path style="opacity:0.985" fill="#fefffe" d="M 1776.5,2727.5 C 1798.08,2727.17 1819.58,2727.51 1841,2728.5C 1857,2791.17 1873,2853.83 1889,2916.5C 1889.5,2853.5 1889.67,2790.5 1889.5,2727.5C 1904.83,2727.5 1920.17,2727.5 1935.5,2727.5C 1935.5,2835.17 1935.5,2942.83 1935.5,3050.5C 1917.83,3050.5 1900.17,3050.5 1882.5,3050.5C 1862.98,2973.1 1843.15,2895.77 1823,2818.5C 1822.5,2895.83 1822.33,2973.17 1822.5,3050.5C 1807.17,3050.5 1791.83,3050.5 1776.5,3050.5C 1776.5,2942.83 1776.5,2835.17 1776.5,2727.5 Z"/></g>
    <g><path style="opacity:0.998" fill="#fefffe" d="M 1984.5,2727.5 C 2001.5,2727.5 2018.5,2727.5 2035.5,2727.5C 2035.5,2835.17 2035.5,2942.83 2035.5,3050.5C 2018.5,3050.5 2001.5,3050.5 1984.5,3050.5C 1984.5,2942.83 1984.5,2835.17 1984.5,2727.5 Z"/></g>
    <g><path style="opacity:0.977" fill="#fefffe" d="M 2070.5,2727.5 C 2123.17,2727.5 2175.83,2727.5 2228.5,2727.5C 2228.5,2743.17 2228.5,2758.83 2228.5,2774.5C 2210.83,2774.5 2193.17,2774.5 2175.5,2774.5C 2175.5,2866.5 2175.5,2958.5 2175.5,3050.5C 2158.17,3050.5 2140.83,3050.5 2123.5,3050.5C 2123.5,2958.5 2123.5,2866.5 2123.5,2774.5C 2105.83,2774.5 2088.17,2774.5 2070.5,2774.5C 2070.5,2758.83 2070.5,2743.17 2070.5,2727.5 Z"/></g>
    <g><path style="opacity:0.984" fill="#fefffe" d="M 2250.5,2727.5 C 2268.83,2727.5 2287.17,2727.5 2305.5,2727.5C 2316.51,2766.52 2327.67,2805.52 2339,2844.5C 2351.27,2805.77 2362.77,2766.77 2373.5,2727.5C 2390.51,2727.17 2407.51,2727.5 2424.5,2728.5C 2403.7,2790.07 2383.2,2851.73 2363,2913.5C 2362.5,2959.17 2362.33,3004.83 2362.5,3050.5C 2345.5,3050.5 2328.5,3050.5 2311.5,3050.5C 2311.67,3004.5 2311.5,2958.5 2311,2912.5C 2290.52,2850.9 2270.36,2789.24 2250.5,2727.5 Z"/></g>
    <g><path style="opacity:0.979" fill="#fefffe" d="M 2542.5,2727.5 C 2559.83,2727.5 2577.17,2727.5 2594.5,2727.5C 2594.5,2771.17 2594.5,2814.83 2594.5,2858.5C 2612.17,2858.5 2629.83,2858.5 2647.5,2858.5C 2647.5,2814.83 2647.5,2771.17 2647.5,2727.5C 2664.83,2727.5 2682.17,2727.5 2699.5,2727.5C 2699.5,2835.17 2699.5,2942.83 2699.5,3050.5C 2682.17,3050.5 2664.83,3050.5 2647.5,3050.5C 2647.5,3002.17 2647.5,2953.83 2647.5,2905.5C 2629.83,2905.5 2612.17,2905.5 2594.5,2905.5C 2594.5,2953.83 2594.5,3002.17 2594.5,3050.5C 2577.17,3050.5 2559.83,3050.5 2542.5,3050.5C 2542.5,2942.83 2542.5,2835.17 2542.5,2727.5 Z"/></g>
    <g><path style="opacity:0.982" fill="#fefffe" d="M 2747.5,2727.5 C 2793.83,2727.5 2840.17,2727.5 2886.5,2727.5C 2886.5,2743.17 2886.5,2758.83 2886.5,2774.5C 2857.5,2774.5 2828.5,2774.5 2799.5,2774.5C 2799.5,2802.5 2799.5,2830.5 2799.5,2858.5C 2822.5,2858.5 2845.5,2858.5 2868.5,2858.5C 2868.5,2874.17 2868.5,2889.83 2868.5,2905.5C 2845.5,2905.5 2822.5,2905.5 2799.5,2905.5C 2799.5,2938.17 2799.5,2970.83 2799.5,3003.5C 2828.5,3003.5 2857.5,3003.5 2886.5,3003.5C 2886.5,3019.17 2886.5,3034.83 2886.5,3050.5C 2840.17,3050.5 2793.83,3050.5 2747.5,3050.5C 2747.5,2942.83 2747.5,2835.17 2747.5,2727.5 Z"/></g>
    <g><path style="opacity:0.984" fill="#fefffe" d="M 2965.5,2727.5 C 2988.74,2727.17 3011.91,2727.51 3035,2728.5C 3052.39,2835.86 3069.89,2943.2 3087.5,3050.5C 3070.17,3050.5 3052.83,3050.5 3035.5,3050.5C 3032.59,3029.48 3029.59,3008.48 3026.5,2987.5C 3007.5,2987.5 2988.5,2987.5 2969.5,2987.5C 2966.9,3008.19 2964.07,3028.85 2961,3049.5C 2944.9,3050.82 2928.73,3050.82 2912.5,3049.5C 2930.17,2942.16 2947.83,2834.83 2965.5,2727.5 Z M 2997.5,2785.5 C 3005.52,2837.98 3013.19,2890.65 3020.5,2943.5C 3005.83,2943.5 2991.17,2943.5 2976.5,2943.5C 2983.5,2890.83 2990.5,2838.17 2997.5,2785.5 Z"/></g>
    <g><path style="opacity:0.995" fill="#fefffe" d="M 3122.5,2727.5 C 3139.5,2727.5 3156.5,2727.5 3173.5,2727.5C 3173.5,2819.5 3173.5,2911.5 3173.5,3003.5C 3201.5,3003.5 3229.5,3003.5 3257.5,3003.5C 3257.5,3019.17 3257.5,3034.83 3257.5,3050.5C 3212.5,3050.5 3167.5,3050.5 3122.5,3050.5C 3122.5,2942.83 3122.5,2835.17 3122.5,2727.5 Z"/></g>
    <g><path style="opacity:0.979" fill="#fefffe" d="M 3242.5,2727.5 C 3295.17,2727.5 3347.83,2727.5 3400.5,2727.5C 3400.5,2743.17 3400.5,2758.83 3400.5,2774.5C 3382.83,2774.5 3365.17,2774.5 3347.5,2774.5C 3347.5,2866.5 3347.5,2958.5 3347.5,3050.5C 3330.17,3050.5 3312.83,3050.5 3295.5,3050.5C 3295.5,2958.5 3295.5,2866.5 3295.5,2774.5C 3277.83,2774.5 3260.17,2774.5 3242.5,2774.5C 3242.5,2758.83 3242.5,2743.17 3242.5,2727.5 Z"/></g>
    <g><path style="opacity:0.993" fill="#fefffe" d="M 3435.5,2727.5 C 3452.5,2727.5 3469.5,2727.5 3486.5,2727.5C 3486.5,2771.17 3486.5,2814.83 3486.5,2858.5C 3504.5,2858.5 3522.5,2858.5 3540.5,2858.5C 3540.5,2814.83 3540.5,2771.17 3540.5,2727.5C 3557.5,2727.5 3574.5,2727.5 3591.5,2727.5C 3591.5,2835.17 3591.5,2942.83 3591.5,3050.5C 3574.5,3050.5 3557.5,3050.5 3540.5,3050.5C 3540.5,3002.17 3540.5,2953.83 3540.5,2905.5C 3522.5,2905.5 3504.5,2905.5 3486.5,2905.5C 3486.5,2953.83 3486.5,3002.17 3486.5,3050.5C 3469.5,3050.5 3452.5,3050.5 3435.5,3050.5C 3435.5,2942.83 3435.5,2835.17 3435.5,2727.5 Z"/></g>
    <g><path style="opacity:0.98" fill="#fefffe" d="M 1756.5,3160.5 C 1771.77,3159.32 1785.77,3162.82 1798.5,3171C 1809.28,3180.73 1815.11,3192.9 1816,3207.5C 1816.97,3254.86 1816.63,3302.19 1815,3349.5C 1810.7,3371.46 1797.54,3384.3 1775.5,3388C 1760.02,3390.42 1745.35,3388.08 1731.5,3381C 1719.7,3372.52 1712.87,3361.02 1711,3346.5C 1710.02,3297.13 1710.36,3247.8 1712,3198.5C 1718.09,3175.58 1732.92,3162.91 1756.5,3160.5 Z M 1757.5,3193.5 C 1769.51,3191.24 1777.01,3195.91 1780,3207.5C 1780.67,3252.5 1780.67,3297.5 1780,3342.5C 1778.28,3351.87 1772.61,3356.54 1763,3356.5C 1752.69,3355.52 1747.02,3349.85 1746,3339.5C 1745.33,3296.5 1745.33,3253.5 1746,3210.5C 1746.59,3202.44 1750.43,3196.78 1757.5,3193.5 Z"/></g>
    <g><path style="opacity:0.98" fill="#fefffe" d="M 1961.5,3160.5 C 1976.77,3159.32 1990.77,3162.82 2003.5,3171C 2014.28,3180.73 2020.11,3192.9 2021,3207.5C 2021.97,3254.86 2021.63,3302.19 2020,3349.5C 2015.7,3371.46 2002.54,3384.3 1980.5,3388C 1965.02,3390.42 1950.35,3388.08 1936.5,3381C 1924.7,3372.52 1917.87,3361.02 1916,3346.5C 1915.02,3297.13 1915.36,3247.8 1917,3198.5C 1923.09,3175.58 1937.92,3162.91 1961.5,3160.5 Z M 1962.5,3193.5 C 1974.51,3191.24 1982.01,3195.91 1985,3207.5C 1985.67,3252.5 1985.67,3297.5 1985,3342.5C 1983.28,3351.87 1977.61,3356.54 1968,3356.5C 1957.69,3355.52 1952.02,3349.85 1951,3339.5C 1950.33,3296.5 1950.33,3253.5 1951,3210.5C 1951.59,3202.44 1955.43,3196.78 1962.5,3193.5 Z"/></g>
    <g><path style="opacity:0.968" fill="#fefffe" d="M 1511.5,3163.5 C 1547.5,3163.5 1583.5,3163.5 1619.5,3163.5C 1619.5,3174.5 1619.5,3185.5 1619.5,3196.5C 1607.5,3196.5 1595.5,3196.5 1583.5,3196.5C 1583.5,3259.5 1583.5,3322.5 1583.5,3385.5C 1571.5,3385.5 1559.5,3385.5 1547.5,3385.5C 1547.5,3322.5 1547.5,3259.5 1547.5,3196.5C 1535.5,3196.5 1523.5,3196.5 1511.5,3196.5C 1511.5,3185.5 1511.5,3174.5 1511.5,3163.5 Z"/></g>
    <g><path style="opacity:0.972" fill="#fefffe" d="M 2122.5,3163.5 C 2134.5,3163.5 2146.5,3163.5 2158.5,3163.5C 2158.5,3226.83 2158.5,3290.17 2158.5,3353.5C 2177.5,3353.5 2196.5,3353.5 2215.5,3353.5C 2215.5,3364.17 2215.5,3374.83 2215.5,3385.5C 2184.5,3385.5 2153.5,3385.5 2122.5,3385.5C 2122.5,3311.5 2122.5,3237.5 2122.5,3163.5 Z"/></g>
    <g><path style="opacity:0.97" fill="#fefffe" d="M 2309.5,3163.5 C 2321.5,3163.5 2333.5,3163.5 2345.5,3163.5C 2345.33,3193.84 2345.5,3224.17 2346,3254.5C 2359.89,3224.38 2374.06,3194.38 2388.5,3164.5C 2400.5,3163.17 2412.5,3163.17 2424.5,3164.5C 2410.95,3191.76 2397.29,3218.93 2383.5,3246C 2397.31,3292.42 2411.31,3338.75 2425.5,3385C 2412.84,3385.5 2400.17,3385.67 2387.5,3385.5C 2378.16,3353.14 2368.66,3320.81 2359,3288.5C 2354.67,3297.17 2350.33,3305.83 2346,3314.5C 2345.5,3338.16 2345.33,3361.83 2345.5,3385.5C 2333.5,3385.5 2321.5,3385.5 2309.5,3385.5C 2309.5,3311.5 2309.5,3237.5 2309.5,3163.5 Z"/></g>
    <g><path style="opacity:0.968" fill="#fefffe" d="M 2519.5,3163.5 C 2531.5,3163.5 2543.5,3163.5 2555.5,3163.5C 2555.5,3237.5 2555.5,3311.5 2555.5,3385.5C 2543.5,3385.5 2531.5,3385.5 2519.5,3385.5C 2519.5,3311.5 2519.5,3237.5 2519.5,3163.5 Z"/></g>
    <g><path style="opacity:0.968" fill="#fefffe" d="M 2649.5,3163.5 C 2685.5,3163.5 2721.5,3163.5 2757.5,3163.5C 2757.5,3174.5 2757.5,3185.5 2757.5,3196.5C 2745.5,3196.5 2733.5,3196.5 2721.5,3196.5C 2721.5,3259.5 2721.5,3322.5 2721.5,3385.5C 2709.5,3385.5 2697.5,3385.5 2685.5,3385.5C 2685.5,3322.5 2685.5,3259.5 2685.5,3196.5C 2673.5,3196.5 2661.5,3196.5 2649.5,3196.5C 2649.5,3185.5 2649.5,3174.5 2649.5,3163.5 Z"/></g>
</svg>