<?xml version="1.0" encoding="UTF-8" standalone="no"?>
<svg
   xmlns:dc="http://purl.org/dc/elements/1.1/"
   xmlns:cc="http://creativecommons.org/ns#"
   xmlns:rdf="http://www.w3.org/1999/02/22-rdf-syntax-ns#"
   xmlns:svg="http://www.w3.org/2000/svg"
   xmlns="http://www.w3.org/2000/svg"
   xmlns:sodipodi="http://sodipodi.sourceforge.net/DTD/sodipodi-0.dtd"
   xmlns:inkscape="http://www.inkscape.org/namespaces/inkscape"
   inkscape:export-ydpi="400"
   inkscape:export-xdpi="400"
   inkscape:export-filename="/Users/katmorrissey/Documents/BioLizard/images/BLZlogo4pen.png"
   inkscape:version="1.0 (4035a4f, 2020-05-01)"
   sodipodi:docname="biolizard_logo.svg"
   viewBox="0 0 151.1811 56.692916"
   height="15mm"
   width="40mm"
   id="svg2"
   version="1.1">
  <metadata
     id="metadata8">
    <rdf:RDF>
      <cc:Work
         rdf:about="">
        <dc:format>image/svg+xml</dc:format>
        <dc:type
           rdf:resource="http://purl.org/dc/dcmitype/StillImage" />
        <dc:title></dc:title>
      </cc:Work>
    </rdf:RDF>
  </metadata>
  <defs
     id="defs6" />
  <sodipodi:namedview
     inkscape:document-rotation="0"
     units="mm"
     inkscape:current-layer="svg2"
     inkscape:window-maximized="0"
     inkscape:window-y="23"
     inkscape:window-x="0"
     inkscape:cy="46.515776"
     inkscape:cx="69.238971"
     inkscape:zoom="5.0975509"
     showgrid="false"
     id="namedview4"
     inkscape:window-height="743"
     inkscape:window-width="1346"
     inkscape:pageshadow="2"
     inkscape:pageopacity="0"
     guidetolerance="10"
     gridtolerance="10"
     objecttolerance="10"
     borderopacity="1"
     bordercolor="#666666"
     pagecolor="#ffffff" />
  <path
     inkscape:export-ydpi="400"
     inkscape:export-xdpi="400"
     inkscape:connector-curvature="0"
     id="path4506"
     d="m 20.47299,48.88415 c -0.596693,-0.03182 -1.526469,-0.110515 -2.066189,-0.17494 -0.53972,-0.06442 -1.004303,-0.117124 -1.032391,-0.117124 -0.04682,0 0.03137,-19.434511 0.07837,-19.487807 0.03979,-0.0453 1.102846,-0.169943 2.361538,-0.276894 1.515607,-0.128792 3.713108,-0.141539 4.688294,-0.02721 3.162528,0.370796 5.085043,1.761201 5.573033,4.030601 0.156266,0.726637 0.158278,1.902685 0.0047,2.470799 -0.400542,1.477047 -1.685496,2.710324 -3.21187,3.08266 -0.526098,0.128325 -0.587424,0.23358 -0.136088,0.23358 0.352228,0 1.212203,0.251991 1.839045,0.538889 1.170961,0.535899 2.022089,1.519226 2.373523,2.742196 0.18735,0.651788 0.186273,2.150764 0,2.816124 -0.241982,0.855209 -0.625343,1.475057 -1.32189,2.137321 -0.531715,0.505545 -0.768922,0.66749 -1.443514,0.985472 -1.320392,0.622394 -2.630532,0.91856 -4.648923,1.050921 -1.228169,0.08054 -1.464159,0.08019 -3.055184,-0.0045 z m 4.450992,-2.894874 c 0.890453,-0.212043 1.555728,-0.541195 1.985153,-0.982146 0.500116,-0.51356 0.675669,-0.932004 0.716257,-1.707232 0.05814,-1.11078 -0.27714,-1.811014 -1.146479,-2.394376 -0.844901,-0.566984 -2.112955,-0.799007 -4.366727,-0.799007 h -1.272922 l -0.05313,1.953917 c -0.02902,1.074648 -0.04213,2.422847 -0.02808,2.995998 l 0.02481,1.04209 0.38748,0.04918 c 0.213098,0.02709 0.997703,0.03755 1.743592,0.02321 1.045921,-0.02007 1.505635,-0.06159 2.009964,-0.181677 z M 24.446386,37.20923 c 1.580022,-0.42344 2.359244,-1.371832 2.359244,-2.871414 0,-0.87021 -0.202471,-1.413433 -0.707877,-1.898858 -0.777067,-0.74643 -1.821351,-1.004773 -3.845265,-0.951291 -0.73044,0.01928 -1.368611,0.05916 -1.418187,0.08857 -0.06596,0.03917 -0.09007,0.831418 -0.09007,2.959819 v 2.906334 l 1.530449,-0.03063 c 1.297078,-0.02597 1.628288,-0.05686 2.171707,-0.202506 z m 21.243031,11.609579 c -2.673929,-0.541879 -4.848305,-2.440916 -5.671484,-4.953337 -0.415992,-1.269545 -0.47596,-3.329577 -0.135293,-4.648932 0.194654,-0.75398 0.72384,-1.856009 1.193713,-2.48576 0.696033,-0.93297 1.921158,-1.911165 2.960432,-2.363813 1.073167,-0.467395 1.741157,-0.602498 3.178398,-0.642839 1.44473,-0.04059 2.110052,0.04271 3.162434,0.395883 2.349226,0.788335 4.181063,2.769246 4.831217,5.224494 0.103647,0.391332 0.132766,0.828486 0.132578,1.990185 -2.81e-4,1.394693 -0.01358,1.535293 -0.213191,2.226619 -0.779315,2.700753 -2.98955,4.69631 -5.828031,5.262002 -0.938062,0.186945 -2.676784,0.184775 -3.610773,-0.0045 z m 3.248712,-2.87808 c 1.090675,-0.345736 1.943302,-1.062357 2.451048,-2.060021 0.443751,-0.871889 0.54529,-1.354835 0.543091,-2.583235 0,-0.895967 -0.03183,-1.180015 -0.178316,-1.672173 -0.550066,-1.848586 -1.854916,-2.928775 -3.809873,-3.153862 -2.189591,-0.252104 -4.014873,0.982488 -4.662827,3.153862 -0.231965,0.777285 -0.253312,2.476655 -0.04073,3.235303 0.524131,1.870049 1.904492,3.089534 3.696069,3.265298 0.748324,0.07341 1.366035,0.01624 2.001491,-0.185172 z m 48.252345,2.950648 c -2.998582,-0.227352 -4.767503,-1.197932 -5.376977,-2.950345 -0.355599,-1.022313 -0.284536,-2.281062 0.181031,-3.206871 0.618133,-1.229243 1.825189,-1.993264 3.803736,-2.407555 0.631063,-0.132141 1.115957,-0.168593 2.65146,-0.199331 l 1.879206,-0.0376 v -0.83406 c 0,-1.126803 -0.12339,-1.510362 -0.648037,-2.014311 -0.582232,-0.559274 -1.175596,-0.74339 -2.374179,-0.736708 -1.36866,0.0077 -2.58667,0.282458 -3.758991,0.848161 l -0.580587,0.280142 v -1.356663 -1.356662 l 0.60058,-0.26783 c 1.650478,-0.736045 3.429091,-1.03343 5.215284,-0.871991 1.71335,0.154858 2.64655,0.515375 3.5112,1.356471 0.6151,0.598312 0.89116,1.071513 1.15378,1.977517 0.16156,0.557436 0.16708,0.724743 0.19475,5.914365 0.0159,2.937378 5e-5,5.341009 -0.0346,5.341397 -0.0346,3.77e-4 -0.41187,0.06857 -0.83807,0.15152 -1.6405,0.319276 -4.100077,0.482547 -5.579499,0.370375 z m 3.002846,-2.492689 c 0.12458,-0.05103 0.13561,-0.225767 0.13561,-2.142958 v -2.087385 l -1.375487,0.04367 c -1.01694,0.03226 -1.533528,0.08327 -1.981826,0.195633 -1.485131,0.372251 -2.16281,1.104102 -2.044281,2.207634 0.09888,0.919817 0.78451,1.510228 2.108179,1.815239 0.348631,0.08034 2.948026,0.05417 3.157805,-0.03182 z m 23.38333,2.482364 c -3.09319,-0.340048 -5.53399,-1.971362 -6.55272,-4.379541 -0.80618,-1.905758 -0.74256,-4.730621 0.14832,-6.582701 1.28752,-2.676721 3.99226,-4.21369 7.41517,-4.21369 0.97921,0 1.77299,0.115332 2.51279,0.365086 0.25406,0.08577 0.4893,0.155959 0.52277,0.155959 0.0333,0 0.0608,-1.808766 0.0608,-4.01948 v -4.019479 h 1.61517 1.61514 l 0.0507,1.284 c 0.0281,0.706201 0.0507,5.692208 0.0509,11.080018 v 9.79602 l -0.60058,0.121941 c -2.16276,0.439143 -5.02339,0.611429 -6.8387,0.411867 z m 3.97153,-2.784825 c 0.12705,-0.04767 0.13558,-0.333657 0.13558,-4.540845 v -4.49 l -0.44171,-0.158736 c -0.89887,-0.323047 -1.3848,-0.388572 -2.61923,-0.353222 -1.32953,0.03805 -1.78887,0.154882 -2.60728,0.662966 -0.92477,0.574111 -1.58303,1.413522 -1.97462,2.517953 -0.19793,0.558328 -0.20134,2.269563 -0.006,2.977393 0.51169,1.853278 1.84327,2.992075 3.96787,3.393479 0.55785,0.105389 3.25855,0.09854 3.54529,-0.009 z M 33.762957,41.33469 v -7.331831 h 1.666068 1.666115 v 7.331831 7.331829 h -1.666115 -1.666068 z m 24.410101,-2.493566 v -9.825397 h 1.704829 1.70483 v 8.3367 8.336698 h 4.184575 4.18462 v 1.488697 1.488697 h -5.88945 -5.889404 z M 72.1217,41.33469 v -7.331831 h 1.666068 1.666115 v 7.331831 7.331829 H 73.787768 72.1217 Z m 5.812864,6.010613 v -1.321222 l 3.947458,-4.614958 3.947414,-4.614959 -3.793395,-0.01934 -3.793396,-0.01934 V 35.379155 34.00281 h 5.811926 5.811927 v 1.369629 1.369634 l -3.971476,4.553091 c -2.1843,2.5042 -3.983085,4.584272 -3.997318,4.622372 -0.01592,0.04221 1.61228,0.06927 4.165241,0.06927 h 4.191033 v 1.33983 1.339825 h -6.160643 -6.160643 v -1.321216 z m 29.136216,-5.407155 v -6.728376 l 0.7943,-0.333966 c 2.59079,-1.089318 5.40464,-1.376513 7.74924,-0.790921 l 0.29057,0.07258 v 1.548619 1.54862 l -0.67805,-0.18628 c -0.60779,-0.166974 -0.82258,-0.186589 -2.07288,-0.189275 -1.26497,-0.0028 -1.45265,0.01399 -2.01484,0.179311 l -0.61991,0.182312 -0.0197,5.712869 -0.0202,5.712874 H 108.775 107.07064 Z M 34.498548,31.445927 c -0.401384,-0.179542 -0.788256,-0.543044 -1.022889,-0.961117 -0.197789,-0.352333 -0.190112,-1.332715 0.01358,-1.727138 0.615559,-1.19252 2.239026,-1.524166 3.278253,-0.669698 1.159024,0.952909 0.876829,2.769572 -0.524693,3.378258 -0.496651,0.215685 -1.235799,0.207081 -1.744153,-0.02029 z m 38.358743,0 c -0.68901,-0.3082 -1.119701,-0.910856 -1.181777,-1.653673 -0.123775,-1.481548 1.318661,-2.555618 2.786846,-2.075094 1.765548,0.577838 1.855525,3.003625 0.139085,3.749072 -0.496651,0.215685 -1.235799,0.207081 -1.744154,-0.02029 z m 18.250062,-1.400276 c -2.791994,-0.142336 -5.658844,-1.163504 -8.036627,-2.862609 -0.781561,-0.558514 -2.342297,-2.059379 -2.931734,-2.819372 -1.466546,-1.890775 -2.409241,-3.998033 -2.830521,-6.32708 -0.222976,-1.232731 -0.243761,-3.302543 -0.04541,-4.503302 0.769391,-4.6530304 3.664984,-8.5331469 7.965843,-10.6743786 2.222127,-1.1063126 4.360503,-1.604641 6.885656,-1.604641 1.845551,0 3.574117,0.2877804 5.170898,0.8608687 7.317012,2.6260945 11.315642,10.0118679 9.345182,17.2612839 -1.03636,3.812883 -3.8036,7.158139 -7.474114,9.03528 -2.454278,1.255167 -5.068848,1.785897 -8.049359,1.63395 z m 3.26435,-2.228097 c 5.344207,-0.86985 9.540587,-4.88449 10.450747,-9.99821 0.19063,-1.071098 0.20973,-2.866751 0.0417,-3.913883 -0.43521,-2.710673 -1.71076,-5.0534221 -3.80959,-6.9968751 C 100.07992,6.0061399 99.116661,5.3489454 97.94177,4.7848503 92.250864,2.0525392 85.269287,3.8140006 81.718576,8.8779702 79.047971,12.686812 78.793864,17.598819 81.060837,21.593542 c 0.403352,0.710754 1.123633,1.698453 1.666631,2.285339 0.375543,0.405916 0.379428,0.407838 0.601186,0.29774 0.122748,-0.06095 0.520854,-0.39552 0.884647,-0.743504 0.505452,-0.483486 0.7281,-0.764354 0.944101,-1.190957 0.462195,-0.912748 0.56013,-1.373675 0.553717,-2.605216 -0.0052,-0.950033 -0.03932,-1.22908 -0.287486,-2.329772 -0.434341,-1.927132 -0.574456,-2.402265 -0.986327,-3.345273 -0.391272,-0.895831 -0.467439,-1.320283 -0.294788,-1.643072 0.361311,-0.675515 1.363368,-0.978847 1.984872,-0.600851 0.3769,0.229228 0.429566,0.41393 0.492484,1.727604 0.08062,1.684672 0.366556,2.668168 0.934129,3.213363 0.286457,0.275151 0.448621,0.281019 0.762181,0.0276 0.46861,-0.378759 1.61682,-2.915394 2.129528,-4.704634 0.82978,-2.8958744 0.840689,-2.9228005 1.281256,-3.169947 0.571647,-0.3207041 1.609185,-0.059601 1.898451,0.4777649 0.274102,0.5090796 0.158933,0.8563321 -0.852952,2.5716971 -1.346374,2.282365 -2.317532,4.520799 -2.269641,5.231423 0.02481,0.371291 0.12298,0.443016 0.485836,0.355537 0.245072,-0.05908 1.211082,-0.938915 2.07995,-1.894371 0.914326,-1.005464 1.265293,-1.452133 2.092404,-2.663014 0.728427,-1.066415 0.986045,-1.322295 1.452968,-1.443067 0.822667,-0.212768 1.695384,0.416269 1.698885,1.224487 0,0.533972 -0.238653,0.857868 -1.14273,1.535912 -0.967134,0.725322 -4.177367,3.775553 -4.392475,4.173568 -0.126773,0.234507 -0.13314,0.301578 -0.04761,0.499959 0.202097,0.468603 0.603435,0.407562 1.794995,-0.272999 1.180372,-0.67419 1.856975,-1.120588 3.014178,-1.988696 1.078176,-0.808808 1.378818,-0.962301 1.766471,-0.901873 0.644819,0.100508 1.061512,0.680406 1.007212,1.401653 -0.0527,0.699754 -0.26423,0.853415 -1.86704,1.356127 -1.647434,0.516719 -3.826116,1.518603 -4.349176,2.000004 -0.296562,0.272948 -0.354562,0.371593 -0.354562,0.602998 0,0.675364 0.582179,0.831682 2.828459,0.759413 1.464812,-0.04715 1.563399,-0.0417 1.79748,0.09892 0.497353,0.298857 0.533623,1.095162 0.07003,1.540397 -0.363372,0.349023 -0.638036,0.371763 -1.799351,0.148962 -2.158322,-0.414059 -3.53643,-0.515834 -4.567936,-0.337367 -0.595008,0.10295 -1.562609,0.552231 -2.218802,1.030239 -0.285519,0.207984 -0.968163,0.777274 -1.517012,1.265082 -0.943773,0.838814 -1.31735,1.23956 -1.23196,1.32157 0.111417,0.107008 1.866385,0.639367 2.546875,0.77257 1.548658,0.303146 3.380826,0.356971 4.721766,0.138723 z"
     style="fill:#01a086;fill-opacity:1;stroke-width:0.0759482" />
  <path
     id="path840"
     d="m 88.250142,29.325287 c -4.442557,-1.197841 -8.409345,-4.749941 -9.994225,-8.949427 -1.211943,-3.211309 -0.984815,-7.704002 0.540071,-10.6828501 1.397258,-2.7295301 4.131565,-5.3878616 6.981586,-6.7875962 2.004197,-0.9843243 2.793221,-1.1265228 6.250789,-1.1265228 3.405075,0 4.283603,0.1531127 6.297977,1.0976322 3.24825,1.523073 5.5566,3.7490734 7.00714,6.757178 2.30907,4.7885109 2.06675,9.0965339 -0.75744,13.4660989 -3.42689,5.302068 -10.188287,7.880364 -16.325898,6.225487 z m 9.291811,-2.25478 C 105.70315,23.460423 107.69992,12.836761 101.3222,6.9579903 98.505371,4.3615242 96.202876,3.4801619 92.236629,3.4801619 c -3.791843,0 -6.100187,0.8206352 -8.680134,3.0858579 -2.694734,2.366008 -3.737953,4.6400912 -3.945874,8.6014902 -0.163039,3.1063 -0.06805,3.701585 0.909483,5.69959 0.600346,1.227061 1.484482,2.58663 1.964749,3.021266 0.864163,0.782057 0.885764,0.776199 2.084367,-0.565271 1.020025,-1.141606 1.211155,-1.710149 1.211155,-3.602764 0,-1.235986 -0.356272,-3.391949 -0.791714,-4.791028 -0.778742,-2.502101 -0.778677,-2.550759 0.004,-2.969601 0.663768,-0.355238 0.864039,-0.245942 1.208246,0.65939 0.226908,0.596865 0.412576,1.460209 0.412576,1.918542 0,1.150446 0.749453,2.444696 1.415636,2.444696 0.605718,0 2.590872,-4.100172 3.017189,-6.231756 0.281901,-1.4095058 0.978111,-1.9328603 2.032836,-1.5281243 0.523093,0.20073 0.340653,0.8272153 -1.041331,3.5758453 -1.622441,3.226876 -2.083712,5.0171 -1.292709,5.0171 0.210556,0 1.705927,-1.450109 3.323047,-3.222465 2.676334,-2.933248 2.999126,-3.163558 3.596563,-2.566121 0.597438,0.597438 0.391985,0.912687 -2.289162,3.512525 -1.620029,1.570899 -2.883581,3.041957 -2.807894,3.269019 0.284432,0.853294 1.04359,0.643527 3.562092,-0.984259 2.871232,-1.855767 3.812775,-2.071613 3.812775,-0.874067 0,0.557823 -0.473886,0.954033 -1.561997,1.305965 -2.926632,0.946573 -4.685991,2.035429 -4.685991,2.900129 0,0.720743 0.285443,0.8246 2.266346,0.8246 2.328652,0 2.910023,0.287658 2.364688,1.17003 -0.227348,0.367855 -0.985265,0.413955 -2.784111,0.169342 -1.359447,-0.184862 -3.05613,-0.215706 -3.770405,-0.06854 -1.44114,0.29692 -4.74104,2.753781 -4.74104,3.529828 0,1.494597 7.330987,1.696234 10.511981,0.28913 z"
     style="fill:#01a086;fill-opacity:1;stroke-width:0.417189" />
  <path
     id="path842"
     d="m 77.973233,47.34951 0.0046,-1.226079 3.918873,-4.556312 c 2.155381,-2.505972 3.918874,-4.646706 3.918874,-4.757187 0,-0.130002 -1.315047,-0.200874 -3.72728,-0.200874 h -3.72728 v -1.275122 -1.275122 h 5.689006 5.689006 l -9.8e-4,1.324165 -9.81e-4,1.324165 -3.919942,4.511971 c -2.15597,2.481584 -3.921082,4.578179 -3.922473,4.6591 -0.0014,0.08092 1.851302,0.147129 4.117096,0.147129 h 4.119626 v 1.275122 1.275123 h -6.081352 -6.081352 z"
     style="fill:#01a086;fill-opacity:1;stroke-width:0.196482" />
  <path
     id="path844"
     d="m 95.276994,48.48128 c -1.891929,-0.53436 -2.712978,-1.161908 -3.272634,-2.501355 -0.40145,-0.960803 -0.377434,-2.031967 0.06715,-2.995256 0.81066,-1.756463 2.24514,-2.433283 5.759621,-2.71752 l 2.501199,-0.202286 v -1.112929 c 0,-1.958993 -1.049407,-2.680675 -3.612446,-2.484296 -1.226251,0.09395 -2.088874,0.309159 -3.312643,0.826428 -0.322168,0.136176 -0.348103,0.03911 -0.294259,-1.101291 l 0.05905,-1.250629 1.177036,-0.46909 c 2.550955,-1.016646 6.147782,-0.726674 7.680652,0.619207 1.37406,1.206442 1.43222,1.519011 1.43707,7.723011 l 0.004,5.519611 -0.63757,0.120083 c -0.35065,0.06605 -1.96172,0.164682 -3.580146,0.219192 -2.254999,0.07595 -3.184156,0.03088 -3.97639,-0.19288 z m 4.745036,-1.986492 c 0.25668,-0.0985 0.3103,-0.48837 0.3103,-2.255986 v -2.13691 h -1.167376 c -2.706195,0 -4.325454,0.833191 -4.325454,2.225666 0,0.847147 0.656171,1.677688 1.593316,2.01672 0.699693,0.253129 3.063482,0.352252 3.589214,0.15051 z"
     style="fill:#01a086;fill-opacity:1;stroke-width:0.196482" />
  <path
     id="path846"
     d="m 107.19838,41.931874 v -6.643715 l 1.00387,-0.417192 c 1.63281,-0.678565 3.98509,-1.075324 5.57734,-0.94073 2.09626,0.177199 2.05038,0.136771 2.05038,1.806827 v 1.440102 l -0.59784,-0.208409 c -0.65035,-0.226712 -4.25007,-0.149951 -4.64978,0.09915 -0.187,0.116543 -0.24521,1.500595 -0.24521,5.830251 v 5.677429 h -1.56938 -1.56938 z"
     style="fill:#01a086;fill-opacity:1;stroke-width:0.196482" />
  <path
     id="path848"
     d="m 122.1075,48.491044 c -2.16213,-0.601618 -3.97379,-2.021798 -4.84147,-3.795289 -0.68874,-1.407715 -0.86112,-3.929842 -0.38139,-5.580047 0.67273,-2.314097 2.45092,-4.095582 4.86178,-4.870777 1.12542,-0.361869 1.62117,-0.412243 3.15325,-0.320402 0.99984,0.05994 2.06065,0.169098 2.35736,0.242584 l 0.53947,0.133612 v -4.044409 -4.044408 h 1.46756 c 1.35941,0 1.47545,0.03253 1.57461,0.441389 0.0589,0.242763 0.0826,5.208383 0.0528,11.03471 l -0.0543,10.593323 -1.27512,0.224041 c -1.72214,0.302584 -6.34758,0.293694 -7.45456,-0.01432 z m 5.64358,-6.932105 0.0527,-4.564491 -0.5431,-0.214957 c -0.2987,-0.118227 -1.12352,-0.259835 -1.83292,-0.314684 -3.11131,-0.240559 -5.33307,1.406614 -5.61775,4.1649 -0.26407,2.558667 1.09201,4.671607 3.47328,5.411786 0.27044,0.08406 1.37448,0.136886 2.45343,0.117388 l 1.96173,-0.03545 z"
     style="fill:#01a086;fill-opacity:1;stroke-width:0.196482" />
  <path
     id="path850"
     d="m 72.279647,41.317201 v -7.258387 h 1.569381 1.569381 v 7.258387 7.258388 h -1.569381 -1.569381 z"
     style="fill:#01a086;fill-opacity:1;stroke-width:0.196482" />
  <path
     id="path852"
     d="m 72.585711,31.090462 c -0.728376,-0.572941 -0.957645,-1.248558 -0.694387,-2.04624 0.26798,-0.811985 0.948955,-1.262933 1.907152,-1.262933 0.94198,0 1.529032,0.405279 1.806981,1.247474 0.395179,1.197405 -0.56386,2.479806 -1.854515,2.479806 -0.349665,0 -0.871935,-0.1874 -1.165231,-0.418107 z"
     style="fill:#01a086;fill-opacity:1;stroke-width:0.196482" />
  <path
     id="path854"
     d="m 58.35139,38.865043 v -9.710545 h 1.569381 1.569381 v 8.337337 8.337337 h 4.217712 4.217711 v 1.373208 1.373209 H 64.138483 58.35139 Z"
     style="fill:#01a086;fill-opacity:1;stroke-width:0.196482" />
  <path
     id="path856"
     d="m 44.702321,48.423115 c -1.262196,-0.447061 -2.814575,-1.580952 -3.476135,-2.539044 -1.084265,-1.570268 -1.391365,-2.570177 -1.402612,-4.56687 -0.0095,-1.692173 0.04591,-1.982684 0.602578,-3.157507 0.726486,-1.533213 2.021561,-2.849674 3.580942,-3.640073 1.030057,-0.522102 1.257609,-0.558894 3.456715,-0.558894 2.139095,0 2.455739,0.04766 3.46738,0.521899 1.578638,0.740038 2.782398,1.929157 3.592848,3.549151 0.639757,1.278799 0.688591,1.506188 0.688591,3.206336 0,1.370394 -0.102004,2.102553 -0.406195,2.915577 -0.567729,1.51739 -2.041978,3.073279 -3.674227,3.877694 -1.188205,0.585578 -1.485647,0.646803 -3.368617,0.693387 -1.588387,0.0393 -2.295325,-0.03036 -3.061268,-0.301656 z m 4.582385,-2.506264 c 0.930299,-0.388608 1.732597,-1.151425 2.258637,-2.147492 0.60035,-1.136771 0.604722,-3.7961 0.0081,-4.904316 -0.880969,-1.636287 -2.240976,-2.452158 -4.087599,-2.452158 -2.776122,0 -4.407963,1.817838 -4.411968,4.914842 -0.003,2.328303 1.032162,4.024259 2.842587,4.657097 0.884553,0.309198 2.568168,0.275443 3.390278,-0.06797 z"
     style="fill:#01a086;fill-opacity:1;stroke-width:0.196482" />
  <path
     id="path858"
     d="m 33.82981,41.317201 v -7.258387 h 1.569382 1.569381 v 7.258387 7.258388 H 35.399192 33.82981 Z"
     style="fill:#01a086;fill-opacity:1;stroke-width:0.196482" />
  <path
     id="path860"
     d="m 34.488362,31.314048 c -1.14772,-0.463162 -1.401392,-2.035408 -0.477469,-2.959331 0.807485,-0.807485 1.969112,-0.807485 2.776597,0 1.509295,1.509295 -0.257381,3.783278 -2.299128,2.959331 z"
     style="fill:#01a086;fill-opacity:1;stroke-width:0.196482" />
  <path
     id="path862"
     d="m 18.381216,48.628122 -0.833734,-0.07509 v -9.68515 -9.68515 l 1.127992,-0.151839 c 0.620396,-0.08351 2.275603,-0.155591 3.678237,-0.160175 2.101314,-0.0069 2.791977,0.06794 3.923453,0.424966 2.594376,0.818628 3.709956,2.256117 3.720838,4.794518 0.0058,1.355119 -0.05135,1.586287 -0.582076,2.354072 -0.424724,0.614436 -0.929036,1.015185 -1.812014,1.439909 -0.672924,0.323685 -1.224659,0.643103 -1.226079,0.709818 -0.0014,0.06671 0.350502,0.168658 0.782049,0.22654 1.169322,0.156839 2.495891,1.02403 3.154043,2.061829 0.497566,0.784579 0.573296,1.091585 0.573296,2.32411 0,1.712035 -0.15513,2.162822 -1.10679,3.216197 -1.537786,1.702145 -3.789448,2.359518 -7.917151,2.311408 -1.456582,-0.01698 -3.023511,-0.06466 -3.482064,-0.10596 z m 7.797862,-2.998405 c 1.146714,-0.635533 1.620162,-1.524083 1.507411,-2.829054 -0.06953,-0.804682 -0.201554,-1.076703 -0.77979,-1.606618 -0.854159,-0.782778 -1.624398,-0.997015 -4.209686,-1.170898 l -2.010769,-0.135242 v 3.187468 3.187469 l 2.305028,-0.07194 c 2.011434,-0.06277 2.417469,-0.134253 3.187806,-0.561189 z m -1.182006,-8.466233 c 2.140415,-0.808122 2.573402,-3.949502 0.712439,-5.168851 -0.651237,-0.426707 -2.738006,-0.726381 -3.978697,-0.571367 l -1.04457,0.130511 v 3.0414 3.041401 l 1.907713,-0.143027 c 1.049242,-0.07866 2.130644,-0.227195 2.403115,-0.330067 z"
     style="fill:#01a086;fill-opacity:1;stroke-width:0.196482;opacity:0.91" />
</svg>
