<?xml version="1.0" encoding="UTF-8" standalone="no"?>
<svg
   xmlns:dc="http://purl.org/dc/elements/1.1/"
   xmlns:cc="http://creativecommons.org/ns#"
   xmlns:rdf="http://www.w3.org/1999/02/22-rdf-syntax-ns#"
   xmlns:svg="http://www.w3.org/2000/svg"
   xmlns="http://www.w3.org/2000/svg"
   xmlns:sodipodi="http://sodipodi.sourceforge.net/DTD/sodipodi-0.dtd"
   xmlns:inkscape="http://www.inkscape.org/namespaces/inkscape"
   inkscape:version="1.0 (4035a4fb49, 2020-05-01)"
   sodipodi:docname="svg1.svg"
   id="svg6"
   class="svg-icon svg-fill"
   viewBox="0 0 250 38"
   version="1.1">
  <metadata
     id="metadata12">
    <rdf:RDF>
      <cc:Work
         rdf:about="">
        <dc:format>image/svg+xml</dc:format>
        <dc:type
           rdf:resource="http://purl.org/dc/dcmitype/StillImage" />
        <dc:title></dc:title>
      </cc:Work>
    </rdf:RDF>
  </metadata>
  <defs
     id="defs10" />
  <sodipodi:namedview
     inkscape:current-layer="g4"
     inkscape:window-maximized="0"
     inkscape:window-y="101"
     inkscape:window-x="1990"
     inkscape:cy="19"
     inkscape:cx="125"
     inkscape:zoom="4.196"
     showgrid="false"
     id="namedview8"
     inkscape:window-height="974"
     inkscape:window-width="1360"
     inkscape:pageshadow="2"
     inkscape:pageopacity="0"
     guidetolerance="10"
     gridtolerance="10"
     objecttolerance="10"
     borderopacity="1"
     bordercolor="#666666"
     pagecolor="#ffffff" />
  <g
     id="g4"
     _fill="#003057">
    <path
       style="fill:#e6e6e6"
       id="path2"
       d="M64 12.9h-5.1V2.8h3.4V.6H48.9v2.2h3.5v10.1H49v2.2h20.2v-7h-2.1c-.3 3.4-1.6 4.8-3.1 4.8zM118.2 12.9h-3.3v2.2h13.8v-2.2h-3.3V8.3h4.6v-2h-4.6V2.8h3.8c1.5 0 3.9-.3 4.4 3.1h2.1V.6h-20.9v2.2h3.4v10.1zM155.7 12.9h-3.3v2.2H163v-2.2h-3.5V6.2l10.2 8.9h6.2V2.8h3.4V.6h-10.5v2.2h3.4v5.1L163.4.6h-11.1v2.2h3.4zM76.5 15.1h7.6l7-12.3h3.2V.6H84.2v2.2h3.2l-5.3 8.7-5-8.7h3.6V.6H65.9v2.2H69zM28.4.6H18.3v2.1h3.4l-5.4 8.9-4.8-8.8H15V.6H0v2.2h3.2l7.3 12.3h7.9l7-12.3h3zM231.4.6h-10.5v2.2h3.4v5L215.5.6h-11.2v2.2h3.4v10.1h-2.4v2.2h9.8v-2.2h-3.5V6.2l10.2 8.9h6.2V2.8h3.4zM242.6 5.1s-5.4 0-5.4-1.4c0 0-.1-1.6 3.4-1.6 0 0 5.3.2 6.5 3.1h2.3V.4h-2.3v1.5S241-1.6 235 .8c0 0-3.8 1.5-3.8 4.7 0 0-.4 3.7 5.1 4.2 0 0 2.9.3 5.8.5 0 0 2.3 0 2.2 1.3 0 0 0 1.5-2.9 1.5 0 0-5.2.3-7.9-3.4h-2v5.5h2v-1.5s2.3 1.8 7.5 1.8c0 0 9 .2 9-5.7 0-.1.6-4.2-7.4-4.6zM146.9 2.8h3.5V.6h-13.3v2.2h3.4v10.1h-3.3v2.2h13.7v-2.2h-4zM167.5 25.7h2.7l-8.8 4.9v-4.9h3.5v-2.2h-13.3v2.2h3.4v10.1h-3.3V38h13.7v-2.2h-4v-2.7l2.4-1.4 5.7 4.1h-2V38h10.1v-2.2h-1.8l-8.4-6.1 7.1-4h3.1v-2.2h-10.1zM140.3 23.5v2.2h3.5l-.1 5-8.7-7.2h-11.2v2.2h3.4v10.1h-2.4V38h9.8v-2.2H131v-6.7l10.3 8.9h6.1V25.7h3.5l-.1-2.2zM114.8 23.5H107l-7.3 12.3h-3.1V38h10.1v-2.2H104l1.2-2.2h7.2l1.2 2.2H110V38h13.8v-2.2h-2.2l-6.8-12.3zm-8.3 7.6l2.4-3.9 2.2 3.9h-4.6zM92.3 30.2h-.7c1.8 0 3.3-1.5 3.3-3.4 0-1.8-1.5-3.4-3.3-3.4H72.5v2.2h3.4v10.1h-3.3v2.2h19.7c2.1 0 3.8-1.7 3.9-3.8V34c-.1-2.1-1.8-3.8-3.9-3.8zm-9.1-4.5h3.2c1 0 1.8.8 1.8 1.8s-.8 1.8-1.8 1.8h-3.2v-3.6zm3.3 10h-3.3v-4.5h3.3c.6 0 1.2.3 1.6.7.4.4.7 1 .7 1.6 0 1.2-1 2.2-2.3 2.2zM37.7.3C31.2.3 27.5 4 27.5 7.9c0 4.8 4.3 7.6 10.2 7.6 6 0 10.2-3.1 10.2-7.6C47.9 4 44.2.3 37.7.3zm0 12.6c-2 0-3.4-1.7-3.4-5 0-2.7 1.3-5.1 3.5-5.1s3.3 2.4 3.3 5.1c-.1 3.1-1.4 5-3.4 5zM103.8 15.5c6 0 10.2-3.1 10.2-7.6 0-4-3.7-7.6-10.2-7.6C97.3.3 93.6 4 93.6 7.9c0 4.8 4.3 7.6 10.2 7.6zm0-12.6c2.2 0 3.3 2.4 3.3 5.1 0 3-1.3 5-3.3 5-2 0-3.4-1.7-3.4-5-.1-2.8 1.2-5.1 3.4-5.1zM195.3.6h-7.8l-7.3 12.3h-3.1v2.2h10.1v-2.2h-2.7l1.2-2.2h7.2l1.2 2.2h-3.4v2.2h13.8v-2.2h-2.2l-7-12.3zm-8.2 7.6l2.4-3.9 2.2 3.9h-4.6z"
       pid="0" />
  </g>
</svg>
