<?xml version="1.0" standalone="no"?> <!DOCTYPE svg PUBLIC "-//W3C//DTD SVG 1.0//EN" "http://www.w3.org/TR/2001/REC-SVG-20010904/DTD/svg10.dtd" > <svg xmlns="http://www.w3.org/2000/svg" width="100%" height="100%">
<defs >
<font id="Volvo-Novum-Regular" horiz-adv-x="578" ><font-face
    font-family="Volvo Novum"
    units-per-em="1000"
    panose-1="2 11 5 3 4 5 2 6 2 4"
    ascent="980"
    descent="-220"
    alphabetic="0" />
<missing-glyph horiz-adv-x="1081" d="M162 -134H919V853H162V-134ZM93 -207Q81 -207 81 -196Q81 -194 81 -170T81 -105T81 -13T82 97T82 213T82 325Q82 378 82 441T82 570T82 696T81 805T81 883T81 915Q81 926 93 926H988Q1000 926 1000 915Q1000 913 1000 883T1000
805T1000 696T999 570T999 442T999 325Q999 272 999 213T999 97T999 -12T1000 -105T1000 -169T1000 -196Q1000 -207 988 -207H93ZM498 276Q498 300 505 320T527 358T581 404T637 451T664 493T673 540Q673 571 655 597T605 637T530 652Q486 652 452 636T400 591T382
524Q382 506 383 492T387 469H304Q300 479 299 492T297 521Q297 581 326 627T409 699T533 724Q601 724 654 701T735 637T764 543Q764 511 756 484T730 434T685 390T630 347T591 309T580 270L578 210H499L498 276ZM489 0V133H589V0H489Z" />
<glyph unicode="&#x0;" glyph-name="null" horiz-adv-x="0" />
<glyph unicode="&#xd;" glyph-name="CR" horiz-adv-x="256" />
<glyph unicode=" " glyph-name="space" horiz-adv-x="254" />
<glyph unicode="!" glyph-name="exclam" horiz-adv-x="353" d="M137 210L125 710H227L216 210H137ZM126 0V133H226V0H126Z" />
<glyph unicode="&quot;" glyph-name="quotedbl" horiz-adv-x="444" d="M285 449L276 730H365L356 449H285ZM89 449L79 730H168L159 449H89Z" />
<glyph unicode="#" glyph-name="numbersign" horiz-adv-x="700" d="M429 239L468 443H271L231 239H429ZM109 0L143 171H33V239H156L196 443H86V511H209L243 682H318L285 511H481L515 682H590L557 511H667V443H544L503 239H614V171H490L457 0H382L415 171H218L185 0H109Z" />
<glyph unicode="$" glyph-name="dollar" horiz-adv-x="667" d="M290 -101V13Q225 22 171 50T72 128L121 190Q166 138 223 110T344 82Q410 82 451 111T492 191Q492 221 477 242T432 277T309 313T176 359T115 419T95 504Q95 577 148 623T290 676V789H367V674Q423
666 465 646T549 587L503 521Q461 563 414 584T314 605Q252 605 218 579T183 509Q183 480 198 460T243 425T364 390T497 345T560 284T580 196Q580 119 520 68T367 10V-101H290Z" />
<glyph unicode="%" glyph-name="percent" horiz-adv-x="1104" d="M449 559Q449 452 399 391T260 329Q170 329 123 388T75 557Q75 664 124 725T263 787Q353 787 401 728T449 559ZM370 558Q370 638 343 680T262 722Q208 722 181 680T153 558Q153 478 180 436T262
394Q315 394 342 436T370 558ZM867 778L323 -96H236L781 778H867ZM1030 125Q1030 18 980 -43T841 -105Q751 -105 704 -46T656 123Q656 230 705 291T844 353Q934 353 982 294T1030 125ZM951 124Q951 204 924 246T843 288Q789 288 762 246T734 124Q734 44 761 2T843
-40Q896 -40 923 2T951 124Z" />
<glyph unicode="&amp;" glyph-name="ampersand" horiz-adv-x="769" d="M193 556Q193 521 212 490T270 419Q330 445 354 459T393 489T416 521T424 560Q424 603 392 629T308 655Q253 655 223 629T193 556ZM304 55Q422 55 500 130Q416 191 353 241T245 333Q187 301
162 267T136 190Q136 127 181 91T304 55ZM48 184Q48 248 81 295T193 383Q148 431 128 470T107 551Q107 603 131 642T201 702T311 724Q372 724 417 704T486 648T510 566Q510 536 500 510T471 463T421 422T323 370Q365 334 420 291T549 193Q574 237 587 291T600 410H683Q683
333 665 267T611 148L758 43L709 -20Q670 7 632 34T560 86Q507 36 442 11T300 -15Q187 -15 118 39T48 184Z" />
<glyph unicode="&apos;" glyph-name="quotesingle" horiz-adv-x="249" d="M89 449L79 730H169L160 449H89Z" />
<glyph unicode="(" glyph-name="parenleft" horiz-adv-x="318" d="M220 -172Q152 -66 116 61T79 322Q79 454 115 582T220 816H303Q235 706 199 580T163 323Q163 191 198 68T302 -172H220Z" />
<glyph unicode=")" glyph-name="parenright" horiz-adv-x="318" d="M97 816Q165 710 202 583T239 322Q239 234 222 147T173 -22T97 -172H14Q83 -62 119 64T155 321Q155 453 120 576T15 816H97Z" />
<glyph unicode="*" glyph-name="asterisk" horiz-adv-x="500" d="M277 562L437 625L461 552L295 509L404 376L343 332L250 476L157 332L96 376L205 509L39 552L63 625L221 562L212 734H287L277 562Z" />
<glyph unicode="+" glyph-name="plus" horiz-adv-x="650" d="M286 58V288H61V356H286V584H364V356H589V288H364V58H286Z" />
<glyph unicode="," glyph-name="comma" horiz-adv-x="263" d="M186 146V24Q186 -60 178 -97T148 -157T80 -206L52 -159Q86 -136 98 -121T115 -81T120 0H77V146H186Z" />
<glyph unicode="-" glyph-name="hyphen" horiz-adv-x="362" d="M39 234V315H322V234H39Z" />
<glyph unicode="." glyph-name="period" horiz-adv-x="263" d="M77 0V146H186V0H77Z" />
<glyph unicode="/" glyph-name="slash" horiz-adv-x="400" d="M-46 -161L338 778H421L37 -161H-46Z" />
<glyph unicode="0" glyph-name="zero" horiz-adv-x="682" d="M607 342Q607 229 575 149T482 27T339 -15Q253 -15 194 26T105 148T75 340Q75 453 107 533T199 655T343 697Q428 697 487 656T577 534T607 342ZM517 341Q517 481 473 552T341 623Q253 623 209 553T165
341Q165 201 209 131T341 60Q429 60 473 130T517 341Z" />
<glyph unicode="1" glyph-name="one" horiz-adv-x="440" d="M237 556Q206 528 162 515T55 501V573Q112 573 151 585T213 621T247 685H325V0H237V556Z" />
<glyph unicode="2" glyph-name="two" horiz-adv-x="621" d="M557 0H60V77Q142 143 202 192T304 278T374 344T416 397T436 443T442 492Q442 532 426 562T377 608T301 624Q259 624 229 608T181 563T164 498Q164 476 167 455T176 419H89Q82 433 79 453T75 495Q75
552 104 598T185 670T304 697Q375 697 426 673T505 602T533 496Q533 463 528 437T508 383T468 327T402 262T307 181T175 78V76Q280 78 388 78H557V0Z" />
<glyph unicode="3" glyph-name="three" horiz-adv-x="640" d="M132 211Q145 135 191 96T314 57Q385 57 426 92T467 187Q467 248 425 281T305 314H210V382H277Q333 382 366 392T422 426Q437 441 443 460T450 508Q450 562 411 594T309 626Q245 626 207 592T154 489L71
506Q93 602 153 649T311 697Q380 697 432 674T511 609T539 514Q539 456 508 416T417 354V353Q485 341 521 299T558 191Q558 132 527 85T441 11T311 -15Q199 -15 132 36T47 188L132 211Z" />
<glyph unicode="4" glyph-name="four" horiz-adv-x="636" d="M637 0V172H298V240L602 682H722V244H843V172H722V0H637ZM383 241Q427 242 488 243T637 244V375Q637 454 638 508T641 611H639L383 241V241Z" />
<glyph unicode="5" glyph-name="five" horiz-adv-x="615" d="M768 609H448L430 396H431Q453 425 494 441T583 457Q653 457 705 428T785 346T813 225Q813 154 781 99T692 15T562 -15Q474 -15 411 24T309 140L386 178Q415 118 459 88T564 57Q611 57 647 77T702 134T722
222Q722 271 703 309T648 366T568 386Q516 386 478 363T425 302H348L380 682H768V609Z" />
<glyph unicode="6" glyph-name="six" horiz-adv-x="639" d="M597 357Q526 357 485 317T444 210Q444 142 485 100T592 57Q661 57 701 100T741 215Q741 282 703 319T597 357ZM740 523Q716 576 681 600T591 625Q502 625 461 549T419 311Q439 365 489 396T608 427Q713
427 772 371T831 216Q831 116 764 51T591 -15Q466 -15 399 72T331 324Q331 503 399 600T594 697Q676 697 729 664T818 558L740 523Z" />
<glyph unicode="7" glyph-name="seven" horiz-adv-x="590" d="M178 0Q186 106 217 206T302 405T440 608H54V682H536V615Q453 512 397 411T310 209T270 0H178Z" />
<glyph unicode="8" glyph-name="eight" horiz-adv-x="657" d="M483 507Q483 561 441 593T329 626Q258 626 217 594T175 507Q175 451 216 419T329 387Q400 387 441 419T483 507ZM504 188Q504 249 457 283T328 318Q247 318 201 284T154 188Q154 126 201 92T329 57Q410
57 457 92T504 188ZM594 190Q594 129 561 82T467 10T327 -15Q247 -15 188 9T96 78T64 184Q64 245 98 289T198 356V357Q146 375 116 414T86 507Q86 561 116 604T202 672T331 697Q404 697 458 674T542 607T572 510Q572 458 542 419T460 358V357Q525 337 559 295T594
190Z" />
<glyph unicode="9" glyph-name="nine" horiz-adv-x="639" d="M554 325Q625 325 666 365T707 472Q707 540 666 582T559 625Q490 625 450 582T410 467Q410 399 447 362T554 325ZM402 163Q426 107 464 82T560 57Q649 57 690 133T732 371Q711 317 661 286T543 255Q437
255 379 311T320 466Q320 566 387 631T560 697Q685 697 752 610T820 358Q820 179 752 82T557 -15Q470 -15 415 19T324 128L402 163Z" />
<glyph unicode=":" glyph-name="colon" horiz-adv-x="300" d="M97 342V481H202V342H97ZM97 0V139H202V0H97Z" />
<glyph unicode=";" glyph-name="semicolon" horiz-adv-x="300" d="M97 342V481H202V342H97ZM202 139V24Q202 -61 194 -97T164 -157T97 -206L69 -159Q102 -137 114 -121T131 -80T137 0H97V139H202Z" />
<glyph unicode="&lt;" glyph-name="less" horiz-adv-x="650" d="M579 81L71 281V363L579 563V479Q388 404 302 373T162 324V322Q216 305 302 273T579 167V81Z" />
<glyph unicode="=" glyph-name="equal" horiz-adv-x="650" d="M579 382H71V451H579V382ZM579 193H71V262H579V193Z" />
<glyph unicode="&gt;" glyph-name="greater" horiz-adv-x="650" d="M71 563L579 363V281L71 81V165Q260 239 346 271T488 320V322Q434 339 348 371T71 477V563Z" />
<glyph unicode="?" glyph-name="question" horiz-adv-x="616" d="M276 276Q276 301 283 321T306 360T363 407T420 454T443 494T451 540Q451 571 433 597T383 637T308 652Q264 652 230 636T178 591T160 524Q160 506 161 492T165 469H82Q78 479 77 492T75 521Q75
581 104 627T187 699T311 724Q379 724 432 701T513 637T542 543Q542 509 532 480T502 426T440 371T385 328T365 300T358 270L356 210H277L276 276ZM267 0V133H367V0H267Z" />
<glyph unicode="@" glyph-name="at" horiz-adv-x="1035" d="M619 303Q619 365 594 394T513 424Q467 424 435 399T384 328T365 229Q365 167 390 137T467 106Q515 106 549 131T601 203T619 303ZM972 334Q972 247 944 180T863 77T740 41Q686 41 656 61T619 123H618Q591
83 549 62T456 41Q372 41 327 89T282 225Q282 298 311 360T391 455T512 488Q559 488 592 472T645 426H646L656 477H735L693 250Q683 196 685 165T701 120T746 106Q793 106 826 133T877 212T895 330Q895 426 853 500T731 615T547 656Q430 656 338 603T192 454T139
247Q139 138 185 53T315 -79T509 -126Q569 -126 629 -117T746 -88L758 -151Q699 -170 635 -180T505 -190Q376 -190 275 -135T119 18T63 242Q63 373 126 483T302 656T552 719Q673 719 769 670T919 532T972 334Z" />
<glyph unicode="A" glyph-name="A" horiz-adv-x="651" d="M321 601Q307 549 232 345L199 250H446L413 343Q332 562 322 601H321ZM372 682L634 0H536L471 182H175L111 0H17L278 682H372Z" />
<glyph unicode="B" glyph-name="B" horiz-adv-x="709" d="M106 682Q141 682 211 682T333 683Q443 683 497 669T585 621Q629 577 629 512Q629 454 601 415T514 354Q580 339 615 297T651 190Q651 123 619 81T523 19T351 -1Q217 -1 106 0V682ZM192 381H352Q424 381
456 390T511 421Q526 436 533 455T540 501Q540 544 512 572Q490 594 450 602T326 611Q240 611 192 610V381ZM192 72Q254 71 359 71Q435 71 477 83T539 121T560 189Q560 231 541 258T482 299T353 312H192V72Z" />
<glyph unicode="C" glyph-name="C" horiz-adv-x="693" d="M658 175Q625 83 554 34T380 -15Q288 -15 216 28T103 153T63 340Q63 446 103 526T218 652T380 697Q473 697 544 650T649 519L571 488Q546 551 495 586T378 621Q313 621 262 587T182 489T154 341Q154 256
182 193T263 96T382 62Q456 62 506 97T581 199L658 175Z" />
<glyph unicode="D" glyph-name="D" horiz-adv-x="729" d="M106 681Q181 682 309 682Q407 682 468 662T576 595Q621 550 644 487T667 343Q667 262 643 196T575 86Q529 40 468 20T309 0Q207 1 106 1V681ZM191 78Q251 75 311 75Q393 75 433 87T505 131Q541 167 558
219T576 340Q576 405 557 459T503 548Q469 582 427 595T306 609Q224 609 191 608V78Z" />
<glyph unicode="E" glyph-name="E" horiz-adv-x="646" d="M106 682H566V610H192V383H519V314H192V73H583V0H106V682Z" />
<glyph unicode="F" glyph-name="F" horiz-adv-x="599" d="M106 682H553V609H192V378H507V309H192V0H106V682Z" />
<glyph unicode="G" glyph-name="G" horiz-adv-x="758" d="M586 0V104H585Q555 48 500 17T373 -15Q283 -15 212 29T102 154T63 340Q63 442 103 524T217 651T383 697Q477 697 544 660T657 543L588 494Q553 559 501 590T377 621Q310 621 260 586T182 486T154 341Q154
256 182 192T262 95T380 61Q437 61 482 89T551 168T576 278V297H384V367H663V0H586Z" />
<glyph unicode="H" glyph-name="H" horiz-adv-x="756" d="M106 682H192V391H564V682H650V0H564V315H192V0H106V682Z" />
<glyph unicode="I" glyph-name="I" horiz-adv-x="297" d="M106 682H192V0H106V682Z" />
<glyph unicode="J" glyph-name="J" horiz-adv-x="535" d="M436 682V210Q436 103 381 44T228 -15Q187 -15 150 -4T84 33T37 101T13 207L98 223Q105 138 135 100T230 61Q288 61 319 98T350 211V682H436Z" />
<glyph unicode="K" glyph-name="K" horiz-adv-x="678" d="M659 682L396 425L677 0H573L335 365L192 226V0H106V682H192V330L545 682H659Z" />
<glyph unicode="L" glyph-name="L" horiz-adv-x="551" d="M106 682H192V75H539V0H106V682Z" />
<glyph unicode="M" glyph-name="M" horiz-adv-x="946" d="M106 682H246L386 345Q426 250 444 203T473 121H475Q486 157 504 204T562 345L701 682H840V0H754V240Q754 350 754 452T757 611H754Q737 566 718 517T668 396L506 0H435L272 397Q224 511 210 546T186 611H183Q185
555 185 453T186 240V0H106V682Z" />
<glyph unicode="N" glyph-name="N" horiz-adv-x="764" d="M552 0L306 387Q273 439 239 493T183 584H182Q184 526 185 422T186 232V0H106V682H220L459 308Q486 266 512 224T580 111H582Q580 169 579 273T577 463V682H658V0H552Z" />
<glyph unicode="O" glyph-name="O" horiz-adv-x="780" d="M717 342Q717 237 676 156T559 30T389 -15Q291 -15 217 29T103 154T63 340Q63 445 104 526T221 652T391 697Q488 697 562 653T677 528T717 342ZM626 341Q626 425 597 488T515 586T390 621Q319 621 266
587T183 490T154 341Q154 257 182 194T264 96T390 62Q461 62 514 95T597 193T626 341Z" />
<glyph unicode="P" glyph-name="P" horiz-adv-x="643" d="M106 682Q234 683 363 683Q453 683 512 660T601 590T630 476Q630 409 600 362T508 291T356 266Q253 266 192 267V0H106V682ZM539 474Q539 521 521 550T463 594T361 609Q244 609 192 608V340Q245 339 359
339Q421 339 461 354T520 398T539 474Z" />
<glyph unicode="Q" glyph-name="Q" horiz-adv-x="780" d="M717 342Q717 269 697 207T638 98L712 24L660 -29L584 46Q543 16 494 1T389 -15Q293 -15 219 28T104 153T63 340Q63 445 104 526T220 652T391 697Q487 697 561 654T676 529T717 342ZM483 253L578 158Q602
194 614 240T626 341Q626 425 598 488T516 586T390 621Q318 621 265 587T183 489T154 341Q154 257 182 194T264 96T390 62Q470 62 526 104L430 200L483 253Z" />
<glyph unicode="R" glyph-name="R" horiz-adv-x="694" d="M192 349Q218 348 254 348T355 347Q416 347 455 361T514 403T534 479Q534 523 516 552T459 595T360 609Q290 609 256 609T192 608V349ZM550 0L337 274H192V0H106V682Q127 682 223 682T364 683Q448 683
506 660T595 592T625 481Q625 401 577 350T437 283L659 0H550Z" />
<glyph unicode="S" glyph-name="S" horiz-adv-x="658" d="M106 172Q157 116 218 87T345 58Q393 58 429 73T485 114T505 176Q505 209 489 232T439 271T309 311T168 361T103 425T82 515Q82 568 111 609T193 674T316 697Q384 697 445 674T561 603L514 538Q469 582
420 603T314 624Q269 624 237 612T187 575T170 520Q170 489 186 467T234 428T364 389T506 339T572 273T593 181Q593 125 562 81T473 11T343 -15Q261 -15 189 16T57 109L106 172Z" />
<glyph unicode="T" glyph-name="T" horiz-adv-x="534" d="M224 608H-7V682H541V608H310V0H224V608Z" />
<glyph unicode="U" glyph-name="U" horiz-adv-x="732" d="M185 261Q185 196 206 152T268 85T368 62Q427 62 468 84T530 151T551 261V682H632V258Q632 173 601 112T510 18T366 -15Q279 -15 220 16T130 108T99 251V682H185V261Z" />
<glyph unicode="V" glyph-name="V" horiz-adv-x="634" d="M272 0L13 682H110L229 353Q286 199 299 161T319 95H321Q328 121 340 158T410 352L527 682H621L362 0H272Z" />
<glyph unicode="W" glyph-name="W" horiz-adv-x="1037" d="M244 0L33 682H129L221 362Q230 332 258 238T298 96H300Q310 131 327 189T381 363L480 682H560L662 362Q697 255 716 194T746 96H747Q758 136 784 228T822 363L913 682H1004L793 0H693L554 426Q541 469
535 493T518 556H517Q512 536 504 509T480 426L344 0H244Z" />
<glyph unicode="X" glyph-name="X" horiz-adv-x="597" d="M246 358L30 682H134L300 427L470 682H567L351 363L595 0H490L297 295L101 0H2L246 358Z" />
<glyph unicode="Y" glyph-name="Y" horiz-adv-x="610" d="M262 0V289L0 682H104L308 371L510 682H610L348 289V0H262Z" />
<glyph unicode="Z" glyph-name="Z" horiz-adv-x="628" d="M584 0H44V77L466 608Q414 608 335 607T216 606H59V682H569V606L149 76Q202 76 276 76T386 77H584V0Z" />
<glyph unicode="[" glyph-name="bracketleft" horiz-adv-x="371" d="M339 -172H106V816H339V748H185V-104H339V-172Z" />
<glyph unicode="\" glyph-name="backslash" horiz-adv-x="400" d="M364 -161L-21 778H62L447 -161H364Z" />
<glyph unicode="]" glyph-name="bracketright" horiz-adv-x="371" d="M32 -172V-104H186V748H32V816H265V-172H32Z" />
<glyph unicode="^" glyph-name="asciicircum" horiz-adv-x="650" d="M472 350Q432 418 395 485T325 617H324Q294 556 256 489T176 350H77L280 682H370L573 350H472Z" />
<glyph unicode="_" glyph-name="underscore" horiz-adv-x="650" d="M650 -215H0V-146H650V-215Z" />
<glyph unicode="`" glyph-name="grave" horiz-adv-x="331" d="M263 551H187L68 693H178L263 551Z" />
<glyph unicode="a" glyph-name="a" horiz-adv-x="521" d="M47 131Q47 171 65 201T122 251T221 281T366 291V324Q366 375 338 401T255 428Q210 428 173 408T105 346L56 393Q94 442 146 468T261 494Q351 494 398 451T446 326V236Q446 180 446 137T449 0H372L370
69H369Q341 30 300 9T211 -13Q137 -13 92 26T47 131ZM366 229Q299 229 255 224T183 207T144 178T131 134Q131 95 156 74T229 53Q268 53 299 72T348 125T366 198V229V229Z" />
<glyph unicode="b" glyph-name="b" horiz-adv-x="584" d="M160 231Q160 179 178 139T229 76T307 54Q352 54 385 76T435 141T452 241Q452 297 434 339T381 404T303 426Q260 426 228 405T178 344T160 250V231ZM82 710H162V505Q162 447 158 412H159Q182 451 223 472T319
494Q385 494 434 464T510 376T537 243Q537 167 510 109T433 19T315 -13Q263 -13 223 8T157 68H156L152 0H75Q78 63 80 115T82 239V710Z" />
<glyph unicode="c" glyph-name="c" horiz-adv-x="519" d="M481 124Q447 53 397 20T272 -13Q203 -13 152 18T74 106T47 239Q47 315 74 373T153 462T271 494Q343 494 393 462T474 364L401 329Q381 378 349 402T269 426Q228 426 197 404T149 340T132 241Q132 185
149 143T199 78T274 55Q323 55 356 79T411 153L481 124Z" />
<glyph unicode="d" glyph-name="d" horiz-adv-x="584" d="M428 0L426 70H425Q402 30 361 9T265 -13Q198 -13 149 18T74 106T47 238Q47 314 74 372T152 462T269 494Q320 494 359 474T424 417H425Q422 452 422 505V710H502V239Q502 152 502 104T505 0H428ZM425 250Q425
303 407 343T354 404T278 426Q232 426 200 404T150 339T132 240Q132 185 150 143T202 77T281 54Q325 54 358 76T408 138T425 230V250Z" />
<glyph unicode="e" glyph-name="e" horiz-adv-x="536" d="M405 283Q405 324 389 357T342 409T273 428Q235 428 206 412T158 362T135 283H405ZM283 -13Q210 -13 157 17T76 104T47 239Q47 315 75 373T155 462T276 494Q342 494 390 466T464 385T491 273Q491 243 487
222H133Q134 171 154 133T208 75T287 54Q337 54 374 72T441 132L490 86Q450 34 400 11T283 -13Z" />
<glyph unicode="f" glyph-name="f" horiz-adv-x="315" d="M107 416H9V481H107V575Q107 621 122 652T167 700T240 716Q261 716 285 712T325 702V633Q308 640 286 644T245 648Q225 648 213 641T194 618T187 573V481H311V416H187V0H107V416Z" />
<glyph unicode="g" glyph-name="g" horiz-adv-x="586" d="M425 250Q425 302 407 342T356 404T278 426Q233 426 200 404T150 339T133 241Q133 187 151 145T203 79T282 56Q326 56 358 78T408 140T425 232V250ZM511 481Q507 444 506 385T504 242V-13Q504 -111 450
-162T289 -214Q218 -214 163 -188T67 -106L120 -55Q152 -102 195 -125T291 -148Q356 -148 390 -115T425 -18Q425 -4 425 24T426 70H425Q401 31 361 11T266 -10Q199 -10 150 20T75 108T48 239Q48 315 75 373T153 462T270 494Q322 494 362 473T428 413H429L433 481H511Z"
/>
<glyph unicode="h" glyph-name="h" horiz-adv-x="566" d="M82 710H162V505Q162 448 159 412H160Q183 451 223 472T315 494Q372 494 411 473T470 408T491 301V0H411V270Q411 315 408 335T395 373Q382 399 358 412T298 426Q271 426 248 417T209 393Q184 368 173
331T162 231V0H82V710Z" />
<glyph unicode="i" glyph-name="i" horiz-adv-x="244" d="M81 562V686H163V562H81V562ZM82 0V481H162V0H82Z" />
<glyph unicode="j" glyph-name="j" horiz-adv-x="253" d="M90 562V686H172V562H90ZM171 481V-26Q171 -94 159 -134T118 -193T40 -212Q26 -212 12 -211T-11 -207V-144H33Q57 -144 69 -132T86 -96T91 -23V481H171Z" />
<glyph unicode="k" glyph-name="k" horiz-adv-x="524" d="M82 710H162V263L394 481H503L316 312L521 0H421L257 259L162 173V0H82V710Z" />
<glyph unicode="l" glyph-name="l" horiz-adv-x="244" d="M82 710H162V0H82V710Z" />
<glyph unicode="m" glyph-name="m" horiz-adv-x="887" d="M732 0V270Q732 315 729 335T716 373Q703 399 679 412T621 426Q595 426 572 417T534 393Q509 368 498 331T487 231V0H407V270Q407 315 404 335T391 373Q378 399 354 412T296 426Q270 426 247 417T209 393Q184
368 173 331T162 231V0H82V241Q82 282 82 316T82 379T81 432T79 481H156L158 410H159Q182 450 222 472T313 494Q370 494 410 470T470 398Q500 447 542 470T638 494Q723 494 767 445T812 301V0H732Z" />
<glyph unicode="n" glyph-name="n" horiz-adv-x="566" d="M411 0V270Q411 315 408 335T395 373Q382 399 358 412T298 426Q271 426 248 417T209 393Q184 368 173 331T162 231V0H82V241Q82 282 82 316T82 379T81 432T79 481H156L158 410H159Q182 450 222 472T315
494Q401 494 446 445T491 301V0H411Z" />
<glyph unicode="o" glyph-name="o" horiz-adv-x="564" d="M517 241Q517 166 488 108T406 19T281 -13Q208 -13 156 18T75 106T47 239Q47 315 76 373T158 462T283 494Q356 494 408 463T489 375T517 241ZM432 240Q432 294 414 336T361 402T282 425Q236 425 202 402T150
337T132 240Q132 187 150 145T203 79T282 55Q328 55 362 78T414 144T432 240Z" />
<glyph unicode="p" glyph-name="p" horiz-adv-x="584" d="M82 -204V242Q82 302 82 361T79 481H156L158 410H159Q182 451 223 472T319 494Q385 494 434 464T510 376T537 243Q537 167 510 109T433 19T315 -13Q265 -13 225 7T160 64H159Q162 29 162 -25V-204H82ZM160
231Q160 178 178 138T230 76T307 54Q352 54 385 76T435 141T452 241Q452 297 434 339T381 404T303 426Q260 426 228 405T178 344T160 250V231Z" />
<glyph unicode="q" glyph-name="q" horiz-adv-x="585" d="M425 250Q425 302 407 342T355 404T278 426Q232 426 200 404T150 339T132 240Q132 185 150 143T202 77T281 54Q325 54 358 76T408 138T425 230V250ZM422 -204V-25Q422 35 426 69H425Q401 30 360 9T265
-13Q198 -13 149 18T74 106T47 238Q47 314 74 372T152 462T269 494Q321 494 361 473T427 413H428L431 481H509Q505 409 504 353T502 245V-204H422Z" />
<glyph unicode="r" glyph-name="r" horiz-adv-x="350" d="M82 0V241Q82 299 82 344T79 481H156L158 386H159Q188 438 229 465T318 493Q328 493 335 492V405Q326 406 316 406Q286 406 260 396T215 366Q186 337 174 297T162 171V0H82Z" />
<glyph unicode="s" glyph-name="s" horiz-adv-x="491" d="M87 128Q123 92 167 73T256 53Q304 53 331 72T359 126Q359 147 348 161T315 186T225 212T125 247T78 294T63 360Q63 400 85 430T147 477T237 494Q288 494 335 478T421 429L379 373Q348 400 312 414T236
429Q208 429 188 422T156 400T145 364Q145 344 156 330T188 305T277 280T377 245T425 198T440 131Q440 89 418 57T352 6T255 -13Q196 -13 143 8T45 69L87 128Z" />
<glyph unicode="t" glyph-name="t" horiz-adv-x="350" d="M10 415V481H105V645L185 665V481H325V415H185V190Q185 142 186 121T192 90T204 70Q211 63 221 60T248 56Q268 56 289 60T325 72V4Q309 -3 284 -7T233 -12Q187 -12 159 4T118 52T105 138V415H10Z" />
<glyph unicode="u" glyph-name="u" horiz-adv-x="560" d="M405 0L403 70H402Q378 30 338 9T248 -13Q191 -13 153 9T95 75T75 180V481H155V211Q155 166 158 146T171 107Q184 82 207 68T264 54Q289 54 313 63T351 88Q376 113 387 150T399 250V481H479V237Q479 176
479 129T482 0H405Z" />
<glyph unicode="v" glyph-name="v" horiz-adv-x="492" d="M206 0L11 481H103L181 279Q197 239 215 187T249 86H250Q260 120 280 176T317 279L393 481H481L287 0H206Z" />
<glyph unicode="w" glyph-name="w" horiz-adv-x="820" d="M542 0L438 275Q429 300 422 324T407 373H405Q399 349 392 325T375 274L277 0H200L20 481H111L198 232Q209 201 220 166T242 96H244Q254 135 265 170T286 233L373 481H444L535 232Q548 198 560 162T582
96H584Q592 124 603 160T626 232L710 481H799L619 0H542Z" />
<glyph unicode="x" glyph-name="x" horiz-adv-x="474" d="M8 0L188 254L27 481H126L240 311L353 481H446L285 254L466 0H366L233 196L102 0H8Z" />
<glyph unicode="y" glyph-name="y" horiz-adv-x="492" d="M116 -204L212 0H205L11 481H103L181 279Q197 239 215 187T249 86H250Q260 119 280 177T317 279L393 481H481L204 -204H116Z" />
<glyph unicode="z" glyph-name="z" horiz-adv-x="494" d="M448 0H46V68L337 415Q314 415 265 415T190 414H57V481H433V414L143 67Q168 67 223 67T311 68H448V0Z" />
<glyph unicode="{" glyph-name="braceleft" horiz-adv-x="407" d="M36 356H66Q98 356 113 365T135 400T142 478V634Q142 697 158 737T211 796T306 816H375V748H305Q270 748 253 737T228 702T221 633V481Q221 430 215 399T195 351T155 323V322Q181 312 194 295T214
248T221 167V13Q221 -34 229 -58T255 -93T307 -104H375V-172H304Q246 -172 211 -154T159 -95T142 9V164Q142 216 135 242T113 278T66 288H36V356Z" />
<glyph unicode="|" glyph-name="bar" horiz-adv-x="317" d="M119 -172V816H198V-172H119Z" />
<glyph unicode="}" glyph-name="braceright" horiz-adv-x="407" d="M32 -172V-104H102Q134 -104 152 -94T178 -61T186 11V163Q186 214 192 245T212 293T252 321V322Q226 332 213 349T193 396T186 477V631Q186 678 178 702T152 737T100 748H32V816H103Q161 816
196 798T248 740T265 636V480Q265 428 272 402T294 366T341 356H371V288H341Q309 288 294 279T272 244T265 166V10Q265 -55 247 -95T194 -153T101 -172H32Z" />
<glyph unicode="~" glyph-name="asciitilde" horiz-adv-x="650" d="M66 233Q66 297 81 340T128 404T206 426Q243 426 275 410T349 352T409 299T446 288Q471 288 484 301T504 341T510 411H584Q584 347 569 304T522 240T444 218Q407 218 375 234T301 292T241 345T204
356Q179 356 166 343T146 303T140 233H66Z" />
<glyph unicode="&#xa0;" glyph-name="space" horiz-adv-x="254" />
<glyph unicode="&#xa1;" glyph-name="exclamdown" horiz-adv-x="353" d="M215 404L227 -96H125L136 404H215ZM226 614V481H126V614H226Z" />
<glyph unicode="&#xa2;" glyph-name="cent" horiz-adv-x="566" d="M332 692V580Q385 571 425 541T492 459L421 423Q397 470 366 492T290 515Q227 515 191 469T154 342Q154 263 192 216T295 168Q346 168 378 191T432 264L498 232Q475 177 434 146T332 104V-10H258V102Q169
113 119 176T69 340Q69 440 120 504T258 580V692H332Z" />
<glyph unicode="&#xa3;" glyph-name="sterling" horiz-adv-x="650" d="M579 0H77V62Q140 107 164 141T189 218Q189 249 178 290H69V356H160Q144 405 138 439T131 500Q131 588 191 642T345 697Q424 697 478 660T564 547L491 508Q469 566 433 594T343 623Q287 623
254 590T220 501Q220 480 224 454T251 356H435V290H268Q278 248 278 221Q278 178 258 142T199 77V76Q335 78 418 78H579V0Z" />
<glyph unicode="&#xa4;" glyph-name="currency" horiz-adv-x="655" d="M450 322Q450 385 417 422T327 460Q269 460 237 422T205 322Q205 259 237 222T327 184Q385 184 417 222T450 322ZM527 325Q527 255 494 206L596 109L543 57L445 159Q395 123 325 123Q254 123
207 157L112 57L59 109L159 204Q128 250 128 319Q128 389 160 438L59 535L112 588L209 485Q262 521 329 521Q399 521 447 487L543 588L595 535L494 440Q527 392 527 325Z" />
<glyph unicode="&#xa5;" glyph-name="yen" horiz-adv-x="650" d="M283 0V89H116V153H283V238H116V301H283V336L25 682H133L238 535Q256 508 280 476T329 410Q346 434 367 464T419 534L522 682H625L367 336V301H534V237L367 238V153H534V89H367V0H283Z" />
<glyph unicode="&#xa6;" glyph-name="brokenbar" horiz-adv-x="317" d="M119 -172V221H198V-172H119ZM119 423V816H198V423H119Z" />
<glyph unicode="&#xa7;" glyph-name="section" horiz-adv-x="615" d="M479 257Q479 286 464 308T417 346T318 380T223 409Q187 388 169 362T151 302Q151 273 166 251T214 213T313 178T406 150Q443 171 461 197T479 257ZM68 294Q68 338 93 376T163 442Q137 463
123 492T109 557Q109 592 123 621T163 672T225 705T306 716Q364 716 414 698T506 645L461 582Q428 613 389 629T304 645Q251 645 222 624T193 564Q193 538 207 519T249 486T360 447T483 399T541 343T561 265Q561 222 536 183T467 117Q494 97 508 67T523 1Q523 -33
509 -62T468 -112T404 -145T321 -157Q260 -157 203 -135T100 -71L146 -5Q182 -43 228 -64T323 -85Q379 -85 408 -64T438 -5Q438 21 424 40T382 73T269 112T145 160T87 217T68 294Z" />
<glyph unicode="&#xa8;" glyph-name="dieresis" horiz-adv-x="425" d="M267 566V682H346V566H267ZM79 566V682H158V566H79Z" />
<glyph unicode="&#xa9;" glyph-name="copyright" horiz-adv-x="890" d="M635 244Q609 187 560 156T449 124Q387 124 341 151T271 226T246 340Q246 406 270 455T342 532T449 559Q511 559 558 531T630 450L569 416Q552 453 520 473T447 493Q410 493 383 475T341
423T326 342Q326 297 341 263T384 209T451 190Q494 190 524 210T573 274L635 244ZM751 341Q751 433 713 506T606 620T446 661Q355 661 285 621T177 507T139 341Q139 249 177 176T284 62T444 21Q536 21 606 61T713 174T751 341ZM828 344Q828 234 779 145T641 5T443
-45Q332 -45 245 4T111 141T63 338Q63 448 112 537T249 677T447 727Q558 727 645 678T780 541T828 344Z" />
<glyph unicode="&#xaa;" glyph-name="ordfeminine" horiz-adv-x="501" d="M76 177V239H408V177H76ZM345 548Q284 548 244 543T179 528T143 501T131 461Q131 427 154 408T220 389Q256 389 284 406T328 453T345 519V548ZM416 457Q416 433 417 398T419 342H349L348
403Q322 369 285 350T204 330Q160 330 127 345T75 390T56 458Q56 495 72 522T123 567T213 594T345 603V633Q344 680 319 704T245 728Q204 728 172 710T109 652L63 695Q104 743 148 765T249 787Q331 787 373 748T416 635V457Z" />
<glyph unicode="&#xab;" glyph-name="guillemotleft" horiz-adv-x="649" d="M499 58L331 274L499 490L562 457L437 275L562 92L499 58ZM251 41L75 274L252 506L315 473L181 275L315 76L251 41Z" />
<glyph unicode="&#xac;" glyph-name="logicalnot" horiz-adv-x="650" d="M490 87V288H61V356H568V87H490Z" />
<glyph unicode="&#xad;" glyph-name="hyphen" horiz-adv-x="362" d="M39 234V315H322V234H39Z" />
<glyph unicode="&#xae;" glyph-name="registered" horiz-adv-x="712" d="M301 544Q322 543 362 543Q395 543 409 553T424 588Q424 603 418 611T398 624T363 628H301V544ZM423 388L355 495H301V388H242V675Q310 676 368 676Q408 676 434 666T472 636T485 590Q485
558 467 536T415 504L495 388H423ZM575 527Q575 590 547 642T469 724T356 754Q293 754 243 725T165 643T137 527Q137 462 166 410T244 329T356 300Q419 300 469 329T547 411T575 527ZM635 528Q635 451 599 386T498 285T355 248Q277 248 214 284T114 384T77 526Q77
603 113 668T214 769T357 806Q436 806 500 770T599 669T635 528Z" />
<glyph unicode="&#xaf;" glyph-name="overscore" horiz-adv-x="435" d="M356 585H79V652H356V585Z" />
<glyph unicode="&#xb0;" glyph-name="degree" horiz-adv-x="417" d="M365 603Q365 562 346 529T290 476T208 456Q163 456 128 474T73 525T53 601Q53 642 72 676T127 729T210 749Q256 749 291 730T346 678T365 603ZM292 602Q292 640 270 664T209 688Q170 688 148
665T125 602Q125 564 147 541T209 517Q248 517 270 540T292 602Z" />
<glyph unicode="&#xb1;" glyph-name="plusminus" horiz-adv-x="650" d="M579 0H71V68H579V0ZM286 184V400H71V468H286V682H364V468H579V400H364V184H286Z" />
<glyph unicode="&#xb2;" glyph-name="twosuperior" horiz-adv-x="506" d="M433 338H82V409Q158 456 208 489T286 548T326 597T337 646Q337 683 315 704T250 726Q208 726 186 707T163 652Q163 626 171 602H94Q85 621 85 651Q85 715 130 751T254 787Q331 787 375
750T420 648Q420 615 407 586T366 528T293 469T186 404V402Q237 403 307 403H433V338Z" />
<glyph unicode="&#xb3;" glyph-name="threesuperior" horiz-adv-x="504" d="M142 474Q158 389 256 389Q301 389 326 408T351 463Q351 500 327 517T252 534H188V590H236Q272 590 289 595T319 612Q337 630 337 663Q337 693 314 710T251 728Q210 728 186 709T155
651L80 666Q93 726 137 756T255 787Q331 787 375 755T419 667Q419 629 401 605T347 568V567Q434 546 434 460Q434 403 385 366T256 329Q173 329 127 361T67 458L142 474Z" />
<glyph unicode="&#xb4;" glyph-name="acute" horiz-adv-x="339" d="M157 693H266L148 551H72L157 693Z" />
<glyph unicode="&#xb5;" glyph-name="mu" horiz-adv-x="567" d="M82 -204V481H162V211Q162 166 165 146T178 107Q191 82 214 68T271 54Q296 54 319 63T358 88Q383 113 394 150T405 250V481H485V237Q485 176 485 129T488 0H411L409 70H408Q385 30 347 9T260 -12Q189
-12 159 30H158L162 -204H82Z" />
<glyph unicode="&#xb6;" glyph-name="paragraph" horiz-adv-x="711" d="M528 -204V610H419V-204H342V233H308Q228 233 170 260T82 339T52 459Q52 530 84 580T177 656T319 682Q347 682 388 682T456 681H605V-204H528Z" />
<glyph unicode="&#xb7;" glyph-name="middot" horiz-adv-x="262" d="M79 260V384H184V260H79Z" />
<glyph unicode="&#xb8;" glyph-name="cedilla" horiz-adv-x="290" d="M78 -204Q101 -184 116 -164T131 -128Q131 -114 121 -103T82 -77L128 2H198L168 -50Q190 -66 200 -83T211 -122Q211 -142 197 -164T161 -204H78Z" />
<glyph unicode="&#xb9;" glyph-name="onesuperior" horiz-adv-x="358" d="M185 338V671Q164 654 133 646T55 638V703Q118 703 152 722T195 780H263V338H185Z" />
<glyph unicode="&#xba;" glyph-name="ordmasculine" horiz-adv-x="535" d="M76 177V239H459V177H76ZM479 559Q479 491 454 439T380 358T266 329Q200 329 153 357T81 436T56 557Q56 625 81 677T155 758T269 787Q333 787 380 760T453 681T479 559ZM403 558Q403 608
386 646T338 705T267 725Q226 725 196 704T149 645T132 558Q132 509 149 471T196 412T267 391Q309 391 339 412T386 471T403 558Z" />
<glyph unicode="&#xbb;" glyph-name="guillemotright" horiz-adv-x="649" d="M150 490L318 274L150 58L87 91L212 273L87 456L150 490ZM397 507L574 274L397 42L334 75L468 273L334 472L397 507Z" />
<glyph unicode="&#xbc;" glyph-name="onequarter" horiz-adv-x="942" d="M185 338V671Q164 654 133 646T55 638V703Q118 703 152 722T195 780H263V338H185ZM751 778L207 -96H120L665 778H751ZM578 59Q616 60 664 61T735 62V175Q735 256 737 284H736L578 59V59ZM735
-96V-2H503V65L699 344H813V62H891V-2H813V-96H735Z" />
<glyph unicode="&#xbd;" glyph-name="onehalf" horiz-adv-x="985" d="M185 338V671Q164 654 133 646T55 638V703Q118 703 152 722T195 780H263V338H185ZM751 778L207 -96H120L665 778H751ZM912 -96H561V-25Q637 22 687 55T765 114T805 163T816 212Q816 249 794
270T729 292Q687 292 665 273T642 218Q642 192 650 168H573Q564 187 564 217Q564 281 609 317T733 353Q810 353 854 316T899 214Q899 181 886 152T845 94T772 35T665 -30V-32Q716 -31 786 -31H912V-96Z" />
<glyph unicode="&#xbe;" glyph-name="threequarters" horiz-adv-x="1068" d="M142 474Q158 389 256 389Q301 389 326 408T351 463Q351 500 327 517T252 534H188V590H236Q272 590 289 595T319 612Q337 630 337 663Q337 693 314 710T251 728Q210 728 186 709T155
651L80 666Q93 726 137 756T255 787Q331 787 375 755T419 667Q419 629 401 605T347 568V567Q434 546 434 460Q434 403 385 366T256 329Q173 329 127 361T67 458L142 474ZM877 778L333 -96H246L791 778H877ZM703 59Q741 60 789 61T860 62V175Q860 256 862 284H861L703
59V59ZM860 -96V-2H628V65L824 344H938V62H1016V-2H938V-96H860Z" />
<glyph unicode="&#xbf;" glyph-name="questiondown" horiz-adv-x="616" d="M340 338Q340 313 333 293T310 254T253 207T196 160T173 120T165 74Q165 43 183 17T233 -23T308 -38Q352 -38 386 -22T438 23T456 90Q456 108 455 122T451 145H534Q538 135 539 122T541
93Q541 33 512 -13T429 -85T305 -110Q237 -110 184 -87T103 -23T74 71Q74 105 84 134T114 188T176 243T231 286T251 314T258 344L260 404H339L340 338ZM349 614V481H249V614H349Z" />
<glyph unicode="&#xc0;" glyph-name="Agrave" horiz-adv-x="651" d="M321 601Q307 549 232 345L199 250H446L413 343Q332 562 322 601H321ZM372 682L634 0H536L471 182H175L111 0H17L278 682H372ZM380 748H298L169 882H288L380 748Z" />
<glyph unicode="&#xc1;" glyph-name="Aacute" horiz-adv-x="651" d="M321 601Q307 549 232 345L199 250H446L413 343Q332 562 322 601H321ZM372 682L634 0H536L471 182H175L111 0H17L278 682H372ZM361 882H480L351 748H270L361 882Z" />
<glyph unicode="&#xc2;" glyph-name="Acircumflex" horiz-adv-x="651" d="M321 601Q307 549 232 345L199 250H446L413 343Q332 562 322 601H321ZM372 682L634 0H536L471 182H175L111 0H17L278 682H372ZM280 882H369L486 748H402L324 822L247 748H164L280 882Z" />
<glyph unicode="&#xc3;" glyph-name="Atilde" horiz-adv-x="651" d="M321 601Q307 549 232 345L199 250H446L413 343Q332 562 322 601H321ZM372 682L634 0H536L471 182H175L111 0H17L278 682H372ZM254 811Q236 811 226 795T216 752H150Q150 791 162 820T198 864T256
879Q278 879 299 871T345 844T379 820T396 815Q413 815 423 831T433 874H500Q500 835 488 806T451 762T393 747Q371 747 350 755T304 782T271 806T254 811Z" />
<glyph unicode="&#xc4;" glyph-name="Adieresis" horiz-adv-x="651" d="M321 601Q307 549 232 345L199 250H446L413 343Q332 562 322 601H321ZM372 682L634 0H536L471 182H175L111 0H17L278 682H372ZM396 758V874H481V758H396ZM170 758V874H255V758H170Z" />
<glyph unicode="&#xc5;" glyph-name="Aring" horiz-adv-x="651" d="M321 601Q307 549 232 345L199 250H446L413 343Q332 562 322 601H321ZM372 682L634 0H536L471 182H175L111 0H17L278 682H372ZM369 834Q369 854 358 867T325 881Q303 881 292 868T281 834Q281
814 292 801T325 788Q346 788 357 801T369 834ZM433 835Q433 794 404 766T324 738Q272 738 244 764T216 834Q216 875 245 903T326 931Q378 931 405 905T433 835Z" />
<glyph unicode="&#xc6;" glyph-name="AE" horiz-adv-x="972" d="M199 246H455V610H378L199 246ZM892 682V610H541V383H845V314H541V73H909V0H455V177H167L80 0H-16L325 682H892Z" />
<glyph unicode="&#xc7;" glyph-name="Ccedilla" horiz-adv-x="693" d="M658 175Q625 83 554 34T380 -15Q288 -15 216 28T103 153T63 340Q63 446 103 526T218 652T380 697Q473 697 544 650T649 519L571 488Q546 551 495 586T378 621Q313 621 262 587T182 489T154
341Q154 256 182 193T263 96T382 62Q456 62 506 97T581 199L658 175ZM291 -204Q346 -156 346 -128Q346 -114 333 -101T296 -78L342 2H416L386 -50Q409 -67 419 -84T430 -122Q430 -142 415 -165T378 -204H291Z" />
<glyph unicode="&#xc8;" glyph-name="Egrave" horiz-adv-x="646" d="M106 682H566V610H192V383H519V314H192V73H583V0H106V682ZM392 748H310L181 882H300L392 748Z" />
<glyph unicode="&#xc9;" glyph-name="Eacute" horiz-adv-x="646" d="M106 682H566V610H192V383H519V314H192V73H583V0H106V682ZM369 882H488L359 748H278L369 882Z" />
<glyph unicode="&#xca;" glyph-name="Ecircumflex" horiz-adv-x="646" d="M106 682H566V610H192V383H519V314H192V73H583V0H106V682ZM292 882H381L498 748H414L336 822L259 748H176L292 882Z" />
<glyph unicode="&#xcb;" glyph-name="Edieresis" horiz-adv-x="646" d="M106 682H566V610H192V383H519V314H192V73H583V0H106V682ZM409 758V874H494V758H409ZM183 758V874H268V758H183Z" />
<glyph unicode="&#xcc;" glyph-name="Igrave" horiz-adv-x="297" d="M106 682H192V0H106V682ZM460 748H378L249 882H368L460 748Z" />
<glyph unicode="&#xcd;" glyph-name="Iacute" horiz-adv-x="297" d="M106 682H192V0H106V682ZM186 882H305L176 748H95L186 882Z" />
<glyph unicode="&#xce;" glyph-name="Icircumflex" horiz-adv-x="297" d="M106 682H192V0H106V682ZM360 882H449L566 748H482L404 822L327 748H244L360 882Z" />
<glyph unicode="&#xcf;" glyph-name="Idieresis" horiz-adv-x="297" d="M106 682H192V0H106V682ZM475 758V874H560V758H475ZM249 758V874H334V758H249Z" />
<glyph unicode="&#xd0;" glyph-name="Eth" horiz-adv-x="743" d="M120 315H10V383H120V681Q195 682 323 682Q421 682 482 662T590 595Q635 550 658 487T681 343Q681 262 657 196T589 86Q543 40 482 20T323 0Q221 1 120 1V315ZM205 77Q265 74 325 74Q406 74 447
87T519 131Q555 167 572 219T590 340Q590 405 571 459T517 548Q483 582 441 595T320 609Q238 609 205 608V383H405V315H205V77Z" />
<glyph unicode="&#xd1;" glyph-name="Ntilde" horiz-adv-x="764" d="M552 0L306 387Q273 439 239 493T183 584H182Q184 526 185 422T186 232V0H106V682H220L459 308Q486 266 512 224T580 111H582Q580 169 579 273T577 463V682H658V0H552ZM312 811Q294 811 284
795T274 752H208Q208 791 220 820T256 864T314 879Q336 879 357 871T403 844T437 820T454 815Q471 815 481 831T491 874H558Q558 835 546 806T509 762T451 747Q429 747 408 755T362 782T329 806T312 811Z" />
<glyph unicode="&#xd2;" glyph-name="Ograve" horiz-adv-x="780" d="M717 342Q717 237 676 156T559 30T389 -15Q291 -15 217 29T103 154T63 340Q63 445 104 526T221 652T391 697Q488 697 562 653T677 528T717 342ZM626 341Q626 425 597 488T515 586T390 621Q319
621 266 587T183 490T154 341Q154 257 182 194T264 96T390 62Q461 62 514 95T597 193T626 341ZM445 748H363L234 882H353L445 748Z" />
<glyph unicode="&#xd3;" glyph-name="Oacute" horiz-adv-x="780" d="M717 342Q717 237 676 156T559 30T389 -15Q291 -15 217 29T103 154T63 340Q63 445 104 526T221 652T391 697Q488 697 562 653T677 528T717 342ZM626 341Q626 425 597 488T515 586T390 621Q319
621 266 587T183 490T154 341Q154 257 182 194T264 96T390 62Q461 62 514 95T597 193T626 341ZM426 882H545L416 748H335L426 882Z" />
<glyph unicode="&#xd4;" glyph-name="Ocircumflex" horiz-adv-x="780" d="M717 342Q717 237 676 156T559 30T389 -15Q291 -15 217 29T103 154T63 340Q63 445 104 526T221 652T391 697Q488 697 562 653T677 528T717 342ZM626 341Q626 425 597 488T515 586T390 621Q319
621 266 587T183 490T154 341Q154 257 182 194T264 96T390 62Q461 62 514 95T597 193T626 341ZM345 882H434L551 748H467L389 822L312 748H229L345 882Z" />
<glyph unicode="&#xd5;" glyph-name="Otilde" horiz-adv-x="780" d="M717 342Q717 237 676 156T559 30T389 -15Q291 -15 217 29T103 154T63 340Q63 445 104 526T221 652T391 697Q488 697 562 653T677 528T717 342ZM626 341Q626 425 597 488T515 586T390 621Q319
621 266 587T183 490T154 341Q154 257 182 194T264 96T390 62Q461 62 514 95T597 193T626 341ZM319 811Q301 811 291 795T281 752H215Q215 791 227 820T263 864T321 879Q343 879 364 871T410 844T444 820T461 815Q478 815 488 831T498 874H565Q565 835 553 806T516
762T458 747Q436 747 415 755T369 782T336 806T319 811Z" />
<glyph unicode="&#xd6;" glyph-name="Odieresis" horiz-adv-x="780" d="M717 342Q717 237 676 156T559 30T389 -15Q291 -15 217 29T103 154T63 340Q63 445 104 526T221 652T391 697Q488 697 562 653T677 528T717 342ZM626 341Q626 425 597 488T515 586T390 621Q319
621 266 587T183 490T154 341Q154 257 182 194T264 96T390 62Q461 62 514 95T597 193T626 341ZM461 758V874H546V758H461ZM235 758V874H320V758H235Z" />
<glyph unicode="&#xd7;" glyph-name="multiply" horiz-adv-x="650" d="M509 85L325 271L140 85L88 138L274 322L88 507L140 559L325 373L509 559L562 507L376 322L562 138L509 85Z" />
<glyph unicode="&#xd8;" glyph-name="Oslash" horiz-adv-x="780" d="M153 341Q153 293 163 251T192 175L543 564Q514 592 475 607T390 622Q317 622 264 587T182 489T153 341ZM627 341Q627 389 617 431T588 507L237 118Q266 90 305 76T390 61Q463 61 516 96T598
194T627 341ZM59 29L131 108Q97 154 80 212T63 340Q63 444 104 525T220 652T391 697Q451 697 503 679T597 626L666 702L720 653L648 573Q682 529 699 470T717 342Q717 238 676 157T560 30T389 -15Q328 -15 276 3T182 56L114 -20L59 29Z" />
<glyph unicode="&#xd9;" glyph-name="Ugrave" horiz-adv-x="732" d="M185 261Q185 196 206 152T268 85T368 62Q427 62 468 84T530 151T551 261V682H632V258Q632 173 601 112T510 18T366 -15Q279 -15 220 16T130 108T99 251V682H185V261ZM421 748H339L210 882H329L421
748Z" />
<glyph unicode="&#xda;" glyph-name="Uacute" horiz-adv-x="732" d="M185 261Q185 196 206 152T268 85T368 62Q427 62 468 84T530 151T551 261V682H632V258Q632 173 601 112T510 18T366 -15Q279 -15 220 16T130 108T99 251V682H185V261ZM402 882H521L392 748H311L402
882Z" />
<glyph unicode="&#xdb;" glyph-name="Ucircumflex" horiz-adv-x="732" d="M185 261Q185 196 206 152T268 85T368 62Q427 62 468 84T530 151T551 261V682H632V258Q632 173 601 112T510 18T366 -15Q279 -15 220 16T130 108T99 251V682H185V261ZM321 882H410L527
748H443L365 822L288 748H205L321 882Z" />
<glyph unicode="&#xdc;" glyph-name="Udieresis" horiz-adv-x="732" d="M185 261Q185 196 206 152T268 85T368 62Q427 62 468 84T530 151T551 261V682H632V258Q632 173 601 112T510 18T366 -15Q279 -15 220 16T130 108T99 251V682H185V261ZM437 758V874H522V758H437ZM211
758V874H296V758H211Z" />
<glyph unicode="&#xdd;" glyph-name="Yacute" horiz-adv-x="610" d="M262 0V289L0 682H104L308 371L510 682H610L348 289V0H262ZM341 882H460L331 748H250L341 882Z" />
<glyph unicode="&#xde;" glyph-name="Thorn" horiz-adv-x="643" d="M192 226Q245 225 359 225Q421 225 461 240T520 284T539 360Q539 407 521 436T463 480T361 495Q245 495 192 494V226ZM106 0V682H192V568Q198 568 256 568T363 569Q453 569 512 546T601 476T630
362Q630 295 600 248T508 177T356 152Q253 152 192 153V0H106Z" />
<glyph unicode="&#xdf;" glyph-name="germandbls" horiz-adv-x="581" d="M82 505Q82 574 107 621T179 692T296 716Q361 716 406 698T475 645T499 566Q499 538 491 516T465 477T414 440T369 410T353 389T347 365Q347 353 353 342T372 321T430 286T498 240T532 193T543
133Q543 90 523 57T466 6T380 -13Q347 -13 313 -4T251 22L280 86Q302 71 329 62T382 53Q408 53 425 62T451 88T460 128Q460 145 453 159T430 185T370 223T305 267T274 310T264 361Q264 386 272 406T295 442T346 480T393 512T410 536T416 564Q416 589 402 609T360
639T294 650Q249 650 220 635T177 587T162 504V0H82V505Z" />
<glyph unicode="&#xe0;" glyph-name="agrave" horiz-adv-x="521" d="M47 131Q47 171 65 201T122 251T221 281T366 291V324Q366 375 338 401T255 428Q210 428 173 408T105 346L56 393Q94 442 146 468T261 494Q351 494 398 451T446 326V236Q446 180 446 137T449
0H372L370 69H369Q341 30 300 9T211 -13Q137 -13 92 26T47 131ZM366 229Q299 229 255 224T183 207T144 178T131 134Q131 95 156 74T229 53Q268 53 299 72T348 125T366 198V229V229ZM313 552H237L118 694H228L313 552Z" />
<glyph unicode="&#xe1;" glyph-name="aacute" horiz-adv-x="521" d="M47 131Q47 171 65 201T122 251T221 281T366 291V324Q366 375 338 401T255 428Q210 428 173 408T105 346L56 393Q94 442 146 468T261 494Q351 494 398 451T446 326V236Q446 180 446 137T449
0H372L370 69H369Q341 30 300 9T211 -13Q137 -13 92 26T47 131ZM366 229Q299 229 255 224T183 207T144 178T131 134Q131 95 156 74T229 53Q268 53 299 72T348 125T366 198V229V229ZM298 694H407L289 552H213L298 694Z" />
<glyph unicode="&#xe2;" glyph-name="acircumflex" horiz-adv-x="521" d="M47 131Q47 171 65 201T122 251T221 281T366 291V324Q366 375 338 401T255 428Q210 428 173 408T105 346L56 393Q94 442 146 468T261 494Q351 494 398 451T446 326V236Q446 180 446 137T449
0H372L370 69H369Q341 30 300 9T211 -13Q137 -13 92 26T47 131ZM366 229Q299 229 255 224T183 207T144 178T131 134Q131 95 156 74T229 53Q268 53 299 72T348 125T366 198V229V229ZM214 694H313L413 552H335L262 640L189 552H113L214 694Z" />
<glyph unicode="&#xe3;" glyph-name="atilde" horiz-adv-x="521" d="M47 131Q47 171 65 201T122 251T221 281T366 291V324Q366 375 338 401T255 428Q210 428 173 408T105 346L56 393Q94 442 146 468T261 494Q351 494 398 451T446 326V236Q446 180 446 137T449
0H372L370 69H369Q341 30 300 9T211 -13Q137 -13 92 26T47 131ZM366 229Q299 229 255 224T183 207T144 178T131 134Q131 95 156 74T229 53Q268 53 299 72T348 125T366 198V229V229ZM199 622Q182 622 173 607T164 563H101Q101 602 112 630T146 672T202 687Q223 687
241 679T282 652T311 628T326 624Q344 624 353 639T362 682H425Q425 644 413 616T378 574T323 559Q303 559 285 567T244 594T214 617T199 622Z" />
<glyph unicode="&#xe4;" glyph-name="adieresis" horiz-adv-x="521" d="M47 131Q47 171 65 201T122 251T221 281T366 291V324Q366 375 338 401T255 428Q210 428 173 408T105 346L56 393Q94 442 146 468T261 494Q351 494 398 451T446 326V236Q446 180 446 137T449
0H372L370 69H369Q341 30 300 9T211 -13Q137 -13 92 26T47 131ZM366 229Q299 229 255 224T183 207T144 178T131 134Q131 95 156 74T229 53Q268 53 299 72T348 125T366 198V229V229ZM318 567V683H397V567H318ZM130 567V683H209V567H130Z" />
<glyph unicode="&#xe5;" glyph-name="aring" horiz-adv-x="521" d="M47 131Q47 171 65 201T122 251T221 281T366 291V324Q366 375 338 401T255 428Q210 428 173 408T105 346L56 393Q94 442 146 468T261 494Q351 494 398 451T446 326V236Q446 180 446 137T449 0H372L370
69H369Q341 30 300 9T211 -13Q137 -13 92 26T47 131ZM366 229Q299 229 255 224T183 207T144 178T131 134Q131 95 156 74T229 53Q268 53 299 72T348 125T366 198V229V229ZM308 645Q308 665 297 678T264 691Q243 691 232 678T220 645Q220 625 231 612T264 599Q285
599 296 612T308 645ZM372 646Q372 605 343 577T263 549Q211 549 183 575T155 644Q155 685 184 713T265 741Q316 741 344 715T372 646Z" />
<glyph unicode="&#xe6;" glyph-name="ae" horiz-adv-x="849" d="M229 53Q267 53 298 71T347 124T366 198V229Q299 229 255 224T183 207T144 178T131 134Q131 95 156 74T229 53ZM719 283Q718 325 701 359T654 410T586 428Q548 428 519 412T471 362T448 283H719ZM212
-13Q137 -13 92 26T47 131Q47 171 65 201T122 251T221 281T366 291V324Q365 376 337 402T255 428Q210 428 173 408T105 346L56 393Q94 442 146 468T261 494Q322 494 362 474T421 414Q449 453 492 473T589 494Q654 494 702 466T777 386T804 273Q804 243 800 222H446Q449
145 490 100T600 54Q651 54 688 72T755 132L803 86Q764 34 714 11T596 -13Q527 -13 479 15T400 100Q372 42 325 15T212 -13Z" />
<glyph unicode="&#xe7;" glyph-name="ccedilla" horiz-adv-x="519" d="M481 124Q447 53 397 20T272 -13Q203 -13 152 18T74 106T47 239Q47 315 74 373T153 462T271 494Q343 494 393 462T474 364L401 329Q381 378 349 402T269 426Q228 426 197 404T149 340T132
241Q132 185 149 143T199 78T274 55Q323 55 356 79T411 153L481 124ZM190 -204Q213 -184 228 -164T243 -128Q243 -114 233 -103T194 -77L240 2H310L280 -50Q302 -66 312 -83T323 -122Q323 -142 309 -164T273 -204H190Z" />
<glyph unicode="&#xe8;" glyph-name="egrave" horiz-adv-x="536" d="M405 283Q405 324 389 357T342 409T273 428Q235 428 206 412T158 362T135 283H405ZM283 -13Q210 -13 157 17T76 104T47 239Q47 315 75 373T155 462T276 494Q342 494 390 466T464 385T491 273Q491
243 487 222H133Q134 171 154 133T208 75T287 54Q337 54 374 72T441 132L490 86Q450 34 400 11T283 -13ZM318 552H242L123 694H233L318 552Z" />
<glyph unicode="&#xe9;" glyph-name="eacute" horiz-adv-x="536" d="M405 283Q405 324 389 357T342 409T273 428Q235 428 206 412T158 362T135 283H405ZM283 -13Q210 -13 157 17T76 104T47 239Q47 315 75 373T155 462T276 494Q342 494 390 466T464 385T491 273Q491
243 487 222H133Q134 171 154 133T208 75T287 54Q337 54 374 72T441 132L490 86Q450 34 400 11T283 -13ZM303 694H412L294 552H218L303 694Z" />
<glyph unicode="&#xea;" glyph-name="ecircumflex" horiz-adv-x="536" d="M405 283Q405 324 389 357T342 409T273 428Q235 428 206 412T158 362T135 283H405ZM283 -13Q210 -13 157 17T76 104T47 239Q47 315 75 373T155 462T276 494Q342 494 390 466T464 385T491
273Q491 243 487 222H133Q134 171 154 133T208 75T287 54Q337 54 374 72T441 132L490 86Q450 34 400 11T283 -13ZM219 694H318L418 552H340L267 640L194 552H118L219 694Z" />
<glyph unicode="&#xeb;" glyph-name="edieresis" horiz-adv-x="536" d="M405 283Q405 324 389 357T342 409T273 428Q235 428 206 412T158 362T135 283H405ZM283 -13Q210 -13 157 17T76 104T47 239Q47 315 75 373T155 462T276 494Q342 494 390 466T464 385T491
273Q491 243 487 222H133Q134 171 154 133T208 75T287 54Q337 54 374 72T441 132L490 86Q450 34 400 11T283 -13ZM322 567V683H401V567H322ZM134 567V683H213V567H134Z" />
<glyph unicode="&#xec;" glyph-name="igrave" horiz-adv-x="244" d="M82 0V481H162V0H82ZM428 551H352L233 693H343L428 551Z" />
<glyph unicode="&#xed;" glyph-name="iacute" horiz-adv-x="244" d="M82 0V481H162V0H82ZM157 693H266L148 551H72L157 693Z" />
<glyph unicode="&#xee;" glyph-name="icircumflex" horiz-adv-x="244" d="M82 0V481H162V0H82ZM329 693H428L528 551H450L377 639L304 551H228L329 693Z" />
<glyph unicode="&#xef;" glyph-name="idieresis" horiz-adv-x="244" d="M82 0V481H162V0H82ZM421 566V682H498V566H421ZM257 566V682H334V566H257Z" />
<glyph unicode="&#xf0;" glyph-name="eth" horiz-adv-x="568" d="M169 525L143 577L249 627Q200 665 151 691L234 726Q283 696 324 662L445 720L471 668L370 621Q413 577 447 524T499 406T518 270Q518 184 490 120T409 21T281 -13Q209 -13 157 17T76 104T47 238Q47
313 75 370T154 459T269 490Q318 490 357 470T418 416L419 417Q382 504 297 586L169 525ZM431 239Q431 292 413 334T361 399T282 422Q236 422 202 399T150 334T132 239Q132 184 151 142T204 78T282 55Q327 55 361 78T413 143T431 239Z" />
<glyph unicode="&#xf1;" glyph-name="ntilde" horiz-adv-x="566" d="M411 0V270Q411 315 408 335T395 373Q382 399 358 412T298 426Q271 426 248 417T209 393Q184 368 173 331T162 231V0H82V241Q82 282 82 316T82 379T81 432T79 481H156L158 410H159Q182 450 222
472T315 494Q401 494 446 445T491 301V0H411ZM219 622Q202 622 193 607T184 563H121Q121 602 132 630T166 672T222 687Q243 687 261 679T302 652T331 628T346 624Q364 624 373 639T382 682H445Q445 644 433 616T398 574T343 559Q323 559 305 567T264 594T234 617T219
622Z" />
<glyph unicode="&#xf2;" glyph-name="ograve" horiz-adv-x="564" d="M517 241Q517 166 488 108T406 19T281 -13Q208 -13 156 18T75 106T47 239Q47 315 76 373T158 462T283 494Q356 494 408 463T489 375T517 241ZM432 240Q432 294 414 336T361 402T282 425Q236
425 202 402T150 337T132 240Q132 187 150 145T203 79T282 55Q328 55 362 78T414 144T432 240ZM332 552H256L137 694H247L332 552Z" />
<glyph unicode="&#xf3;" glyph-name="oacute" horiz-adv-x="564" d="M517 241Q517 166 488 108T406 19T281 -13Q208 -13 156 18T75 106T47 239Q47 315 76 373T158 462T283 494Q356 494 408 463T489 375T517 241ZM432 240Q432 294 414 336T361 402T282 425Q236
425 202 402T150 337T132 240Q132 187 150 145T203 79T282 55Q328 55 362 78T414 144T432 240ZM317 694H426L308 552H232L317 694Z" />
<glyph unicode="&#xf4;" glyph-name="ocircumflex" horiz-adv-x="564" d="M517 241Q517 166 488 108T406 19T281 -13Q208 -13 156 18T75 106T47 239Q47 315 76 373T158 462T283 494Q356 494 408 463T489 375T517 241ZM432 240Q432 294 414 336T361 402T282 425Q236
425 202 402T150 337T132 240Q132 187 150 145T203 79T282 55Q328 55 362 78T414 144T432 240ZM233 694H332L432 552H354L281 640L208 552H132L233 694Z" />
<glyph unicode="&#xf5;" glyph-name="otilde" horiz-adv-x="564" d="M517 241Q517 166 488 108T406 19T281 -13Q208 -13 156 18T75 106T47 239Q47 315 76 373T158 462T283 494Q356 494 408 463T489 375T517 241ZM432 240Q432 294 414 336T361 402T282 425Q236
425 202 402T150 337T132 240Q132 187 150 145T203 79T282 55Q328 55 362 78T414 144T432 240ZM218 622Q201 622 192 607T183 563H120Q120 602 131 630T165 672T221 687Q242 687 260 679T301 652T330 628T345 624Q363 624 372 639T381 682H444Q444 644 432 616T397
574T342 559Q322 559 304 567T263 594T233 617T218 622Z" />
<glyph unicode="&#xf6;" glyph-name="odieresis" horiz-adv-x="564" d="M517 241Q517 166 488 108T406 19T281 -13Q208 -13 156 18T75 106T47 239Q47 315 76 373T158 462T283 494Q356 494 408 463T489 375T517 241ZM432 240Q432 294 414 336T361 402T282 425Q236
425 202 402T150 337T132 240Q132 187 150 145T203 79T282 55Q328 55 362 78T414 144T432 240ZM336 567V683H415V567H336ZM148 567V683H227V567H148Z" />
<glyph unicode="&#xf7;" glyph-name="divide" horiz-adv-x="650" d="M276 462V591H374V462H276ZM589 288H61V356H589V288ZM276 53V182H374V53H276Z" />
<glyph unicode="&#xf8;" glyph-name="oslash" horiz-adv-x="564" d="M433 240Q433 270 428 294T413 339L188 89Q206 72 230 63T282 54Q328 54 362 77T415 143T433 240ZM131 240Q131 211 136 186T150 141L376 391Q357 408 333 417T282 427Q236 427 202 404T149
338T131 240ZM29 8L91 77Q69 108 58 149T47 239Q47 315 76 373T158 462T283 494Q326 494 362 483T427 449L487 516L535 473L472 404Q494 371 505 330T517 241Q517 166 488 108T406 19T281 -13Q237 -13 201 -2T136 31L77 -35L29 8Z" />
<glyph unicode="&#xf9;" glyph-name="ugrave" horiz-adv-x="560" d="M405 0L403 70H402Q378 30 338 9T248 -13Q191 -13 153 9T95 75T75 180V481H155V211Q155 166 158 146T171 107Q184 82 207 68T264 54Q289 54 313 63T351 88Q376 113 387 150T399 250V481H479V237Q479
176 479 129T482 0H405ZM330 551H254L135 693H245L330 551Z" />
<glyph unicode="&#xfa;" glyph-name="uacute" horiz-adv-x="560" d="M405 0L403 70H402Q378 30 338 9T248 -13Q191 -13 153 9T95 75T75 180V481H155V211Q155 166 158 146T171 107Q184 82 207 68T264 54Q289 54 313 63T351 88Q376 113 387 150T399 250V481H479V237Q479
176 479 129T482 0H405ZM315 693H424L306 551H230L315 693Z" />
<glyph unicode="&#xfb;" glyph-name="ucircumflex" horiz-adv-x="560" d="M405 0L403 70H402Q378 30 338 9T248 -13Q191 -13 153 9T95 75T75 180V481H155V211Q155 166 158 146T171 107Q184 82 207 68T264 54Q289 54 313 63T351 88Q376 113 387 150T399 250V481H479V237Q479
176 479 129T482 0H405ZM231 693H330L430 551H352L279 639L206 551H130L231 693Z" />
<glyph unicode="&#xfc;" glyph-name="udieresis" horiz-adv-x="560" d="M405 0L403 70H402Q378 30 338 9T248 -13Q191 -13 153 9T95 75T75 180V481H155V211Q155 166 158 146T171 107Q184 82 207 68T264 54Q289 54 313 63T351 88Q376 113 387 150T399 250V481H479V237Q479
176 479 129T482 0H405ZM335 566V682H414V566H335ZM147 566V682H226V566H147Z" />
<glyph unicode="&#xfd;" glyph-name="yacute" horiz-adv-x="492" d="M116 -204L212 0H205L11 481H103L181 279Q197 239 215 187T249 86H250Q260 119 280 177T317 279L393 481H481L204 -204H116ZM282 693H391L273 551H197L282 693Z" />
<glyph unicode="&#xfe;" glyph-name="thorn" horiz-adv-x="584" d="M82 710H162V505Q162 447 158 412H159Q182 451 223 472T319 494Q386 494 435 463T510 374T537 243Q537 167 510 109T433 19T315 -13Q265 -13 225 7T160 64H159Q162 29 162 -25V-204H82V710ZM160
231Q160 179 178 139T229 76T307 54Q352 54 385 76T435 141T452 241Q452 296 434 338T382 403T303 426Q260 426 228 405T178 344T160 250V231Z" />
<glyph unicode="&#xff;" glyph-name="ydieresis" horiz-adv-x="492" d="M116 -204L212 0H205L11 481H103L181 279Q197 239 215 187T249 86H250Q260 119 280 177T317 279L393 481H481L204 -204H116ZM300 566V682H379V566H300ZM112 566V682H191V566H112Z" />
<glyph unicode="&#x100;" glyph-name="Amacron" horiz-adv-x="651" d="M321 601Q307 549 232 345L199 250H446L413 343Q332 562 322 601H321ZM372 682L634 0H536L471 182H175L111 0H17L278 682H372ZM477 776H172V847H477V776Z" />
<glyph unicode="&#x101;" glyph-name="amacron" horiz-adv-x="521" d="M47 131Q47 171 65 201T122 251T221 281T366 291V324Q366 375 338 401T255 428Q210 428 173 408T105 346L56 393Q94 442 146 468T261 494Q351 494 398 451T446 326V236Q446 180 446 137T449
0H372L370 69H369Q341 30 300 9T211 -13Q137 -13 92 26T47 131ZM366 229Q299 229 255 224T183 207T144 178T131 134Q131 95 156 74T229 53Q268 53 299 72T348 125T366 198V229V229ZM402 586H125V653H402V586Z" />
<glyph unicode="&#x102;" glyph-name="Abreve" horiz-adv-x="651" d="M321 601Q307 549 232 345L199 250H446L413 343Q332 562 322 601H321ZM372 682L634 0H536L471 182H175L111 0H17L278 682H372ZM476 886Q476 840 458 808T406 760T324 744Q276 744 243 759T192
807T174 886H244Q244 861 252 845T279 820T325 811Q352 811 370 820T397 845T406 886H476Z" />
<glyph unicode="&#x103;" glyph-name="abreve" horiz-adv-x="521" d="M47 131Q47 171 65 201T122 251T221 281T366 291V324Q366 375 338 401T255 428Q210 428 173 408T105 346L56 393Q94 442 146 468T261 494Q351 494 398 451T446 326V236Q446 180 446 137T449
0H372L370 69H369Q341 30 300 9T211 -13Q137 -13 92 26T47 131ZM366 229Q299 229 255 224T183 207T144 178T131 134Q131 95 156 74T229 53Q268 53 299 72T348 125T366 198V229V229ZM405 694Q405 649 390 618T343 571T263 554Q216 554 185 570T139 618T123 694H188Q188
670 196 653T221 627T264 618Q290 618 307 627T332 654T340 694H405Z" />
<glyph unicode="&#x104;" glyph-name="Aogonek" horiz-adv-x="651" d="M199 250H446L413 343Q332 562 322 601H321Q307 549 232 345L199 250ZM637 -204Q625 -207 608 -209T572 -212Q534 -212 511 -203T477 -178T466 -137Q466 -106 487 -71T547 0H536L471 182H175L111
0H17L278 682H372L634 0Q593 -37 572 -68T550 -125Q550 -138 558 -144T586 -150H637V-204Z" />
<glyph unicode="&#x105;" glyph-name="aogonek" horiz-adv-x="521" d="M370 69H369Q342 30 301 9T211 -13Q137 -13 92 26T47 131Q47 171 65 201T122 251T221 281T366 291V324Q366 375 338 401T255 428Q210 428 173 408T105 346L56 393Q94 442 146 468T261 494Q351
494 398 451T446 326V236Q446 117 446 76T448 0Q408 -43 390 -72T372 -128Q372 -142 381 -147T408 -153H457V-205Q445 -208 429 -210T398 -212Q360 -212 337 -204T304 -179T293 -137Q293 -106 311 -75T372 3L370 69ZM366 229Q299 229 255 224T183 207T144 178T131
134Q131 95 156 74T229 53Q267 53 298 71T347 124T366 198V229V229Z" />
<glyph unicode="&#x106;" glyph-name="Cacute" horiz-adv-x="693" d="M658 175Q625 83 554 34T380 -15Q288 -15 216 28T103 153T63 340Q63 446 103 526T218 652T380 697Q473 697 544 650T649 519L571 488Q546 551 495 586T378 621Q313 621 262 587T182 489T154
341Q154 256 182 193T263 96T382 62Q456 62 506 97T581 199L658 175ZM417 882H536L407 748H326L417 882Z" />
<glyph unicode="&#x107;" glyph-name="cacute" horiz-adv-x="519" d="M481 124Q447 53 397 20T272 -13Q203 -13 152 18T74 106T47 239Q47 315 74 373T153 462T271 494Q343 494 393 462T474 364L401 329Q381 378 349 402T269 426Q228 426 197 404T149 340T132 241Q132
185 149 143T199 78T274 55Q323 55 356 79T411 153L481 124ZM306 694H415L297 552H221L306 694Z" />
<glyph unicode="&#x108;" glyph-name="Ccircumflex" horiz-adv-x="693" d="M658 175Q625 83 554 34T380 -15Q288 -15 216 28T103 153T63 340Q63 446 103 526T218 652T380 697Q473 697 544 650T649 519L571 488Q546 551 495 586T378 621Q313 621 262 587T182 489T154
341Q154 256 182 193T263 96T382 62Q456 62 506 97T581 199L658 175ZM336 882H425L542 748H458L380 822L303 748H220L336 882Z" />
<glyph unicode="&#x109;" glyph-name="ccircumflex" horiz-adv-x="519" d="M481 124Q447 53 397 20T272 -13Q203 -13 152 18T74 106T47 239Q47 315 74 373T153 462T271 494Q343 494 393 462T474 364L401 329Q381 378 349 402T269 426Q228 426 197 404T149 340T132
241Q132 185 149 143T199 78T274 55Q323 55 356 79T411 153L481 124ZM222 694H321L421 552H343L270 640L197 552H121L222 694Z" />
<glyph unicode="&#x10a;" glyph-name="Cdotaccent" horiz-adv-x="693" d="M658 175Q625 83 554 34T380 -15Q288 -15 216 28T103 153T63 340Q63 446 103 526T218 652T380 697Q473 697 544 650T649 519L571 488Q546 551 495 586T378 621Q313 621 262 587T182 489T154
341Q154 256 182 193T263 96T382 62Q456 62 506 97T581 199L658 175ZM338 758V874H425V758H338Z" />
<glyph unicode="&#x10b;" glyph-name="cdotaccent" horiz-adv-x="519" d="M481 124Q447 53 397 20T272 -13Q203 -13 152 18T74 106T47 239Q47 315 74 373T153 462T271 494Q343 494 393 462T474 364L401 329Q381 378 349 402T269 426Q228 426 197 404T149 340T132
241Q132 185 149 143T199 78T274 55Q323 55 356 79T411 153L481 124ZM229 567V683H311V567H229Z" />
<glyph unicode="&#x10c;" glyph-name="Ccaron" horiz-adv-x="693" d="M658 175Q625 83 554 34T380 -15Q288 -15 216 28T103 153T63 340Q63 446 103 526T218 652T380 697Q473 697 544 650T649 519L571 488Q546 551 495 586T378 621Q313 621 262 587T182 489T154
341Q154 256 182 193T263 96T382 62Q456 62 506 97T581 199L658 175ZM426 748H336L220 882H303L381 808L460 882H542L426 748Z" />
<glyph unicode="&#x10d;" glyph-name="ccaron" horiz-adv-x="519" d="M481 124Q447 53 397 20T272 -13Q203 -13 152 18T74 106T47 239Q47 315 74 373T153 462T271 494Q343 494 393 462T474 364L401 329Q381 378 349 402T269 426Q228 426 197 404T149 340T132 241Q132
185 149 143T199 78T274 55Q323 55 356 79T411 153L481 124ZM319 552H220L120 694H198L271 607L344 694H420L319 552Z" />
<glyph unicode="&#x10e;" glyph-name="Dcaron" horiz-adv-x="729" d="M106 681Q181 682 309 682Q407 682 468 662T576 595Q621 550 644 487T667 343Q667 262 643 196T575 86Q529 40 468 20T309 0Q207 1 106 1V681ZM191 78Q251 75 311 75Q393 75 433 87T505 131Q541
167 558 219T576 340Q576 405 557 459T503 548Q469 582 427 595T306 609Q224 609 191 608V78ZM389 748H299L183 882H266L344 808L423 882H505L389 748Z" />
<glyph unicode="&#x10f;" glyph-name="dcaron" horiz-adv-x="609" d="M428 0L426 70H425Q402 30 361 9T265 -13Q198 -13 149 18T74 106T47 238Q47 314 74 372T152 462T269 494Q320 494 359 474T424 417H425Q422 452 422 505V710H502V239Q502 152 502 104T505 0H428ZM425
250Q425 303 407 343T354 404T278 426Q232 426 200 404T150 339T132 240Q132 185 150 143T202 77T281 54Q325 54 358 76T408 138T425 230V250ZM585 757H671L617 568H552L585 757Z" />
<glyph unicode="&#x110;" glyph-name="Dcroat" horiz-adv-x="743" d="M120 315H10V383H120V681Q195 682 323 682Q421 682 482 662T590 595Q635 550 658 487T681 343Q681 262 657 196T589 86Q543 40 482 20T323 0Q221 1 120 1V315ZM205 77Q265 74 325 74Q406 74
447 87T519 131Q555 167 572 219T590 340Q590 405 571 459T517 548Q483 582 441 595T320 609Q238 609 205 608V383H405V315H205V77Z" />
<glyph unicode="&#x111;" glyph-name="" horiz-adv-x="584" d="M425 250Q425 302 407 342T355 404T278 426Q232 426 200 404T150 339T132 240Q132 185 150 143T202 77T281 54Q325 54 358 76T408 138T425 230V250ZM428 0L426 70H425Q402 30 361 9T265 -13Q198 -13
149 18T74 106T47 238Q47 314 74 372T152 462T269 494Q320 494 359 474T424 417H425Q422 452 422 505V560H286V625H422V713H502V625H597V560H502V239Q502 152 502 104T505 0H428Z" />
<glyph unicode="&#x112;" glyph-name="Emacron" horiz-adv-x="646" d="M106 682H566V610H192V383H519V314H192V73H583V0H106V682ZM489 776H184V847H489V776Z" />
<glyph unicode="&#x113;" glyph-name="emacron" horiz-adv-x="536" d="M405 283Q405 324 389 357T342 409T273 428Q235 428 206 412T158 362T135 283H405ZM283 -13Q210 -13 157 17T76 104T47 239Q47 315 75 373T155 462T276 494Q342 494 390 466T464 385T491 273Q491
243 487 222H133Q134 171 154 133T208 75T287 54Q337 54 374 72T441 132L490 86Q450 34 400 11T283 -13ZM406 586H129V653H406V586Z" />
<glyph unicode="&#x114;" glyph-name="Ebreve" horiz-adv-x="646" d="M106 682H566V610H192V383H519V314H192V73H583V0H106V682ZM489 886Q489 840 471 808T419 760T337 744Q289 744 256 759T205 807T187 886H257Q257 861 265 845T292 820T338 811Q365 811 383
820T410 845T419 886H489Z" />
<glyph unicode="&#x115;" glyph-name="ebreve" horiz-adv-x="536" d="M405 283Q405 324 389 357T342 409T273 428Q235 428 206 412T158 362T135 283H405ZM283 -13Q210 -13 157 17T76 104T47 239Q47 315 75 373T155 462T276 494Q342 494 390 466T464 385T491 273Q491
243 487 222H133Q134 171 154 133T208 75T287 54Q337 54 374 72T441 132L490 86Q450 34 400 11T283 -13ZM409 694Q409 649 394 618T347 571T267 554Q220 554 189 570T143 618T127 694H192Q192 670 200 653T225 627T268 618Q294 618 311 627T336 654T344 694H409Z"
/>
<glyph unicode="&#x116;" glyph-name="Edotaccent" horiz-adv-x="646" d="M106 682H566V610H192V383H519V314H192V73H583V0H106V682ZM293 758V874H380V758H293Z" />
<glyph unicode="&#x117;" glyph-name="edotaccent" horiz-adv-x="536" d="M405 283Q405 324 389 357T342 409T273 428Q235 428 206 412T158 362T135 283H405ZM283 -13Q210 -13 157 17T76 104T47 239Q47 315 75 373T155 462T276 494Q342 494 390 466T464 385T491
273Q491 243 487 222H133Q134 171 154 133T208 75T287 54Q337 54 374 72T441 132L490 86Q450 34 400 11T283 -13ZM227 567V683H309V567H227Z" />
<glyph unicode="&#x118;" glyph-name="Eogonek" horiz-adv-x="646" d="M583 -204Q571 -207 554 -209T518 -212Q482 -212 459 -204T425 -180T413 -137Q413 -107 434 -71T495 0H106V682H566V610H192V383H519V314H192V73H583V3Q540 -39 518 -70T496 -125Q496 -138
504 -144T532 -150H583V-204Z" />
<glyph unicode="&#x119;" glyph-name="eogonek" horiz-adv-x="536" d="M273 428Q235 428 206 412T158 363T135 283H405Q405 323 389 357T342 409T273 428ZM458 -204Q446 -207 430 -209T399 -212Q361 -212 338 -204T305 -179T294 -137Q294 -105 311 -69T361 2Q325
-13 283 -13Q211 -13 158 17T76 104T47 239Q47 317 75 374T156 463T276 494Q342 494 390 466T464 385T491 273Q491 243 487 222H133Q134 171 154 133T209 75T287 54Q334 54 371 70T449 125L487 71Q447 24 423 -12T386 -78T373 -127Q373 -142 382 -147T409 -153H458V-204Z"
/>
<glyph unicode="&#x11a;" glyph-name="Ecaron" horiz-adv-x="646" d="M106 682H566V610H192V383H519V314H192V73H583V0H106V682ZM383 748H293L177 882H260L338 808L417 882H499L383 748Z" />
<glyph unicode="&#x11b;" glyph-name="ecaron" horiz-adv-x="536" d="M405 283Q405 324 389 357T342 409T273 428Q235 428 206 412T158 362T135 283H405ZM283 -13Q210 -13 157 17T76 104T47 239Q47 315 75 373T155 462T276 494Q342 494 390 466T464 385T491 273Q491
243 487 222H133Q134 171 154 133T208 75T287 54Q337 54 374 72T441 132L490 86Q450 34 400 11T283 -13ZM317 552H218L118 694H196L269 607L342 694H418L317 552Z" />
<glyph unicode="&#x11c;" glyph-name="Gcircumflex" horiz-adv-x="758" d="M586 0V104H585Q555 48 500 17T373 -15Q283 -15 212 29T102 154T63 340Q63 442 103 524T217 651T383 697Q477 697 544 660T657 543L588 494Q553 559 501 590T377 621Q310 621 260 586T182
486T154 341Q154 256 182 192T262 95T380 61Q437 61 482 89T551 168T576 278V297H384V367H663V0H586ZM338 882H427L544 748H460L382 822L305 748H222L338 882Z" />
<glyph unicode="&#x11d;" glyph-name="gcircumflex" horiz-adv-x="586" d="M425 250Q425 302 407 342T356 404T278 426Q233 426 200 404T150 339T133 241Q133 187 151 145T203 79T282 56Q326 56 358 78T408 140T425 232V250ZM511 481Q507 444 506 385T504 242V-13Q504
-111 450 -162T289 -214Q218 -214 163 -188T67 -106L120 -55Q152 -102 195 -125T291 -148Q356 -148 390 -115T425 -18Q425 -4 425 24T426 70H425Q401 31 361 11T266 -10Q199 -10 150 20T75 108T48 239Q48 315 75 373T153 462T270 494Q322 494 362 473T428 413H429L433
481H511ZM230 694H329L429 552H351L278 640L205 552H129L230 694Z" />
<glyph unicode="&#x11e;" glyph-name="Gbreve" horiz-adv-x="758" d="M586 0V104H585Q555 48 500 17T373 -15Q283 -15 212 29T102 154T63 340Q63 442 103 524T217 651T383 697Q477 697 544 660T657 543L588 494Q553 559 501 590T377 621Q310 621 260 586T182 486T154
341Q154 256 182 192T262 95T380 61Q437 61 482 89T551 168T576 278V297H384V367H663V0H586ZM534 886Q534 840 516 808T464 760T382 744Q334 744 301 759T250 807T232 886H302Q302 861 310 845T337 820T383 811Q410 811 428 820T455 845T464 886H534Z" />
<glyph unicode="&#x11f;" glyph-name="gbreve" horiz-adv-x="586" d="M425 250Q425 302 407 342T356 404T278 426Q233 426 200 404T150 339T133 241Q133 187 151 145T203 79T282 56Q326 56 358 78T408 140T425 232V250ZM511 481Q507 444 506 385T504 242V-13Q504
-111 450 -162T289 -214Q218 -214 163 -188T67 -106L120 -55Q152 -102 195 -125T291 -148Q356 -148 390 -115T425 -18Q425 -4 425 24T426 70H425Q401 31 361 11T266 -10Q199 -10 150 20T75 108T48 239Q48 315 75 373T153 462T270 494Q322 494 362 473T428 413H429L433
481H511ZM421 694Q421 649 406 618T359 571T279 554Q232 554 201 570T155 618T139 694H204Q204 670 212 653T237 627T280 618Q306 618 323 627T348 654T356 694H421Z" />
<glyph unicode="&#x120;" glyph-name="Gdotaccent" horiz-adv-x="758" d="M586 0V104H585Q555 48 500 17T373 -15Q283 -15 212 29T102 154T63 340Q63 442 103 524T217 651T383 697Q477 697 544 660T657 543L588 494Q553 559 501 590T377 621Q310 621 260 586T182
486T154 341Q154 256 182 192T262 95T380 61Q437 61 482 89T551 168T576 278V297H384V367H663V0H586ZM339 758V874H426V758H339Z" />
<glyph unicode="&#x121;" glyph-name="gdotaccent" horiz-adv-x="586" d="M425 250Q425 302 407 342T356 404T278 426Q233 426 200 404T150 339T133 241Q133 187 151 145T203 79T282 56Q326 56 358 78T408 140T425 232V250ZM511 481Q507 444 506 385T504 242V-13Q504
-111 450 -162T289 -214Q218 -214 163 -188T67 -106L120 -55Q152 -102 195 -125T291 -148Q356 -148 390 -115T425 -18Q425 -4 425 24T426 70H425Q401 31 361 11T266 -10Q199 -10 150 20T75 108T48 239Q48 315 75 373T153 462T270 494Q322 494 362 473T428 413H429L433
481H511ZM238 567V683H320V567H238Z" />
<glyph unicode="&#x122;" glyph-name="Gcommaaccent" horiz-adv-x="758" d="M586 0V104H585Q555 48 500 17T373 -15Q283 -15 212 29T102 154T63 340Q63 442 103 524T217 651T383 697Q477 697 544 660T657 543L588 494Q553 559 501 590T377 621Q310 621 260 586T182
486T154 341Q154 256 182 192T262 95T380 61Q437 61 482 89T551 168T576 278V297H384V367H663V0H586ZM422 -52V-125Q422 -166 398 -187T326 -208H307V-169H324Q342 -169 350 -160T358 -132H336V-52H422Z" />
<glyph unicode="&#x123;" glyph-name="gcommaaccent" horiz-adv-x="586" d="M425 250Q425 302 407 342T356 404T278 426Q233 426 200 404T150 339T133 241Q133 187 151 145T203 79T282 56Q326 56 358 78T408 140T425 232V250ZM511 481Q507 444 506 385T504 242V-13Q504
-111 450 -162T289 -214Q218 -214 163 -188T67 -106L120 -55Q152 -102 195 -125T291 -148Q356 -148 390 -115T425 -18Q425 -4 425 24T426 70H425Q401 31 361 11T266 -10Q199 -10 150 20T75 108T48 239Q48 315 75 373T153 462T270 494Q322 494 362 473T428 413H429L433
481H511ZM232 567V644Q232 681 253 704T324 728H343V688H324Q304 688 298 678T291 649H313V567H232Z" />
<glyph unicode="&#x124;" glyph-name="Hcircumflex" horiz-adv-x="756" d="M106 682H192V391H564V682H650V0H564V315H192V0H106V682ZM333 882H422L539 748H455L377 822L300 748H217L333 882Z" />
<glyph unicode="&#x125;" glyph-name="hcircumflex" horiz-adv-x="566" d="M82 710H162V505Q162 448 159 412H160Q183 451 223 472T315 494Q372 494 411 473T470 408T491 301V0H411V270Q411 315 408 335T395 373Q382 399 358 412T298 426Q271 426 248 417T209
393Q184 368 173 331T162 231V0H82V710ZM232 922H331L431 780H353L280 868L207 780H131L232 922Z" />
<glyph unicode="&#x126;" glyph-name="Hbar" horiz-adv-x="776" d="M574 376V499H202V376H574ZM116 499H10V569H116V682H202V569H574V682H660V569H766V499H660V0H574V302H202V0H116V499Z" />
<glyph unicode="&#x127;" glyph-name="hbar" horiz-adv-x="566" d="M82 560H-13V625H82V713H162V625H299V560H162V505Q162 448 159 412H160Q183 451 223 472T315 494Q372 494 411 473T470 408T491 301V0H411V270Q411 314 408 335T395 373Q382 399 358 412T298
426Q271 426 248 417T209 393Q184 368 173 331T162 231V0H82V560Z" />
<glyph unicode="&#x128;" glyph-name="Itilde" horiz-adv-x="297" d="M106 682H192V0H106V682ZM334 811Q316 811 306 795T296 752H230Q230 791 242 820T278 864T336 879Q358 879 379 871T425 844T459 820T476 815Q493 815 503 831T513 874H580Q580 835 568 806T531
762T473 747Q451 747 430 755T384 782T351 806T334 811Z" />
<glyph unicode="&#x129;" glyph-name="itilde" horiz-adv-x="244" d="M82 0V481H162V0H82ZM322 621Q309 621 303 606T296 562H236Q236 604 246 631T275 672T324 686Q344 686 361 678T396 650T421 626T434 622Q447 622 453 637T460 681H521Q521 639 511 612T481
571T432 557Q412 557 395 565T360 593T335 617T322 621Z" />
<glyph unicode="&#x12a;" glyph-name="Imacron" horiz-adv-x="297" d="M106 682H192V0H106V682ZM557 776H252V847H557V776Z" />
<glyph unicode="&#x12b;" glyph-name="imacron" horiz-adv-x="244" d="M82 0V481H162V0H82ZM516 585H239V652H516V585Z" />
<glyph unicode="&#x12c;" glyph-name="Ibreve" horiz-adv-x="297" d="M106 682H192V0H106V682ZM556 886Q556 840 538 808T486 760T404 744Q356 744 323 759T272 807T254 886H324Q324 861 332 845T359 820T405 811Q432 811 450 820T477 845T486 886H556Z" />
<glyph unicode="&#x12d;" glyph-name="ibreve" horiz-adv-x="244" d="M82 0V481H162V0H82ZM519 693Q519 648 504 617T457 570T377 553Q330 553 299 569T253 617T237 693H302Q302 669 310 652T335 626T378 617Q404 617 421 626T446 653T454 693H519Z" />
<glyph unicode="&#x12e;" glyph-name="Iogonek" horiz-adv-x="297" d="M214 -204Q202 -207 185 -209T150 -212Q112 -212 88 -203T54 -178T43 -137Q43 -110 59 -78T111 0H106V682H192V0Q155 -54 141 -80T127 -125Q127 -139 135 -144T162 -150H214V-204Z" />
<glyph unicode="&#x12f;" glyph-name="iogonek" horiz-adv-x="244" d="M185 -204Q173 -207 156 -209T125 -212Q88 -212 65 -204T31 -179T20 -137Q20 -111 36 -79T87 0H82V481H162V1Q127 -53 114 -80T100 -128Q100 -142 109 -147T136 -153H185V-204ZM81 562V686H163V562H81Z"
/>
<glyph unicode="&#x130;" glyph-name="Idot" horiz-adv-x="297" d="M106 682H192V0H106V682ZM105 758V874H192V758H105Z" />
<glyph unicode="&#x131;" glyph-name="dotlessi" horiz-adv-x="244" d="M82 0V481H162V0H82Z" />
<glyph unicode="&#x132;" glyph-name="IJ" horiz-adv-x="833" d="M106 682H192V0H106V682ZM733 682V210Q733 103 678 44T525 -15Q484 -15 447 -4T381 33T334 101T310 207L395 223Q402 138 432 100T527 61Q585 61 616 98T647 211V682H733Z" />
<glyph unicode="&#x133;" glyph-name="ij" horiz-adv-x="510" d="M81 562V686H163V562H81V562ZM82 0V481H162V0H82ZM350 562V686H432V562H350ZM431 481V-26Q431 -94 419 -134T378 -193T300 -212Q286 -212 272 -211T249 -207V-144H293Q317 -144 329 -132T346 -96T351
-23V481H431Z" />
<glyph unicode="&#x134;" glyph-name="Jcircumflex" horiz-adv-x="535" d="M436 682V210Q436 103 381 44T228 -15Q187 -15 150 -4T84 33T37 101T13 207L98 223Q105 138 135 100T230 61Q288 61 319 98T350 211V682H436ZM341 882H430L547 748H463L385 822L308 748H225L341
882Z" />
<glyph unicode="&#x135;" glyph-name="jcircumflex" horiz-adv-x="253" d="M171 481V-26Q171 -94 159 -134T118 -193T40 -212Q26 -212 12 -211T-11 -207V-144H33Q57 -144 69 -132T86 -96T91 -23V481H171ZM338 693H437L537 551H459L386 639L313 551H237L338 693Z" />
<glyph unicode="&#x136;" glyph-name="Kcommaaccent" horiz-adv-x="678" d="M659 682L396 425L677 0H573L335 365L192 226V0H106V682H192V330L545 682H659ZM406 -52V-125Q406 -166 382 -187T310 -208H291V-169H308Q326 -169 334 -160T342 -132H320V-52H406Z" />
<glyph unicode="&#x137;" glyph-name="kcommaaccent" horiz-adv-x="524" d="M82 710H162V263L394 481H503L316 312L521 0H421L257 259L162 173V0H82V710ZM319 -52V-125Q319 -161 298 -184T227 -208H208V-169H227Q247 -169 253 -159T260 -130H238V-52H319Z" />
<glyph unicode="&#x138;" glyph-name="kgreenlandic" horiz-adv-x="523" d="M82 481H162V244L401 481H503L315 300L520 0H421L257 245L162 154V0H82V481Z" />
<glyph unicode="&#x139;" glyph-name="Lacute" horiz-adv-x="551" d="M106 682H192V75H539V0H106V682ZM190 882H309L180 748H99L190 882Z" />
<glyph unicode="&#x13a;" glyph-name="lacute" horiz-adv-x="244" d="M82 710H162V0H82V710ZM157 922H266L148 780H72L157 922Z" />
<glyph unicode="&#x13b;" glyph-name="Lcommaaccent" horiz-adv-x="551" d="M106 682H192V75H539V0H106V682ZM357 -52V-125Q357 -166 333 -187T261 -208H242V-169H259Q277 -169 285 -160T293 -132H271V-52H357Z" />
<glyph unicode="&#x13c;" glyph-name="lcommaaccent" horiz-adv-x="244" d="M82 710H162V0H82V710ZM418 -52V-125Q418 -161 397 -184T326 -208H307V-169H326Q346 -169 352 -159T359 -130H337V-52H418Z" />
<glyph unicode="&#x13d;" glyph-name="Lcaron" horiz-adv-x="551" d="M106 682H192V75H539V0H106V682ZM301 757H387L333 568H268L301 757Z" />
<glyph unicode="&#x13e;" glyph-name="lcaron" horiz-adv-x="269" d="M82 710H162V0H82V710ZM244 757H330L276 568H211L244 757Z" />
<glyph unicode="&#x13f;" glyph-name="Ldot" horiz-adv-x="551" d="M106 682H192V75H539V0H106V682ZM369 310V434H474V310H369Z" />
<glyph unicode="&#x140;" glyph-name="ldot" horiz-adv-x="352" d="M82 710H162V0H82V710ZM246 260V384H351V260H246Z" />
<glyph unicode="&#x141;" glyph-name="Lslash" horiz-adv-x="561" d="M395 382L202 296V75H549V0H116V260L10 213V286L116 333V682H202V370L395 455V382Z" />
<glyph unicode="&#x142;" glyph-name="lslash" horiz-adv-x="264" d="M92 0V303L11 251V327L92 378V710H172V428L253 480V403L172 352V0H92Z" />
<glyph unicode="&#x143;" glyph-name="Nacute" horiz-adv-x="764" d="M552 0L306 387Q273 439 239 493T183 584H182Q184 526 185 422T186 232V0H106V682H220L459 308Q486 266 512 224T580 111H582Q580 169 579 273T577 463V682H658V0H552ZM418 882H537L408 748H327L418
882Z" />
<glyph unicode="&#x144;" glyph-name="nacute" horiz-adv-x="566" d="M411 0V270Q411 315 408 335T395 373Q382 399 358 412T298 426Q271 426 248 417T209 393Q184 368 173 331T162 231V0H82V241Q82 282 82 316T82 379T81 432T79 481H156L158 410H159Q182 450
222 472T315 494Q401 494 446 445T491 301V0H411ZM318 694H427L309 552H233L318 694Z" />
<glyph unicode="&#x145;" glyph-name="Ncommaaccent" horiz-adv-x="764" d="M552 0L306 387Q273 439 239 493T183 584H182Q184 526 185 422T186 232V0H106V682H220L459 308Q486 266 512 224T580 111H582Q580 169 579 273T577 463V682H658V0H552ZM417 -52V-125Q417
-166 393 -187T321 -208H302V-169H319Q337 -169 345 -160T353 -132H331V-52H417Z" />
<glyph unicode="&#x146;" glyph-name="ncommaaccent" horiz-adv-x="566" d="M411 0V270Q411 315 408 335T395 373Q382 399 358 412T298 426Q271 426 248 417T209 393Q184 368 173 331T162 231V0H82V241Q82 282 82 316T82 379T81 432T79 481H156L158 410H159Q182
450 222 472T315 494Q401 494 446 445T491 301V0H411ZM326 -52V-125Q326 -161 305 -184T234 -208H215V-169H234Q254 -169 260 -159T267 -130H245V-52H326Z" />
<glyph unicode="&#x147;" glyph-name="Ncaron" horiz-adv-x="764" d="M552 0L306 387Q273 439 239 493T183 584H182Q184 526 185 422T186 232V0H106V682H220L459 308Q486 266 512 224T580 111H582Q580 169 579 273T577 463V682H658V0H552ZM427 748H337L221 882H304L382
808L461 882H543L427 748Z" />
<glyph unicode="&#x148;" glyph-name="ncaron" horiz-adv-x="566" d="M411 0V270Q411 315 408 335T395 373Q382 399 358 412T298 426Q271 426 248 417T209 393Q184 368 173 331T162 231V0H82V241Q82 282 82 316T82 379T81 432T79 481H156L158 410H159Q182 450
222 472T315 494Q401 494 446 445T491 301V0H411ZM341 552H242L142 694H220L293 607L366 694H442L341 552Z" />
<glyph unicode="&#x14a;" glyph-name="Eng" horiz-adv-x="764" d="M512 -90Q536 -90 550 -80T570 -50T576 0V2L315 386Q239 497 220 527T183 584H182Q184 526 185 422T186 232V0H106V682H216L450 341Q486 287 517 239T581 140H582Q580 216 579 301T577 462V682H658V-1Q658
-59 643 -94T595 -145T514 -162Q487 -162 472 -157V-90H512Z" />
<glyph unicode="&#x14b;" glyph-name="eng" horiz-adv-x="566" d="M411 270Q411 315 408 335T395 373Q382 399 358 412T298 426Q271 426 248 417T209 393Q184 368 173 331T162 231V0H82V241Q82 299 82 344T79 481H156L158 410H159Q182 450 222 472T315 494Q401
494 446 445T491 301V-21Q491 -96 476 -134T429 -192T347 -212Q322 -212 308 -206V-144H341Q367 -144 382 -132T404 -95T411 -21V270Z" />
<glyph unicode="&#x14c;" glyph-name="Omacron" horiz-adv-x="780" d="M717 342Q717 237 676 156T559 30T389 -15Q291 -15 217 29T103 154T63 340Q63 445 104 526T221 652T391 697Q488 697 562 653T677 528T717 342ZM626 341Q626 425 597 488T515 586T390 621Q319
621 266 587T183 490T154 341Q154 257 182 194T264 96T390 62Q461 62 514 95T597 193T626 341ZM542 776H237V847H542V776Z" />
<glyph unicode="&#x14d;" glyph-name="omacron" horiz-adv-x="564" d="M517 241Q517 166 488 108T406 19T281 -13Q208 -13 156 18T75 106T47 239Q47 315 76 373T158 462T283 494Q356 494 408 463T489 375T517 241ZM432 240Q432 294 414 336T361 402T282 425Q236
425 202 402T150 337T132 240Q132 187 150 145T203 79T282 55Q328 55 362 78T414 144T432 240ZM421 586H144V653H421V586Z" />
<glyph unicode="&#x14e;" glyph-name="Obreve" horiz-adv-x="780" d="M717 342Q717 237 676 156T559 30T389 -15Q291 -15 217 29T103 154T63 340Q63 445 104 526T221 652T391 697Q488 697 562 653T677 528T717 342ZM626 341Q626 425 597 488T515 586T390 621Q319
621 266 587T183 490T154 341Q154 257 182 194T264 96T390 62Q461 62 514 95T597 193T626 341ZM541 886Q541 840 523 808T471 760T389 744Q341 744 308 759T257 807T239 886H309Q309 861 317 845T344 820T390 811Q417 811 435 820T462 845T471 886H541Z" />
<glyph unicode="&#x14f;" glyph-name="obreve" horiz-adv-x="564" d="M517 241Q517 166 488 108T406 19T281 -13Q208 -13 156 18T75 106T47 239Q47 315 76 373T158 462T283 494Q356 494 408 463T489 375T517 241ZM432 240Q432 294 414 336T361 402T282 425Q236
425 202 402T150 337T132 240Q132 187 150 145T203 79T282 55Q328 55 362 78T414 144T432 240ZM423 694Q423 649 408 618T361 571T281 554Q234 554 203 570T157 618T141 694H206Q206 670 214 653T239 627T282 618Q308 618 325 627T350 654T358 694H423Z" />
<glyph unicode="&#x150;" glyph-name="Ohungarumlaut" horiz-adv-x="780" d="M717 342Q717 237 676 156T559 30T389 -15Q291 -15 217 29T103 154T63 340Q63 445 104 526T221 652T391 697Q488 697 562 653T677 528T717 342ZM626 341Q626 425 597 488T515 586T390
621Q319 621 266 587T183 490T154 341Q154 257 182 194T264 96T390 62Q461 62 514 95T597 193T626 341ZM536 882H654L526 748H444L536 882ZM310 882H422L315 748H237L310 882Z" />
<glyph unicode="&#x151;" glyph-name="ohungarumlaut" horiz-adv-x="564" d="M517 241Q517 166 488 108T406 19T281 -13Q208 -13 156 18T75 106T47 239Q47 315 76 373T158 462T283 494Q356 494 408 463T489 375T517 241ZM432 240Q432 294 414 336T361 402T282
425Q236 425 202 402T150 337T132 240Q132 187 150 145T203 79T282 55Q328 55 362 78T414 144T432 240ZM411 694H521L401 552H326L411 694ZM213 694H316L220 552H147L213 694Z" />
<glyph unicode="&#x152;" glyph-name="OE" horiz-adv-x="1129" d="M610 341Q610 424 583 488T504 586T382 621Q312 621 261 587T182 488T154 341Q154 256 182 192T262 95T382 62Q452 62 503 96T582 194T610 341ZM381 696Q457 696 516 667T609 582H610V682H1049V609H696V383H1002V314H696V74H1066V0H610V109H609Q575
51 515 19T379 -14Q285 -14 214 29T103 153T63 340Q63 444 102 525T215 651T381 696Z" />
<glyph unicode="&#x153;" glyph-name="oe" horiz-adv-x="916" d="M786 283Q785 324 769 357T722 409T653 428Q615 428 586 412T538 362T515 283H786ZM282 55Q326 55 360 77T412 142T431 240Q431 294 413 336T361 402T282 425Q236 425 202 402T150 337T132 240Q132
185 151 143T204 78T282 55ZM281 -13Q209 -13 157 17T76 104T47 239Q47 315 76 373T158 462T283 494Q350 494 398 465T472 379Q498 434 545 464T656 494Q722 494 770 466T844 385T871 273Q871 243 867 222H513Q514 173 533 135T586 76T667 54Q718 54 755 72T822
132L870 86Q831 34 781 11T663 -13Q594 -13 546 16T471 103Q445 48 396 18T281 -13Z" />
<glyph unicode="&#x154;" glyph-name="Racute" horiz-adv-x="694" d="M192 349Q218 348 254 348T355 347Q416 347 455 361T514 403T534 479Q534 523 516 552T459 595T360 609Q290 609 256 609T192 608V349ZM550 0L337 274H192V0H106V682Q127 682 223 682T364 683Q448
683 506 660T595 592T625 481Q625 401 577 350T437 283L659 0H550ZM385 882H504L375 748H294L385 882Z" />
<glyph unicode="&#x155;" glyph-name="racute" horiz-adv-x="350" d="M82 0V241Q82 299 82 344T79 481H156L158 386H159Q188 438 229 465T318 493Q328 493 335 492V405Q326 406 316 406Q286 406 260 396T215 366Q186 337 174 297T162 171V0H82ZM239 693H348L230
551H154L239 693Z" />
<glyph unicode="&#x156;" glyph-name="Rcommaaccent" horiz-adv-x="694" d="M192 349Q218 348 254 348T355 347Q416 347 455 361T514 403T534 479Q534 523 516 552T459 595T360 609Q290 609 256 609T192 608V349ZM550 0L337 274H192V0H106V682Q127 682 223 682T364
683Q448 683 506 660T595 592T625 481Q625 401 577 350T437 283L659 0H550ZM406 -52V-125Q406 -166 382 -187T310 -208H291V-169H308Q326 -169 334 -160T342 -132H320V-52H406Z" />
<glyph unicode="&#x157;" glyph-name="rcommaaccent" horiz-adv-x="350" d="M82 0V241Q82 299 82 344T79 481H156L158 386H159Q188 438 229 465T318 493Q328 493 335 492V405Q326 406 316 406Q286 406 260 396T215 366Q186 337 174 297T162 171V0H82ZM418 -52V-125Q418
-161 397 -184T326 -208H307V-169H326Q346 -169 352 -159T359 -130H337V-52H418Z" />
<glyph unicode="&#x158;" glyph-name="Rcaron" horiz-adv-x="694" d="M192 349Q218 348 254 348T355 347Q416 347 455 361T514 403T534 479Q534 523 516 552T459 595T360 609Q290 609 256 609T192 608V349ZM550 0L337 274H192V0H106V682Q127 682 223 682T364 683Q448
683 506 660T595 592T625 481Q625 401 577 350T437 283L659 0H550ZM393 748H303L187 882H270L348 808L427 882H509L393 748Z" />
<glyph unicode="&#x159;" glyph-name="rcaron" horiz-adv-x="350" d="M82 0V241Q82 299 82 344T79 481H156L158 386H159Q188 438 229 465T318 493Q328 493 335 492V405Q326 406 316 406Q286 406 260 396T215 366Q186 337 174 297T162 171V0H82ZM509 551H410L310
693H388L461 606L534 693H610L509 551Z" />
<glyph unicode="&#x15a;" glyph-name="Sacute" horiz-adv-x="658" d="M106 172Q157 116 218 87T345 58Q393 58 429 73T485 114T505 176Q505 209 489 232T439 271T309 311T168 361T103 425T82 515Q82 568 111 609T193 674T316 697Q384 697 445 674T561 603L514
538Q469 582 420 603T314 624Q269 624 237 612T187 575T170 520Q170 489 186 467T234 428T364 389T506 339T572 273T593 181Q593 125 562 81T473 11T343 -15Q261 -15 189 16T57 109L106 172ZM357 882H476L347 748H266L357 882Z" />
<glyph unicode="&#x15b;" glyph-name="sacute" horiz-adv-x="491" d="M87 128Q123 92 167 73T256 53Q304 53 331 72T359 126Q359 147 348 161T315 186T225 212T125 247T78 294T63 360Q63 400 85 430T147 477T237 494Q288 494 335 478T421 429L379 373Q348 400
312 414T236 429Q208 429 188 422T156 400T145 364Q145 344 156 330T188 305T277 280T377 245T425 198T440 131Q440 89 418 57T352 6T255 -13Q196 -13 143 8T45 69L87 128ZM274 694H383L265 552H189L274 694Z" />
<glyph unicode="&#x15c;" glyph-name="Scircumflex" horiz-adv-x="658" d="M106 172Q157 116 218 87T345 58Q393 58 429 73T485 114T505 176Q505 209 489 232T439 271T309 311T168 361T103 425T82 515Q82 568 111 609T193 674T316 697Q384 697 445 674T561 603L514
538Q469 582 420 603T314 624Q269 624 237 612T187 575T170 520Q170 489 186 467T234 428T364 389T506 339T572 273T593 181Q593 125 562 81T473 11T343 -15Q261 -15 189 16T57 109L106 172ZM274 882H363L480 748H396L318 822L241 748H158L274 882Z" />
<glyph unicode="&#x15d;" glyph-name="scircumflex" horiz-adv-x="491" d="M87 128Q123 92 167 73T256 53Q304 53 331 72T359 126Q359 147 348 161T315 186T225 212T125 247T78 294T63 360Q63 400 85 430T147 477T237 494Q288 494 335 478T421 429L379 373Q348
400 312 414T236 429Q208 429 188 422T156 400T145 364Q145 344 156 330T188 305T277 280T377 245T425 198T440 131Q440 89 418 57T352 6T255 -13Q196 -13 143 8T45 69L87 128ZM190 694H289L389 552H311L238 640L165 552H89L190 694Z" />
<glyph unicode="&#x15e;" glyph-name="Scedilla" horiz-adv-x="658" d="M106 172Q157 116 218 87T345 58Q393 58 429 73T485 114T505 176Q505 209 489 232T439 271T309 311T168 361T103 425T82 515Q82 568 111 609T193 674T316 697Q384 697 445 674T561 603L514
538Q469 582 420 603T314 624Q269 624 237 612T187 575T170 520Q170 489 186 467T234 428T364 389T506 339T572 273T593 181Q593 125 562 81T473 11T343 -15Q261 -15 189 16T57 109L106 172ZM258 -204Q313 -156 313 -128Q313 -114 300 -101T263 -78L309 2H383L353
-50Q376 -67 386 -84T397 -122Q397 -142 382 -165T345 -204H258Z" />
<glyph unicode="&#x15f;" glyph-name="scedilla" horiz-adv-x="491" d="M87 128Q123 92 167 73T256 53Q304 53 331 72T359 126Q359 147 348 161T315 186T225 212T125 247T78 294T63 360Q63 400 85 430T147 477T237 494Q288 494 335 478T421 429L379 373Q348 400
312 414T236 429Q208 429 188 422T156 400T145 364Q145 344 156 330T188 305T277 280T377 245T425 198T440 131Q440 89 418 57T352 6T255 -13Q196 -13 143 8T45 69L87 128ZM174 -204Q197 -184 212 -164T227 -128Q227 -114 217 -103T178 -77L224 2H294L264 -50Q286
-66 296 -83T307 -122Q307 -142 293 -164T257 -204H174Z" />
<glyph unicode="&#x160;" glyph-name="Scaron" horiz-adv-x="658" d="M106 172Q157 116 218 87T345 58Q393 58 429 73T485 114T505 176Q505 209 489 232T439 271T309 311T168 361T103 425T82 515Q82 568 111 609T193 674T316 697Q384 697 445 674T561 603L514
538Q469 582 420 603T314 624Q269 624 237 612T187 575T170 520Q170 489 186 467T234 428T364 389T506 339T572 273T593 181Q593 125 562 81T473 11T343 -15Q261 -15 189 16T57 109L106 172ZM364 748H274L158 882H241L319 808L398 882H480L364 748Z" />
<glyph unicode="&#x161;" glyph-name="scaron" horiz-adv-x="491" d="M87 128Q123 92 167 73T256 53Q304 53 331 72T359 126Q359 147 348 161T315 186T225 212T125 247T78 294T63 360Q63 400 85 430T147 477T237 494Q288 494 335 478T421 429L379 373Q348 400
312 414T236 429Q208 429 188 422T156 400T145 364Q145 344 156 330T188 305T277 280T377 245T425 198T440 131Q440 89 418 57T352 6T255 -13Q196 -13 143 8T45 69L87 128ZM286 552H187L87 694H165L238 607L311 694H387L286 552Z" />
<glyph unicode="&#x162;" glyph-name="Tcommaaccent" horiz-adv-x="534" d="M224 608H-7V682H541V608H310V0H224V608ZM306 -52V-125Q306 -166 282 -187T210 -208H191V-169H208Q226 -169 234 -160T242 -132H220V-52H306Z" />
<glyph unicode="&#x163;" glyph-name="tcommaaccent" horiz-adv-x="350" d="M10 415V481H105V645L185 665V481H325V415H185V190Q185 142 186 121T192 90T204 70Q211 63 221 60T248 56Q268 56 289 60T325 72V4Q309 -3 284 -7T233 -12Q187 -12 159 4T118 52T105
138V415H10ZM255 -52V-125Q255 -161 234 -184T163 -208H144V-169H163Q183 -169 189 -159T196 -130H174V-52H255Z" />
<glyph unicode="&#x164;" glyph-name="Tcaron" horiz-adv-x="534" d="M224 608H-7V682H541V608H310V0H224V608ZM308 748H218L102 882H185L263 808L342 882H424L308 748Z" />
<glyph unicode="&#x165;" glyph-name="tcaron" horiz-adv-x="350" d="M10 415V481H105V645L185 665V481H325V415H185V190Q185 142 186 121T192 90T204 70Q211 63 221 60T248 56Q268 56 289 60T325 72V4Q309 -3 284 -7T233 -12Q187 -12 159 4T118 52T105 138V415H10ZM276
757H362L308 568H243L276 757Z" />
<glyph unicode="&#x166;" glyph-name="Tbar" horiz-adv-x="534" d="M224 0V309H39V378H224V608H-7V682H541V608H310V378H495V309H310V0H224Z" />
<glyph unicode="&#x167;" glyph-name="tbar" horiz-adv-x="350" d="M105 415H10V481H105V645L185 665V481H325V415H185V276H298V213H185V186Q185 125 188 104T204 70Q218 56 248 56Q268 56 289 60T325 72V4Q309 -3 284 -7T233 -12Q187 -12 159 4T118 52T105 138V213H20V276H105V415Z"
/>
<glyph unicode="&#x168;" glyph-name="Utilde" horiz-adv-x="732" d="M185 261Q185 196 206 152T268 85T368 62Q427 62 468 84T530 151T551 261V682H632V258Q632 173 601 112T510 18T366 -15Q279 -15 220 16T130 108T99 251V682H185V261ZM295 811Q277 811 267
795T257 752H191Q191 791 203 820T239 864T297 879Q319 879 340 871T386 844T420 820T437 815Q454 815 464 831T474 874H541Q541 835 529 806T492 762T434 747Q412 747 391 755T345 782T312 806T295 811Z" />
<glyph unicode="&#x169;" glyph-name="utilde" horiz-adv-x="560" d="M405 0L403 70H402Q378 30 338 9T248 -13Q191 -13 153 9T95 75T75 180V481H155V211Q155 166 158 146T171 107Q184 82 207 68T264 54Q289 54 313 63T351 88Q376 113 387 150T399 250V481H479V237Q479
176 479 129T482 0H405ZM216 621Q199 621 190 606T181 562H118Q118 601 129 629T163 671T219 686Q240 686 258 678T299 651T328 627T343 623Q361 623 370 638T379 681H442Q442 643 430 615T395 573T340 558Q320 558 302 566T261 593T231 616T216 621Z" />
<glyph unicode="&#x16a;" glyph-name="Umacron" horiz-adv-x="732" d="M185 261Q185 196 206 152T268 85T368 62Q427 62 468 84T530 151T551 261V682H632V258Q632 173 601 112T510 18T366 -15Q279 -15 220 16T130 108T99 251V682H185V261ZM518 776H213V847H518V776Z" />
<glyph unicode="&#x16b;" glyph-name="umacron" horiz-adv-x="560" d="M405 0L403 70H402Q378 30 338 9T248 -13Q191 -13 153 9T95 75T75 180V481H155V211Q155 166 158 146T171 107Q184 82 207 68T264 54Q289 54 313 63T351 88Q376 113 387 150T399 250V481H479V237Q479
176 479 129T482 0H405ZM419 585H142V652H419V585Z" />
<glyph unicode="&#x16c;" glyph-name="Ubreve" horiz-adv-x="732" d="M185 261Q185 196 206 152T268 85T368 62Q427 62 468 84T530 151T551 261V682H632V258Q632 173 601 112T510 18T366 -15Q279 -15 220 16T130 108T99 251V682H185V261ZM517 886Q517 840 499
808T447 760T365 744Q317 744 284 759T233 807T215 886H285Q285 861 293 845T320 820T366 811Q393 811 411 820T438 845T447 886H517Z" />
<glyph unicode="&#x16d;" glyph-name="ubreve" horiz-adv-x="560" d="M405 0L403 70H402Q378 30 338 9T248 -13Q191 -13 153 9T95 75T75 180V481H155V211Q155 166 158 146T171 107Q184 82 207 68T264 54Q289 54 313 63T351 88Q376 113 387 150T399 250V481H479V237Q479
176 479 129T482 0H405ZM421 693Q421 648 406 617T359 570T279 553Q232 553 201 569T155 617T139 693H204Q204 669 212 652T237 626T280 617Q306 617 323 626T348 653T356 693H421Z" />
<glyph unicode="&#x16e;" glyph-name="Uring" horiz-adv-x="732" d="M185 261Q185 196 206 152T268 85T368 62Q427 62 468 84T530 151T551 261V682H632V258Q632 173 601 112T510 18T366 -15Q279 -15 220 16T130 108T99 251V682H185V261ZM410 834Q410 854 399 867T366
881Q344 881 333 868T322 834Q322 814 333 801T366 788Q387 788 398 801T410 834ZM474 835Q474 794 445 766T365 738Q313 738 285 764T257 834Q257 875 286 903T367 931Q419 931 446 905T474 835Z" />
<glyph unicode="&#x16f;" glyph-name="uring" horiz-adv-x="560" d="M405 0L403 70H402Q378 30 338 9T248 -13Q191 -13 153 9T95 75T75 180V481H155V211Q155 166 158 146T171 107Q184 82 207 68T264 54Q289 54 313 63T351 88Q376 113 387 150T399 250V481H479V237Q479
176 479 129T482 0H405ZM325 644Q325 664 314 677T281 690Q260 690 249 677T237 644Q237 624 248 611T281 598Q302 598 313 611T325 644ZM389 645Q389 604 360 576T280 548Q228 548 200 574T172 643Q172 684 201 712T282 740Q333 740 361 714T389 645Z" />
<glyph unicode="&#x170;" glyph-name="Uhungarumlaut" horiz-adv-x="732" d="M185 261Q185 196 206 152T268 85T368 62Q427 62 468 84T530 151T551 261V682H632V258Q632 173 601 112T510 18T366 -15Q279 -15 220 16T130 108T99 251V682H185V261ZM510 882H628L500
748H418L510 882ZM284 882H396L289 748H211L284 882Z" />
<glyph unicode="&#x171;" glyph-name="uhungarumlaut" horiz-adv-x="560" d="M405 0L403 70H402Q378 30 338 9T248 -13Q191 -13 153 9T95 75T75 180V481H155V211Q155 166 158 146T171 107Q184 82 207 68T264 54Q289 54 313 63T351 88Q376 113 387 150T399 250V481H479V237Q479
176 479 129T482 0H405ZM402 693H512L392 551H317L402 693ZM204 693H307L211 551H138L204 693Z" />
<glyph unicode="&#x172;" glyph-name="Uogonek" horiz-adv-x="732" d="M523 -204Q509 -207 493 -209T459 -212Q420 -212 397 -203T363 -178T352 -137Q352 -108 368 -76T418 -8Q393 -15 366 -15Q279 -15 220 16T130 108T99 251V682H185V261Q185 196 206 152T268
85T368 62Q427 62 468 84T530 151T551 261V682H632V258Q632 194 615 143T562 56Q554 47 537 32T510 6Q474 -29 455 -64T436 -125Q436 -139 444 -144T472 -150H523V-204Z" />
<glyph unicode="&#x173;" glyph-name="uogonek" horiz-adv-x="560" d="M403 70H402Q378 30 338 9T248 -13Q192 -13 154 9T95 74T75 180V481H155V211Q155 166 158 146T171 107Q184 82 207 68T264 54Q289 54 313 63T351 88Q376 113 387 150T399 250V481H479V241Q479
151 479 99T482 0Q442 -41 424 -70T405 -128Q405 -142 414 -147T441 -153H490V-205Q477 -208 461 -210T430 -212Q395 -212 372 -204T337 -180T325 -137Q325 -107 343 -76T406 2L403 70Z" />
<glyph unicode="&#x174;" glyph-name="Wcircumflex" horiz-adv-x="1037" d="M244 0L33 682H129L221 362Q230 332 258 238T298 96H300Q310 131 327 189T381 363L480 682H560L662 362Q697 255 716 194T746 96H747Q758 136 784 228T822 363L913 682H1004L793 0H693L554
426Q541 469 535 493T518 556H517Q512 536 504 509T480 426L344 0H244ZM473 882H562L679 748H595L517 822L440 748H357L473 882Z" />
<glyph unicode="&#x175;" glyph-name="wcircumflex" horiz-adv-x="820" d="M542 0L438 275Q429 300 422 324T407 373H405Q399 349 392 325T375 274L277 0H200L20 481H111L198 232Q209 201 220 166T242 96H244Q254 135 265 170T286 233L373 481H444L535 232Q548
198 560 162T582 96H584Q592 124 603 160T626 232L710 481H799L619 0H542ZM360 693H459L559 551H481L408 639L335 551H259L360 693Z" />
<glyph unicode="&#x176;" glyph-name="Ycircumflex" horiz-adv-x="610" d="M262 0V289L0 682H104L308 371L510 682H610L348 289V0H262ZM260 882H349L466 748H382L304 822L227 748H144L260 882Z" />
<glyph unicode="&#x177;" glyph-name="ycircumflex" horiz-adv-x="492" d="M116 -204L212 0H205L11 481H103L181 279Q197 239 215 187T249 86H250Q260 119 280 177T317 279L393 481H481L204 -204H116ZM198 693H297L397 551H319L246 639L173 551H97L198 693Z" />
<glyph unicode="&#x178;" glyph-name="Ydieresis" horiz-adv-x="610" d="M262 0V289L0 682H104L308 371L510 682H610L348 289V0H262ZM376 758V874H461V758H376ZM150 758V874H235V758H150Z" />
<glyph unicode="&#x179;" glyph-name="Zacute" horiz-adv-x="628" d="M584 0H44V77L466 608Q414 608 335 607T216 606H59V682H569V606L149 76Q202 76 276 76T386 77H584V0ZM339 882H458L329 748H248L339 882Z" />
<glyph unicode="&#x17a;" glyph-name="zacute" horiz-adv-x="494" d="M448 0H46V68L337 415Q314 415 265 415T190 414H57V481H433V414L143 67Q168 67 223 67T311 68H448V0ZM276 693H385L267 551H191L276 693Z" />
<glyph unicode="&#x17b;" glyph-name="Zdotaccent" horiz-adv-x="628" d="M584 0H44V77L466 608Q414 608 335 607T216 606H59V682H569V606L149 76Q202 76 276 76T386 77H584V0ZM272 758V874H359V758H272Z" />
<glyph unicode="&#x17c;" glyph-name="zdotaccent" horiz-adv-x="494" d="M448 0H46V68L337 415Q314 415 265 415T190 414H57V481H433V414L143 67Q168 67 223 67T311 68H448V0ZM199 566V682H281V566H199Z" />
<glyph unicode="&#x17d;" glyph-name="Zcaron" horiz-adv-x="628" d="M584 0H44V77L466 608Q414 608 335 607T216 606H59V682H569V606L149 76Q202 76 276 76T386 77H584V0ZM361 748H271L155 882H238L316 808L395 882H477L361 748Z" />
<glyph unicode="&#x17e;" glyph-name="zcaron" horiz-adv-x="494" d="M448 0H46V68L337 415Q314 415 265 415T190 414H57V481H433V414L143 67Q168 67 223 67T311 68H448V0ZM296 551H197L97 693H175L248 606L321 693H397L296 551Z" />
<glyph unicode="&#x17f;" glyph-name="longs" horiz-adv-x="260" d="M82 0V570Q82 618 97 650T143 699T222 716Q239 716 260 713T297 704V635Q280 642 261 645T225 648Q202 648 189 640T169 614T162 564V0H82Z" />
<glyph unicode="&#x192;" glyph-name="florin" horiz-adv-x="526" d="M447 321H278L251 108Q239 11 227 -25T194 -84T143 -119T68 -131Q45 -131 20 -126T-24 -113L-4 -45Q12 -52 33 -56T72 -61Q94 -61 109 -53T134 -28T151 17T167 108L193 321H54V388H201L214
484Q227 581 239 617T271 677T323 711T397 723Q419 723 444 718T489 705L469 637Q452 644 431 648T393 653Q371 653 356 645T331 619T314 572T299 484L286 388H447V321Z" />
<glyph unicode="&#x1e6;" glyph-name="Gcaron" horiz-adv-x="758" d="M586 0V104H585Q555 48 500 17T373 -15Q283 -15 212 29T102 154T63 340Q63 442 103 524T217 651T383 697Q477 697 544 660T657 543L588 494Q553 559 501 590T377 621Q310 621 260 586T182 486T154
341Q154 256 182 192T262 95T380 61Q437 61 482 89T551 168T576 278V297H384V367H663V0H586ZM428 748H338L222 882H305L383 808L462 882H544L428 748Z" />
<glyph unicode="&#x1e7;" glyph-name="gcaron" horiz-adv-x="586" d="M425 250Q425 302 407 342T356 404T278 426Q233 426 200 404T150 339T133 241Q133 187 151 145T203 79T282 56Q326 56 358 78T408 140T425 232V250ZM511 481Q507 444 506 385T504 242V-13Q504
-111 450 -162T289 -214Q218 -214 163 -188T67 -106L120 -55Q152 -102 195 -125T291 -148Q356 -148 390 -115T425 -18Q425 -4 425 24T426 70H425Q401 31 361 11T266 -10Q199 -10 150 20T75 108T48 239Q48 315 75 373T153 462T270 494Q322 494 362 473T428 413H429L433
481H511ZM329 552H230L130 694H208L281 607L354 694H430L329 552Z" />
<glyph unicode="&#x1fa;" glyph-name="Aringacute" horiz-adv-x="651" d="M321 601Q307 549 232 345L199 250H446L413 343Q332 562 322 601H321ZM372 682L634 0H536L471 182H175L111 0H17L278 682H372ZM359 980H476L358 874H278L359 980ZM367 741Q367 761 357
773T325 786Q304 786 293 774T282 742Q282 722 293 710T325 697Q346 697 356 709T367 741ZM432 742Q432 702 404 675T324 647Q272 647 245 673T217 741Q217 781 246 808T326 835Q378 835 405 810T432 742Z" />
<glyph unicode="&#x1fb;" glyph-name="aringacute" horiz-adv-x="521" d="M47 131Q47 171 65 201T122 251T221 281T366 291V324Q366 375 338 401T255 428Q210 428 173 408T105 346L56 393Q94 442 146 468T261 494Q351 494 398 451T446 326V236Q446 180 446 137T449
0H372L370 69H369Q341 30 300 9T211 -13Q137 -13 92 26T47 131ZM366 229Q299 229 255 224T183 207T144 178T131 134Q131 95 156 74T229 53Q268 53 299 72T348 125T366 198V229V229ZM308 889H417L300 771H227L308 889ZM308 632Q308 652 297 665T264 678Q243 678
232 665T220 632Q220 612 231 599T264 586Q285 586 296 599T308 632ZM371 633Q371 593 342 565T263 537Q212 537 185 563T157 631Q157 671 186 699T265 727Q316 727 343 701T371 633Z" />
<glyph unicode="&#x1fc;" glyph-name="AEacute" horiz-adv-x="972" d="M199 246H455V610H378L199 246ZM892 682V610H541V383H845V314H541V73H909V0H455V177H167L80 0H-16L325 682H892ZM641 882H760L631 748H550L641 882Z" />
<glyph unicode="&#x1fd;" glyph-name="aeacute" horiz-adv-x="849" d="M229 53Q267 53 298 71T347 124T366 198V229Q299 229 255 224T183 207T144 178T131 134Q131 95 156 74T229 53ZM719 283Q718 325 701 359T654 410T586 428Q548 428 519 412T471 362T448 283H719ZM212
-13Q137 -13 92 26T47 131Q47 171 65 201T122 251T221 281T366 291V324Q365 376 337 402T255 428Q210 428 173 408T105 346L56 393Q94 442 146 468T261 494Q322 494 362 474T421 414Q449 453 492 473T589 494Q654 494 702 466T777 386T804 273Q804 243 800 222H446Q449
145 490 100T600 54Q651 54 688 72T755 132L803 86Q764 34 714 11T596 -13Q527 -13 479 15T400 100Q372 42 325 15T212 -13ZM472 693H581L463 551H387L472 693Z" />
<glyph unicode="&#x1fe;" glyph-name="Oslashacute" horiz-adv-x="780" d="M153 341Q153 293 163 251T192 175L543 564Q514 592 475 607T390 622Q317 622 264 587T182 489T153 341ZM627 341Q627 389 617 431T588 507L237 118Q266 90 305 76T390 61Q463 61 516
96T598 194T627 341ZM59 29L131 108Q97 154 80 212T63 340Q63 444 104 525T220 652T391 697Q451 697 503 679T597 626L666 702L720 653L648 573Q682 529 699 470T717 342Q717 238 676 157T560 30T389 -15Q328 -15 276 3T182 56L114 -20L59 29ZM426 882H545L416
748H335L426 882Z" />
<glyph unicode="&#x1ff;" glyph-name="oslashacute" horiz-adv-x="564" d="M433 240Q433 270 428 294T413 339L188 89Q206 72 230 63T282 54Q328 54 362 77T415 143T433 240ZM131 240Q131 211 136 186T150 141L376 391Q357 408 333 417T282 427Q236 427 202 404T149
338T131 240ZM29 8L91 77Q69 108 58 149T47 239Q47 315 76 373T158 462T283 494Q326 494 362 483T427 449L487 516L535 473L472 404Q494 371 505 330T517 241Q517 166 488 108T406 19T281 -13Q237 -13 201 -2T136 31L77 -35L29 8ZM317 694H426L308 552H232L317
694Z" />
<glyph unicode="&#x218;" glyph-name="Scommaaccent" horiz-adv-x="658" d="M106 172Q157 116 218 87T345 58Q393 58 429 73T485 114T505 176Q505 209 489 232T439 271T309 311T168 361T103 425T82 515Q82 568 111 609T193 674T316 697Q384 697 445 674T561 603L514
538Q469 582 420 603T314 624Q269 624 237 612T187 575T170 520Q170 489 186 467T234 428T364 389T506 339T572 273T593 181Q593 125 562 81T473 11T343 -15Q261 -15 189 16T57 109L106 172ZM386 -52V-125Q386 -166 362 -187T290 -208H271V-169H288Q306 -169 314
-160T322 -132H300V-52H386Z" />
<glyph unicode="&#x219;" glyph-name="scommaaccent" horiz-adv-x="491" d="M87 128Q123 92 167 73T256 53Q304 53 331 72T359 126Q359 147 348 161T315 186T225 212T125 247T78 294T63 360Q63 400 85 430T147 477T237 494Q288 494 335 478T421 429L379 373Q348
400 312 414T236 429Q208 429 188 422T156 400T145 364Q145 344 156 330T188 305T277 280T377 245T425 198T440 131Q440 89 418 57T352 6T255 -13Q196 -13 143 8T45 69L87 128ZM297 -52V-125Q297 -161 276 -184T205 -208H186V-169H205Q225 -169 231 -159T238 -130H216V-52H297Z"
/>
<glyph unicode="&#x21a;" glyph-name="uni021A" horiz-adv-x="534" d="M224 608H-7V682H541V608H310V0H224V608ZM306 -52V-125Q306 -166 282 -187T210 -208H191V-169H208Q226 -169 234 -160T242 -132H220V-52H306Z" />
<glyph unicode="&#x21b;" glyph-name="uni021B" horiz-adv-x="350" d="M10 415V481H105V645L185 665V481H325V415H185V190Q185 142 186 121T192 90T204 70Q211 63 221 60T248 56Q268 56 289 60T325 72V4Q309 -3 284 -7T233 -12Q187 -12 159 4T118 52T105 138V415H10ZM255
-52V-125Q255 -161 234 -184T163 -208H144V-169H163Q183 -169 189 -159T196 -130H174V-52H255Z" />
<glyph unicode="&#x237;" glyph-name="dotlessj" horiz-adv-x="253" d="M171 481V-26Q171 -94 159 -134T118 -193T40 -212Q26 -212 12 -211T-11 -207V-144H33Q57 -144 69 -132T86 -96T91 -23V481H171Z" />
<glyph unicode="&#x2c6;" glyph-name="circumflex" horiz-adv-x="440" d="M171 693H270L370 551H292L219 639L146 551H70L171 693Z" />
<glyph unicode="&#x2c7;" glyph-name="caron" horiz-adv-x="440" d="M269 551H170L70 693H148L221 606L294 693H370L269 551Z" />
<glyph unicode="&#x2c9;" glyph-name="overscore" horiz-adv-x="435" d="M356 585H79V652H356V585Z" />
<glyph unicode="&#x2d8;" glyph-name="breve" horiz-adv-x="438" d="M360 693Q360 648 345 617T298 570T218 553Q171 553 140 569T94 617T78 693H143Q143 669 151 652T176 626T219 617Q245 617 262 626T287 653T295 693H360Z" />
<glyph unicode="&#x2d9;" glyph-name="dotaccent" horiz-adv-x="240" d="M79 566V682H161V566H79Z" />
<glyph unicode="&#x2da;" glyph-name="ring" horiz-adv-x="397" d="M243 644Q243 664 232 677T199 690Q178 690 167 677T155 644Q155 624 166 611T199 598Q220 598 231 611T243 644ZM307 645Q307 604 278 576T198 548Q146 548 118 574T90 643Q90 684 119 712T200
740Q251 740 279 714T307 645Z" />
<glyph unicode="&#x2db;" glyph-name="ogonek" horiz-adv-x="322" d="M222 0Q186 -53 172 -80T158 -128Q158 -142 167 -147T195 -153H244V-204Q232 -207 215 -209T184 -212Q146 -212 123 -204T90 -179T79 -137Q79 -111 95 -79T146 0H222Z" />
<glyph unicode="&#x2dc;" glyph-name="tilde" horiz-adv-x="482" d="M177 621Q160 621 151 606T142 562H79Q79 601 90 629T124 671T180 686Q201 686 219 678T260 651T289 627T304 623Q322 623 331 638T340 681H403Q403 643 391 615T356 573T301 558Q281 558 263
566T222 593T192 616T177 621Z" />
<glyph unicode="&#x2dd;" glyph-name="hungarumlaut" horiz-adv-x="523" d="M339 693H449L329 551H254L339 693ZM141 693H244L148 551H75L141 693Z" />
<glyph unicode="&#x312;" glyph-name="uni0312" horiz-adv-x="257" d="M79 566V643Q79 680 100 703T171 727H190V687H171Q151 687 145 677T138 648H160V566H79Z" />
<glyph unicode="&#x315;" glyph-name="uni0315" horiz-adv-x="274" d="M111 757H197L143 568H78L111 757Z" />
<glyph unicode="&#x326;" glyph-name="uni0326" horiz-adv-x="269" d="M190 -52V-125Q190 -161 169 -184T98 -208H79V-169H98Q118 -169 124 -159T131 -130H109V-52H190Z" />
<glyph unicode="&#x394;" glyph-name="increment" horiz-adv-x="638" d="M124 74H510L408 345Q356 481 340 527T317 600H315Q308 570 289 517T227 346L124 74ZM606 0H32V67L273 682H367L606 69V0Z" />
<glyph unicode="&#x3a9;" glyph-name="Omega" horiz-adv-x="786" d="M67 0V74H251V75Q160 127 116 203T72 383Q72 472 114 544T230 657T395 697Q487 697 560 657T674 545T714 383Q714 285 669 207T535 75V74H719V0H458V89Q546 145 585 211T625 370Q625 445 597
502T516 590T393 621Q322 621 270 590T190 502T162 370Q162 277 201 212T328 89V0H67Z" />
<glyph unicode="&#x3bc;" glyph-name="mu" horiz-adv-x="567" d="M82 -204V481H162V211Q162 166 165 146T178 107Q191 82 214 68T271 54Q296 54 319 63T358 88Q383 113 394 150T405 250V481H485V237Q485 176 485 129T488 0H411L409 70H408Q385 30 347 9T260 -12Q189
-12 159 30H158L162 -204H82Z" />
<glyph unicode="&#x3c0;" glyph-name="pi" horiz-adv-x="650" d="M591 408H473Q473 252 478 181T496 84T542 57Q558 57 575 60T605 70L614 6Q598 -1 575 -6T531 -11Q469 -11 442 18T405 123T394 408H198Q191 252 183 152T167 0H85Q97 91 104 187T117 408H22V481H591V408Z" />
<glyph unicode="&#x1e02;" glyph-name="uni1E02" horiz-adv-x="709" d="M106 682Q141 682 211 682T333 683Q443 683 497 669T585 621Q629 577 629 512Q629 454 601 415T514 354Q580 339 615 297T651 190Q651 123 619 81T523 19T351 -1Q217 -1 106 0V682ZM192 381H352Q424
381 456 390T511 421Q526 436 533 455T540 501Q540 544 512 572Q490 594 450 602T326 611Q240 611 192 610V381ZM192 72Q254 71 359 71Q435 71 477 83T539 121T560 189Q560 231 541 258T482 299T353 312H192V72ZM311 758V874H398V758H311Z" />
<glyph unicode="&#x1e03;" glyph-name="uni1E03" horiz-adv-x="584" d="M160 231Q160 179 178 139T229 76T307 54Q352 54 385 76T435 141T452 241Q452 297 434 339T381 404T303 426Q260 426 228 405T178 344T160 250V231ZM82 710H162V505Q162 447 158 412H159Q182
451 223 472T319 494Q385 494 434 464T510 376T537 243Q537 167 510 109T433 19T315 -13Q263 -13 223 8T157 68H156L152 0H75Q78 63 80 115T82 239V710ZM273 567V683H355V567H273Z" />
<glyph unicode="&#x1e0a;" glyph-name="uni1E0A" horiz-adv-x="729" d="M106 681Q181 682 309 682Q407 682 468 662T576 595Q621 550 644 487T667 343Q667 262 643 196T575 86Q529 40 468 20T309 0Q207 1 106 1V681ZM191 78Q251 75 311 75Q393 75 433 87T505 131Q541
167 558 219T576 340Q576 405 557 459T503 548Q469 582 427 595T306 609Q224 609 191 608V78ZM301 758V874H388V758H301Z" />
<glyph unicode="&#x1e0b;" glyph-name="uni1E0B" horiz-adv-x="584" d="M428 0L426 70H425Q402 30 361 9T265 -13Q198 -13 149 18T74 106T47 238Q47 314 74 372T152 462T269 494Q320 494 359 474T424 417H425Q422 452 422 505V710H502V239Q502 152 502 104T505
0H428ZM425 250Q425 303 407 343T354 404T278 426Q232 426 200 404T150 339T132 240Q132 185 150 143T202 77T281 54Q325 54 358 76T408 138T425 230V250ZM227 567V683H309V567H227Z" />
<glyph unicode="&#x1e1e;" glyph-name="uni1E1E" horiz-adv-x="599" d="M106 682H553V609H192V378H507V309H192V0H106V682ZM282 758V874H369V758H282Z" />
<glyph unicode="&#x1e1f;" glyph-name="uni1E1F" horiz-adv-x="315" d="M107 416H9V481H107V575Q107 621 122 652T167 700T240 716Q261 716 285 712T325 702V633Q308 640 286 644T245 648Q225 648 213 641T194 618T187 573V481H311V416H187V0H107V416ZM193 795V911H275V795H193Z"
/>
<glyph unicode="&#x1e40;" glyph-name="uni1E40" horiz-adv-x="946" d="M106 682H246L386 345Q426 250 444 203T473 121H475Q486 157 504 204T562 345L701 682H840V0H754V240Q754 350 754 452T757 611H754Q737 566 718 517T668 396L506 0H435L272 397Q224 511
210 546T186 611H183Q185 555 185 453T186 240V0H106V682ZM429 758V874H516V758H429Z" />
<glyph unicode="&#x1e41;" glyph-name="uni1E41" horiz-adv-x="887" d="M732 0V270Q732 315 729 335T716 373Q703 399 679 412T621 426Q595 426 572 417T534 393Q509 368 498 331T487 231V0H407V270Q407 315 404 335T391 373Q378 399 354 412T296 426Q270 426
247 417T209 393Q184 368 173 331T162 231V0H82V241Q82 282 82 316T82 379T81 432T79 481H156L158 410H159Q182 450 222 472T313 494Q370 494 410 470T470 398Q500 447 542 470T638 494Q723 494 767 445T812 301V0H732ZM406 566V682H488V566H406Z" />
<glyph unicode="&#x1e56;" glyph-name="uni1E56" horiz-adv-x="643" d="M106 682Q234 683 363 683Q453 683 512 660T601 590T630 476Q630 409 600 362T508 291T356 266Q253 266 192 267V0H106V682ZM539 474Q539 521 521 550T463 594T361 609Q244 609 192 608V340Q245
339 359 339Q421 339 461 354T520 398T539 474ZM308 758V874H395V758H308Z" />
<glyph unicode="&#x1e57;" glyph-name="uni1E57" horiz-adv-x="584" d="M82 -204V242Q82 302 82 361T79 481H156L158 410H159Q182 451 223 472T319 494Q385 494 434 464T510 376T537 243Q537 167 510 109T433 19T315 -13Q265 -13 225 7T160 64H159Q162 29 162
-25V-204H82ZM160 231Q160 178 178 138T230 76T307 54Q352 54 385 76T435 141T452 241Q452 297 434 339T381 404T303 426Q260 426 228 405T178 344T160 250V231ZM265 567V683H347V567H265Z" />
<glyph unicode="&#x1e60;" glyph-name="uni1E60" horiz-adv-x="658" d="M106 172Q157 116 218 87T345 58Q393 58 429 73T485 114T505 176Q505 209 489 232T439 271T309 311T168 361T103 425T82 515Q82 568 111 609T193 674T316 697Q384 697 445 674T561 603L514
538Q469 582 420 603T314 624Q269 624 237 612T187 575T170 520Q170 489 186 467T234 428T364 389T506 339T572 273T593 181Q593 125 562 81T473 11T343 -15Q261 -15 189 16T57 109L106 172ZM276 758V874H363V758H276Z" />
<glyph unicode="&#x1e61;" glyph-name="uni1E61" horiz-adv-x="491" d="M87 128Q123 92 167 73T256 53Q304 53 331 72T359 126Q359 147 348 161T315 186T225 212T125 247T78 294T63 360Q63 400 85 430T147 477T237 494Q288 494 335 478T421 429L379 373Q348 400
312 414T236 429Q208 429 188 422T156 400T145 364Q145 344 156 330T188 305T277 280T377 245T425 198T440 131Q440 89 418 57T352 6T255 -13Q196 -13 143 8T45 69L87 128ZM195 567V683H277V567H195Z" />
<glyph unicode="&#x1e6a;" glyph-name="uni1E6A" horiz-adv-x="534" d="M224 608H-7V682H541V608H310V0H224V608ZM224 758V874H311V758H224Z" />
<glyph unicode="&#x1e6b;" glyph-name="uni1E6B" horiz-adv-x="350" d="M10 415V481H105V645L185 665V481H325V415H185V190Q185 142 186 121T192 90T204 70Q211 63 221 60T248 56Q268 56 289 60T325 72V4Q309 -3 284 -7T233 -12Q187 -12 159 4T118 52T105 138V415H10ZM106
722V838H188V722H106Z" />
<glyph unicode="&#x1e80;" glyph-name="Wgrave" horiz-adv-x="1037" d="M244 0L33 682H129L221 362Q230 332 258 238T298 96H300Q310 131 327 189T381 363L480 682H560L662 362Q697 255 716 194T746 96H747Q758 136 784 228T822 363L913 682H1004L793 0H693L554
426Q541 469 535 493T518 556H517Q512 536 504 509T480 426L344 0H244ZM566 748H484L355 882H474L566 748Z" />
<glyph unicode="&#x1e81;" glyph-name="wgrave" horiz-adv-x="820" d="M542 0L438 275Q429 300 422 324T407 373H405Q399 349 392 325T375 274L277 0H200L20 481H111L198 232Q209 201 220 166T242 96H244Q254 135 265 170T286 233L373 481H444L535 232Q548 198
560 162T582 96H584Q592 124 603 160T626 232L710 481H799L619 0H542ZM453 551H377L258 693H368L453 551Z" />
<glyph unicode="&#x1e82;" glyph-name="Wacute" horiz-adv-x="1037" d="M244 0L33 682H129L221 362Q230 332 258 238T298 96H300Q310 131 327 189T381 363L480 682H560L662 362Q697 255 716 194T746 96H747Q758 136 784 228T822 363L913 682H1004L793 0H693L554
426Q541 469 535 493T518 556H517Q512 536 504 509T480 426L344 0H244ZM562 882H681L552 748H471L562 882Z" />
<glyph unicode="&#x1e83;" glyph-name="wacute" horiz-adv-x="820" d="M542 0L438 275Q429 300 422 324T407 373H405Q399 349 392 325T375 274L277 0H200L20 481H111L198 232Q209 201 220 166T242 96H244Q254 135 265 170T286 233L373 481H444L535 232Q548 198
560 162T582 96H584Q592 124 603 160T626 232L710 481H799L619 0H542ZM443 693H552L434 551H358L443 693Z" />
<glyph unicode="&#x1e84;" glyph-name="Wdieresis" horiz-adv-x="1037" d="M244 0L33 682H129L221 362Q230 332 258 238T298 96H300Q310 131 327 189T381 363L480 682H560L662 362Q697 255 716 194T746 96H747Q758 136 784 228T822 363L913 682H1004L793 0H693L554
426Q541 469 535 493T518 556H517Q512 536 504 509T480 426L344 0H244ZM589 758V874H674V758H589ZM363 758V874H448V758H363Z" />
<glyph unicode="&#x1e85;" glyph-name="wdieresis" horiz-adv-x="820" d="M542 0L438 275Q429 300 422 324T407 373H405Q399 349 392 325T375 274L277 0H200L20 481H111L198 232Q209 201 220 166T242 96H244Q254 135 265 170T286 233L373 481H444L535 232Q548
198 560 162T582 96H584Q592 124 603 160T626 232L710 481H799L619 0H542ZM462 566V682H541V566H462ZM274 566V682H353V566H274Z" />
<glyph unicode="&#x1e9e;" glyph-name="uni1E9E" horiz-adv-x="763" d="M105 441Q105 526 138 582T237 667T399 695Q459 695 524 687T646 664V600L450 388Q531 386 587 362T671 294T699 189Q699 129 670 83T584 11T454 -15Q420 -15 382 -9T312 8L330 81Q357 71
391 65T457 58Q503 58 537 73T590 117T608 185Q608 228 587 257T524 302T417 317H350V388L553 606Q517 614 477 618T396 622Q323 622 278 603T212 545T191 443V0H105V441Z" />
<glyph unicode="&#x1ef2;" glyph-name="Ygrave" horiz-adv-x="610" d="M262 0V289L0 682H104L308 371L510 682H610L348 289V0H262ZM359 748H277L148 882H267L359 748Z" />
<glyph unicode="&#x1ef3;" glyph-name="ygrave" horiz-adv-x="492" d="M116 -204L212 0H205L11 481H103L181 279Q197 239 215 187T249 86H250Q260 119 280 177T317 279L393 481H481L204 -204H116ZM296 551H220L101 693H211L296 551Z" />
<glyph unicode="&#x2010;" glyph-name="hyphen" horiz-adv-x="362" d="M39 234V315H322V234H39Z" />
<glyph unicode="&#x2013;" glyph-name="endash" horiz-adv-x="650" d="M589 238H61V310H589V238Z" />
<glyph unicode="&#x2014;" glyph-name="emdash" horiz-adv-x="970" d="M924 238H46V310H924V238Z" />
<glyph unicode="&#x2015;" glyph-name="emdash" horiz-adv-x="970" d="M924 238H46V310H924V238Z" />
<glyph unicode="&#x2018;" glyph-name="quoteleft" horiz-adv-x="263" d="M77 476V593Q77 659 85 694T115 754T181 806L209 758Q180 738 167 720T148 680T143 617H186V476H77Z" />
<glyph unicode="&#x2019;" glyph-name="quoteright" horiz-adv-x="263" d="M186 785V668Q186 598 177 563T147 504T81 456L53 503Q85 525 98 541T115 579T120 644H77V785H186Z" />
<glyph unicode="&#x201a;" glyph-name="quotesinglbase" horiz-adv-x="263" d="M186 141V24Q186 -46 177 -81T147 -140T81 -188L53 -141Q85 -119 98 -103T115 -65T120 0H77V141H186Z" />
<glyph unicode="&#x201c;" glyph-name="quotedblleft" horiz-adv-x="451" d="M77 476V593Q77 659 85 694T114 756T176 806L203 759Q171 735 160 718T145 679T140 617H180V476H77ZM271 476V593Q271 661 279 696T308 757T370 806L397 759Q365 735 354 718T338 679T333
617H373V476H271Z" />
<glyph unicode="&#x201d;" glyph-name="quotedblright" horiz-adv-x="451" d="M373 785V668Q373 599 365 564T337 505T275 455L247 502Q276 523 288 540T306 579T311 644H271V785H373ZM180 785V668Q180 599 172 564T143 505T82 455L53 502Q82 523 94 540T112 579T117
644H77V785H180Z" />
<glyph unicode="&#x201e;" glyph-name="quotedblbase" horiz-adv-x="451" d="M373 141V24Q373 -45 365 -80T337 -139T275 -189L247 -142Q276 -121 288 -104T306 -65T311 0H271V141H373ZM180 141V24Q180 -45 172 -80T143 -139T82 -189L53 -142Q82 -121 94 -104T112
-65T117 0H77V141H180Z" />
<glyph unicode="&#x2020;" glyph-name="dagger" horiz-adv-x="497" d="M208 97V520H44V588H208V763H288V588H452V520H288V97H208Z" />
<glyph unicode="&#x2021;" glyph-name="daggerdbl" horiz-adv-x="497" d="M452 262H288V79H208V262H44V330H208V520H44V588H208V763H288V588H452V520H288V330H452V262Z" />
<glyph unicode="&#x2022;" glyph-name="bullet" horiz-adv-x="420" d="M343 323Q343 286 325 255T275 207T209 189Q172 189 142 207T94 255T77 321Q77 358 95 389T145 437T211 455Q248 455 278 437T326 389T343 323Z" />
<glyph unicode="&#x2026;" glyph-name="ellipsis" horiz-adv-x="850" d="M664 0V146H773V0H664ZM371 0V146H480V0H371ZM77 0V146H186V0H77Z" />
<glyph unicode="&#x2030;" glyph-name="perthousand" horiz-adv-x="1590" d="M449 559Q449 452 399 391T260 329Q170 329 123 388T75 557Q75 664 124 725T263 787Q353 787 401 728T449 559ZM370 558Q370 638 343 680T262 722Q208 722 181 680T153 558Q153 478
180 436T262 394Q315 394 342 436T370 558ZM867 778L323 -96H236L781 778H867ZM1030 125Q1030 18 980 -43T841 -105Q751 -105 704 -46T656 123Q656 230 705 291T844 353Q934 353 982 294T1030 125ZM951 124Q951 204 924 246T843 288Q789 288 762 246T734 124Q734
44 761 2T843 -40Q896 -40 923 2T951 124ZM1515 125Q1515 18 1465 -43T1326 -105Q1236 -105 1189 -46T1141 123Q1141 230 1190 291T1329 353Q1419 353 1467 294T1515 125ZM1436 124Q1436 204 1409 246T1328 288Q1274 288 1247 246T1219 124Q1219 44 1246 2T1328
-40Q1381 -40 1408 2T1436 124Z" />
<glyph unicode="&#x2039;" glyph-name="guilsinglleft" horiz-adv-x="402" d="M251 41L75 274L252 506L315 473L181 275L315 76L251 41Z" />
<glyph unicode="&#x203a;" glyph-name="guilsinglright" horiz-adv-x="402" d="M150 507L327 274L150 42L86 75L221 272L87 471L150 507Z" />
<glyph unicode="&#x2044;" glyph-name="fraction" horiz-adv-x="394" d="M513 778L-31 -96H-118L427 778H513Z" />
<glyph unicode="&#x2070;" glyph-name="zero.superior" horiz-adv-x="523" d="M449 559Q449 452 399 391T260 329Q170 329 123 388T75 557Q75 664 124 725T263 787Q353 787 401 728T449 559ZM370 558Q370 638 343 680T262 722Q208 722 181 680T153 558Q153 478
180 436T262 394Q315 394 342 436T370 558Z" />
<glyph unicode="&#x2074;" glyph-name="four.superior" horiz-adv-x="491" d="M126 493Q164 494 212 495T283 496V609Q283 690 285 718H284L126 493V493ZM283 338V432H51V499L247 778H361V496H439V432H361V338H283Z" />
<glyph unicode="&#x2081;" glyph-name="uni2081" horiz-adv-x="358" d="M185 -96V237Q164 220 133 212T55 204V269Q118 269 152 288T195 346H263V-96H185Z" />
<glyph unicode="&#x2082;" glyph-name="uni2082" horiz-adv-x="506" d="M433 -96H82V-25Q158 22 208 55T286 114T326 163T337 212Q337 249 315 270T250 292Q208 292 186 273T163 218Q163 192 171 168H94Q85 187 85 217Q85 281 130 317T254 353Q331 353 375 316T420
214Q420 181 407 152T366 94T293 35T186 -30V-32Q237 -31 307 -31H433V-96Z" />
<glyph unicode="&#x2083;" glyph-name="uni2083" horiz-adv-x="504" d="M142 40Q158 -45 256 -45Q301 -45 326 -26T351 29Q351 66 327 83T252 100H188V156H236Q272 156 289 161T319 178Q337 196 337 229Q337 259 314 276T251 294Q210 294 186 275T155 217L80 232Q93
292 137 322T255 353Q331 353 375 321T419 233Q419 195 401 171T347 134V133Q434 112 434 26Q434 -31 385 -68T256 -105Q173 -105 127 -73T67 24L142 40Z" />
<glyph unicode="&#x2084;" glyph-name="uni2084" horiz-adv-x="491" d="M126 59Q164 60 212 61T283 62V175Q283 256 285 284H284L126 59V59ZM283 -96V-2H51V65L247 344H361V62H439V-2H361V-96H283Z" />
<glyph unicode="&#x20ac;" glyph-name="Euro" horiz-adv-x="720" d="M443 232H220Q241 149 292 104T421 59Q476 59 520 81T599 152L654 104Q609 44 551 15T419 -15Q306 -15 230 50T129 232H33V295H120Q118 317 118 340Q118 364 120 388H33V451H129Q156 566 234
631T422 697Q490 697 547 670T648 588L588 536Q555 580 513 602T421 625Q346 625 294 580T220 451H443V388H210Q208 366 208 341Q208 318 210 295H443V232Z" />
<glyph unicode="&#x2113;" glyph-name="afii61289" horiz-adv-x="461" d="M257 -12Q193 -12 155 28T101 153L52 128L21 190L91 226Q87 277 87 352Q87 481 103 561T155 678T250 716Q295 716 324 694T367 628T382 520Q382 410 331 328T176 190Q184 120 205 89T266
57Q288 57 309 66T352 95L385 41Q358 15 325 2T257 -12V-12ZM299 517Q299 586 286 617T244 648Q216 648 200 617T177 520T169 354Q169 292 170 266Q233 304 266 367T299 517Z" />
<glyph unicode="&#x2122;" glyph-name="trademark" horiz-adv-x="912" d="M400 682H503L590 472Q596 458 602 438T615 394H617Q623 416 629 436T643 471L730 682H832V314H767V443Q767 511 767 553T770 628H768Q763 610 756 590T740 549L641 314H586L488 550Q479
569 472 588T459 628H458Q460 597 460 554T460 443V314H400V682ZM149 625H27V682H337V625H217V314H149V625Z" />
<glyph unicode="&#x2126;" glyph-name="Omega" horiz-adv-x="786" d="M67 0V74H251V75Q160 127 116 203T72 383Q72 472 114 544T230 657T395 697Q487 697 560 657T674 545T714 383Q714 285 669 207T535 75V74H719V0H458V89Q546 145 585 211T625 370Q625 445 597
502T516 590T393 621Q322 621 270 590T190 502T162 370Q162 277 201 212T328 89V0H67Z" />
<glyph unicode="&#x212e;" glyph-name="estimated" horiz-adv-x="932" d="M467 -15Q376 -15 302 10T175 81T92 193T63 340Q63 421 93 486T176 599T304 671T468 697Q557 697 631 672T758 601T840 490T869 345Q869 340 869 334T867 323H231V159Q231 138 237 127T258
105Q293 79 346 62T470 45Q553 45 626 71T748 147H842Q814 109 775 79T688 28T583 -4T467 -15ZM699 378V531Q699 549 695 558T680 575Q638 607 585 622T466 638Q401 638 347 622T250 574Q241 567 236 557T231 525V378H699Z" />
<glyph unicode="&#x2202;" glyph-name="partialdiff" horiz-adv-x="570" d="M273 -13Q204 -13 153 18T75 107T48 238Q48 314 75 372T154 461T274 492Q332 492 378 464T445 390H446Q441 420 436 452T422 508T401 552T373 589Q352 610 323 621T259 632Q191 632 126
610V682Q185 700 262 700Q349 700 406 661T492 541T520 336Q520 222 493 144T410 27T273 -13ZM276 55Q320 55 353 78T406 143T425 240Q425 296 407 338T355 402T279 424Q234 424 201 402T151 339T133 239Q133 185 150 143T200 78T276 55Z" />
<glyph unicode="&#x2206;" glyph-name="increment" horiz-adv-x="638" d="M124 74H510L408 345Q356 481 340 527T317 600H315Q308 570 289 517T227 346L124 74ZM606 0H32V67L273 682H367L606 69V0Z" />
<glyph unicode="&#x220f;" glyph-name="product" horiz-adv-x="811" d="M585 -204V704H226V-204H140V704H10V780H801V704H671V-204H585Z" />
<glyph unicode="&#x2211;" glyph-name="summation" horiz-adv-x="660" d="M41 -131L341 299L56 709V780H604V705Q508 705 370 706T165 710L446 305L141 -132Q204 -130 350 -129T620 -127V-203H41V-131Z" />
<glyph unicode="&#x2212;" glyph-name="minus" horiz-adv-x="650" d="M589 288H61V356H589V288Z" />
<glyph unicode="&#x2219;" glyph-name="middot" horiz-adv-x="262" d="M79 260V384H184V260H79Z" />
<glyph unicode="&#x221a;" glyph-name="radical" horiz-adv-x="704" d="M260 -96L118 275H14V344H184L244 183Q275 99 287 62T306 -2H308Q316 27 333 77T397 253L587 778H680L348 -96H260Z" />
<glyph unicode="&#x221e;" glyph-name="infinity" horiz-adv-x="980" d="M257 186Q287 186 315 199T372 238T445 319Q400 378 372 405T315 445T257 458Q199 458 165 421T130 322Q130 260 164 223T257 186ZM723 458Q693 458 665 445T607 406T536 325Q581 265 609
239T665 199T723 186Q782 186 816 223T851 322Q851 384 817 421T723 458ZM252 117Q161 117 103 173T44 319Q44 412 104 469T260 527Q321 527 375 494T493 379Q560 461 614 494T729 527Q819 527 877 471T936 325Q936 232 876 175T720 117Q659 117 605 149T487 264Q420
182 366 150T252 117Z" />
<glyph unicode="&#x222b;" glyph-name="integral'" horiz-adv-x="344" d="M85 -214Q61 -214 37 -209T-5 -196L4 -128Q19 -135 39 -140T75 -145Q104 -145 117 -128T130 -75V649Q130 717 163 752T259 787Q282 787 305 783T349 769L340 700Q322 708 303 713T268 718Q240
718 227 701T213 648V-77Q214 -144 181 -179T85 -214Z" />
<glyph unicode="&#x2248;" glyph-name="approxequal" horiz-adv-x="650" d="M433 155Q403 155 377 162T313 192T255 220T214 226Q187 226 161 213T100 169L57 218Q94 257 135 277T217 297Q247 297 273 290T337 260T395 232T436 226Q463 226 489 239T550 283L592
233Q554 194 514 175T433 155ZM433 347Q403 347 377 354T313 384T255 412T214 418Q187 418 161 405T100 361L57 411Q94 449 135 469T217 489Q247 489 273 482T337 452T395 424T436 418Q463 418 489 431T550 475L592 426Q554 387 514 367T433 347Z" />
<glyph unicode="&#x2260;" glyph-name="notequal" horiz-adv-x="650" d="M138 27L221 193H71V262H255L314 382H71V451H348L426 611H508L427 451H579V382H393L333 262H579V193H300L219 27H138Z" />
<glyph unicode="&#x2264;" glyph-name="lessequal" horiz-adv-x="650" d="M579 192L71 391V474L579 674V590Q388 515 302 483T162 435V433Q216 416 302 384T579 277V192ZM579 0H71V68H579V0Z" />
<glyph unicode="&#x2265;" glyph-name="greaterequal" horiz-adv-x="650" d="M71 674L579 474V391L71 192V276Q262 351 348 383T488 431V433Q434 450 348 482T71 589V674ZM579 0H71V68H579V0Z" />
<glyph unicode="&#x22c5;" glyph-name="middot" horiz-adv-x="262" d="M79 260V384H184V260H79Z" />
<glyph unicode="&#x25ca;" glyph-name="lozenge" horiz-adv-x="650" d="M327 73Q337 94 367 143T492 340Q400 482 368 534T324 609H322Q312 588 282 539T158 342Q249 200 281 148T325 73H327ZM280 0L62 341L279 682H370L587 341L370 0H280Z" />
<glyph unicode="&#xf8ff;" glyph-name="uniF8FF" horiz-adv-x="822" d="M525 304H373V380H525V456H373V532H601V152H525V304ZM221 532H297V228H449V152H221V532ZM69 684H753V0H69V684ZM145 76H677V608H145V76Z" />
<glyph unicode="&#xfb01;" glyph-name="fi" horiz-adv-x="574" d="M107 416H9V481H107V575Q107 621 122 652T167 700T240 716Q261 716 285 712T325 702V633Q308 640 286 644T245 648Q225 648 213 641T194 618T187 573V481H311V416H187V0H107V416ZM412 562V686H494V562H412V562ZM413
0V481H493V0H413Z" />
<glyph unicode="&#xfb02;" glyph-name="fl" horiz-adv-x="574" d="M413 710H493V0H413V710ZM107 416H9V481H107V575Q107 621 122 652T167 700T240 716Q261 716 285 712T325 702V633Q308 640 286 644T245 648Q225 648 213 641T194 618T187 573V481H311V416H187V0H107V416Z" />
</font>
</defs>
</svg>
