<?xml version="1.0" standalone="no"?> <!DOCTYPE svg PUBLIC "-//W3C//DTD SVG 1.0//EN" "http://www.w3.org/TR/2001/REC-SVG-20010904/DTD/svg10.dtd" > <svg xmlns="http://www.w3.org/2000/svg" width="100%" height="100%">
<defs >
<font id="Volvo-Novum-Medium" horiz-adv-x="595" ><font-face
    font-family="Volvo Novum"
    units-per-em="1000"
    panose-1="2 11 6 3 4 5 2 6 2 4"
    ascent="980"
    descent="-220"
    alphabetic="0" />
<missing-glyph horiz-adv-x="1088" d="M193 -93H894V814H193V-93ZM84 -200Q72 -200 72 -189Q72 -187 72 -163T72 -98T72 -6T73 105T73 222T73 336Q73 390 73 453T73 579T73 701T72 806T72 880T72 910Q72 921 84 921H1003Q1015 921 1015 910Q1015 908 1015 880T1015
806T1015 701T1014 579T1014 453T1014 336Q1014 282 1014 223T1014 105T1014 -5T1015 -98T1015 -162T1015 -189Q1015 -200 1003 -200H84ZM486 273Q485 299 492 320T513 360T560 402T613 444T643 483T652 524Q652 550 638 570T597 603T536 615Q501 615 474 601T433
563T418 507Q418 491 419 477T423 454H295Q292 464 290 477T288 504Q288 569 319 618T407 693T541 720Q616 720 672 696T759 627T789 528Q789 494 781 467T756 418T712 375T657 336T618 300T607 265L605 213H488L486 273ZM476 0V148H616V0H476Z" />
<glyph unicode="&#x0;" glyph-name="null" horiz-adv-x="0" />
<glyph unicode="&#xd;" glyph-name="CR" horiz-adv-x="259" />
<glyph unicode=" " glyph-name="space" horiz-adv-x="254" />
<glyph unicode="!" glyph-name="exclam" horiz-adv-x="362" d="M123 213L108 706H254L239 213H123ZM111 0V148H251V0H111Z" />
<glyph unicode="&quot;" glyph-name="quotedbl" horiz-adv-x="479" d="M292 449L283 730H407L397 449H292ZM82 449L72 730H197L187 449H82Z" />
<glyph unicode="#" glyph-name="numbersign" horiz-adv-x="700" d="M416 260L447 422H284L252 260H416ZM94 0L126 162H28V260H145L177 422H79V520H196L228 682H335L304 520H466L498 682H605L574 520H672V422H555L523 260H621V162H503L472 0H365L396 162H233L202 0H94Z" />
<glyph unicode="$" glyph-name="dollar" horiz-adv-x="676" d="M277 -104V10Q212 19 160 43T61 109L116 207Q171 160 229 136T347 111Q405 111 439 135T473 198Q473 221 460 237T419 265T301 292T166 333T100 396T78 489Q78 564 131 613T277 675V791H390V674Q443
666 486 649T566 602L514 500Q467 537 419 555T321 574Q269 574 241 554T212 500Q212 477 225 461T266 435T383 407T519 365T586 301T608 207Q608 128 548 74T390 9V-104H277Z" />
<glyph unicode="%" glyph-name="percent" horiz-adv-x="1121" d="M474 560Q474 451 418 390T264 328Q165 328 113 387T60 556Q60 665 115 726T270 788Q368 788 421 729T474 560ZM357 558Q357 624 334 658T267 693Q223 693 200 659T176 558Q176 492 199 458T267
423Q311 423 334 457T357 558ZM897 778L354 -96H224L767 778H897ZM1062 126Q1062 17 1006 -44T852 -106Q753 -106 701 -47T648 122Q648 231 703 292T858 354Q956 354 1009 295T1062 126ZM945 124Q945 190 922 224T855 259Q811 259 788 225T764 124Q764 58 787 24T855
-11Q899 -11 922 23T945 124Z" />
<glyph unicode="&amp;" glyph-name="ampersand" horiz-adv-x="789" d="M226 545Q226 518 242 493T294 434Q334 450 356 463T392 488T412 515T419 546Q419 580 392 600T321 620Q276 620 251 600T226 545ZM321 84Q410 84 479 138Q408 190 353 232T256 311Q212 286
193 258T173 196Q173 143 212 114T321 84ZM41 189Q41 252 73 298T178 383Q136 427 117 463T98 540Q98 595 125 635T204 698T326 720Q394 720 444 700T520 641T547 554Q547 524 537 499T508 453T458 411T373 367Q405 340 448 308T552 231Q569 267 578 308T587 395H708Q708
331 692 272T645 164L779 70L707 -23Q670 2 634 28T568 74Q515 30 451 7T314 -16Q188 -16 115 38T41 189Z" />
<glyph unicode="&apos;" glyph-name="quotesingle" horiz-adv-x="272" d="M82 449L72 730H200L191 449H82Z" />
<glyph unicode="(" glyph-name="parenleft" horiz-adv-x="341" d="M205 -176Q137 -67 101 60T65 321Q65 455 101 583T205 820H334Q264 707 228 581T191 323Q191 190 226 66T333 -176H205Z" />
<glyph unicode=")" glyph-name="parenright" horiz-adv-x="341" d="M136 820Q204 711 240 584T276 323Q276 233 260 146T212 -22T136 -176H7Q77 -63 113 63T150 321Q150 454 114 578T8 820H136Z" />
<glyph unicode="*" glyph-name="asterisk" horiz-adv-x="507" d="M292 577L439 640L472 539L316 503L421 383L336 321L253 457L171 321L85 383L190 503L34 539L68 640L214 577L201 737H306L292 577Z" />
<glyph unicode="+" glyph-name="plus" horiz-adv-x="650" d="M267 50V271H53V373H267V592H383V373H597V271H383V50H267Z" />
<glyph unicode="," glyph-name="comma" horiz-adv-x="292" d="M220 165V27Q220 -48 208 -87T166 -151T81 -201L51 -133Q84 -113 98 -98T119 -62T125 0H72V165H220Z" />
<glyph unicode="-" glyph-name="hyphen" horiz-adv-x="369" d="M40 220V338H329V220H40Z" />
<glyph unicode="." glyph-name="period" horiz-adv-x="292" d="M72 0V165H220V0H72Z" />
<glyph unicode="/" glyph-name="slash" horiz-adv-x="433" d="M-49 -152L331 778H459L79 -152H-49Z" />
<glyph unicode="0" glyph-name="zero" horiz-adv-x="697" d="M637 343Q637 230 602 149T501 26T345 -16Q254 -16 190 25T93 147T60 339Q60 452 95 533T196 656T352 698Q443 698 507 657T604 535T637 343ZM500 340Q500 464 463 525T348 586Q272 586 235 526T197
342Q197 218 234 157T348 96Q425 96 462 156T500 340Z" />
<glyph unicode="1" glyph-name="one" horiz-adv-x="451" d="M220 521Q189 498 147 487T46 476V582Q101 582 139 593T200 625T238 684H355V0H220V521Z" />
<glyph unicode="2" glyph-name="two" horiz-adv-x="624" d="M574 0H45V114Q123 170 181 214T280 292T348 353T389 402T411 444T417 485Q417 518 404 542T364 580T302 593Q268 593 243 579T203 541T189 486Q189 465 192 446T200 412H72Q65 425 62 443T58 484Q58
547 89 596T176 671T307 698Q382 698 438 673T524 601T554 491Q554 462 549 437T531 385T494 332T434 272T346 202T226 115V112Q314 116 414 116H574V0Z" />
<glyph unicode="3" glyph-name="three" horiz-adv-x="643" d="M167 222Q177 154 215 120T318 86Q376 86 408 114T441 192Q441 245 405 271T298 297H223V397H284Q328 397 356 405T403 433Q416 446 421 462T427 501Q427 545 395 570T312 596Q256 596 223 566T179
473L52 493Q72 594 139 646T314 698Q390 698 446 676T532 611T562 513Q562 455 531 414T444 355V352Q510 340 545 300T581 196Q581 132 549 84T457 10T314 -16Q190 -16 121 36T36 195L167 222Z" />
<glyph unicode="4" glyph-name="four" horiz-adv-x="649" d="M369 0V163H36V263L309 682H498V268H609V163H498V0H369ZM159 265Q202 266 253 266T369 268V405Q369 453 369 494T372 582H367L159 265V265Z" />
<glyph unicode="5" glyph-name="five" horiz-adv-x="624" d="M789 575H468L450 405H453Q477 432 515 446T601 460Q672 460 725 432T805 351T833 230Q833 155 799 99T704 14T562 -16Q463 -16 396 27T299 153L420 193Q441 141 477 114T564 87Q604 87 633 103T679
151T696 224Q696 264 680 295T633 342T566 359Q524 359 494 341T447 289H330L366 682H789V575Z" />
<glyph unicode="6" glyph-name="six" horiz-adv-x="648" d="M343 332Q284 332 251 299T218 211Q218 155 251 121T337 86Q395 86 427 120T459 216Q459 271 428 301T343 332ZM468 508Q448 555 419 575T341 596Q268 596 233 534T194 337Q217 382 262 406T371 431Q479
431 538 376T597 219Q597 115 524 50T335 -16Q202 -16 131 70T59 321Q59 504 132 601T344 698Q440 698 495 664T586 551L468 508Z" />
<glyph unicode="7" glyph-name="seven" horiz-adv-x="610" d="M167 0Q174 99 203 193T285 381T417 573H47V682H563V578Q478 475 424 380T342 192T309 0H167Z" />
<glyph unicode="8" glyph-name="eight" horiz-adv-x="664" d="M457 498Q457 542 423 569T331 596Q274 596 240 569T206 498Q206 453 240 427T331 400Q390 400 423 426T457 498ZM474 193Q474 242 436 270T331 299Q265 299 228 271T190 193Q190 143 228 115T332
86Q398 86 436 115T474 193ZM611 194Q611 129 577 82T479 9T329 -16Q243 -16 181 7T86 76T53 185Q53 244 86 287T180 353V355Q130 372 101 411T72 502Q72 560 104 604T196 673T334 698Q414 698 472 675T561 607T592 505Q592 457 563 417T484 357V355Q546 336 578
295T611 194Z" />
<glyph unicode="9" glyph-name="nine" horiz-adv-x="648" d="M562 350Q621 350 654 383T687 471Q687 527 654 561T568 596Q510 596 478 562T446 466Q446 411 476 381T562 350ZM428 178Q450 129 482 108T564 86Q637 86 672 148T711 345Q689 300 643 276T534 251Q425
251 367 306T308 463Q308 567 381 632T570 698Q703 698 774 612T846 361Q846 178 773 81T561 -16Q464 -16 405 20T310 135L428 178Z" />
<glyph unicode=":" glyph-name="colon" horiz-adv-x="323" d="M90 330V490H233V330H90ZM90 0V160H233V0H90Z" />
<glyph unicode=";" glyph-name="semicolon" horiz-adv-x="323" d="M90 330V490H233V330H90ZM233 160V27Q233 -48 221 -86T180 -151T94 -200L64 -132Q95 -114 110 -99T131 -62T138 0H90V160H233Z" />
<glyph unicode="&lt;" glyph-name="less" horiz-adv-x="650" d="M587 64L63 264V380L587 580V458Q407 391 328 364T200 324V322Q248 310 328 282T587 188V64Z" />
<glyph unicode="=" glyph-name="equal" horiz-adv-x="650" d="M587 371H63V472H587V371ZM587 172H63V273H587V172Z" />
<glyph unicode="&gt;" glyph-name="greater" horiz-adv-x="650" d="M63 580L587 380V264L63 64V186Q237 251 318 279T450 320V322Q402 334 322 362T63 456V580Z" />
<glyph unicode="?" glyph-name="question" horiz-adv-x="631" d="M264 273Q263 300 270 322T294 364T350 411T403 454T423 487T430 524Q430 550 416 570T375 603T314 615Q279 615 252 601T211 563T196 507Q196 491 197 477T201 454H73Q70 464 68 477T66 504Q66
569 97 618T185 693T319 720Q394 720 450 696T537 627T567 528Q567 492 557 463T527 409T465 356T411 317T392 292T385 265L383 213H266L264 273ZM254 0V148H394V0H254Z" />
<glyph unicode="@" glyph-name="at" horiz-adv-x="1040" d="M598 300Q598 349 577 373T512 397Q476 397 450 376T409 318T394 236Q394 184 414 159T476 133Q514 133 541 154T583 216T598 300ZM990 337Q990 250 959 182T871 77T739 40Q682 40 650 58T606 114H605Q580
78 540 59T453 40Q365 40 319 88T273 227Q273 299 301 361T380 456T500 489Q544 489 575 474T624 431H625L635 480H752L708 247Q700 203 701 179T713 144T749 133Q790 133 820 157T866 226T882 329Q882 419 843 487T728 592T551 628Q437 628 348 579T209 442T158
247Q158 145 201 66T324 -56T510 -99Q568 -99 629 -91T746 -65L759 -154Q704 -171 638 -180T504 -189Q369 -189 266 -135T107 18T50 243Q50 375 115 484T296 656T555 718Q680 718 780 669T935 533T990 337Z" />
<glyph unicode="A" glyph-name="A" horiz-adv-x="682" d="M335 570Q327 536 273 373L235 252H437L399 372Q344 535 336 570H335ZM419 682L669 0H519L469 153H204L155 0H13L263 682H419Z" />
<glyph unicode="B" glyph-name="B" horiz-adv-x="719" d="M89 682Q135 683 213 683T351 684Q454 684 511 669T602 620Q645 577 645 512Q645 455 617 417T532 359Q597 345 632 303T668 199Q668 129 634 85T532 19T352 -2Q186 -2 89 0V682ZM219 398H355Q413 398
441 405T487 429Q499 441 505 456T511 492Q511 527 489 549Q471 567 438 573T335 580Q276 580 219 578V398ZM219 104Q296 102 370 102Q430 102 464 112T514 143T531 198Q531 232 516 254T469 286T370 297H219V104Z" />
<glyph unicode="C" glyph-name="C" horiz-adv-x="704" d="M674 198Q642 94 565 39T377 -16Q281 -16 207 27T91 152T50 340Q50 447 91 527T210 653T377 698Q482 698 557 646T666 496L543 461Q523 520 479 551T375 582Q320 582 278 553T211 469T187 342Q187 269
211 214T279 130T379 101Q444 101 489 134T553 229L674 198Z" />
<glyph unicode="D" glyph-name="D" horiz-adv-x="742" d="M89 682Q191 683 319 683Q422 683 487 662T601 592Q646 547 669 485T692 344Q692 265 668 199T600 89Q553 43 487 21T324 -1Q206 0 89 0V682ZM218 111Q276 108 323 108Q396 108 431 119T493 158Q524 189
539 235T555 341Q555 398 538 445T491 522Q462 551 425 563T315 575Q247 575 218 574V111Z" />
<glyph unicode="E" glyph-name="E" horiz-adv-x="651" d="M89 682H581V579H219V398H534V298H219V104H598V0H89V682Z" />
<glyph unicode="F" glyph-name="F" horiz-adv-x="603" d="M89 682H563V577H219V383H518V282H219V0H89V682Z" />
<glyph unicode="G" glyph-name="G" horiz-adv-x="767" d="M577 0V81H576Q544 33 493 9T372 -16Q279 -16 205 28T91 153T50 339Q50 443 93 525T214 652T391 698Q488 698 560 664T680 560L579 477Q548 530 500 557T387 584Q327 584 282 554T212 468T187 342Q187
267 212 212T283 128T389 98Q440 98 479 119T538 179T559 263V276H397V376H688V0H577Z" />
<glyph unicode="H" glyph-name="H" horiz-adv-x="763" d="M89 682H219V410H544V682H674V0H544V298H219V0H89V682Z" />
<glyph unicode="I" glyph-name="I" horiz-adv-x="308" d="M89 682H219V0H89V682Z" />
<glyph unicode="J" glyph-name="J" horiz-adv-x="556" d="M474 682V223Q474 111 415 48T243 -16Q197 -16 157 -4T84 36T32 109T6 222L134 244Q140 166 165 132T245 98Q344 98 344 221V682H474Z" />
<glyph unicode="K" glyph-name="K" horiz-adv-x="698" d="M687 682L441 436L702 0H548L347 343L219 215V0H89V682H219V371L520 682H687Z" />
<glyph unicode="L" glyph-name="L" horiz-adv-x="561" d="M89 682H219V112H545V0H89V682Z" />
<glyph unicode="M" glyph-name="M" horiz-adv-x="959" d="M89 682H304L419 373Q447 299 461 257T482 184H484Q491 218 505 261T545 373L660 682H870V0H740V240Q740 347 741 434T745 578H741Q727 533 712 489T674 385L533 0H418L277 385Q245 466 233 503T211 578H206Q209
523 210 435T211 240V0H89V682Z" />
<glyph unicode="N" glyph-name="N" horiz-adv-x="771" d="M521 0L301 364Q276 404 250 451T206 532H203Q207 475 209 385T211 217V0H89V682H261L470 337Q492 302 514 261T565 169H567Q564 226 562 316T560 484V682H682V0H521Z" />
<glyph unicode="O" glyph-name="O" horiz-adv-x="787" d="M737 343Q737 237 693 155T571 29T392 -16Q290 -16 212 28T92 153T50 339Q50 445 93 527T216 653T395 698Q497 698 575 654T695 529T737 343ZM599 341Q599 414 574 468T503 552T393 582Q332 582 285 553T213
470T187 341Q187 268 212 214T284 130T393 100Q456 100 502 129T574 213T599 341Z" />
<glyph unicode="P" glyph-name="P" horiz-adv-x="666" d="M89 682Q225 683 361 684Q460 684 524 659T619 585T651 462Q651 390 618 340T518 264T354 238Q264 238 219 239V0H89V682ZM514 460Q514 500 498 525T447 563T358 575Q262 575 219 574V347Q263 346 358
346Q412 346 446 358T497 396T514 460Z" />
<glyph unicode="Q" glyph-name="Q" horiz-adv-x="787" d="M737 343Q737 273 718 213T661 105L727 39L651 -38L579 33Q499 -16 392 -16Q316 -16 253 9T144 81T74 194T50 339Q50 418 74 484T146 599T256 672T395 698Q471 698 534 674T643 602T713 488T737 343ZM490
276L567 199Q599 257 599 341Q599 395 585 439T544 516T479 565T393 582Q346 582 308 565T242 516T201 440T187 341Q187 287 201 243T242 166T307 117T393 100Q446 100 490 122L413 200L490 276Z" />
<glyph unicode="R" glyph-name="R" horiz-adv-x="703" d="M219 360Q242 359 272 359T360 358Q409 358 442 370T492 406T509 470Q509 506 493 529T444 563T361 575Q315 575 279 575T219 574V360ZM519 0L344 251H219V0H89V682Q126 682 226 683T367 684Q457 684 519
660T614 589T646 472Q646 396 605 345T485 271L680 0H519Z" />
<glyph unicode="S" glyph-name="S" horiz-adv-x="673" d="M104 188Q160 141 223 116T348 91Q391 91 422 102T469 133T485 181Q485 207 471 225T427 256T301 289T158 337T89 404T67 501Q67 559 99 604T190 673T327 698Q391 698 455 679T578 620L524 518Q478 555
427 573T324 591Q284 591 257 582T215 554T201 512Q201 488 215 471T257 441T382 409T526 362T597 292T620 192Q620 132 586 85T489 11T346 -16Q267 -16 190 11T48 88L104 188Z" />
<glyph unicode="T" glyph-name="T" horiz-adv-x="538" d="M203 573H-5V682H543V573H335V0H203V573Z" />
<glyph unicode="U" glyph-name="U" horiz-adv-x="739" d="M212 274Q212 218 231 179T286 120T373 100Q425 100 461 119T515 178T534 274V682H657V267Q657 181 623 117T525 18T371 -16Q279 -16 214 17T116 113T82 262V682H212V274Z" />
<glyph unicode="V" glyph-name="V" horiz-adv-x="646" d="M247 0L4 682H149L258 352Q295 245 307 205T326 132H328Q336 164 347 205T395 353L500 682H642L398 0H247Z" />
<glyph unicode="W" glyph-name="W" horiz-adv-x="1057" d="M221 0L24 682H170L251 365Q259 332 279 258T309 133H312Q321 170 336 227T375 365L465 682H601L692 365Q720 270 734 218T757 133H760Q769 173 787 246T817 368L898 682H1033L836 0H672L569 339Q548
418 542 443T529 500H526Q522 476 515 446T486 339L385 0H221Z" />
<glyph unicode="X" glyph-name="X" horiz-adv-x="622" d="M233 355L20 682H177L315 458L457 682H602L390 360L624 0H467L308 257L144 0H-3L233 355Z" />
<glyph unicode="Y" glyph-name="Y" horiz-adv-x="634" d="M252 0V280L0 682H157L321 408L483 682H634L382 280V0H252Z" />
<glyph unicode="Z" glyph-name="Z" horiz-adv-x="628" d="M590 0H38V110L411 575Q345 574 284 574T185 573H53V682H575V573L202 109Q269 110 324 110T410 111H590V0Z" />
<glyph unicode="[" glyph-name="bracketleft" horiz-adv-x="392" d="M361 -176H89V820H361V720H206V-76H361V-176Z" />
<glyph unicode="\" glyph-name="backslash" horiz-adv-x="433" d="M354 -152L-26 778H101L482 -152H354Z" />
<glyph unicode="]" glyph-name="bracketright" horiz-adv-x="392" d="M31 -176V-76H187V720H31V820H304V-176H31Z" />
<glyph unicode="^" glyph-name="asciicircum" horiz-adv-x="650" d="M446 347Q403 425 375 481T324 586H323Q303 539 274 483T201 347H54L257 682H393L596 347H446Z" />
<glyph unicode="_" glyph-name="underscore" horiz-adv-x="650" d="M650 -204H0V-103H650V-204Z" />
<glyph unicode="`" glyph-name="grave" horiz-adv-x="356" d="M298 552H188L58 698H215L298 552Z" />
<glyph unicode="a" glyph-name="a" horiz-adv-x="538" d="M34 136Q34 178 53 209T111 261T210 293T353 304V325Q353 368 328 390T254 413Q211 413 173 396T103 343L45 415Q89 459 146 482T267 505Q368 505 420 460T473 327V237Q473 186 473 147T476 0H363L361
60H360Q332 23 293 5T205 -14Q126 -14 80 26T34 136ZM353 220Q298 220 262 216T203 202T170 179T160 143Q160 112 180 96T236 79Q269 79 296 95T338 139T353 199V220V220Z" />
<glyph unicode="b" glyph-name="b" horiz-adv-x="603" d="M191 236Q191 191 206 156T249 102T314 83Q352 83 379 102T421 159T435 246Q435 295 420 332T376 388T310 407Q275 407 248 389T206 336T191 253V236ZM73 706H193V524Q193 470 187 429H189Q213 465 253
485T345 505Q410 505 459 474T536 383T563 247Q563 170 535 111T455 19T334 -14Q284 -14 246 5T184 61H183L179 0H66Q71 81 72 130T73 246V706Z" />
<glyph unicode="c" glyph-name="c" horiz-adv-x="533" d="M510 135Q474 58 419 22T283 -14Q208 -14 153 17T69 107T40 244Q40 322 69 381T155 472T284 505Q366 505 421 470T503 363L394 319Q380 361 352 383T284 405Q249 405 222 387T181 332T167 246Q167 198
181 162T223 106T287 86Q327 86 355 107T401 172L510 135Z" />
<glyph unicode="d" glyph-name="d" horiz-adv-x="603" d="M419 0L417 65H416Q393 27 352 7T258 -14Q191 -14 142 18T66 109T40 243Q40 320 68 379T148 472T268 505Q315 505 351 488T411 439H412Q409 477 409 524V706H529V244Q529 171 529 124T532 0H419ZM412 254Q412
300 397 335T353 388T289 407Q251 407 224 388T182 331T167 245Q167 197 182 160T225 103T292 83Q329 83 356 102T398 156T412 237V254Z" />
<glyph unicode="e" glyph-name="e" horiz-adv-x="563" d="M398 294Q397 329 383 356T345 398T287 413Q255 413 230 400T190 359T170 294H398ZM298 -14Q217 -14 159 16T71 104T40 244Q40 322 70 381T157 472T289 505Q363 505 416 476T497 391T525 264Q525 232 520
211H168Q172 168 189 139T237 95T307 80Q354 80 393 96T464 145L516 69Q471 27 416 7T298 -14Z" />
<glyph unicode="f" glyph-name="f" horiz-adv-x="326" d="M91 395H11V490H91V568Q90 616 108 649T160 699T243 716Q268 716 293 713T334 703V606Q315 611 296 614T260 617Q243 617 233 612T217 594T211 559V490H318V395H211V0H91V395Z" />
<glyph unicode="g" glyph-name="g" horiz-adv-x="603" d="M412 254Q412 299 397 334T354 388T289 407Q251 407 224 388T182 332T168 248Q168 202 183 166T226 109T293 89Q329 89 356 108T398 163T412 243V254ZM538 490Q534 449 532 388T530 245V2Q530 -100 470
-152T294 -204Q227 -204 171 -186T70 -131L115 -42Q153 -75 200 -92T296 -109Q353 -109 381 -84T410 -9Q410 3 411 25T413 63H411Q388 30 348 12T258 -7Q190 -7 141 24T66 112T40 246Q40 322 68 381T149 472T269 505Q319 505 357 486T419 430H420L425 490H538Z"
/>
<glyph unicode="h" glyph-name="h" horiz-adv-x="590" d="M73 706H193V524Q193 471 188 429H189Q213 465 253 485T343 505Q401 505 442 483T504 416T525 304V0H405V260Q405 308 402 327T392 362Q381 384 360 395T309 407Q286 407 266 399T234 379Q212 357 203
325T193 241V0H73V706Z" />
<glyph unicode="i" glyph-name="i" horiz-adv-x="267" d="M72 557V694H194V557H72V557ZM73 0V490H193V0H73Z" />
<glyph unicode="j" glyph-name="j" horiz-adv-x="274" d="M79 557V694H201V557H79ZM200 490V-5Q200 -73 184 -116T134 -180T45 -201Q29 -201 14 -199T-10 -194V-101H29Q52 -101 62 -91T76 -60T80 8V490H200Z" />
<glyph unicode="k" glyph-name="k" horiz-adv-x="549" d="M73 706H193V296L381 490H534L355 319L556 0H410L266 234L193 163V0H73V706Z" />
<glyph unicode="l" glyph-name="l" horiz-adv-x="267" d="M73 706H193V0H73V706Z" />
<glyph unicode="m" glyph-name="m" horiz-adv-x="914" d="M729 0V260Q729 308 726 327T715 362Q704 384 684 395T634 407Q612 407 593 399T561 379Q540 358 531 326T521 241V0H401V260Q401 308 398 327T388 362Q377 384 357 395T307 407Q285 407 265 399T233 379Q212
358 203 326T193 241V0H73V240Q73 282 73 317T73 381T72 437T70 490H183L185 425H186Q211 463 251 484T341 505Q397 505 437 483T499 417Q529 462 571 483T669 505Q756 505 802 454T849 304V0H729Z" />
<glyph unicode="n" glyph-name="n" horiz-adv-x="590" d="M405 0V260Q405 308 402 327T392 362Q381 384 360 395T309 407Q286 407 266 399T234 379Q212 357 203 325T193 241V0H73V240Q73 282 73 317T73 381T72 437T70 490H183L185 425H186Q210 463 251 484T343
505Q432 505 478 454T525 304V0H405Z" />
<glyph unicode="o" glyph-name="o" horiz-adv-x="584" d="M544 246Q544 169 513 110T425 18T290 -14Q213 -14 156 17T70 106T40 244Q40 322 71 381T159 472T294 505Q371 505 428 474T514 384T544 246ZM417 245Q417 293 402 329T359 384T292 404Q253 404 225 384T182
328T167 245Q167 198 182 162T225 106T292 86Q331 86 359 106T402 162T417 245Z" />
<glyph unicode="p" glyph-name="p" horiz-adv-x="603" d="M73 -192V246Q73 307 73 370T70 490H183L185 425H186Q210 464 251 484T345 505Q410 505 459 474T536 383T563 247Q563 170 535 111T455 19T334 -14Q288 -14 251 3T191 51H190Q193 14 193 -34V-192H73ZM191
236Q191 190 206 155T250 102T314 83Q352 83 379 102T421 159T435 246Q435 295 420 332T376 388T310 407Q275 407 248 389T206 336T191 253V236Z" />
<glyph unicode="q" glyph-name="q" horiz-adv-x="603" d="M412 254Q412 299 397 334T354 388T289 407Q251 407 224 388T182 331T167 245Q167 197 182 160T225 103T292 83Q329 83 356 102T398 156T412 237V254ZM409 -192V-34Q409 20 415 62H414Q390 25 349 6T258
-14Q191 -14 142 18T66 109T40 243Q40 320 68 379T148 472T268 505Q318 505 356 486T419 430H420L424 490H536Q532 420 531 363T529 254V-192H409Z" />
<glyph unicode="r" glyph-name="r" horiz-adv-x="379" d="M73 0V240Q73 300 73 347T70 490H183L186 402H187Q216 454 255 479T341 504Q357 504 368 503V380Q354 381 339 381Q307 381 282 372T240 345Q215 320 204 284T193 166V0H73Z" />
<glyph unicode="s" glyph-name="s" horiz-adv-x="510" d="M85 145Q126 113 172 97T263 80Q305 80 326 93T348 133Q348 149 339 160T310 178T223 200T121 234T70 284T54 355Q54 401 78 435T148 487T253 505Q303 505 353 491T444 450L398 366Q367 389 329 401T251
414Q228 414 211 409T185 393T176 367Q176 352 185 341T213 322T300 301T403 267T454 217T471 144Q471 97 446 61T373 6T262 -14Q203 -14 146 4T36 58L85 145Z" />
<glyph unicode="t" glyph-name="t" horiz-adv-x="363" d="M14 394V490H92V642L212 666V490H336V394H212V201Q212 161 213 143T218 115T227 99Q234 92 243 90T267 87Q286 87 305 90T336 98V3Q318 -5 291 -9T237 -14Q184 -14 153 2T107 54T92 146V394H14Z" />
<glyph unicode="u" glyph-name="u" horiz-adv-x="585" d="M402 0L400 65H399Q375 27 335 7T245 -14Q186 -14 146 9T85 77T65 186V490H185V230Q185 183 188 164T198 128Q209 107 229 95T278 83Q300 83 320 91T352 111Q373 132 382 164T392 249V490H512V242Q512
181 512 133T515 0H402Z" />
<glyph unicode="v" glyph-name="v" horiz-adv-x="515" d="M189 0L4 490H140L208 292Q222 249 236 203T260 117H263Q270 147 284 194T314 292L378 490H511L326 0H189Z" />
<glyph unicode="w" glyph-name="w" horiz-adv-x="828" d="M515 0L443 220Q434 249 427 278T413 340H411Q405 308 398 279T382 219L312 0H179L13 490H144L215 265Q226 232 235 197T253 123H255Q265 169 273 203T291 266L360 490H473L544 265Q554 233 564 197T583
123H585Q591 153 600 189T621 265L686 490H814L649 0H515Z" />
<glyph unicode="x" glyph-name="x" horiz-adv-x="510" d="M0 0L179 260L18 490H163L260 344L354 490H491L328 257L510 0H362L248 171L140 0H0Z" />
<glyph unicode="y" glyph-name="y" horiz-adv-x="515" d="M121 -192L209 0H188L4 490H140L208 292Q222 249 236 203T260 117H263Q270 147 284 194T314 292L378 490H511L255 -192H121Z" />
<glyph unicode="z" glyph-name="z" horiz-adv-x="515" d="M469 0H45V99L302 394Q281 394 234 394T164 393H56V490H456V393L200 98Q220 98 271 98T348 99H469V0Z" />
<glyph unicode="{" glyph-name="braceleft" horiz-adv-x="440" d="M30 371H61Q95 371 109 379T130 410T137 481V623Q137 692 156 735T218 799T329 820H409V720H330Q299 720 283 711T261 680T254 623V484Q254 433 246 401T221 351T175 324V323Q204 313 221 296T246
246T254 164V22Q254 -17 261 -37T286 -67T331 -76H409V-176H327Q259 -176 218 -156T157 -93T137 19V161Q137 209 130 232T108 264T59 273H30V371Z" />
<glyph unicode="|" glyph-name="bar" horiz-adv-x="329" d="M105 -176V820H224V-176H105Z" />
<glyph unicode="}" glyph-name="braceright" horiz-adv-x="440" d="M31 -176V-76H111Q139 -76 155 -68T179 -39T187 21V160Q187 211 194 243T219 293T265 320V321Q236 331 219 348T195 398T187 480V622Q187 661 179 681T155 711T109 720H31V820H114Q182 820 223
800T284 738T304 625V483Q304 435 310 412T332 380T381 371H410V273H380Q346 273 331 265T310 234T304 163V21Q304 -50 283 -93T221 -156T112 -176H31Z" />
<glyph unicode="~" glyph-name="asciitilde" horiz-adv-x="650" d="M58 224Q58 292 76 338T131 409T221 433Q261 433 294 418T362 368T409 325T435 317Q453 317 463 328T478 362T483 420H592Q592 352 574 306T519 235T429 211Q389 211 356 226T288 276T241 319T215
327Q197 327 187 316T172 283T167 224H58Z" />
<glyph unicode="&#xa0;" glyph-name="space" horiz-adv-x="254" />
<glyph unicode="&#xa1;" glyph-name="exclamdown" horiz-adv-x="362" d="M239 397L254 -96H108L123 397H239ZM251 610V462H111V610H251Z" />
<glyph unicode="&#xa2;" glyph-name="cent" horiz-adv-x="566" d="M353 693V581Q407 570 447 538T511 454L408 406Q390 447 363 466T299 486Q246 486 216 448T185 343Q185 276 216 238T302 199Q345 199 373 219T419 283L515 241Q493 185 452 151T353 105V-10H246V103Q156
117 107 179T58 341Q58 437 108 501T246 581V693H353Z" />
<glyph unicode="&#xa3;" glyph-name="sterling" horiz-adv-x="650" d="M591 0H66V92Q124 130 146 159T168 227Q168 246 162 275H58V373H137Q125 412 120 441T115 494Q115 589 178 643T352 698Q437 698 495 659T587 540L478 485Q460 537 428 563T350 589Q304 589
278 563T251 490Q251 471 255 448T275 373H456V275H299Q305 245 305 228Q305 193 290 166T245 116V113Q362 116 438 116H591V0Z" />
<glyph unicode="&#xa4;" glyph-name="currency" horiz-adv-x="662" d="M431 322Q431 373 404 403T330 434Q282 434 255 403T228 322Q228 271 255 241T330 210Q378 210 404 240T431 322ZM540 324Q540 262 513 217L609 124L534 49L438 151Q392 125 328 125Q265 125
220 150L125 50L50 124L146 215Q120 258 120 320Q120 382 147 427L50 520L125 595L222 493Q271 519 332 519Q394 519 440 494L534 595L609 520L513 429Q540 383 540 324Z" />
<glyph unicode="&#xa5;" glyph-name="yen" horiz-adv-x="650" d="M262 0V84H99V172H262V241H99V329H262V349L20 682H181L259 564Q275 539 293 514T330 463Q341 479 360 508T398 563L475 682H630L388 349V329H551V241H388V172H551V84H388V0H262Z" />
<glyph unicode="&#xa6;" glyph-name="brokenbar" horiz-adv-x="329" d="M105 -176V230H224V-176H105ZM105 414V820H224V414H105Z" />
<glyph unicode="&#xa7;" glyph-name="section" horiz-adv-x="633" d="M458 263Q458 286 445 302T406 331T320 359T238 382Q211 364 197 341T182 290Q182 267 195 250T236 220T322 193T403 171Q430 190 444 213T458 263ZM61 280Q61 324 85 362T153 425Q128 446
115 475T102 542Q102 580 116 612T160 667T230 703T322 716Q379 716 432 700T529 652L480 557Q446 585 405 600T319 616Q273 616 249 599T224 551Q224 530 236 515T274 489T379 456T499 412T560 354T580 273Q580 230 556 193T489 129Q516 108 530 78T544 10Q544
-27 529 -59T484 -114T413 -150T321 -163Q260 -163 202 -143T95 -85L147 10Q186 -24 233 -43T324 -62Q373 -62 397 -46T421 2Q421 23 409 38T371 64T265 97T142 141T81 199T61 280Z" />
<glyph unicode="&#xa8;" glyph-name="dieresis" horiz-adv-x="460" d="M274 559V692H389V559H274ZM70 559V692H185V559H70Z" />
<glyph unicode="&#xa9;" glyph-name="copyright" horiz-adv-x="935" d="M676 250Q650 188 596 154T472 119Q406 119 356 146T280 223T254 340Q254 407 281 458T359 537T476 565Q546 565 596 534T671 443L578 399Q564 434 537 452T474 470Q443 470 420 455T385
411T372 341Q372 304 384 275T420 230T476 214Q513 214 540 233T582 291L676 250ZM772 340Q772 431 734 503T627 615T469 655Q378 655 308 615T201 503T163 340Q163 250 201 178T308 66T467 26Q557 26 627 66T734 178T772 340ZM881 344Q881 228 828 133T679 -15T466
-69Q347 -69 253 -17T107 129T54 338Q54 454 107 549T256 697T470 750Q589 750 683 698T829 553T881 344Z" />
<glyph unicode="&#xaa;" glyph-name="ordfeminine" horiz-adv-x="512" d="M69 161V250H433V161H69ZM332 536Q283 536 250 532T197 520T169 499T160 467Q160 440 177 425T228 410Q257 410 281 424T318 463T332 517V536ZM437 468Q437 440 438 410T441 341H341L339
394Q313 362 278 345T200 328Q154 328 120 344T68 390T49 461Q49 498 65 526T116 572T204 600T332 610V629Q331 668 309 687T244 707Q206 707 174 692T110 645L58 708Q105 750 152 769T255 788Q344 788 390 748T437 630V468Z" />
<glyph unicode="&#xab;" glyph-name="guillemotleft" horiz-adv-x="666" d="M488 52L333 279L489 506L587 458L482 280L587 101L488 52ZM230 36L65 279L231 521L330 474L214 280L329 85L230 36Z" />
<glyph unicode="&#xac;" glyph-name="logicalnot" horiz-adv-x="650" d="M460 76V271H53V373H577V76H460Z" />
<glyph unicode="&#xad;" glyph-name="hyphen" horiz-adv-x="369" d="M40 220V338H329V220H40Z" />
<glyph unicode="&#xae;" glyph-name="registered" horiz-adv-x="724" d="M316 547Q331 546 367 546Q394 546 406 555T419 585Q419 598 414 605T397 616T368 619H316V547ZM414 387L358 488H316V387H237V678Q307 679 371 679Q416 679 445 669T488 638T502 587Q502
557 485 535T436 501L508 387H414ZM576 527Q576 589 549 640T473 721T362 751Q300 751 251 722T175 641T148 527Q148 463 176 412T252 332T362 303Q424 303 473 332T549 413T576 527ZM650 529Q650 450 612 383T508 278T360 240Q280 240 215 277T112 379T74 525Q74
604 112 671T216 776T364 814Q445 814 510 777T613 674T650 529Z" />
<glyph unicode="&#xaf;" glyph-name="overscore" horiz-adv-x="452" d="M382 572H70V669H382V572Z" />
<glyph unicode="&#xb0;" glyph-name="degree" horiz-adv-x="436" d="M396 610Q396 564 375 528T312 472T217 451Q164 451 124 470T62 524T40 608Q40 653 61 689T124 745T219 766Q274 766 314 746T375 691T396 610ZM293 609Q293 643 273 663T218 683Q183 683 164
663T144 609Q144 574 163 554T218 534Q254 534 273 554T293 609Z" />
<glyph unicode="&#xb1;" glyph-name="plusminus" horiz-adv-x="650" d="M587 0H63V101H587V0ZM267 184V383H63V485H267V682H383V485H587V383H383V184H267Z" />
<glyph unicode="&#xb2;" glyph-name="twosuperior" horiz-adv-x="525" d="M456 338H72V442Q149 483 198 512T274 562T312 602T322 642Q322 670 305 685T255 701Q223 701 206 687T189 644Q189 621 196 601H82Q74 618 74 643Q74 710 125 749T261 788Q350 788 399
751T449 644Q449 614 437 587T398 535T329 485T227 433V430Q292 432 342 432H456V338Z" />
<glyph unicode="&#xb3;" glyph-name="threesuperior" horiz-adv-x="523" d="M169 481Q179 410 259 410Q292 410 311 424T330 466Q330 496 310 509T247 523H191V599H235Q265 599 280 603T306 617Q320 631 320 656Q320 680 303 693T256 707Q221 707 201 690T176
640L67 657Q78 721 128 754T260 788Q348 788 397 756T446 666Q446 630 426 605T368 569V567Q459 547 459 461Q459 401 405 365T259 328Q168 328 118 361T58 463L169 481Z" />
<glyph unicode="&#xb4;" glyph-name="acute" horiz-adv-x="366" d="M147 698H303L173 552H63L147 698Z" />
<glyph unicode="&#xb5;" glyph-name="mu" horiz-adv-x="594" d="M73 -192V490H193V230Q193 183 196 164T207 128Q218 107 238 95T286 83Q309 83 328 91T361 111Q382 132 391 164T400 249V490H520V242Q520 181 520 133T523 0H410L408 65H407Q384 27 349 8T269 -12Q216
-12 191 16H190L195 -192H73Z" />
<glyph unicode="&#xb6;" glyph-name="paragraph" horiz-adv-x="752" d="M547 -192V573H446V-192H331V214H305Q224 214 166 242T77 324T46 450Q46 525 79 577T173 655T320 682Q346 682 407 682T499 681H663V-192H547Z" />
<glyph unicode="&#xb7;" glyph-name="middot" horiz-adv-x="291" d="M72 245V399H219V245H72Z" />
<glyph unicode="&#xb8;" glyph-name="cedilla" horiz-adv-x="306" d="M69 -192Q94 -169 105 -152T117 -121Q117 -110 109 -101T75 -76L122 5H219L192 -41Q215 -58 225 -75T236 -113Q236 -132 222 -153T186 -192H69Z" />
<glyph unicode="&#xb9;" glyph-name="onesuperior" horiz-adv-x="374" d="M170 338V644Q151 629 120 621T46 613V707Q103 707 138 725T182 779H290V338H170Z" />
<glyph unicode="&#xba;" glyph-name="ordmasculine" horiz-adv-x="545" d="M69 161V250H476V161H69ZM496 559Q496 490 469 438T390 357T271 328Q201 328 151 356T75 435T49 557Q49 626 76 678T155 759T274 788Q342 788 392 761T469 682T496 559ZM384 558Q384 601
370 633T331 683T272 700Q237 700 213 682T175 632T161 558Q161 516 174 484T213 434T272 416Q307 416 332 434T370 484T384 558Z" />
<glyph unicode="&#xbb;" glyph-name="guillemotright" horiz-adv-x="666" d="M179 506L333 279L177 52L80 100L185 278L80 457L179 506ZM436 522L601 279L435 37L337 84L453 278L337 473L436 522Z" />
<glyph unicode="&#xbc;" glyph-name="onequarter" horiz-adv-x="969" d="M170 338V644Q151 629 120 621T46 613V707Q103 707 138 725T182 779H290V338H170ZM780 778L237 -96H107L650 778H780ZM604 79Q644 80 678 80T733 81V176Q733 237 735 259H732L604 79V79ZM733
-96V-11H495V86L679 344H852V82H925V-11H852V-96H733Z" />
<glyph unicode="&#xbd;" glyph-name="onehalf" horiz-adv-x="1004" d="M170 338V644Q151 629 120 621T46 613V707Q103 707 138 725T182 779H290V338H170ZM780 778L237 -96H107L650 778H780ZM936 -96H552V8Q629 49 678 78T754 128T792 168T802 208Q802 236 785
251T735 267Q703 267 686 253T669 210Q669 187 676 167H562Q554 184 554 209Q554 276 605 315T741 354Q830 354 879 317T929 210Q929 180 917 153T878 101T809 51T707 -1V-4Q772 -2 822 -2H936V-96Z" />
<glyph unicode="&#xbe;" glyph-name="threequarters" horiz-adv-x="1097" d="M169 481Q179 410 259 410Q292 410 311 424T330 466Q330 496 310 509T247 523H191V599H235Q265 599 280 603T306 617Q320 631 320 656Q320 680 303 693T256 707Q221 707 201 690T176
640L67 657Q78 721 128 754T260 788Q348 788 397 756T446 666Q446 630 426 605T368 569V567Q459 547 459 461Q459 401 405 365T259 328Q168 328 118 361T58 463L169 481ZM909 778L366 -96H236L779 778H909ZM733 79Q773 80 807 80T862 81V176Q862 237 864 259H861L733
79V79ZM862 -96V-11H624V86L808 344H981V82H1054V-11H981V-96H862Z" />
<glyph unicode="&#xbf;" glyph-name="questiondown" horiz-adv-x="631" d="M367 337Q368 310 361 288T337 246T281 199T228 156T208 123T201 86Q201 60 215 40T256 7T317 -5Q352 -5 379 9T420 47T435 103Q435 119 434 133T430 156H558Q561 146 563 133T565 106Q565
41 534 -8T446 -83T312 -110Q237 -110 181 -86T94 -17T64 82Q64 118 74 147T104 201T166 254T220 293T239 318T246 345L248 397H365L367 337ZM377 610V462H237V610H377Z" />
<glyph unicode="&#xc0;" glyph-name="Agrave" horiz-adv-x="682" d="M335 570Q327 536 273 373L235 252H437L399 372Q344 535 336 570H335ZM419 682L669 0H519L469 153H204L155 0H13L263 682H419ZM419 741H301L166 883H332L419 741Z" />
<glyph unicode="&#xc1;" glyph-name="Aacute" horiz-adv-x="682" d="M335 570Q327 536 273 373L235 252H437L399 372Q344 535 336 570H335ZM419 682L669 0H519L469 153H204L155 0H13L263 682H419ZM348 883H514L379 741H261L348 883Z" />
<glyph unicode="&#xc2;" glyph-name="Acircumflex" horiz-adv-x="682" d="M335 570Q327 536 273 373L235 252H437L399 372Q344 535 336 570H335ZM419 682L669 0H519L469 153H204L155 0H13L263 682H419ZM265 885H416L528 743H408L339 813L270 743H153L265 885Z" />
<glyph unicode="&#xc3;" glyph-name="Atilde" horiz-adv-x="682" d="M335 570Q327 536 273 373L235 252H437L399 372Q344 535 336 570H335ZM419 682L669 0H519L469 153H204L155 0H13L263 682H419ZM267 790Q252 790 245 778T237 743H141Q141 788 155 820T199 869T271
886Q297 886 320 879T368 855T400 835T414 832Q429 832 436 844T444 879H540Q540 834 526 802T482 753T410 736Q384 736 361 743T313 768T280 787T267 790Z" />
<glyph unicode="&#xc4;" glyph-name="Adieresis" horiz-adv-x="682" d="M335 570Q327 536 273 373L235 252H437L399 372Q344 535 336 570H335ZM419 682L669 0H519L469 153H204L155 0H13L263 682H419ZM398 746V879H521V746H398ZM160 746V879H283V746H160Z" />
<glyph unicode="&#xc5;" glyph-name="Aring" horiz-adv-x="682" d="M335 570Q327 536 273 373L235 252H437L399 372Q344 535 336 570H335ZM419 682L669 0H519L469 153H204L155 0H13L263 682H419ZM379 834Q379 852 369 864T341 876Q322 876 313 864T303 834Q303
816 312 804T341 792Q359 792 369 804T379 834ZM471 835Q471 789 437 759T340 728Q277 728 244 757T210 833Q210 879 245 909T342 940Q405 940 438 911T471 835Z" />
<glyph unicode="&#xc6;" glyph-name="AE" horiz-adv-x="984" d="M235 241H448V579H387L235 241ZM915 682V579H578V398H868V298H578V104H932V0H448V142H193L129 0H-15L302 682H915Z" />
<glyph unicode="&#xc7;" glyph-name="Ccedilla" horiz-adv-x="704" d="M674 198Q642 94 565 39T377 -16Q281 -16 207 27T91 152T50 340Q50 447 91 527T210 653T377 698Q482 698 557 646T666 496L543 461Q523 520 479 551T375 582Q320 582 278 553T211 469T187
342Q187 269 211 214T279 130T379 101Q444 101 489 134T553 229L674 198ZM275 -192Q326 -148 326 -121Q326 -109 315 -98T284 -77L330 5H434L408 -41Q431 -59 441 -75T452 -113Q452 -133 437 -155T398 -192H275Z" />
<glyph unicode="&#xc8;" glyph-name="Egrave" horiz-adv-x="651" d="M89 682H581V579H219V398H534V298H219V104H598V0H89V682ZM420 741H302L167 883H333L420 741Z" />
<glyph unicode="&#xc9;" glyph-name="Eacute" horiz-adv-x="651" d="M89 682H581V579H219V398H534V298H219V104H598V0H89V682ZM347 883H513L378 741H260L347 883Z" />
<glyph unicode="&#xca;" glyph-name="Ecircumflex" horiz-adv-x="651" d="M89 682H581V579H219V398H534V298H219V104H598V0H89V682ZM266 885H417L529 743H409L340 813L271 743H154L266 885Z" />
<glyph unicode="&#xcb;" glyph-name="Edieresis" horiz-adv-x="651" d="M89 682H581V579H219V398H534V298H219V104H598V0H89V682ZM399 746V879H522V746H399ZM161 746V879H284V746H161Z" />
<glyph unicode="&#xcc;" glyph-name="Igrave" horiz-adv-x="308" d="M89 682H219V0H89V682ZM488 741H370L235 883H401L488 741Z" />
<glyph unicode="&#xcd;" glyph-name="Iacute" horiz-adv-x="308" d="M89 682H219V0H89V682ZM164 883H330L195 741H77L164 883Z" />
<glyph unicode="&#xce;" glyph-name="Icircumflex" horiz-adv-x="308" d="M89 682H219V0H89V682ZM334 885H485L597 743H477L408 813L339 743H222L334 885Z" />
<glyph unicode="&#xcf;" glyph-name="Idieresis" horiz-adv-x="308" d="M89 682H219V0H89V682ZM467 746V879H590V746H467ZM229 746V879H352V746H229Z" />
<glyph unicode="&#xd0;" glyph-name="Eth" horiz-adv-x="754" d="M101 298H6V398H101V682Q203 683 331 683Q434 683 499 662T613 592Q658 547 681 485T704 344Q704 265 680 199T612 89Q565 43 499 21T336 -1Q218 0 101 0V298ZM230 110Q288 107 335 107Q405 107
441 118T505 157Q536 188 551 234T567 341Q567 398 550 445T503 523Q474 552 436 564T327 576Q259 576 230 575V398H413V298H230V110Z" />
<glyph unicode="&#xd1;" glyph-name="Ntilde" horiz-adv-x="771" d="M521 0L301 364Q276 404 250 451T206 532H203Q207 475 209 385T211 217V0H89V682H261L470 337Q492 302 514 261T565 169H567Q564 226 562 316T560 484V682H682V0H521ZM314 790Q299 790 292 778T284
743H188Q188 788 202 820T246 869T318 886Q344 886 367 879T415 855T447 835T461 832Q476 832 483 844T491 879H587Q587 834 573 802T529 753T457 736Q431 736 408 743T360 768T327 787T314 790Z" />
<glyph unicode="&#xd2;" glyph-name="Ograve" horiz-adv-x="787" d="M737 343Q737 237 693 155T571 29T392 -16Q290 -16 212 28T92 153T50 339Q50 445 93 527T216 653T395 698Q497 698 575 654T695 529T737 343ZM599 341Q599 414 574 468T503 552T393 582Q332
582 285 553T213 470T187 341Q187 268 212 214T284 130T393 100Q456 100 502 129T574 213T599 341ZM471 741H353L218 883H384L471 741Z" />
<glyph unicode="&#xd3;" glyph-name="Oacute" horiz-adv-x="787" d="M737 343Q737 237 693 155T571 29T392 -16Q290 -16 212 28T92 153T50 339Q50 445 93 527T216 653T395 698Q497 698 575 654T695 529T737 343ZM599 341Q599 414 574 468T503 552T393 582Q332
582 285 553T213 470T187 341Q187 268 212 214T284 130T393 100Q456 100 502 129T574 213T599 341ZM402 883H568L433 741H315L402 883Z" />
<glyph unicode="&#xd4;" glyph-name="Ocircumflex" horiz-adv-x="787" d="M737 343Q737 237 693 155T571 29T392 -16Q290 -16 212 28T92 153T50 339Q50 445 93 527T216 653T395 698Q497 698 575 654T695 529T737 343ZM599 341Q599 414 574 468T503 552T393 582Q332
582 285 553T213 470T187 341Q187 268 212 214T284 130T393 100Q456 100 502 129T574 213T599 341ZM318 885H469L581 743H461L392 813L323 743H206L318 885Z" />
<glyph unicode="&#xd5;" glyph-name="Otilde" horiz-adv-x="787" d="M737 343Q737 237 693 155T571 29T392 -16Q290 -16 212 28T92 153T50 339Q50 445 93 527T216 653T395 698Q497 698 575 654T695 529T737 343ZM599 341Q599 414 574 468T503 552T393 582Q332
582 285 553T213 470T187 341Q187 268 212 214T284 130T393 100Q456 100 502 129T574 213T599 341ZM320 790Q305 790 298 778T290 743H194Q194 788 208 820T252 869T324 886Q350 886 373 879T421 855T453 835T467 832Q482 832 489 844T497 879H593Q593 834 579
802T535 753T463 736Q437 736 414 743T366 768T333 787T320 790Z" />
<glyph unicode="&#xd6;" glyph-name="Odieresis" horiz-adv-x="787" d="M737 343Q737 237 693 155T571 29T392 -16Q290 -16 212 28T92 153T50 339Q50 445 93 527T216 653T395 698Q497 698 575 654T695 529T737 343ZM599 341Q599 414 574 468T503 552T393 582Q332
582 285 553T213 470T187 341Q187 268 212 214T284 130T393 100Q456 100 502 129T574 213T599 341ZM451 746V879H574V746H451ZM213 746V879H336V746H213Z" />
<glyph unicode="&#xd7;" glyph-name="multiply" horiz-adv-x="650" d="M500 68L325 246L150 68L71 147L249 322L71 497L150 576L325 398L500 576L579 497L401 322L579 147L500 68Z" />
<glyph unicode="&#xd8;" glyph-name="Oslash" horiz-adv-x="787" d="M185 341Q185 308 191 276T209 216L510 549Q487 567 457 576T393 585Q329 585 282 555T210 470T185 341ZM602 341Q602 374 596 406T577 466L277 133Q300 115 330 106T393 97Q458 97 505 127T577
213T602 341ZM46 38L116 115Q83 161 67 217T50 339Q50 444 93 526T215 653T395 698Q450 698 499 684T590 641L658 717L741 644L671 566Q703 522 720 465T737 343Q737 238 694 156T571 29T392 -16Q337 -16 288 -2T197 41L129 -35L46 38Z" />
<glyph unicode="&#xd9;" glyph-name="Ugrave" horiz-adv-x="739" d="M212 274Q212 218 231 179T286 120T373 100Q425 100 461 119T515 178T534 274V682H657V267Q657 181 623 117T525 18T371 -16Q279 -16 214 17T116 113T82 262V682H212V274ZM447 741H329L194 883H360L447
741Z" />
<glyph unicode="&#xda;" glyph-name="Uacute" horiz-adv-x="739" d="M212 274Q212 218 231 179T286 120T373 100Q425 100 461 119T515 178T534 274V682H657V267Q657 181 623 117T525 18T371 -16Q279 -16 214 17T116 113T82 262V682H212V274ZM378 883H544L409 741H291L378
883Z" />
<glyph unicode="&#xdb;" glyph-name="Ucircumflex" horiz-adv-x="739" d="M212 274Q212 218 231 179T286 120T373 100Q425 100 461 119T515 178T534 274V682H657V267Q657 181 623 117T525 18T371 -16Q279 -16 214 17T116 113T82 262V682H212V274ZM294 885H445L557
743H437L368 813L299 743H182L294 885Z" />
<glyph unicode="&#xdc;" glyph-name="Udieresis" horiz-adv-x="739" d="M212 274Q212 218 231 179T286 120T373 100Q425 100 461 119T515 178T534 274V682H657V267Q657 181 623 117T525 18T371 -16Q279 -16 214 17T116 113T82 262V682H212V274ZM427 746V879H550V746H427ZM189
746V879H312V746H189Z" />
<glyph unicode="&#xdd;" glyph-name="Yacute" horiz-adv-x="634" d="M252 0V280L0 682H157L321 408L483 682H634L382 280V0H252ZM325 883H491L356 741H238L325 883Z" />
<glyph unicode="&#xde;" glyph-name="Thorn" horiz-adv-x="666" d="M219 245Q263 244 358 244Q412 244 446 256T497 294T514 358Q514 398 498 423T447 461T358 473Q263 473 219 472V245ZM89 0V682H219V581Q226 581 277 581T361 582Q460 582 524 557T619 483T651
360Q651 288 618 238T518 162T354 136Q264 136 219 137V0H89Z" />
<glyph unicode="&#xdf;" glyph-name="germandbls" horiz-adv-x="630" d="M73 487Q73 563 102 614T186 690T322 716Q397 716 449 697T527 642T554 557Q554 528 545 505T518 462T464 424T419 397T404 381T399 362Q399 351 405 343T423 326T480 298T550 256T586 207T598
144Q598 97 575 61T509 6T410 -14Q374 -14 336 -6T266 19L297 113Q323 98 353 89T413 80Q433 80 446 86T466 104T473 133Q473 146 467 156T447 176T388 206T320 247T286 294T275 354Q275 383 284 405T310 445T362 483T407 513T422 532T427 553Q427 574 415 590T378
614T319 623Q276 623 249 609T207 565T193 489V0H73V487Z" />
<glyph unicode="&#xe0;" glyph-name="agrave" horiz-adv-x="538" d="M34 136Q34 178 53 209T111 261T210 293T353 304V325Q353 368 328 390T254 413Q211 413 173 396T103 343L45 415Q89 459 146 482T267 505Q368 505 420 460T473 327V237Q473 186 473 147T476
0H363L361 60H360Q332 23 293 5T205 -14Q126 -14 80 26T34 136ZM353 220Q298 220 262 216T203 202T170 179T160 143Q160 112 180 96T236 79Q269 79 296 95T338 139T353 199V220V220ZM343 554H233L103 700H260L343 554Z" />
<glyph unicode="&#xe1;" glyph-name="aacute" horiz-adv-x="538" d="M34 136Q34 178 53 209T111 261T210 293T353 304V325Q353 368 328 390T254 413Q211 413 173 396T103 343L45 415Q89 459 146 482T267 505Q368 505 420 460T473 327V237Q473 186 473 147T476
0H363L361 60H360Q332 23 293 5T205 -14Q126 -14 80 26T34 136ZM353 220Q298 220 262 216T203 202T170 179T160 143Q160 112 180 96T236 79Q269 79 296 95T338 139T353 199V220V220ZM281 700H437L307 554H197L281 700Z" />
<glyph unicode="&#xe2;" glyph-name="acircumflex" horiz-adv-x="538" d="M34 136Q34 178 53 209T111 261T210 293T353 304V325Q353 368 328 390T254 413Q211 413 173 396T103 343L45 415Q89 459 146 482T267 505Q368 505 420 460T473 327V237Q473 186 473 147T476
0H363L361 60H360Q332 23 293 5T205 -14Q126 -14 80 26T34 136ZM353 220Q298 220 262 216T203 202T170 179T160 143Q160 112 180 96T236 79Q269 79 296 95T338 139T353 199V220V220ZM198 700H343L447 554H335L268 630L202 554H93L198 700Z" />
<glyph unicode="&#xe3;" glyph-name="atilde" horiz-adv-x="538" d="M34 136Q34 178 53 209T111 261T210 293T353 304V325Q353 368 328 390T254 413Q211 413 173 396T103 343L45 415Q89 459 146 482T267 505Q368 505 420 460T473 327V237Q473 186 473 147T476
0H363L361 60H360Q332 23 293 5T205 -14Q126 -14 80 26T34 136ZM353 220Q298 220 262 216T203 202T170 179T160 143Q160 112 180 96T236 79Q269 79 296 95T338 139T353 199V220V220ZM201 608Q186 608 179 597T172 561H83Q83 606 96 637T137 685T206 701Q229 701
250 694T294 671T324 652T338 649Q352 649 359 660T366 696H455Q455 650 442 619T401 572T333 556Q310 556 289 563T245 586T215 605T201 608Z" />
<glyph unicode="&#xe4;" glyph-name="adieresis" horiz-adv-x="538" d="M34 136Q34 178 53 209T111 261T210 293T353 304V325Q353 368 328 390T254 413Q211 413 173 396T103 343L45 415Q89 459 146 482T267 505Q368 505 420 460T473 327V237Q473 186 473 147T476
0H363L361 60H360Q332 23 293 5T205 -14Q126 -14 80 26T34 136ZM353 220Q298 220 262 216T203 202T170 179T160 143Q160 112 180 96T236 79Q269 79 296 95T338 139T353 199V220V220ZM314 561V694H429V561H314ZM110 561V694H225V561H110Z" />
<glyph unicode="&#xe5;" glyph-name="aring" horiz-adv-x="538" d="M34 136Q34 178 53 209T111 261T210 293T353 304V325Q353 368 328 390T254 413Q211 413 173 396T103 343L45 415Q89 459 146 482T267 505Q368 505 420 460T473 327V237Q473 186 473 147T476 0H363L361
60H360Q332 23 293 5T205 -14Q126 -14 80 26T34 136ZM353 220Q298 220 262 216T203 202T170 179T160 143Q160 112 180 96T236 79Q269 79 296 95T338 139T353 199V220V220ZM308 655Q308 673 298 685T270 697Q251 697 242 685T232 655Q232 637 241 625T270 613Q288
613 298 625T308 655ZM400 656Q400 610 366 580T269 549Q206 549 173 578T139 654Q139 700 174 730T271 761Q334 761 367 732T400 656Z" />
<glyph unicode="&#xe6;" glyph-name="ae" horiz-adv-x="870" d="M236 79Q268 79 295 94T337 138T353 199V220Q298 220 262 216T203 202T170 179T160 143Q160 112 180 96T236 79ZM704 294Q703 330 689 357T650 399T593 413Q561 413 537 400T497 359T476 294H704ZM209
-14Q128 -14 81 26T34 136Q34 178 53 209T111 261T210 293T353 304V325Q352 369 327 391T254 413Q211 413 173 396T103 343L45 415Q89 459 146 482T267 505Q327 505 367 489T430 439Q458 470 501 487T596 505Q668 505 721 476T802 392T831 264Q831 232 827 211H475Q480
148 515 114T613 80Q660 80 699 96T770 145L822 69Q777 27 723 7T604 -14Q531 -14 482 12T401 92Q373 39 324 13T209 -14Z" />
<glyph unicode="&#xe7;" glyph-name="ccedilla" horiz-adv-x="533" d="M510 135Q474 58 419 22T283 -14Q208 -14 153 17T69 107T40 244Q40 322 69 381T155 472T284 505Q366 505 421 470T503 363L394 319Q380 361 352 383T284 405Q249 405 222 387T181 332T167
246Q167 198 181 162T223 106T287 86Q327 86 355 107T401 172L510 135ZM181 -192Q206 -169 217 -152T229 -121Q229 -110 221 -101T187 -76L234 5H331L304 -41Q327 -58 337 -75T348 -113Q348 -132 334 -153T298 -192H181Z" />
<glyph unicode="&#xe8;" glyph-name="egrave" horiz-adv-x="563" d="M398 294Q397 329 383 356T345 398T287 413Q255 413 230 400T190 359T170 294H398ZM298 -14Q217 -14 159 16T71 104T40 244Q40 322 70 381T157 472T289 505Q363 505 416 476T497 391T525 264Q525
232 520 211H168Q172 168 189 139T237 95T307 80Q354 80 393 96T464 145L516 69Q471 27 416 7T298 -14ZM354 554H244L114 700H271L354 554Z" />
<glyph unicode="&#xe9;" glyph-name="eacute" horiz-adv-x="563" d="M398 294Q397 329 383 356T345 398T287 413Q255 413 230 400T190 359T170 294H398ZM298 -14Q217 -14 159 16T71 104T40 244Q40 322 70 381T157 472T289 505Q363 505 416 476T497 391T525 264Q525
232 520 211H168Q172 168 189 139T237 95T307 80Q354 80 393 96T464 145L516 69Q471 27 416 7T298 -14ZM292 700H448L318 554H208L292 700Z" />
<glyph unicode="&#xea;" glyph-name="ecircumflex" horiz-adv-x="563" d="M398 294Q397 329 383 356T345 398T287 413Q255 413 230 400T190 359T170 294H398ZM298 -14Q217 -14 159 16T71 104T40 244Q40 322 70 381T157 472T289 505Q363 505 416 476T497 391T525
264Q525 232 520 211H168Q172 168 189 139T237 95T307 80Q354 80 393 96T464 145L516 69Q471 27 416 7T298 -14ZM209 700H354L458 554H346L279 630L213 554H104L209 700Z" />
<glyph unicode="&#xeb;" glyph-name="edieresis" horiz-adv-x="563" d="M398 294Q397 329 383 356T345 398T287 413Q255 413 230 400T190 359T170 294H398ZM298 -14Q217 -14 159 16T71 104T40 244Q40 322 70 381T157 472T289 505Q363 505 416 476T497 391T525
264Q525 232 520 211H168Q172 168 189 139T237 95T307 80Q354 80 393 96T464 145L516 69Q471 27 416 7T298 -14ZM326 561V694H441V561H326ZM122 561V694H237V561H122Z" />
<glyph unicode="&#xec;" glyph-name="igrave" horiz-adv-x="267" d="M73 0V490H193V0H73ZM462 552H352L222 698H379L462 552Z" />
<glyph unicode="&#xed;" glyph-name="iacute" horiz-adv-x="267" d="M73 0V490H193V0H73ZM400 698H556L426 552H316L400 698Z" />
<glyph unicode="&#xee;" glyph-name="icircumflex" horiz-adv-x="267" d="M73 0V490H193V0H73ZM317 698H462L566 552H454L387 628L321 552H212L317 698Z" />
<glyph unicode="&#xef;" glyph-name="idieresis" horiz-adv-x="267" d="M73 0V490H193V0H73ZM421 559V692H530V559H421ZM249 559V692H358V559H249Z" />
<glyph unicode="&#xf0;" glyph-name="eth" horiz-adv-x="587" d="M162 520L133 592L229 628Q185 662 140 686L267 727Q309 702 346 672L470 719L498 648L409 614Q445 576 476 526T526 413T545 281Q545 189 515 123T428 21T290 -14Q214 -14 157 16T70 104T40 241Q40
316 69 374T151 463T270 495Q306 495 335 483T384 449L386 450Q355 511 295 571L162 520ZM416 240Q416 287 401 322T358 376T291 395Q253 395 225 376T182 322T167 240Q167 193 183 158T227 105T292 86Q330 86 358 105T401 159T416 240Z" />
<glyph unicode="&#xf1;" glyph-name="ntilde" horiz-adv-x="590" d="M405 0V260Q405 308 402 327T392 362Q381 384 360 395T309 407Q286 407 266 399T234 379Q212 357 203 325T193 241V0H73V240Q73 282 73 317T73 381T72 437T70 490H183L185 425H186Q210 463 251
484T343 505Q432 505 478 454T525 304V0H405ZM227 608Q212 608 205 597T198 561H109Q109 606 122 637T163 685T232 701Q255 701 276 694T320 671T350 652T364 649Q378 649 385 660T392 696H481Q481 650 468 619T427 572T359 556Q336 556 315 563T271 586T241 605T227
608Z" />
<glyph unicode="&#xf2;" glyph-name="ograve" horiz-adv-x="584" d="M544 246Q544 169 513 110T425 18T290 -14Q213 -14 156 17T70 106T40 244Q40 322 71 381T159 472T294 505Q371 505 428 474T514 384T544 246ZM417 245Q417 293 402 329T359 384T292 404Q253
404 225 384T182 328T167 245Q167 198 182 162T225 106T292 86Q331 86 359 106T402 162T417 245ZM364 554H254L124 700H281L364 554Z" />
<glyph unicode="&#xf3;" glyph-name="oacute" horiz-adv-x="584" d="M544 246Q544 169 513 110T425 18T290 -14Q213 -14 156 17T70 106T40 244Q40 322 71 381T159 472T294 505Q371 505 428 474T514 384T544 246ZM417 245Q417 293 402 329T359 384T292 404Q253
404 225 384T182 328T167 245Q167 198 182 162T225 106T292 86Q331 86 359 106T402 162T417 245ZM303 700H459L329 554H219L303 700Z" />
<glyph unicode="&#xf4;" glyph-name="ocircumflex" horiz-adv-x="584" d="M544 246Q544 169 513 110T425 18T290 -14Q213 -14 156 17T70 106T40 244Q40 322 71 381T159 472T294 505Q371 505 428 474T514 384T544 246ZM417 245Q417 293 402 329T359 384T292 404Q253
404 225 384T182 328T167 245Q167 198 182 162T225 106T292 86Q331 86 359 106T402 162T417 245ZM220 700H365L469 554H357L290 630L224 554H115L220 700Z" />
<glyph unicode="&#xf5;" glyph-name="otilde" horiz-adv-x="584" d="M544 246Q544 169 513 110T425 18T290 -14Q213 -14 156 17T70 106T40 244Q40 322 71 381T159 472T294 505Q371 505 428 474T514 384T544 246ZM417 245Q417 293 402 329T359 384T292 404Q253
404 225 384T182 328T167 245Q167 198 182 162T225 106T292 86Q331 86 359 106T402 162T417 245ZM224 608Q209 608 202 597T195 561H106Q106 606 119 637T160 685T229 701Q252 701 273 694T317 671T347 652T361 649Q375 649 382 660T389 696H478Q478 650 465 619T424
572T356 556Q333 556 312 563T268 586T238 605T224 608Z" />
<glyph unicode="&#xf6;" glyph-name="odieresis" horiz-adv-x="584" d="M544 246Q544 169 513 110T425 18T290 -14Q213 -14 156 17T70 106T40 244Q40 322 71 381T159 472T294 505Q371 505 428 474T514 384T544 246ZM417 245Q417 293 402 329T359 384T292 404Q253
404 225 384T182 328T167 245Q167 198 182 162T225 106T292 86Q331 86 359 106T402 162T417 245ZM336 561V694H451V561H336ZM132 561V694H247V561H132Z" />
<glyph unicode="&#xf7;" glyph-name="divide" horiz-adv-x="650" d="M261 455V600H389V455H261ZM597 271H53V373H597V271ZM261 44V189H389V44H261Z" />
<glyph unicode="&#xf8;" glyph-name="oslash" horiz-adv-x="584" d="M422 245Q422 269 420 285T413 316L223 104Q235 93 253 88T292 82Q332 82 361 102T406 159T422 245ZM162 245Q162 221 164 205T171 174L361 386Q348 397 330 402T292 408Q252 408 223 388T178
331T162 245ZM28 19L84 82Q62 113 51 154T40 244Q40 322 71 381T159 472T294 505Q334 505 368 496T432 469L489 533L556 471L499 409Q521 376 532 335T544 246Q544 169 513 110T425 18T290 -14Q250 -14 215 -5T151 21L95 -42L28 19Z" />
<glyph unicode="&#xf9;" glyph-name="ugrave" horiz-adv-x="585" d="M402 0L400 65H399Q375 27 335 7T245 -14Q186 -14 146 9T85 77T65 186V490H185V230Q185 183 188 164T198 128Q209 107 229 95T278 83Q300 83 320 91T352 111Q373 132 382 164T392 249V490H512V242Q512
181 512 133T515 0H402ZM365 552H255L125 698H282L365 552Z" />
<glyph unicode="&#xfa;" glyph-name="uacute" horiz-adv-x="585" d="M402 0L400 65H399Q375 27 335 7T245 -14Q186 -14 146 9T85 77T65 186V490H185V230Q185 183 188 164T198 128Q209 107 229 95T278 83Q300 83 320 91T352 111Q373 132 382 164T392 249V490H512V242Q512
181 512 133T515 0H402ZM304 698H460L330 552H220L304 698Z" />
<glyph unicode="&#xfb;" glyph-name="ucircumflex" horiz-adv-x="585" d="M402 0L400 65H399Q375 27 335 7T245 -14Q186 -14 146 9T85 77T65 186V490H185V230Q185 183 188 164T198 128Q209 107 229 95T278 83Q300 83 320 91T352 111Q373 132 382 164T392 249V490H512V242Q512
181 512 133T515 0H402ZM221 698H366L470 552H358L291 628L225 552H116L221 698Z" />
<glyph unicode="&#xfc;" glyph-name="udieresis" horiz-adv-x="585" d="M402 0L400 65H399Q375 27 335 7T245 -14Q186 -14 146 9T85 77T65 186V490H185V230Q185 183 188 164T198 128Q209 107 229 95T278 83Q300 83 320 91T352 111Q373 132 382 164T392 249V490H512V242Q512
181 512 133T515 0H402ZM337 559V692H452V559H337ZM133 559V692H248V559H133Z" />
<glyph unicode="&#xfd;" glyph-name="yacute" horiz-adv-x="515" d="M121 -192L209 0H188L4 490H140L208 292Q222 249 236 203T260 117H263Q270 147 284 194T314 292L378 490H511L255 -192H121ZM269 698H425L295 552H185L269 698Z" />
<glyph unicode="&#xfe;" glyph-name="thorn" horiz-adv-x="603" d="M73 706H193V524Q193 470 187 429H189Q213 465 253 485T345 505Q412 505 461 473T537 381T563 247Q563 170 535 111T455 19T334 -14Q288 -14 251 3T191 51H190Q193 14 193 -34V-192H73V706ZM191
236Q191 191 206 156T249 102T314 83Q352 83 379 102T421 159T435 246Q435 293 420 330T377 387T310 407Q275 407 248 389T206 336T191 253V236Z" />
<glyph unicode="&#xff;" glyph-name="ydieresis" horiz-adv-x="515" d="M121 -192L209 0H188L4 490H140L208 292Q222 249 236 203T260 117H263Q270 147 284 194T314 292L378 490H511L255 -192H121ZM302 559V692H417V559H302ZM98 559V692H213V559H98Z" />
<glyph unicode="&#x100;" glyph-name="Amacron" horiz-adv-x="682" d="M335 570Q327 536 273 373L235 252H437L399 372Q344 535 336 570H335ZM419 682L669 0H519L469 153H204L155 0H13L263 682H419ZM508 759H172V860H508V759Z" />
<glyph unicode="&#x101;" glyph-name="amacron" horiz-adv-x="538" d="M34 136Q34 178 53 209T111 261T210 293T353 304V325Q353 368 328 390T254 413Q211 413 173 396T103 343L45 415Q89 459 146 482T267 505Q368 505 420 460T473 327V237Q473 186 473 147T476
0H363L361 60H360Q332 23 293 5T205 -14Q126 -14 80 26T34 136ZM353 220Q298 220 262 216T203 202T170 179T160 143Q160 112 180 96T236 79Q269 79 296 95T338 139T353 199V220V220ZM426 574H114V671H426V574Z" />
<glyph unicode="&#x102;" glyph-name="Abreve" horiz-adv-x="682" d="M335 570Q327 536 273 373L235 252H437L399 372Q344 535 336 570H335ZM419 682L669 0H519L469 153H204L155 0H13L263 682H419ZM511 897Q511 844 491 808T433 755T339 737Q283 737 246 754T189
808T170 897H269Q269 874 276 860T300 838T340 830Q365 830 381 838T404 860T411 897H511Z" />
<glyph unicode="&#x103;" glyph-name="abreve" horiz-adv-x="538" d="M34 136Q34 178 53 209T111 261T210 293T353 304V325Q353 368 328 390T254 413Q211 413 173 396T103 343L45 415Q89 459 146 482T267 505Q368 505 420 460T473 327V237Q473 186 473 147T476
0H363L361 60H360Q332 23 293 5T205 -14Q126 -14 80 26T34 136ZM353 220Q298 220 262 216T203 202T170 179T160 143Q160 112 180 96T236 79Q269 79 296 95T338 139T353 199V220V220ZM429 708Q429 657 412 623T359 572T269 554Q216 554 181 571T129 623T111 708H204Q204
686 211 672T233 650T270 642Q294 642 309 650T330 672T337 708H429Z" />
<glyph unicode="&#x104;" glyph-name="Aogonek" horiz-adv-x="682" d="M235 252H437L399 372Q344 535 336 570H335Q327 536 273 373L235 252ZM668 -193Q654 -198 633 -200T589 -203Q546 -203 519 -194T480 -168T467 -124Q467 -95 485 -64T540 0H519L469 153H204L155
0H13L263 682H419L669 0Q632 -27 613 -53T593 -100Q593 -113 600 -119T627 -125H668V-193Z" />
<glyph unicode="&#x105;" glyph-name="aogonek" horiz-adv-x="538" d="M361 60H360Q332 23 293 5T205 -14Q126 -14 80 26T34 136Q34 178 53 209T111 261T210 293T353 304V325Q353 368 328 390T254 413Q211 413 173 396T103 343L45 415Q89 459 146 482T267 505Q368
505 420 460T473 327V237Q473 146 473 94T475 0Q439 -40 426 -62T412 -105Q412 -117 420 -122T445 -128H486V-194Q472 -199 454 -201T417 -203Q373 -203 346 -195T307 -169T294 -124Q294 -95 310 -66T363 2L361 60ZM353 220Q298 220 262 216T203 202T170 179T160
143Q160 112 180 96T236 79Q268 79 295 94T337 138T353 199V220V220Z" />
<glyph unicode="&#x106;" glyph-name="Cacute" horiz-adv-x="704" d="M674 198Q642 94 565 39T377 -16Q281 -16 207 27T91 152T50 340Q50 447 91 527T210 653T377 698Q482 698 557 646T666 496L543 461Q523 520 479 551T375 582Q320 582 278 553T211 469T187 342Q187
269 211 214T279 130T379 101Q444 101 489 134T553 229L674 198ZM389 883H555L420 741H302L389 883Z" />
<glyph unicode="&#x107;" glyph-name="cacute" horiz-adv-x="533" d="M510 135Q474 58 419 22T283 -14Q208 -14 153 17T69 107T40 244Q40 322 69 381T155 472T284 505Q366 505 421 470T503 363L394 319Q380 361 352 383T284 405Q249 405 222 387T181 332T167 246Q167
198 181 162T223 106T287 86Q327 86 355 107T401 172L510 135ZM296 700H452L322 554H212L296 700Z" />
<glyph unicode="&#x108;" glyph-name="Ccircumflex" horiz-adv-x="704" d="M674 198Q642 94 565 39T377 -16Q281 -16 207 27T91 152T50 340Q50 447 91 527T210 653T377 698Q482 698 557 646T666 496L543 461Q523 520 479 551T375 582Q320 582 278 553T211 469T187
342Q187 269 211 214T279 130T379 101Q444 101 489 134T553 229L674 198ZM306 885H457L569 743H449L380 813L311 743H194L306 885Z" />
<glyph unicode="&#x109;" glyph-name="ccircumflex" horiz-adv-x="533" d="M510 135Q474 58 419 22T283 -14Q208 -14 153 17T69 107T40 244Q40 322 69 381T155 472T284 505Q366 505 421 470T503 363L394 319Q380 361 352 383T284 405Q249 405 222 387T181 332T167
246Q167 198 181 162T223 106T287 86Q327 86 355 107T401 172L510 135ZM212 700H357L461 554H349L282 630L216 554H107L212 700Z" />
<glyph unicode="&#x10a;" glyph-name="Cdotaccent" horiz-adv-x="704" d="M674 198Q642 94 565 39T377 -16Q281 -16 207 27T91 152T50 340Q50 447 91 527T210 653T377 698Q482 698 557 646T666 496L543 461Q523 520 479 551T375 582Q320 582 278 553T211 469T187
342Q187 269 211 214T279 130T379 101Q444 101 489 134T553 229L674 198ZM316 746V879H446V746H316Z" />
<glyph unicode="&#x10b;" glyph-name="cdotaccent" horiz-adv-x="533" d="M510 135Q474 58 419 22T283 -14Q208 -14 153 17T69 107T40 244Q40 322 69 381T155 472T284 505Q366 505 421 470T503 363L394 319Q380 361 352 383T284 405Q249 405 222 387T181 332T167
246Q167 198 181 162T223 106T287 86Q327 86 355 107T401 172L510 135ZM221 561V694H343V561H221Z" />
<glyph unicode="&#x10c;" glyph-name="Ccaron" horiz-adv-x="704" d="M674 198Q642 94 565 39T377 -16Q281 -16 207 27T91 152T50 340Q50 447 91 527T210 653T377 698Q482 698 557 646T666 496L543 461Q523 520 479 551T375 582Q320 582 278 553T211 469T187 342Q187
269 211 214T279 130T379 101Q444 101 489 134T553 229L674 198ZM457 743H306L194 885H313L383 815L452 885H569L457 743Z" />
<glyph unicode="&#x10d;" glyph-name="ccaron" horiz-adv-x="533" d="M510 135Q474 58 419 22T283 -14Q208 -14 153 17T69 107T40 244Q40 322 69 381T155 472T284 505Q366 505 421 470T503 363L394 319Q380 361 352 383T284 405Q249 405 222 387T181 332T167 246Q167
198 181 162T223 106T287 86Q327 86 355 107T401 172L510 135ZM355 554H210L106 700H218L285 623L351 700H460L355 554Z" />
<glyph unicode="&#x10e;" glyph-name="Dcaron" horiz-adv-x="742" d="M89 682Q191 683 319 683Q422 683 487 662T601 592Q646 547 669 485T692 344Q692 265 668 199T600 89Q553 43 487 21T324 -1Q206 0 89 0V682ZM218 111Q276 108 323 108Q396 108 431 119T493
158Q524 189 539 235T555 341Q555 398 538 445T491 522Q462 551 425 563T315 575Q247 575 218 574V111ZM426 743H275L163 885H282L352 815L421 885H538L426 743Z" />
<glyph unicode="&#x10f;" glyph-name="dcaron" horiz-adv-x="658" d="M419 0L417 65H416Q393 27 352 7T258 -14Q191 -14 142 18T66 109T40 243Q40 320 68 379T148 472T268 505Q315 505 351 488T411 439H412Q409 477 409 524V706H529V244Q529 171 529 124T532 0H419ZM412
254Q412 300 397 335T353 388T289 407Q251 407 224 388T182 331T167 245Q167 197 182 160T225 103T292 83Q329 83 356 102T398 156T412 237V254ZM601 758H724L669 567H572L601 758Z" />
<glyph unicode="&#x110;" glyph-name="Dcroat" horiz-adv-x="754" d="M101 298H6V398H101V682Q203 683 331 683Q434 683 499 662T613 592Q658 547 681 485T704 344Q704 265 680 199T612 89Q565 43 499 21T336 -1Q218 0 101 0V298ZM230 110Q288 107 335 107Q405
107 441 118T505 157Q536 188 551 234T567 341Q567 398 550 445T503 523Q474 552 436 564T327 576Q259 576 230 575V398H413V298H230V110Z" />
<glyph unicode="&#x111;" glyph-name="" horiz-adv-x="603" d="M412 254Q412 299 397 334T354 388T289 407Q251 407 224 388T182 331T167 245Q167 197 182 160T225 103T292 83Q329 83 356 102T398 156T412 237V254ZM419 0L417 65H416Q393 27 352 7T258 -14Q191
-14 142 18T66 109T40 243Q40 320 68 379T148 472T268 505Q315 505 351 488T411 439H412Q409 477 409 524V554H293V648H409V716H529V648H607V554H529V244Q529 171 529 124T532 0H419Z" />
<glyph unicode="&#x112;" glyph-name="Emacron" horiz-adv-x="651" d="M89 682H581V579H219V398H534V298H219V104H598V0H89V682ZM508 759H172V860H508V759Z" />
<glyph unicode="&#x113;" glyph-name="emacron" horiz-adv-x="563" d="M398 294Q397 329 383 356T345 398T287 413Q255 413 230 400T190 359T170 294H398ZM298 -14Q217 -14 159 16T71 104T40 244Q40 322 70 381T157 472T289 505Q363 505 416 476T497 391T525 264Q525
232 520 211H168Q172 168 189 139T237 95T307 80Q354 80 393 96T464 145L516 69Q471 27 416 7T298 -14ZM437 574H125V671H437V574Z" />
<glyph unicode="&#x114;" glyph-name="Ebreve" horiz-adv-x="651" d="M89 682H581V579H219V398H534V298H219V104H598V0H89V682ZM512 897Q512 844 492 808T434 755T340 737Q284 737 247 754T190 808T171 897H270Q270 874 277 860T301 838T341 830Q366 830 382 838T405
860T412 897H512Z" />
<glyph unicode="&#x115;" glyph-name="ebreve" horiz-adv-x="563" d="M398 294Q397 329 383 356T345 398T287 413Q255 413 230 400T190 359T170 294H398ZM298 -14Q217 -14 159 16T71 104T40 244Q40 322 70 381T157 472T289 505Q363 505 416 476T497 391T525 264Q525
232 520 211H168Q172 168 189 139T237 95T307 80Q354 80 393 96T464 145L516 69Q471 27 416 7T298 -14ZM440 708Q440 657 423 623T370 572T280 554Q227 554 192 571T140 623T122 708H215Q215 686 222 672T244 650T281 642Q305 642 320 650T341 672T348 708H440Z"
/>
<glyph unicode="&#x116;" glyph-name="Edotaccent" horiz-adv-x="651" d="M89 682H581V579H219V398H534V298H219V104H598V0H89V682ZM275 746V879H405V746H275Z" />
<glyph unicode="&#x117;" glyph-name="edotaccent" horiz-adv-x="563" d="M398 294Q397 329 383 356T345 398T287 413Q255 413 230 400T190 359T170 294H398ZM298 -14Q217 -14 159 16T71 104T40 244Q40 322 70 381T157 472T289 505Q363 505 416 476T497 391T525
264Q525 232 520 211H168Q172 168 189 139T237 95T307 80Q354 80 393 96T464 145L516 69Q471 27 416 7T298 -14ZM220 561V694H342V561H220Z" />
<glyph unicode="&#x118;" glyph-name="Eogonek" horiz-adv-x="651" d="M598 -193Q584 -198 563 -200T519 -203Q479 -203 452 -195T412 -170T398 -124Q398 -95 418 -62T477 1L89 0V682H581V579H219V398H534V298H219V104H598V2Q561 -29 542 -55T523 -100Q523 -113
531 -119T557 -125H598V-193Z" />
<glyph unicode="&#x119;" glyph-name="eogonek" horiz-adv-x="563" d="M287 413Q256 413 231 400T191 360T170 294H398Q397 328 383 355T345 398T287 413ZM487 -194Q473 -198 455 -200T418 -203Q374 -203 347 -195T308 -169T295 -124Q295 -96 310 -65T356 -5Q330
-14 298 -14Q218 -14 160 16T71 104T40 244Q40 324 71 383T158 473T289 505Q363 505 416 476T497 391T525 264Q525 232 520 211H168Q172 168 190 139T237 95T307 80Q352 80 391 95T468 141L514 62Q469 10 450 -18T422 -67T413 -104Q413 -117 420 -122T446 -128H487V-194Z"
/>
<glyph unicode="&#x11a;" glyph-name="Ecaron" horiz-adv-x="651" d="M89 682H581V579H219V398H534V298H219V104H598V0H89V682ZM417 743H266L154 885H273L343 815L412 885H529L417 743Z" />
<glyph unicode="&#x11b;" glyph-name="ecaron" horiz-adv-x="563" d="M398 294Q397 329 383 356T345 398T287 413Q255 413 230 400T190 359T170 294H398ZM298 -14Q217 -14 159 16T71 104T40 244Q40 322 70 381T157 472T289 505Q363 505 416 476T497 391T525 264Q525
232 520 211H168Q172 168 189 139T237 95T307 80Q354 80 393 96T464 145L516 69Q471 27 416 7T298 -14ZM353 554H208L104 700H216L283 623L349 700H458L353 554Z" />
<glyph unicode="&#x11c;" glyph-name="Gcircumflex" horiz-adv-x="767" d="M577 0V81H576Q544 33 493 9T372 -16Q279 -16 205 28T91 153T50 339Q50 443 93 525T214 652T391 698Q488 698 560 664T680 560L579 477Q548 530 500 557T387 584Q327 584 282 554T212
468T187 342Q187 267 212 212T283 128T389 98Q440 98 479 119T538 179T559 263V276H397V376H688V0H577ZM316 885H467L579 743H459L390 813L321 743H204L316 885Z" />
<glyph unicode="&#x11d;" glyph-name="gcircumflex" horiz-adv-x="603" d="M412 254Q412 299 397 334T354 388T289 407Q251 407 224 388T182 332T168 248Q168 202 183 166T226 109T293 89Q329 89 356 108T398 163T412 243V254ZM538 490Q534 449 532 388T530 245V2Q530
-100 470 -152T294 -204Q227 -204 171 -186T70 -131L115 -42Q153 -75 200 -92T296 -109Q353 -109 381 -84T410 -9Q410 3 411 25T413 63H411Q388 30 348 12T258 -7Q190 -7 141 24T66 112T40 246Q40 322 68 381T149 472T269 505Q319 505 357 486T419 430H420L425
490H538ZM219 700H364L468 554H356L289 630L223 554H114L219 700Z" />
<glyph unicode="&#x11e;" glyph-name="Gbreve" horiz-adv-x="767" d="M577 0V81H576Q544 33 493 9T372 -16Q279 -16 205 28T91 153T50 339Q50 443 93 525T214 652T391 698Q488 698 560 664T680 560L579 477Q548 530 500 557T387 584Q327 584 282 554T212 468T187
342Q187 267 212 212T283 128T389 98Q440 98 479 119T538 179T559 263V276H397V376H688V0H577ZM562 897Q562 844 542 808T484 755T390 737Q334 737 297 754T240 808T221 897H320Q320 874 327 860T351 838T391 830Q416 830 432 838T455 860T462 897H562Z" />
<glyph unicode="&#x11f;" glyph-name="gbreve" horiz-adv-x="603" d="M412 254Q412 299 397 334T354 388T289 407Q251 407 224 388T182 332T168 248Q168 202 183 166T226 109T293 89Q329 89 356 108T398 163T412 243V254ZM538 490Q534 449 532 388T530 245V2Q530
-100 470 -152T294 -204Q227 -204 171 -186T70 -131L115 -42Q153 -75 200 -92T296 -109Q353 -109 381 -84T410 -9Q410 3 411 25T413 63H411Q388 30 348 12T258 -7Q190 -7 141 24T66 112T40 246Q40 322 68 381T149 472T269 505Q319 505 357 486T419 430H420L425
490H538ZM450 708Q450 657 433 623T380 572T290 554Q237 554 202 571T150 623T132 708H225Q225 686 232 672T254 650T291 642Q315 642 330 650T351 672T358 708H450Z" />
<glyph unicode="&#x120;" glyph-name="Gdotaccent" horiz-adv-x="767" d="M577 0V81H576Q544 33 493 9T372 -16Q279 -16 205 28T91 153T50 339Q50 443 93 525T214 652T391 698Q488 698 560 664T680 560L579 477Q548 530 500 557T387 584Q327 584 282 554T212 468T187
342Q187 267 212 212T283 128T389 98Q440 98 479 119T538 179T559 263V276H397V376H688V0H577ZM326 746V879H456V746H326Z" />
<glyph unicode="&#x121;" glyph-name="gdotaccent" horiz-adv-x="603" d="M412 254Q412 299 397 334T354 388T289 407Q251 407 224 388T182 332T168 248Q168 202 183 166T226 109T293 89Q329 89 356 108T398 163T412 243V254ZM538 490Q534 449 532 388T530 245V2Q530
-100 470 -152T294 -204Q227 -204 171 -186T70 -131L115 -42Q153 -75 200 -92T296 -109Q353 -109 381 -84T410 -9Q410 3 411 25T413 63H411Q388 30 348 12T258 -7Q190 -7 141 24T66 112T40 246Q40 322 68 381T149 472T269 505Q319 505 357 486T419 430H420L425
490H538ZM230 561V694H352V561H230Z" />
<glyph unicode="&#x122;" glyph-name="Gcommaaccent" horiz-adv-x="767" d="M577 0V81H576Q544 33 493 9T372 -16Q279 -16 205 28T91 153T50 339Q50 443 93 525T214 652T391 698Q488 698 560 664T680 560L579 477Q548 530 500 557T387 584Q327 584 282 554T212
468T187 342Q187 267 212 212T283 128T389 98Q440 98 479 119T538 179T559 263V276H397V376H688V0H577ZM453 -47V-115Q453 -159 422 -180T326 -201H301V-154H318Q337 -154 344 -147T352 -124H326V-47H453Z" />
<glyph unicode="&#x123;" glyph-name="gcommaaccent" horiz-adv-x="603" d="M412 254Q412 299 397 334T354 388T289 407Q251 407 224 388T182 332T168 248Q168 202 183 166T226 109T293 89Q329 89 356 108T398 163T412 243V254ZM538 490Q534 449 532 388T530 245V2Q530
-100 470 -152T294 -204Q227 -204 171 -186T70 -131L115 -42Q153 -75 200 -92T296 -109Q353 -109 381 -84T410 -9Q410 3 411 25T413 63H411Q388 30 348 12T258 -7Q190 -7 141 24T66 112T40 246Q40 322 68 381T149 472T269 505Q319 505 357 486T419 430H420L425
490H538ZM222 561V634Q222 674 250 697T343 721H367V672H349Q328 672 322 664T315 641H342V561H222Z" />
<glyph unicode="&#x124;" glyph-name="Hcircumflex" horiz-adv-x="763" d="M89 682H219V410H544V682H674V0H544V298H219V0H89V682ZM306 885H457L569 743H449L380 813L311 743H194L306 885Z" />
<glyph unicode="&#x125;" glyph-name="hcircumflex" horiz-adv-x="590" d="M73 706H193V524Q193 471 188 429H189Q213 465 253 485T343 505Q401 505 442 483T504 416T525 304V0H405V260Q405 308 402 327T392 362Q381 384 360 395T309 407Q286 407 266 399T234
379Q212 357 203 325T193 241V0H73V706ZM216 914H361L465 768H353L286 844L220 768H111L216 914Z" />
<glyph unicode="&#x126;" glyph-name="Hbar" horiz-adv-x="783" d="M554 383V487H229V383H554ZM99 487H6V588H99V682H229V588H554V682H684V588H777V487H684V0H554V278H229V0H99V487Z" />
<glyph unicode="&#x127;" glyph-name="hbar" horiz-adv-x="590" d="M73 554H-4V648H73V716H193V648H310V554H193V524Q193 471 188 429H189Q213 465 253 485T343 505Q402 505 442 483T504 415T525 304V0H405V260Q405 307 402 327T392 362Q381 384 360 395T309 407Q286
407 266 399T234 379Q212 357 203 325T193 241V0H73V554Z" />
<glyph unicode="&#x128;" glyph-name="Itilde" horiz-adv-x="308" d="M89 682H219V0H89V682ZM336 790Q321 790 314 778T306 743H210Q210 788 224 820T268 869T340 886Q366 886 389 879T437 855T469 835T483 832Q498 832 505 844T513 879H609Q609 834 595 802T551
753T479 736Q453 736 430 743T382 768T349 787T336 790Z" />
<glyph unicode="&#x129;" glyph-name="itilde" horiz-adv-x="267" d="M73 0V490H193V0H73ZM332 608Q321 608 316 596T310 559H228Q228 608 240 639T275 686T334 701Q356 701 374 694T411 669T436 648T447 645Q458 645 464 657T470 694H551Q551 645 539 614T504
567T445 552Q423 552 405 559T368 584T344 604T332 608Z" />
<glyph unicode="&#x12a;" glyph-name="Imacron" horiz-adv-x="308" d="M89 682H219V0H89V682ZM578 759H242V860H578V759Z" />
<glyph unicode="&#x12b;" glyph-name="imacron" horiz-adv-x="267" d="M73 0V490H193V0H73ZM545 572H233V669H545V572Z" />
<glyph unicode="&#x12c;" glyph-name="Ibreve" horiz-adv-x="308" d="M89 682H219V0H89V682ZM580 897Q580 844 560 808T502 755T408 737Q352 737 315 754T258 808T239 897H338Q338 874 345 860T369 838T409 830Q434 830 450 838T473 860T480 897H580Z" />
<glyph unicode="&#x12d;" glyph-name="ibreve" horiz-adv-x="267" d="M73 0V490H193V0H73ZM548 706Q548 655 531 621T478 570T388 552Q335 552 300 569T248 621T230 706H323Q323 684 330 670T352 648T389 640Q413 640 428 648T449 670T456 706H548Z" />
<glyph unicode="&#x12e;" glyph-name="Iogonek" horiz-adv-x="308" d="M239 -193Q225 -198 205 -200T165 -203Q119 -203 91 -194T51 -168T38 -124Q38 -98 54 -68T105 0H89V682H219V2Q188 -41 176 -63T164 -102Q164 -114 171 -119T196 -125H239V-193Z" />
<glyph unicode="&#x12f;" glyph-name="iogonek" horiz-adv-x="267" d="M214 -194Q200 -198 181 -200T144 -203Q100 -203 73 -195T34 -169T21 -124Q21 -98 37 -69T86 0H73V490H193V3Q164 -40 152 -63T139 -105Q139 -117 147 -122T173 -128H214V-194ZM72 557V694H194V557H72Z"
/>
<glyph unicode="&#x130;" glyph-name="Idot" horiz-adv-x="308" d="M89 682H219V0H89V682ZM89 746V879H219V746H89Z" />
<glyph unicode="&#x131;" glyph-name="dotlessi" horiz-adv-x="267" d="M73 0V490H193V0H73Z" />
<glyph unicode="&#x132;" glyph-name="IJ" horiz-adv-x="864" d="M89 682H219V0H89V682ZM782 682V223Q782 111 723 48T551 -16Q505 -16 465 -4T392 36T340 109T314 222L442 244Q448 166 473 132T553 98Q652 98 652 221V682H782Z" />
<glyph unicode="&#x133;" glyph-name="ij" horiz-adv-x="545" d="M72 557V694H194V557H72V557ZM73 0V490H193V0H73ZM358 557V694H480V557H358ZM479 490V-5Q479 -73 463 -116T413 -180T324 -201Q308 -201 293 -199T269 -194V-101H308Q331 -101 341 -91T355 -60T359
8V490H479Z" />
<glyph unicode="&#x134;" glyph-name="Jcircumflex" horiz-adv-x="556" d="M474 682V223Q474 111 415 48T243 -16Q197 -16 157 -4T84 36T32 109T6 222L134 244Q140 166 165 132T245 98Q344 98 344 221V682H474ZM328 885H479L591 743H471L402 813L333 743H216L328 885Z" />
<glyph unicode="&#x135;" glyph-name="jcircumflex" horiz-adv-x="274" d="M200 490V-5Q200 -73 184 -116T134 -180T45 -201Q29 -201 14 -199T-10 -194V-101H29Q52 -101 62 -91T76 -60T80 8V490H200ZM323 698H468L572 552H460L393 628L327 552H218L323 698Z" />
<glyph unicode="&#x136;" glyph-name="Kcommaaccent" horiz-adv-x="698" d="M687 682L441 436L702 0H548L347 343L219 215V0H89V682H219V371L520 682H687ZM429 -47V-115Q429 -159 398 -180T302 -201H277V-154H294Q313 -154 320 -147T328 -124H302V-47H429Z" />
<glyph unicode="&#x137;" glyph-name="kcommaaccent" horiz-adv-x="549" d="M73 706H193V296L381 490H534L355 319L556 0H410L266 234L193 163V0H73V706ZM347 -47V-114Q347 -154 320 -177T227 -200H202V-154H221Q241 -154 247 -146T254 -123H228V-47H347Z" />
<glyph unicode="&#x138;" glyph-name="kgreenlandic" horiz-adv-x="548" d="M73 490H193V279L385 490H533L351 303L555 0H410L267 217L193 140V0H73V490Z" />
<glyph unicode="&#x139;" glyph-name="Lacute" horiz-adv-x="561" d="M89 682H219V112H545V0H89V682ZM168 883H334L199 741H81L168 883Z" />
<glyph unicode="&#x13a;" glyph-name="lacute" horiz-adv-x="267" d="M73 706H193V0H73V706ZM144 914H300L170 768H60L144 914Z" />
<glyph unicode="&#x13b;" glyph-name="Lcommaaccent" horiz-adv-x="561" d="M89 682H219V112H545V0H89V682ZM361 -47V-115Q361 -159 330 -180T234 -201H209V-154H226Q245 -154 252 -147T260 -124H234V-47H361Z" />
<glyph unicode="&#x13c;" glyph-name="lcommaaccent" horiz-adv-x="267" d="M73 706H193V0H73V706ZM449 -47V-114Q449 -154 422 -177T329 -200H304V-154H323Q343 -154 349 -146T356 -123H330V-47H449Z" />
<glyph unicode="&#x13d;" glyph-name="Lcaron" horiz-adv-x="561" d="M89 682H219V112H545V0H89V682ZM312 758H435L380 567H283L312 758Z" />
<glyph unicode="&#x13e;" glyph-name="lcaron" horiz-adv-x="322" d="M73 706H193V0H73V706ZM266 758H389L334 567H237L266 758Z" />
<glyph unicode="&#x13f;" glyph-name="Ldot" horiz-adv-x="561" d="M89 682H219V112H545V0H89V682ZM358 295V449H505V295H358Z" />
<glyph unicode="&#x140;" glyph-name="ldot" horiz-adv-x="400" d="M73 706H193V0H73V706ZM260 245V399H407V245H260Z" />
<glyph unicode="&#x141;" glyph-name="Lslash" horiz-adv-x="571" d="M414 379L229 299V112H555V0H99V245L6 204V311L99 351V682H229V406L414 486V379Z" />
<glyph unicode="&#x142;" glyph-name="lslash" horiz-adv-x="287" d="M83 0V262L12 217V326L83 371V706H203V445L275 491V382L203 337V0H83Z" />
<glyph unicode="&#x143;" glyph-name="Nacute" horiz-adv-x="771" d="M521 0L301 364Q276 404 250 451T206 532H203Q207 475 209 385T211 217V0H89V682H261L470 337Q492 302 514 261T565 169H567Q564 226 562 316T560 484V682H682V0H521ZM394 883H560L425 741H307L394
883Z" />
<glyph unicode="&#x144;" glyph-name="nacute" horiz-adv-x="590" d="M405 0V260Q405 308 402 327T392 362Q381 384 360 395T309 407Q286 407 266 399T234 379Q212 357 203 325T193 241V0H73V240Q73 282 73 317T73 381T72 437T70 490H183L185 425H186Q210 463
251 484T343 505Q432 505 478 454T525 304V0H405ZM306 700H462L332 554H222L306 700Z" />
<glyph unicode="&#x145;" glyph-name="Ncommaaccent" horiz-adv-x="771" d="M521 0L301 364Q276 404 250 451T206 532H203Q207 475 209 385T211 217V0H89V682H261L470 337Q492 302 514 261T565 169H567Q564 226 562 316T560 484V682H682V0H521ZM450 -47V-115Q450
-159 419 -180T323 -201H298V-154H315Q334 -154 341 -147T349 -124H323V-47H450Z" />
<glyph unicode="&#x146;" glyph-name="ncommaaccent" horiz-adv-x="590" d="M405 0V260Q405 308 402 327T392 362Q381 384 360 395T309 407Q286 407 266 399T234 379Q212 357 203 325T193 241V0H73V240Q73 282 73 317T73 381T72 437T70 490H183L185 425H186Q210
463 251 484T343 505Q432 505 478 454T525 304V0H405ZM361 -47V-114Q361 -154 334 -177T241 -200H216V-154H235Q255 -154 261 -146T268 -123H242V-47H361Z" />
<glyph unicode="&#x147;" glyph-name="Ncaron" horiz-adv-x="771" d="M521 0L301 364Q276 404 250 451T206 532H203Q207 475 209 385T211 217V0H89V682H261L470 337Q492 302 514 261T565 169H567Q564 226 562 316T560 484V682H682V0H521ZM461 743H310L198 885H317L387
815L456 885H573L461 743Z" />
<glyph unicode="&#x148;" glyph-name="ncaron" horiz-adv-x="590" d="M405 0V260Q405 308 402 327T392 362Q381 384 360 395T309 407Q286 407 266 399T234 379Q212 357 203 325T193 241V0H73V240Q73 282 73 317T73 381T72 437T70 490H183L185 425H186Q210 463
251 484T343 505Q432 505 478 454T525 304V0H405ZM371 554H226L122 700H234L301 623L367 700H476L371 554Z" />
<glyph unicode="&#x14a;" glyph-name="Eng" horiz-adv-x="771" d="M507 -71Q527 -71 538 -64T554 -43T559 -5V-3L312 362Q262 435 242 469T206 531H203Q207 473 209 384T211 217V0H89V682H251L455 382Q487 335 515 290T566 203H569Q565 263 563 335T560 481V682H682V-2Q682
-63 664 -101T610 -158T520 -176Q488 -176 470 -169V-71H507Z" />
<glyph unicode="&#x14b;" glyph-name="eng" horiz-adv-x="590" d="M405 260Q405 308 402 327T392 362Q381 384 360 395T309 407Q286 407 266 399T234 379Q212 357 203 325T193 241V0H73V240Q73 300 73 347T70 490H183L185 425H186Q210 463 251 484T343 505Q432
505 478 454T525 304V-6Q525 -77 508 -118T454 -180T364 -201Q330 -201 315 -193V-101H348Q372 -101 383 -91T400 -59T405 9V260Z" />
<glyph unicode="&#x14c;" glyph-name="Omacron" horiz-adv-x="787" d="M737 343Q737 237 693 155T571 29T392 -16Q290 -16 212 28T92 153T50 339Q50 445 93 527T216 653T395 698Q497 698 575 654T695 529T737 343ZM599 341Q599 414 574 468T503 552T393 582Q332
582 285 553T213 470T187 341Q187 268 212 214T284 130T393 100Q456 100 502 129T574 213T599 341ZM561 759H225V860H561V759Z" />
<glyph unicode="&#x14d;" glyph-name="omacron" horiz-adv-x="584" d="M544 246Q544 169 513 110T425 18T290 -14Q213 -14 156 17T70 106T40 244Q40 322 71 381T159 472T294 505Q371 505 428 474T514 384T544 246ZM417 245Q417 293 402 329T359 384T292 404Q253
404 225 384T182 328T167 245Q167 198 182 162T225 106T292 86Q331 86 359 106T402 162T417 245ZM448 574H136V671H448V574Z" />
<glyph unicode="&#x14e;" glyph-name="Obreve" horiz-adv-x="787" d="M737 343Q737 237 693 155T571 29T392 -16Q290 -16 212 28T92 153T50 339Q50 445 93 527T216 653T395 698Q497 698 575 654T695 529T737 343ZM599 341Q599 414 574 468T503 552T393 582Q332
582 285 553T213 470T187 341Q187 268 212 214T284 130T393 100Q456 100 502 129T574 213T599 341ZM564 897Q564 844 544 808T486 755T392 737Q336 737 299 754T242 808T223 897H322Q322 874 329 860T353 838T393 830Q418 830 434 838T457 860T464 897H564Z" />
<glyph unicode="&#x14f;" glyph-name="obreve" horiz-adv-x="584" d="M544 246Q544 169 513 110T425 18T290 -14Q213 -14 156 17T70 106T40 244Q40 322 71 381T159 472T294 505Q371 505 428 474T514 384T544 246ZM417 245Q417 293 402 329T359 384T292 404Q253
404 225 384T182 328T167 245Q167 198 182 162T225 106T292 86Q331 86 359 106T402 162T417 245ZM451 708Q451 657 434 623T381 572T291 554Q238 554 203 571T151 623T133 708H226Q226 686 233 672T255 650T292 642Q316 642 331 650T352 672T359 708H451Z" />
<glyph unicode="&#x150;" glyph-name="Ohungarumlaut" horiz-adv-x="787" d="M737 343Q737 237 693 155T571 29T392 -16Q290 -16 212 28T92 153T50 339Q50 445 93 527T216 653T395 698Q497 698 575 654T695 529T737 343ZM599 341Q599 414 574 468T503 552T393
582Q332 582 285 553T213 470T187 341Q187 268 212 214T284 130T393 100Q456 100 502 129T574 213T599 341ZM526 883H692L558 741H439L526 883ZM277 883H433L329 741H213L277 883Z" />
<glyph unicode="&#x151;" glyph-name="ohungarumlaut" horiz-adv-x="584" d="M544 246Q544 169 513 110T425 18T290 -14Q213 -14 156 17T70 106T40 244Q40 322 71 381T159 472T294 505Q371 505 428 474T514 384T544 246ZM417 245Q417 293 402 329T359 384T292
404Q253 404 225 384T182 328T167 245Q167 198 182 162T225 106T292 86Q331 86 359 106T402 162T417 245ZM410 700H566L436 554H326L410 700ZM184 700H333L231 554H124L184 700Z" />
<glyph unicode="&#x152;" glyph-name="OE" horiz-adv-x="1134" d="M591 341Q591 413 567 468T497 552T389 582Q327 582 282 553T212 468T187 341Q187 267 212 212T283 129T389 100Q451 100 497 129T567 214T591 341ZM385 696Q452 696 505 673T591 607H592V682H1064V578H722V398H1017V298H722V105H1081V0H592V84H591Q562
38 507 12T382 -14Q284 -14 209 29T92 153T50 339Q50 443 91 524T210 650T385 696Z" />
<glyph unicode="&#x153;" glyph-name="oe" horiz-adv-x="935" d="M769 294Q768 329 755 356T716 398T658 413Q626 413 602 400T562 359T541 294H769ZM292 86Q329 86 357 105T400 160T416 245Q416 293 401 329T358 384T291 404Q253 404 225 384T182 328T167 245Q167
196 183 160T227 105T292 86ZM290 -14Q213 -14 157 16T70 105T40 244Q40 322 71 381T159 472T293 505Q357 505 405 480T479 408Q505 454 552 479T661 505Q734 505 787 476T868 391T896 264Q896 232 892 211H540Q543 170 560 141T606 96T678 80Q725 80 764 96T835
145L887 69Q842 27 788 7T669 -14Q601 -14 552 10T476 84Q449 37 401 12T290 -14Z" />
<glyph unicode="&#x154;" glyph-name="Racute" horiz-adv-x="703" d="M219 360Q242 359 272 359T360 358Q409 358 442 370T492 406T509 470Q509 506 493 529T444 563T361 575Q315 575 279 575T219 574V360ZM519 0L344 251H219V0H89V682Q126 682 226 683T367 684Q457
684 519 660T614 589T646 472Q646 396 605 345T485 271L680 0H519ZM361 883H527L392 741H274L361 883Z" />
<glyph unicode="&#x155;" glyph-name="racute" horiz-adv-x="379" d="M73 0V240Q73 300 73 347T70 490H183L186 402H187Q216 454 255 479T341 504Q357 504 368 503V380Q354 381 339 381Q307 381 282 372T240 345Q215 320 204 284T193 166V0H73ZM231 698H387L257
552H147L231 698Z" />
<glyph unicode="&#x156;" glyph-name="Rcommaaccent" horiz-adv-x="703" d="M219 360Q242 359 272 359T360 358Q409 358 442 370T492 406T509 470Q509 506 493 529T444 563T361 575Q315 575 279 575T219 574V360ZM519 0L344 251H219V0H89V682Q126 682 226 683T367
684Q457 684 519 660T614 589T646 472Q646 396 605 345T485 271L680 0H519ZM428 -47V-115Q428 -159 397 -180T301 -201H276V-154H293Q312 -154 319 -147T327 -124H301V-47H428Z" />
<glyph unicode="&#x157;" glyph-name="rcommaaccent" horiz-adv-x="379" d="M73 0V240Q73 300 73 347T70 490H183L186 402H187Q216 454 255 479T341 504Q357 504 368 503V380Q354 381 339 381Q307 381 282 372T240 345Q215 320 204 284T193 166V0H73ZM449 -47V-114Q449
-154 422 -177T329 -200H304V-154H323Q343 -154 349 -146T356 -123H330V-47H449Z" />
<glyph unicode="&#x158;" glyph-name="Rcaron" horiz-adv-x="703" d="M219 360Q242 359 272 359T360 358Q409 358 442 370T492 406T509 470Q509 506 493 529T444 563T361 575Q315 575 279 575T219 574V360ZM519 0L344 251H219V0H89V682Q126 682 226 683T367 684Q457
684 519 660T614 589T646 472Q646 396 605 345T485 271L680 0H519ZM428 743H277L165 885H284L354 815L423 885H540L428 743Z" />
<glyph unicode="&#x159;" glyph-name="rcaron" horiz-adv-x="379" d="M73 0V240Q73 300 73 347T70 490H183L186 402H187Q216 454 255 479T341 504Q357 504 368 503V380Q354 381 339 381Q307 381 282 372T240 345Q215 320 204 284T193 166V0H73ZM543 552H398L294
698H406L473 621L539 698H648L543 552Z" />
<glyph unicode="&#x15a;" glyph-name="Sacute" horiz-adv-x="673" d="M104 188Q160 141 223 116T348 91Q391 91 422 102T469 133T485 181Q485 207 471 225T427 256T301 289T158 337T89 404T67 501Q67 559 99 604T190 673T327 698Q391 698 455 679T578 620L524
518Q478 555 427 573T324 591Q284 591 257 582T215 554T201 512Q201 488 215 471T257 441T382 409T526 362T597 292T620 192Q620 132 586 85T489 11T346 -16Q267 -16 190 11T48 88L104 188ZM341 883H507L372 741H254L341 883Z" />
<glyph unicode="&#x15b;" glyph-name="sacute" horiz-adv-x="510" d="M85 145Q126 113 172 97T263 80Q305 80 326 93T348 133Q348 149 339 160T310 178T223 200T121 234T70 284T54 355Q54 401 78 435T148 487T253 505Q303 505 353 491T444 450L398 366Q367 389
329 401T251 414Q228 414 211 409T185 393T176 367Q176 352 185 341T213 322T300 301T403 267T454 217T471 144Q471 97 446 61T373 6T262 -14Q203 -14 146 4T36 58L85 145ZM265 700H421L291 554H181L265 700Z" />
<glyph unicode="&#x15c;" glyph-name="Scircumflex" horiz-adv-x="673" d="M104 188Q160 141 223 116T348 91Q391 91 422 102T469 133T485 181Q485 207 471 225T427 256T301 289T158 337T89 404T67 501Q67 559 99 604T190 673T327 698Q391 698 455 679T578 620L524
518Q478 555 427 573T324 591Q284 591 257 582T215 554T201 512Q201 488 215 471T257 441T382 409T526 362T597 292T620 192Q620 132 586 85T489 11T346 -16Q267 -16 190 11T48 88L104 188ZM256 885H407L519 743H399L330 813L261 743H144L256 885Z" />
<glyph unicode="&#x15d;" glyph-name="scircumflex" horiz-adv-x="510" d="M85 145Q126 113 172 97T263 80Q305 80 326 93T348 133Q348 149 339 160T310 178T223 200T121 234T70 284T54 355Q54 401 78 435T148 487T253 505Q303 505 353 491T444 450L398 366Q367
389 329 401T251 414Q228 414 211 409T185 393T176 367Q176 352 185 341T213 322T300 301T403 267T454 217T471 144Q471 97 446 61T373 6T262 -14Q203 -14 146 4T36 58L85 145ZM180 700H325L429 554H317L250 630L184 554H75L180 700Z" />
<glyph unicode="&#x15e;" glyph-name="Scedilla" horiz-adv-x="673" d="M104 188Q160 141 223 116T348 91Q391 91 422 102T469 133T485 181Q485 207 471 225T427 256T301 289T158 337T89 404T67 501Q67 559 99 604T190 673T327 698Q391 698 455 679T578 620L524
518Q478 555 427 573T324 591Q284 591 257 582T215 554T201 512Q201 488 215 471T257 441T382 409T526 362T597 292T620 192Q620 132 586 85T489 11T346 -16Q267 -16 190 11T48 88L104 188ZM241 -192Q292 -148 292 -121Q292 -109 281 -98T250 -77L296 5H400L374
-41Q397 -59 407 -75T418 -113Q418 -133 403 -155T364 -192H241Z" />
<glyph unicode="&#x15f;" glyph-name="scedilla" horiz-adv-x="510" d="M85 145Q126 113 172 97T263 80Q305 80 326 93T348 133Q348 149 339 160T310 178T223 200T121 234T70 284T54 355Q54 401 78 435T148 487T253 505Q303 505 353 491T444 450L398 366Q367 389
329 401T251 414Q228 414 211 409T185 393T176 367Q176 352 185 341T213 322T300 301T403 267T454 217T471 144Q471 97 446 61T373 6T262 -14Q203 -14 146 4T36 58L85 145ZM166 -192Q191 -169 202 -152T214 -121Q214 -110 206 -101T172 -76L219 5H316L289 -41Q312
-58 322 -75T333 -113Q333 -132 319 -153T283 -192H166Z" />
<glyph unicode="&#x160;" glyph-name="Scaron" horiz-adv-x="673" d="M104 188Q160 141 223 116T348 91Q391 91 422 102T469 133T485 181Q485 207 471 225T427 256T301 289T158 337T89 404T67 501Q67 559 99 604T190 673T327 698Q391 698 455 679T578 620L524
518Q478 555 427 573T324 591Q284 591 257 582T215 554T201 512Q201 488 215 471T257 441T382 409T526 362T597 292T620 192Q620 132 586 85T489 11T346 -16Q267 -16 190 11T48 88L104 188ZM407 743H256L144 885H263L333 815L402 885H519L407 743Z" />
<glyph unicode="&#x161;" glyph-name="scaron" horiz-adv-x="510" d="M85 145Q126 113 172 97T263 80Q305 80 326 93T348 133Q348 149 339 160T310 178T223 200T121 234T70 284T54 355Q54 401 78 435T148 487T253 505Q303 505 353 491T444 450L398 366Q367 389
329 401T251 414Q228 414 211 409T185 393T176 367Q176 352 185 341T213 322T300 301T403 267T454 217T471 144Q471 97 446 61T373 6T262 -14Q203 -14 146 4T36 58L85 145ZM324 554H179L75 700H187L254 623L320 700H429L324 554Z" />
<glyph unicode="&#x162;" glyph-name="Tcommaaccent" horiz-adv-x="538" d="M203 573H-5V682H543V573H335V0H203V573ZM331 -47V-115Q331 -159 300 -180T204 -201H179V-154H196Q215 -154 222 -147T230 -124H204V-47H331Z" />
<glyph unicode="&#x163;" glyph-name="tcommaaccent" horiz-adv-x="363" d="M14 394V490H92V642L212 666V490H336V394H212V201Q212 161 213 143T218 115T227 99Q234 92 243 90T267 87Q286 87 305 90T336 98V3Q318 -5 291 -9T237 -14Q184 -14 153 2T107 54T92 146V394H14ZM275
-47V-114Q275 -154 248 -177T155 -200H130V-154H149Q169 -154 175 -146T182 -123H156V-47H275Z" />
<glyph unicode="&#x164;" glyph-name="Tcaron" horiz-adv-x="538" d="M203 573H-5V682H543V573H335V0H203V573ZM343 743H192L80 885H199L269 815L338 885H455L343 743Z" />
<glyph unicode="&#x165;" glyph-name="tcaron" horiz-adv-x="363" d="M14 394V490H92V642L212 666V490H336V394H212V201Q212 161 213 143T218 115T227 99Q234 92 243 90T267 87Q286 87 305 90T336 98V3Q318 -5 291 -9T237 -14Q184 -14 153 2T107 54T92 146V394H14ZM286
758H409L354 567H257L286 758Z" />
<glyph unicode="&#x166;" glyph-name="Tbar" horiz-adv-x="538" d="M203 0V282H40V383H203V573H-5V682H543V573H335V383H498V282H335V0H203Z" />
<glyph unicode="&#x167;" glyph-name="tbar" horiz-adv-x="363" d="M92 394H14V490H92V642L212 666V490H336V394H212V292H307V202H212V187Q212 142 215 126T227 99Q240 87 267 87Q285 87 304 90T336 98V3Q318 -5 291 -9T237 -14Q184 -14 152 3T106 55T92 146V202H25V292H92V394Z"
/>
<glyph unicode="&#x168;" glyph-name="Utilde" horiz-adv-x="739" d="M212 274Q212 218 231 179T286 120T373 100Q425 100 461 119T515 178T534 274V682H657V267Q657 181 623 117T525 18T371 -16Q279 -16 214 17T116 113T82 262V682H212V274ZM296 790Q281 790
274 778T266 743H170Q170 788 184 820T228 869T300 886Q326 886 349 879T397 855T429 835T443 832Q458 832 465 844T473 879H569Q569 834 555 802T511 753T439 736Q413 736 390 743T342 768T309 787T296 790Z" />
<glyph unicode="&#x169;" glyph-name="utilde" horiz-adv-x="585" d="M402 0L400 65H399Q375 27 335 7T245 -14Q186 -14 146 9T85 77T65 186V490H185V230Q185 183 188 164T198 128Q209 107 229 95T278 83Q300 83 320 91T352 111Q373 132 382 164T392 249V490H512V242Q512
181 512 133T515 0H402ZM224 606Q209 606 202 595T195 559H106Q106 604 119 635T160 683T229 699Q252 699 273 692T317 669T347 650T361 647Q375 647 382 658T389 694H478Q478 648 465 617T424 570T356 554Q333 554 312 561T268 584T238 603T224 606Z" />
<glyph unicode="&#x16a;" glyph-name="Umacron" horiz-adv-x="739" d="M212 274Q212 218 231 179T286 120T373 100Q425 100 461 119T515 178T534 274V682H657V267Q657 181 623 117T525 18T371 -16Q279 -16 214 17T116 113T82 262V682H212V274ZM537 759H201V860H537V759Z" />
<glyph unicode="&#x16b;" glyph-name="umacron" horiz-adv-x="585" d="M402 0L400 65H399Q375 27 335 7T245 -14Q186 -14 146 9T85 77T65 186V490H185V230Q185 183 188 164T198 128Q209 107 229 95T278 83Q300 83 320 91T352 111Q373 132 382 164T392 249V490H512V242Q512
181 512 133T515 0H402ZM448 572H136V669H448V572Z" />
<glyph unicode="&#x16c;" glyph-name="Ubreve" horiz-adv-x="739" d="M212 274Q212 218 231 179T286 120T373 100Q425 100 461 119T515 178T534 274V682H657V267Q657 181 623 117T525 18T371 -16Q279 -16 214 17T116 113T82 262V682H212V274ZM540 897Q540 844
520 808T462 755T368 737Q312 737 275 754T218 808T199 897H298Q298 874 305 860T329 838T369 830Q394 830 410 838T433 860T440 897H540Z" />
<glyph unicode="&#x16d;" glyph-name="ubreve" horiz-adv-x="585" d="M402 0L400 65H399Q375 27 335 7T245 -14Q186 -14 146 9T85 77T65 186V490H185V230Q185 183 188 164T198 128Q209 107 229 95T278 83Q300 83 320 91T352 111Q373 132 382 164T392 249V490H512V242Q512
181 512 133T515 0H402ZM451 706Q451 655 434 621T381 570T291 552Q238 552 203 569T151 621T133 706H226Q226 684 233 670T255 648T292 640Q316 640 331 648T352 670T359 706H451Z" />
<glyph unicode="&#x16e;" glyph-name="Uring" horiz-adv-x="739" d="M212 274Q212 218 231 179T286 120T373 100Q425 100 461 119T515 178T534 274V682H657V267Q657 181 623 117T525 18T371 -16Q279 -16 214 17T116 113T82 262V682H212V274ZM408 834Q408 852 398
864T370 876Q351 876 342 864T332 834Q332 816 341 804T370 792Q388 792 398 804T408 834ZM500 835Q500 789 466 759T369 728Q306 728 273 757T239 833Q239 879 274 909T371 940Q434 940 467 911T500 835Z" />
<glyph unicode="&#x16f;" glyph-name="uring" horiz-adv-x="585" d="M402 0L400 65H399Q375 27 335 7T245 -14Q186 -14 146 9T85 77T65 186V490H185V230Q185 183 188 164T198 128Q209 107 229 95T278 83Q300 83 320 91T352 111Q373 132 382 164T392 249V490H512V242Q512
181 512 133T515 0H402ZM331 653Q331 671 321 683T293 695Q274 695 265 683T255 653Q255 635 264 623T293 611Q311 611 321 623T331 653ZM423 654Q423 608 389 578T292 547Q229 547 196 576T162 652Q162 698 197 728T294 759Q357 759 390 730T423 654Z" />
<glyph unicode="&#x170;" glyph-name="Uhungarumlaut" horiz-adv-x="739" d="M212 274Q212 218 231 179T286 120T373 100Q425 100 461 119T515 178T534 274V682H657V267Q657 181 623 117T525 18T371 -16Q279 -16 214 17T116 113T82 262V682H212V274ZM506 883H672L538
741H419L506 883ZM257 883H413L309 741H193L257 883Z" />
<glyph unicode="&#x171;" glyph-name="uhungarumlaut" horiz-adv-x="585" d="M402 0L400 65H399Q375 27 335 7T245 -14Q186 -14 146 9T85 77T65 186V490H185V230Q185 183 188 164T198 128Q209 107 229 95T278 83Q300 83 320 91T352 111Q373 132 382 164T392 249V490H512V242Q512
181 512 133T515 0H402ZM406 698H562L432 552H322L406 698ZM180 698H329L227 552H120L180 698Z" />
<glyph unicode="&#x172;" glyph-name="Uogonek" horiz-adv-x="739" d="M550 -193Q532 -198 514 -200T476 -203Q430 -203 402 -194T362 -168T349 -124Q349 -99 363 -70T405 -12Q388 -16 371 -16Q279 -16 214 17T116 113T82 262V682H212V274Q212 218 231 179T286
120T373 100Q425 100 461 119T515 178T534 274V682H657V267Q657 203 638 150T582 59Q575 52 560 39T537 17Q508 -12 492 -44T475 -102Q475 -114 483 -119T509 -125H550V-193Z" />
<glyph unicode="&#x173;" glyph-name="uogonek" horiz-adv-x="585" d="M400 65H399Q375 27 335 7T245 -14Q187 -14 147 8T86 75T65 186V490H185V230Q185 183 188 164T198 128Q209 107 229 95T278 83Q300 83 320 91T352 111Q373 132 382 164T392 249V490H512V250Q512
164 512 105T515 0Q483 -32 467 -57T450 -105Q450 -117 458 -122T484 -128H525V-194Q510 -199 492 -201T455 -203Q413 -203 386 -195T346 -170T332 -124Q332 -97 348 -68T403 -1L400 65Z" />
<glyph unicode="&#x174;" glyph-name="Wcircumflex" horiz-adv-x="1057" d="M221 0L24 682H170L251 365Q259 332 279 258T309 133H312Q321 170 336 227T375 365L465 682H601L692 365Q720 270 734 218T757 133H760Q769 173 787 246T817 368L898 682H1033L836 0H672L569
339Q548 418 542 443T529 500H526Q522 476 515 446T486 339L385 0H221ZM453 885H604L716 743H596L527 813L458 743H341L453 885Z" />
<glyph unicode="&#x175;" glyph-name="wcircumflex" horiz-adv-x="828" d="M515 0L443 220Q434 249 427 278T413 340H411Q405 308 398 279T382 219L312 0H179L13 490H144L215 265Q226 232 235 197T253 123H255Q265 169 273 203T291 266L360 490H473L544 265Q554
233 564 197T583 123H585Q591 153 600 189T621 265L686 490H814L649 0H515ZM342 698H487L591 552H479L412 628L346 552H237L342 698Z" />
<glyph unicode="&#x176;" glyph-name="Ycircumflex" horiz-adv-x="634" d="M252 0V280L0 682H157L321 408L483 682H634L382 280V0H252ZM242 885H393L505 743H385L316 813L247 743H130L242 885Z" />
<glyph unicode="&#x177;" glyph-name="ycircumflex" horiz-adv-x="515" d="M121 -192L209 0H188L4 490H140L208 292Q222 249 236 203T260 117H263Q270 147 284 194T314 292L378 490H511L255 -192H121ZM186 698H331L435 552H323L256 628L190 552H81L186 698Z" />
<glyph unicode="&#x178;" glyph-name="Ydieresis" horiz-adv-x="634" d="M252 0V280L0 682H157L321 408L483 682H634L382 280V0H252ZM374 746V879H497V746H374ZM136 746V879H259V746H136Z" />
<glyph unicode="&#x179;" glyph-name="Zacute" horiz-adv-x="628" d="M590 0H38V110L411 575Q345 574 284 574T185 573H53V682H575V573L202 109Q269 110 324 110T410 111H590V0ZM317 883H483L348 741H230L317 883Z" />
<glyph unicode="&#x17a;" glyph-name="zacute" horiz-adv-x="515" d="M469 0H45V99L302 394Q281 394 234 394T164 393H56V490H456V393L200 98Q220 98 271 98T348 99H469V0ZM265 698H421L291 552H181L265 698Z" />
<glyph unicode="&#x17b;" glyph-name="Zdotaccent" horiz-adv-x="628" d="M590 0H38V110L411 575Q345 574 284 574T185 573H53V682H575V573L202 109Q269 110 324 110T410 111H590V0ZM250 746V879H380V746H250Z" />
<glyph unicode="&#x17c;" glyph-name="zdotaccent" horiz-adv-x="515" d="M469 0H45V99L302 394Q281 394 234 394T164 393H56V490H456V393L200 98Q220 98 271 98T348 99H469V0ZM192 559V692H314V559H192Z" />
<glyph unicode="&#x17d;" glyph-name="Zcaron" horiz-adv-x="628" d="M590 0H38V110L411 575Q345 574 284 574T185 573H53V682H575V573L202 109Q269 110 324 110T410 111H590V0ZM390 743H239L127 885H246L316 815L385 885H502L390 743Z" />
<glyph unicode="&#x17e;" glyph-name="zcaron" horiz-adv-x="515" d="M469 0H45V99L302 394Q281 394 234 394T164 393H56V490H456V393L200 98Q220 98 271 98T348 99H469V0ZM329 552H184L80 698H192L259 621L325 698H434L329 552Z" />
<glyph unicode="&#x17f;" glyph-name="longs" horiz-adv-x="275" d="M73 0V553Q73 608 91 644T147 698T243 716Q257 716 276 714T308 709V609Q296 613 280 615T250 617Q229 617 217 610T199 587T193 543V0H73Z" />
<glyph unicode="&#x192;" glyph-name="florin" horiz-adv-x="535" d="M468 314H307L282 93Q272 14 258 -26T219 -91T158 -129T68 -142Q46 -142 21 -138T-21 -128L2 -28Q19 -33 38 -36T73 -40Q93 -40 106 -33T127 -12T142 25T154 93L179 314H51V413H190L201 495Q210
576 225 616T264 681T326 718T414 730Q436 730 459 726T502 716L480 616Q463 621 444 624T410 628Q390 628 377 622T355 601T340 562T328 495L318 413H468V314Z" />
<glyph unicode="&#x1e6;" glyph-name="Gcaron" horiz-adv-x="767" d="M577 0V81H576Q544 33 493 9T372 -16Q279 -16 205 28T91 153T50 339Q50 443 93 525T214 652T391 698Q488 698 560 664T680 560L579 477Q548 530 500 557T387 584Q327 584 282 554T212 468T187
342Q187 267 212 212T283 128T389 98Q440 98 479 119T538 179T559 263V276H397V376H688V0H577ZM467 743H316L204 885H323L393 815L462 885H579L467 743Z" />
<glyph unicode="&#x1e7;" glyph-name="gcaron" horiz-adv-x="603" d="M412 254Q412 299 397 334T354 388T289 407Q251 407 224 388T182 332T168 248Q168 202 183 166T226 109T293 89Q329 89 356 108T398 163T412 243V254ZM538 490Q534 449 532 388T530 245V2Q530
-100 470 -152T294 -204Q227 -204 171 -186T70 -131L115 -42Q153 -75 200 -92T296 -109Q353 -109 381 -84T410 -9Q410 3 411 25T413 63H411Q388 30 348 12T258 -7Q190 -7 141 24T66 112T40 246Q40 322 68 381T149 472T269 505Q319 505 357 486T419 430H420L425
490H538ZM363 554H218L114 700H226L293 623L359 700H468L363 554Z" />
<glyph unicode="&#x1fa;" glyph-name="Aringacute" horiz-adv-x="682" d="M335 570Q327 536 273 373L235 252H437L399 372Q344 535 336 570H335ZM419 682L669 0H519L469 153H204L155 0H13L263 682H419ZM354 980H509L387 867H277L354 980ZM378 731Q378 749 369
761T340 773Q322 773 313 761T303 731Q303 713 312 702T340 690Q359 690 368 701T378 731ZM471 732Q471 686 437 656T339 626Q276 626 243 655T210 730Q210 776 244 806T341 836Q405 836 438 807T471 732Z" />
<glyph unicode="&#x1fb;" glyph-name="aringacute" horiz-adv-x="538" d="M34 136Q34 178 53 209T111 261T210 293T353 304V325Q353 368 328 390T254 413Q211 413 173 396T103 343L45 415Q89 459 146 482T267 505Q368 505 420 460T473 327V237Q473 186 473 147T476
0H363L361 60H360Q332 23 293 5T205 -14Q126 -14 80 26T34 136ZM353 220Q298 220 262 216T203 202T170 179T160 143Q160 112 180 96T236 79Q269 79 296 95T338 139T353 199V220V220ZM294 909H439L318 783H217L294 909ZM308 644Q308 661 299 672T271 684Q253 684
244 673T234 644Q234 627 243 616T271 604Q289 604 298 615T308 644ZM397 645Q397 602 364 573T270 543Q209 543 177 570T145 643Q145 686 178 715T272 745Q333 745 365 718T397 645Z" />
<glyph unicode="&#x1fc;" glyph-name="AEacute" horiz-adv-x="984" d="M235 241H448V579H387L235 241ZM915 682V579H578V398H868V298H578V104H932V0H448V142H193L129 0H-15L302 682H915ZM616 883H782L647 741H529L616 883Z" />
<glyph unicode="&#x1fd;" glyph-name="aeacute" horiz-adv-x="870" d="M236 79Q268 79 295 94T337 138T353 199V220Q298 220 262 216T203 202T170 179T160 143Q160 112 180 96T236 79ZM704 294Q703 330 689 357T650 399T593 413Q561 413 537 400T497 359T476 294H704ZM209
-14Q128 -14 81 26T34 136Q34 178 53 209T111 261T210 293T353 304V325Q352 369 327 391T254 413Q211 413 173 396T103 343L45 415Q89 459 146 482T267 505Q327 505 367 489T430 439Q458 470 501 487T596 505Q668 505 721 476T802 392T831 264Q831 232 827 211H475Q480
148 515 114T613 80Q660 80 699 96T770 145L822 69Q777 27 723 7T604 -14Q531 -14 482 12T401 92Q373 39 324 13T209 -14ZM459 698H615L485 552H375L459 698Z" />
<glyph unicode="&#x1fe;" glyph-name="Oslashacute" horiz-adv-x="787" d="M185 341Q185 308 191 276T209 216L510 549Q487 567 457 576T393 585Q329 585 282 555T210 470T185 341ZM602 341Q602 374 596 406T577 466L277 133Q300 115 330 106T393 97Q458 97 505
127T577 213T602 341ZM46 38L116 115Q83 161 67 217T50 339Q50 444 93 526T215 653T395 698Q450 698 499 684T590 641L658 717L741 644L671 566Q703 522 720 465T737 343Q737 238 694 156T571 29T392 -16Q337 -16 288 -2T197 41L129 -35L46 38ZM402 883H568L433
741H315L402 883Z" />
<glyph unicode="&#x1ff;" glyph-name="oslashacute" horiz-adv-x="584" d="M422 245Q422 269 420 285T413 316L223 104Q235 93 253 88T292 82Q332 82 361 102T406 159T422 245ZM162 245Q162 221 164 205T171 174L361 386Q348 397 330 402T292 408Q252 408 223
388T178 331T162 245ZM28 19L84 82Q62 113 51 154T40 244Q40 322 71 381T159 472T294 505Q334 505 368 496T432 469L489 533L556 471L499 409Q521 376 532 335T544 246Q544 169 513 110T425 18T290 -14Q250 -14 215 -5T151 21L95 -42L28 19ZM303 700H459L329 554H219L303
700Z" />
<glyph unicode="&#x218;" glyph-name="Scommaaccent" horiz-adv-x="673" d="M104 188Q160 141 223 116T348 91Q391 91 422 102T469 133T485 181Q485 207 471 225T427 256T301 289T158 337T89 404T67 501Q67 559 99 604T190 673T327 698Q391 698 455 679T578 620L524
518Q478 555 427 573T324 591Q284 591 257 582T215 554T201 512Q201 488 215 471T257 441T382 409T526 362T597 292T620 192Q620 132 586 85T489 11T346 -16Q267 -16 190 11T48 88L104 188ZM412 -47V-115Q412 -159 381 -180T285 -201H260V-154H277Q296 -154 303
-147T311 -124H285V-47H412Z" />
<glyph unicode="&#x219;" glyph-name="scommaaccent" horiz-adv-x="510" d="M85 145Q126 113 172 97T263 80Q305 80 326 93T348 133Q348 149 339 160T310 178T223 200T121 234T70 284T54 355Q54 401 78 435T148 487T253 505Q303 505 353 491T444 450L398 366Q367
389 329 401T251 414Q228 414 211 409T185 393T176 367Q176 352 185 341T213 322T300 301T403 267T454 217T471 144Q471 97 446 61T373 6T262 -14Q203 -14 146 4T36 58L85 145ZM325 -47V-114Q325 -154 298 -177T205 -200H180V-154H199Q219 -154 225 -146T232 -123H206V-47H325Z"
/>
<glyph unicode="&#x21a;" glyph-name="uni021A" horiz-adv-x="538" d="M203 573H-5V682H543V573H335V0H203V573ZM331 -47V-115Q331 -159 300 -180T204 -201H179V-154H196Q215 -154 222 -147T230 -124H204V-47H331Z" />
<glyph unicode="&#x21b;" glyph-name="uni021B" horiz-adv-x="363" d="M14 394V490H92V642L212 666V490H336V394H212V201Q212 161 213 143T218 115T227 99Q234 92 243 90T267 87Q286 87 305 90T336 98V3Q318 -5 291 -9T237 -14Q184 -14 153 2T107 54T92 146V394H14ZM275
-47V-114Q275 -154 248 -177T155 -200H130V-154H149Q169 -154 175 -146T182 -123H156V-47H275Z" />
<glyph unicode="&#x237;" glyph-name="dotlessj" horiz-adv-x="274" d="M200 490V-5Q200 -73 184 -116T134 -180T45 -201Q29 -201 14 -199T-10 -194V-101H29Q52 -101 62 -91T76 -60T80 8V490H200Z" />
<glyph unicode="&#x2c6;" glyph-name="circumflex" horiz-adv-x="476" d="M166 698H311L415 552H303L236 628L170 552H61L166 698Z" />
<glyph unicode="&#x2c7;" glyph-name="caron" horiz-adv-x="476" d="M310 552H165L61 698H173L240 621L306 698H415L310 552Z" />
<glyph unicode="&#x2c9;" glyph-name="overscore" horiz-adv-x="452" d="M382 572H70V669H382V572Z" />
<glyph unicode="&#x2d8;" glyph-name="breve" horiz-adv-x="457" d="M387 706Q387 655 370 621T317 570T227 552Q174 552 139 569T87 621T69 706H162Q162 684 169 670T191 648T228 640Q252 640 267 648T288 670T295 706H387Z" />
<glyph unicode="&#x2d9;" glyph-name="dotaccent" horiz-adv-x="263" d="M70 559V692H192V559H70Z" />
<glyph unicode="&#x2da;" glyph-name="ring" horiz-adv-x="424" d="M250 653Q250 671 240 683T212 695Q193 695 184 683T174 653Q174 635 183 623T212 611Q230 611 240 623T250 653ZM342 654Q342 608 308 578T211 547Q148 547 115 576T81 652Q81 698 116 728T213
759Q276 759 309 730T342 654Z" />
<glyph unicode="&#x2db;" glyph-name="ogonek" horiz-adv-x="333" d="M243 0Q213 -42 201 -64T189 -105Q189 -117 197 -122T222 -128H263V-194Q249 -198 230 -200T193 -203Q149 -203 122 -195T83 -169T70 -124Q70 -98 86 -69T137 0H243Z" />
<glyph unicode="&#x2dc;" glyph-name="tilde" horiz-adv-x="513" d="M188 606Q173 606 166 595T159 559H70Q70 604 83 635T124 683T193 699Q216 699 237 692T281 669T311 650T325 647Q339 647 346 658T353 694H442Q442 648 429 617T388 570T320 554Q297 554 276
561T232 584T202 603T188 606Z" />
<glyph unicode="&#x2dd;" glyph-name="hungarumlaut" horiz-adv-x="574" d="M352 698H508L378 552H268L352 698ZM126 698H275L173 552H66L126 698Z" />
<glyph unicode="&#x312;" glyph-name="uni0312" horiz-adv-x="280" d="M70 559V632Q70 672 98 695T191 719H215V670H197Q176 670 170 662T163 639H190V559H70Z" />
<glyph unicode="&#x315;" glyph-name="uni0315" horiz-adv-x="289" d="M98 758H221L166 567H69L98 758Z" />
<glyph unicode="&#x326;" glyph-name="uni0326" horiz-adv-x="286" d="M215 -47V-114Q215 -154 188 -177T95 -200H70V-154H89Q109 -154 115 -146T122 -123H96V-47H215Z" />
<glyph unicode="&#x394;" glyph-name="increment" horiz-adv-x="667" d="M167 109H492L393 376Q361 464 349 500T330 563H328Q321 535 308 495T266 377L167 109ZM635 0H32V99L254 682H414L635 100V0Z" />
<glyph unicode="&#x3a9;" glyph-name="Omega" horiz-adv-x="807" d="M63 0V108H228V110Q148 160 109 230T69 392Q69 480 112 550T233 659T406 698Q502 698 578 659T697 550T739 392Q739 304 699 233T579 110V108H744V0H458V118Q537 170 571 228T606 367Q606 430
582 479T511 555T404 582Q343 582 297 555T226 479T201 367Q201 287 235 229T349 118V0H63Z" />
<glyph unicode="&#x3bc;" glyph-name="mu" horiz-adv-x="594" d="M73 -192V490H193V230Q193 183 196 164T207 128Q218 107 238 95T286 83Q309 83 328 91T361 111Q382 132 391 164T400 249V490H520V242Q520 181 520 133T523 0H410L408 65H407Q384 27 349 8T269
-12Q216 -12 191 16H190L195 -192H73Z" />
<glyph unicode="&#x3c0;" glyph-name="pi" horiz-adv-x="650" d="M596 383H495Q495 255 499 194T515 110T556 87Q569 87 583 89T610 97L621 3Q601 -4 576 -9T527 -14Q458 -14 429 14T387 117T375 383H218Q210 230 203 139T188 0H67Q78 73 85 163T98 383H15V490H596V383Z" />
<glyph unicode="&#x1e02;" glyph-name="uni1E02" horiz-adv-x="719" d="M89 682Q135 683 213 683T351 684Q454 684 511 669T602 620Q645 577 645 512Q645 455 617 417T532 359Q597 345 632 303T668 199Q668 129 634 85T532 19T352 -2Q186 -2 89 0V682ZM219 398H355Q413
398 441 405T487 429Q499 441 505 456T511 492Q511 527 489 549Q471 567 438 573T335 580Q276 580 219 578V398ZM219 104Q296 102 370 102Q430 102 464 112T514 143T531 198Q531 232 516 254T469 286T370 297H219V104ZM294 746V879H424V746H294Z" />
<glyph unicode="&#x1e03;" glyph-name="uni1E03" horiz-adv-x="603" d="M191 236Q191 191 206 156T249 102T314 83Q352 83 379 102T421 159T435 246Q435 295 420 332T376 388T310 407Q275 407 248 389T206 336T191 253V236ZM73 706H193V524Q193 470 187 429H189Q213
465 253 485T345 505Q410 505 459 474T536 383T563 247Q563 170 535 111T455 19T334 -14Q284 -14 246 5T184 61H183L179 0H66Q71 81 72 130T73 246V706ZM276 561V694H398V561H276Z" />
<glyph unicode="&#x1e0a;" glyph-name="uni1E0A" horiz-adv-x="742" d="M89 682Q191 683 319 683Q422 683 487 662T601 592Q646 547 669 485T692 344Q692 265 668 199T600 89Q553 43 487 21T324 -1Q206 0 89 0V682ZM218 111Q276 108 323 108Q396 108 431 119T493
158Q524 189 539 235T555 341Q555 398 538 445T491 522Q462 551 425 563T315 575Q247 575 218 574V111ZM285 746V879H415V746H285Z" />
<glyph unicode="&#x1e0b;" glyph-name="uni1E0B" horiz-adv-x="603" d="M419 0L417 65H416Q393 27 352 7T258 -14Q191 -14 142 18T66 109T40 243Q40 320 68 379T148 472T268 505Q315 505 351 488T411 439H412Q409 477 409 524V706H529V244Q529 171 529 124T532
0H419ZM412 254Q412 300 397 335T353 388T289 407Q251 407 224 388T182 331T167 245Q167 197 182 160T225 103T292 83Q329 83 356 102T398 156T412 237V254ZM203 561V694H325V561H203Z" />
<glyph unicode="&#x1e1e;" glyph-name="uni1E1E" horiz-adv-x="603" d="M89 682H563V577H219V383H518V282H219V0H89V682ZM256 746V879H386V746H256Z" />
<glyph unicode="&#x1e1f;" glyph-name="uni1E1F" horiz-adv-x="326" d="M91 395H11V490H91V568Q90 616 108 649T160 699T243 716Q268 716 293 713T334 703V606Q315 611 296 614T260 617Q243 617 233 612T217 594T211 559V490H318V395H211V0H91V395ZM175 775V908H297V775H175Z"
/>
<glyph unicode="&#x1e40;" glyph-name="uni1E40" horiz-adv-x="959" d="M89 682H304L419 373Q447 299 461 257T482 184H484Q491 218 505 261T545 373L660 682H870V0H740V240Q740 347 741 434T745 578H741Q727 533 712 489T674 385L533 0H418L277 385Q245 466 233
503T211 578H206Q209 523 210 435T211 240V0H89V682ZM414 746V879H544V746H414Z" />
<glyph unicode="&#x1e41;" glyph-name="uni1E41" horiz-adv-x="914" d="M729 0V260Q729 308 726 327T715 362Q704 384 684 395T634 407Q612 407 593 399T561 379Q540 358 531 326T521 241V0H401V260Q401 308 398 327T388 362Q377 384 357 395T307 407Q285 407
265 399T233 379Q212 358 203 326T193 241V0H73V240Q73 282 73 317T73 381T72 437T70 490H183L185 425H186Q211 463 251 484T341 505Q397 505 437 483T499 417Q529 462 571 483T669 505Q756 505 802 454T849 304V0H729ZM397 559V692H519V559H397Z" />
<glyph unicode="&#x1e56;" glyph-name="uni1E56" horiz-adv-x="666" d="M89 682Q225 683 361 684Q460 684 524 659T619 585T651 462Q651 390 618 340T518 264T354 238Q264 238 219 239V0H89V682ZM514 460Q514 500 498 525T447 563T358 575Q262 575 219 574V347Q263
346 358 346Q412 346 446 358T497 396T514 460ZM287 746V879H417V746H287Z" />
<glyph unicode="&#x1e57;" glyph-name="uni1E57" horiz-adv-x="603" d="M73 -192V246Q73 307 73 370T70 490H183L185 425H186Q210 464 251 484T345 505Q410 505 459 474T536 383T563 247Q563 170 535 111T455 19T334 -14Q288 -14 251 3T191 51H190Q193 14 193
-34V-192H73ZM191 236Q191 190 206 155T250 102T314 83Q352 83 379 102T421 159T435 246Q435 295 420 332T376 388T310 407Q275 407 248 389T206 336T191 253V236ZM251 561V694H373V561H251Z" />
<glyph unicode="&#x1e60;" glyph-name="uni1E60" horiz-adv-x="673" d="M104 188Q160 141 223 116T348 91Q391 91 422 102T469 133T485 181Q485 207 471 225T427 256T301 289T158 337T89 404T67 501Q67 559 99 604T190 673T327 698Q391 698 455 679T578 620L524
518Q478 555 427 573T324 591Q284 591 257 582T215 554T201 512Q201 488 215 471T257 441T382 409T526 362T597 292T620 192Q620 132 586 85T489 11T346 -16Q267 -16 190 11T48 88L104 188ZM266 746V879H396V746H266Z" />
<glyph unicode="&#x1e61;" glyph-name="uni1E61" horiz-adv-x="510" d="M85 145Q126 113 172 97T263 80Q305 80 326 93T348 133Q348 149 339 160T310 178T223 200T121 234T70 284T54 355Q54 401 78 435T148 487T253 505Q303 505 353 491T444 450L398 366Q367 389
329 401T251 414Q228 414 211 409T185 393T176 367Q176 352 185 341T213 322T300 301T403 267T454 217T471 144Q471 97 446 61T373 6T262 -14Q203 -14 146 4T36 58L85 145ZM189 561V694H311V561H189Z" />
<glyph unicode="&#x1e6a;" glyph-name="uni1E6A" horiz-adv-x="538" d="M203 573H-5V682H543V573H335V0H203V573ZM204 746V879H334V746H204Z" />
<glyph unicode="&#x1e6b;" glyph-name="uni1E6B" horiz-adv-x="363" d="M14 394V490H92V642L212 666V490H336V394H212V201Q212 161 213 143T218 115T227 99Q234 92 243 90T267 87Q286 87 305 90T336 98V3Q318 -5 291 -9T237 -14Q184 -14 153 2T107 54T92 146V394H14ZM92
718V851H214V718H92Z" />
<glyph unicode="&#x1e80;" glyph-name="Wgrave" horiz-adv-x="1057" d="M221 0L24 682H170L251 365Q259 332 279 258T309 133H312Q321 170 336 227T375 365L465 682H601L692 365Q720 270 734 218T757 133H760Q769 173 787 246T817 368L898 682H1033L836 0H672L569
339Q548 418 542 443T529 500H526Q522 476 515 446T486 339L385 0H221ZM602 741H484L349 883H515L602 741Z" />
<glyph unicode="&#x1e81;" glyph-name="wgrave" horiz-adv-x="828" d="M515 0L443 220Q434 249 427 278T413 340H411Q405 308 398 279T382 219L312 0H179L13 490H144L215 265Q226 232 235 197T253 123H255Q265 169 273 203T291 266L360 490H473L544 265Q554 233
564 197T583 123H585Q591 153 600 189T621 265L686 490H814L649 0H515ZM483 552H373L243 698H400L483 552Z" />
<glyph unicode="&#x1e82;" glyph-name="Wacute" horiz-adv-x="1057" d="M221 0L24 682H170L251 365Q259 332 279 258T309 133H312Q321 170 336 227T375 365L465 682H601L692 365Q720 270 734 218T757 133H760Q769 173 787 246T817 368L898 682H1033L836 0H672L569
339Q548 418 542 443T529 500H526Q522 476 515 446T486 339L385 0H221ZM542 883H708L573 741H455L542 883Z" />
<glyph unicode="&#x1e83;" glyph-name="wacute" horiz-adv-x="828" d="M515 0L443 220Q434 249 427 278T413 340H411Q405 308 398 279T382 219L312 0H179L13 490H144L215 265Q226 232 235 197T253 123H255Q265 169 273 203T291 266L360 490H473L544 265Q554 233
564 197T583 123H585Q591 153 600 189T621 265L686 490H814L649 0H515ZM424 698H580L450 552H340L424 698Z" />
<glyph unicode="&#x1e84;" glyph-name="Wdieresis" horiz-adv-x="1057" d="M221 0L24 682H170L251 365Q259 332 279 258T309 133H312Q321 170 336 227T375 365L465 682H601L692 365Q720 270 734 218T757 133H760Q769 173 787 246T817 368L898 682H1033L836 0H672L569
339Q548 418 542 443T529 500H526Q522 476 515 446T486 339L385 0H221ZM585 746V879H708V746H585ZM347 746V879H470V746H347Z" />
<glyph unicode="&#x1e85;" glyph-name="wdieresis" horiz-adv-x="828" d="M515 0L443 220Q434 249 427 278T413 340H411Q405 308 398 279T382 219L312 0H179L13 490H144L215 265Q226 232 235 197T253 123H255Q265 169 273 203T291 266L360 490H473L544 265Q554
233 564 197T583 123H585Q591 153 600 189T621 265L686 490H814L649 0H515ZM457 559V692H572V559H457ZM253 559V692H368V559H253Z" />
<glyph unicode="&#x1e9e;" glyph-name="uni1E9E" horiz-adv-x="782" d="M88 436Q88 523 123 581T229 669T402 698Q466 698 540 689T675 664V567L507 391Q582 385 633 360T709 293T734 194Q734 132 703 84T611 10T468 -16Q433 -16 391 -10T317 7L339 112Q366 102
402 97T470 91Q510 91 538 102T582 135T597 188Q597 223 578 245T519 278T416 290H352V391L534 579Q504 585 469 588T399 591Q334 591 295 574T237 523T218 436V0H88V436Z" />
<glyph unicode="&#x1ef2;" glyph-name="Ygrave" horiz-adv-x="634" d="M252 0V280L0 682H157L321 408L483 682H634L382 280V0H252ZM394 741H276L141 883H307L394 741Z" />
<glyph unicode="&#x1ef3;" glyph-name="ygrave" horiz-adv-x="515" d="M121 -192L209 0H188L4 490H140L208 292Q222 249 236 203T260 117H263Q270 147 284 194T314 292L378 490H511L255 -192H121ZM330 552H220L90 698H247L330 552Z" />
<glyph unicode="&#x2010;" glyph-name="hyphen" horiz-adv-x="369" d="M40 220V338H329V220H40Z" />
<glyph unicode="&#x2013;" glyph-name="endash" horiz-adv-x="650" d="M597 225H53V333H597V225Z" />
<glyph unicode="&#x2014;" glyph-name="emdash" horiz-adv-x="977" d="M935 225H41V333H935V225Z" />
<glyph unicode="&#x2015;" glyph-name="emdash" horiz-adv-x="977" d="M935 225H41V333H935V225Z" />
<glyph unicode="&#x2018;" glyph-name="quoteleft" horiz-adv-x="292" d="M72 483V615Q72 678 84 715T124 778T208 829L238 761Q207 742 193 727T172 693T166 642H220V483H72Z" />
<glyph unicode="&#x2019;" glyph-name="quoteright" horiz-adv-x="292" d="M220 803V671Q220 606 208 569T167 506T83 458L53 525Q87 546 100 561T119 594T125 644H72V803H220Z" />
<glyph unicode="&#x201a;" glyph-name="quotesinglbase" horiz-adv-x="292" d="M220 159V27Q220 -38 208 -75T167 -138T83 -186L53 -119Q87 -98 100 -83T119 -50T125 0H72V159H220Z" />
<glyph unicode="&#x201c;" glyph-name="quotedblleft" horiz-adv-x="502" d="M72 483V615Q72 678 83 715T122 780T198 829L228 761Q195 740 182 725T163 692T157 642H209V483H72ZM292 483V615Q292 680 304 718T344 782T419 829L448 761Q416 740 403 725T384 692T378
642H430V483H292Z" />
<glyph unicode="&#x201d;" glyph-name="quotedblright" horiz-adv-x="502" d="M430 803V671Q430 608 418 570T380 505T304 458L274 525Q305 544 319 559T338 593T344 644H292V803H430ZM209 803V671Q209 608 198 570T159 505T83 458L53 525Q84 544 98 559T118 593T124
644H72V803H209Z" />
<glyph unicode="&#x201e;" glyph-name="quotedblbase" horiz-adv-x="502" d="M430 159V27Q430 -36 418 -74T380 -139T304 -186L274 -119Q305 -100 319 -85T338 -51T344 0H292V159H430ZM209 159V27Q209 -36 198 -74T159 -139T83 -186L53 -119Q84 -100 98 -85T118
-51T124 0H72V159H209Z" />
<glyph unicode="&#x2020;" glyph-name="dagger" horiz-adv-x="526" d="M203 98V514H41V614H203V784H323V614H485V514H323V98H203Z" />
<glyph unicode="&#x2021;" glyph-name="daggerdbl" horiz-adv-x="526" d="M485 239H323V64H203V239H41V339H203V514H41V614H203V784H323V614H485V514H323V339H485V239Z" />
<glyph unicode="&#x2022;" glyph-name="bullet" horiz-adv-x="427" d="M361 323Q361 283 341 248T286 194T212 174Q172 174 138 194T85 248T66 321Q66 361 86 396T141 450T214 470Q255 470 289 450T342 396T361 323Z" />
<glyph unicode="&#x2026;" glyph-name="ellipsis" horiz-adv-x="921" d="M701 0V165H850V0H701ZM386 0V165H535V0H386ZM72 0V165H220V0H72Z" />
<glyph unicode="&#x2030;" glyph-name="perthousand" horiz-adv-x="1621" d="M474 560Q474 451 418 390T264 328Q165 328 113 387T60 556Q60 665 115 726T270 788Q368 788 421 729T474 560ZM357 558Q357 624 334 658T267 693Q223 693 200 659T176 558Q176 492
199 458T267 423Q311 423 334 457T357 558ZM897 778L354 -96H224L767 778H897ZM1062 126Q1062 17 1006 -44T852 -106Q753 -106 701 -47T648 122Q648 231 703 292T858 354Q956 354 1009 295T1062 126ZM945 124Q945 190 922 224T855 259Q811 259 788 225T764 124Q764
58 787 24T855 -11Q899 -11 922 23T945 124ZM1561 126Q1561 17 1505 -44T1351 -106Q1252 -106 1200 -47T1147 122Q1147 231 1202 292T1357 354Q1455 354 1508 295T1561 126ZM1444 124Q1444 190 1421 224T1354 259Q1310 259 1287 225T1263 124Q1263 58 1286 24T1354
-11Q1398 -11 1421 23T1444 124Z" />
<glyph unicode="&#x2039;" glyph-name="guilsinglleft" horiz-adv-x="409" d="M230 36L65 279L231 521L330 474L214 280L329 85L230 36Z" />
<glyph unicode="&#x203a;" glyph-name="guilsinglright" horiz-adv-x="409" d="M179 522L344 279L177 36L79 83L195 277L80 472L179 522Z" />
<glyph unicode="&#x2044;" glyph-name="fraction" horiz-adv-x="405" d="M542 778L-1 -96H-131L412 778H542Z" />
<glyph unicode="&#x2070;" glyph-name="zero.superior" horiz-adv-x="534" d="M474 560Q474 451 418 390T264 328Q165 328 113 387T60 556Q60 665 115 726T270 788Q368 788 421 729T474 560ZM357 558Q357 624 334 658T267 693Q223 693 200 659T176 558Q176 492
199 458T267 423Q311 423 334 457T357 558Z" />
<glyph unicode="&#x2074;" glyph-name="four.superior" horiz-adv-x="518" d="M153 513Q193 514 227 514T282 515V610Q282 671 284 693H281L153 513V513ZM282 338V423H44V520L228 778H401V516H474V423H401V338H282Z" />
<glyph unicode="&#x2081;" glyph-name="uni2081" horiz-adv-x="374" d="M170 -96V210Q151 195 120 187T46 179V273Q103 273 138 291T182 345H290V-96H170Z" />
<glyph unicode="&#x2082;" glyph-name="uni2082" horiz-adv-x="525" d="M456 -96H72V8Q149 49 198 78T274 128T312 168T322 208Q322 236 305 251T255 267Q223 267 206 253T189 210Q189 187 196 167H82Q74 184 74 209Q74 276 125 315T261 354Q350 354 399 317T449
210Q449 180 437 153T398 101T329 51T227 -1V-4Q292 -2 342 -2H456V-96Z" />
<glyph unicode="&#x2083;" glyph-name="uni2083" horiz-adv-x="523" d="M169 47Q179 -24 259 -24Q292 -24 311 -10T330 32Q330 62 310 75T247 89H191V165H235Q265 165 280 169T306 183Q320 197 320 222Q320 246 303 259T256 273Q221 273 201 256T176 206L67 223Q78
287 128 320T260 354Q348 354 397 322T446 232Q446 196 426 171T368 135V133Q459 113 459 27Q459 -33 405 -69T259 -106Q168 -106 118 -73T58 29L169 47Z" />
<glyph unicode="&#x2084;" glyph-name="uni2084" horiz-adv-x="518" d="M153 79Q193 80 227 80T282 81V176Q282 237 284 259H281L153 79V79ZM282 -96V-11H44V86L228 344H401V82H474V-11H401V-96H282Z" />
<glyph unicode="&#x20ac;" glyph-name="Euro" horiz-adv-x="720" d="M458 217H259Q279 157 321 126T424 94Q473 94 514 113T586 171L663 94Q618 41 557 13T422 -16Q307 -16 228 45T120 217H28V304H107Q105 322 105 340Q105 359 107 377H28V465H121Q150 575 232
636T426 698Q493 698 551 674T653 601L576 517Q546 553 507 571T424 590Q365 590 322 558T259 465H458V377H242Q241 361 241 342Q241 323 242 304H458V217Z" />
<glyph unicode="&#x2113;" glyph-name="afii61289" horiz-adv-x="495" d="M268 -14Q200 -14 158 22T95 133L53 115L13 208L78 237Q74 286 74 355Q74 481 94 560T156 678T269 716Q322 716 358 693T411 625T429 513Q429 397 376 318T206 182Q214 132 233 110T285
88Q309 88 331 97T377 126L423 46Q391 17 352 2T268 -14V-14ZM306 509Q306 566 296 590T261 615Q236 615 223 588T203 505T196 359V293Q252 328 279 380T306 509Z" />
<glyph unicode="&#x2122;" glyph-name="trademark" horiz-adv-x="978" d="M403 682H562L631 498Q637 483 643 461T656 413H658Q664 437 671 459T684 498L753 682H907V313H814V442Q814 516 814 548T815 607H813Q806 583 798 559T781 512L702 313H605L527 513Q519
532 512 554T494 607H491Q493 582 493 549T493 442V313H403V682ZM136 600H21V682H350V600H236V313H136V600Z" />
<glyph unicode="&#x2126;" glyph-name="Omega" horiz-adv-x="807" d="M63 0V108H228V110Q148 160 109 230T69 392Q69 480 112 550T233 659T406 698Q502 698 578 659T697 550T739 392Q739 304 699 233T579 110V108H744V0H458V118Q537 170 571 228T606 367Q606 430
582 479T511 555T404 582Q343 582 297 555T226 479T201 367Q201 287 235 229T349 118V0H63Z" />
<glyph unicode="&#x212e;" glyph-name="estimated" horiz-adv-x="939" d="M468 -16Q375 -16 298 9T166 80T80 192T50 339Q50 420 81 486T168 600T301 672T471 698Q564 698 641 673T773 602T858 491T889 344Q889 334 889 323T886 302H264V182Q264 167 267 159T281
143Q310 120 357 104T473 88Q546 88 606 110T707 174H869Q843 130 803 95T712 35T598 -3T468 -16ZM674 395V504Q674 518 672 525T661 538Q627 565 579 580T469 595Q408 595 360 580T277 537Q270 532 267 524T264 502V395H674Z" />
<glyph unicode="&#x2202;" glyph-name="partialdiff" horiz-adv-x="603" d="M286 -14Q210 -14 155 17T70 107T40 243Q40 320 69 378T152 468T280 500Q331 500 372 479T436 420H437Q432 440 425 466T411 509T395 540T374 568Q353 588 327 597T266 607Q198 607 137
587V691Q195 708 273 708Q367 708 429 668T522 546T553 337Q553 222 523 144T434 26T286 -14ZM289 86Q326 86 354 105T397 159T413 243Q413 291 398 327T354 381T290 399Q253 399 225 381T183 328T168 242Q168 196 182 160T224 105T289 86Z" />
<glyph unicode="&#x2206;" glyph-name="increment" horiz-adv-x="667" d="M167 109H492L393 376Q361 464 349 500T330 563H328Q321 535 308 495T266 377L167 109ZM635 0H32V99L254 682H414L635 100V0Z" />
<glyph unicode="&#x220f;" glyph-name="product" horiz-adv-x="840" d="M580 -192V669H261V-192H131V669H6V780H834V669H710V-192H580Z" />
<glyph unicode="&#x2211;" glyph-name="summation" horiz-adv-x="684" d="M44 -84L317 303L57 674V780H617V672Q525 672 412 673T225 677L481 312L200 -87Q267 -84 398 -83T637 -81V-191H44V-84Z" />
<glyph unicode="&#x2212;" glyph-name="minus" horiz-adv-x="650" d="M597 271H53V373H597V271Z" />
<glyph unicode="&#x2219;" glyph-name="middot" horiz-adv-x="291" d="M72 245V399H219V245H72Z" />
<glyph unicode="&#x221a;" glyph-name="radical" horiz-adv-x="711" d="M241 -96L119 242H15V344H222L265 220Q290 147 301 108T319 35H322Q329 67 343 115T391 256L564 778H703L391 -96H241Z" />
<glyph unicode="&#x221e;" glyph-name="infinity" horiz-adv-x="1009" d="M274 207Q300 207 324 218T375 251T438 318Q400 367 375 391T325 426T274 437Q226 437 199 406T171 322Q171 269 198 238T274 207ZM736 437Q710 437 685 426T633 393T571 326Q609 276 634
253T685 218T736 207Q783 207 810 238T838 322Q838 375 811 406T736 437ZM263 106Q166 106 105 165T43 320Q43 418 106 478T273 538Q338 538 394 507T510 403Q573 476 628 507T746 538Q844 538 905 479T966 326Q966 226 903 166T735 106Q670 106 615 136T498 240Q435
167 380 137T263 106Z" />
<glyph unicode="&#x222b;" glyph-name="integral'" horiz-adv-x="367" d="M94 -203Q69 -203 43 -199T-2 -189L8 -91Q22 -96 41 -100T76 -104Q100 -104 111 -90T123 -48V642Q123 712 161 750T272 788Q299 788 324 785T368 774L359 676Q343 682 325 685T291 689Q267
689 256 676T244 633V-57Q245 -127 206 -165T94 -203Z" />
<glyph unicode="&#x2248;" glyph-name="approxequal" horiz-adv-x="650" d="M430 132Q401 132 375 139T311 166T255 191T217 197Q192 197 167 184T112 142L48 211Q86 256 130 280T220 304Q249 304 275 297T340 270T396 245T433 239Q458 239 483 251T539 293L602
224Q564 180 520 156T430 132ZM430 340Q401 340 375 347T310 374T254 399T217 405Q192 405 167 392T112 351L48 420Q86 464 130 488T220 512Q249 512 275 505T339 478T395 453T433 447Q458 447 482 460T539 502L602 433Q564 388 520 364T430 340Z" />
<glyph unicode="&#x2260;" glyph-name="notequal" horiz-adv-x="650" d="M119 24L194 172H63V273H242L291 371H63V472H339L407 613H525L455 472H587V371H406L358 273H587V172H309L238 24H119Z" />
<glyph unicode="&#x2264;" glyph-name="lessequal" horiz-adv-x="650" d="M587 175L63 374V491L587 691V569Q407 502 328 474T200 434V432Q248 421 328 393T587 298V175ZM587 0H63V101H587V0Z" />
<glyph unicode="&#x2265;" glyph-name="greaterequal" horiz-adv-x="650" d="M63 691L587 491V374L63 175V297Q243 364 322 392T450 432V434Q402 445 322 473T63 568V691ZM587 0H63V101H587V0Z" />
<glyph unicode="&#x22c5;" glyph-name="middot" horiz-adv-x="291" d="M72 245V399H219V245H72Z" />
<glyph unicode="&#x25ca;" glyph-name="lozenge" horiz-adv-x="657" d="M332 113Q342 137 370 184T468 339Q401 443 371 493T327 569H325Q315 545 287 498T189 343Q256 239 286 189T330 113H332ZM256 0L41 341L256 682H401L616 341L401 0H256Z" />
<glyph unicode="&#xf8ff;" glyph-name="uniF8FF" horiz-adv-x="825" d="M526 304H374V380H526V456H374V532H602V152H526V304ZM222 532H298V228H450V152H222V532ZM70 684H754V0H70V684ZM146 76H678V608H146V76Z" />
<glyph unicode="&#xfb01;" glyph-name="fi" horiz-adv-x="605" d="M91 395H11V490H91V568Q90 616 108 649T160 699T243 716Q268 716 293 713T334 703V606Q315 611 296 614T260 617Q243 617 233 612T217 594T211 559V490H318V395H211V0H91V395ZM410 557V694H532V557H410V557ZM411
0V490H531V0H411Z" />
<glyph unicode="&#xfb02;" glyph-name="fl" horiz-adv-x="605" d="M411 706H531V0H411V706ZM91 395H11V490H91V568Q90 616 108 649T160 699T243 716Q268 716 293 713T334 703V606Q315 611 296 614T260 617Q243 617 233 612T217 594T211 559V490H318V395H211V0H91V395Z" />
</font>
</defs>
</svg>
