<?xml version="1.0" encoding="UTF-8" standalone="no"?>
<svg width="30px" height="21px" viewBox="0 0 30 21" version="1.1" xmlns="http://www.w3.org/2000/svg" xmlns:xlink="http://www.w3.org/1999/xlink">
    <!-- Generator: Sketch 39.1 (31720) - http://www.bohemiancoding.com/sketch -->
    <title>Combined Shape</title>
    <desc>Created with Sketch.</desc>
    <defs></defs>
    <g id="Page-1" stroke="none" stroke-width="1" fill="none" fill-rule="evenodd">
        <path d="M4.0121205,11.4268265 L28.7159803,11.4268265 C29.3420609,11.4268265 29.8495995,10.9192879 29.8495995,10.2932072 C29.8495995,9.66712664 29.3420609,9.15958803 28.7159803,9.15958803 L3.72871569,9.15958803 L10.9530947,1.93520905 C11.3958005,1.49250321 11.3958005,0.774735221 10.9530947,0.332029381 C10.5103888,-0.11067646 9.79262085,-0.11067646 9.34991501,0.332029381 L0.332029381,9.34991501 C-0.0720094163,9.75395381 -0.107299183,10.3871039 0.22616008,10.831165 C0.324565179,11.0133559 0.471399155,11.1655433 0.649413844,11.2704791 L9.34991501,19.9709803 C9.79262085,20.4136861 10.5103888,20.4136861 10.9530947,19.9709803 C11.3958005,19.5282745 11.3958005,18.8105065 10.9530947,18.3678006 L4.0121205,11.4268265 Z" id="Combined-Shape" fill="#F79223"></path>
    </g>
</svg>