<?xml version="1.0" encoding="UTF-8" standalone="no"?><!DOCTYPE svg PUBLIC "-//W3C//DTD SVG 1.1//EN" "http://www.w3.org/Graphics/SVG/1.1/DTD/svg11.dtd"><svg width="100%" height="100%" viewBox="0 0 30 21" version="1.1" xmlns="http://www.w3.org/2000/svg" xmlns:xlink="http://www.w3.org/1999/xlink" xml:space="preserve" style="fill-rule:evenodd;clip-rule:evenodd;stroke-linejoin:round;stroke-miterlimit:1.41421;"><path id="Combined-Shape" d="M4.012,11.427l24.704,0c0.626,0 1.134,-0.508 1.134,-1.134c0,-0.626 -0.508,-1.133 -1.134,-1.133l-24.987,0l7.224,-7.225c0.443,-0.442 0.443,-1.16 0,-1.603c-0.443,-0.443 -1.16,-0.443 -1.603,0l-9.018,9.018c-0.404,0.404 -0.439,1.037 -0.106,1.481c0.099,0.182 0.245,0.335 0.423,0.439l8.701,8.701c0.443,0.443 1.16,0.443 1.603,0c0.443,-0.443 0.443,-1.16 0,-1.603l-6.941,-6.941Z" style="fill:#fff;"/></svg>