<?xml version="1.0" encoding="UTF-8" standalone="no"?><!DOCTYPE svg PUBLIC "-//W3C//DTD SVG 1.1//EN" "http://www.w3.org/Graphics/SVG/1.1/DTD/svg11.dtd"><svg width="100%" height="100%" viewBox="0 0 22 22" version="1.1" xmlns="http://www.w3.org/2000/svg" xmlns:xlink="http://www.w3.org/1999/xlink" xml:space="preserve" style="fill-rule:evenodd;clip-rule:evenodd;stroke-linejoin:round;stroke-miterlimit:1.41421;"><path d="M18.703,1.405l-7.675,7.732l-7.674,-7.732c-0.54,-0.54 -1.405,-0.54 -1.892,0c-0.54,0.541 -0.54,1.406 0,1.892l7.675,7.731l-7.732,7.675c-0.54,0.54 -0.54,1.405 0,1.892c0.541,0.54 1.406,0.54 1.892,0l7.731,-7.675l7.675,7.675c0.54,0.54 1.405,0.54 1.892,0c0.487,-0.541 0.54,-1.405 0,-1.892l-7.675,-7.675l7.675,-7.674c0.54,-0.54 0.54,-1.405 0,-1.892c-0.484,-0.54 -1.352,-0.54 -1.892,-0.057Z" style="fill:#7e8991;"/></svg>