<?xml version="1.0" encoding="UTF-8" standalone="no"?>
<svg width="22px" height="22px" viewBox="0 0 22 22" version="1.1" xmlns="http://www.w3.org/2000/svg" xmlns:xlink="http://www.w3.org/1999/xlink">
    <!-- Generator: Sketch 39.1 (31720) - http://www.bohemiancoding.com/sketch -->
    <title>Slice 1</title>
    <desc>Created with Sketch.</desc>
    <defs></defs>
    <g id="Page-1" stroke="none" stroke-width="1" fill="none" fill-rule="evenodd">
        <path d="M9.33152835,0 L8.68756287,0 L8.68756287,2.60709564 C3.84312353,2.94056136 0,6.97751758 0,11.9064716 C0,17.0522244 4.18577564,21.238 9.33152835,21.238 C14.2586451,21.238 18.2974386,17.3948765 18.6290671,12.5504371 L21.2361627,12.5504371 L21.2361627,11.9064716 C21.2361627,5.34142268 15.8965773,0 9.33152835,0 Z M9.33152835,19.9496097 C4.89450513,19.9496097 1.28655301,16.3416576 1.28655301,11.9046344 C1.28655301,7.68624707 4.55001574,4.21471275 8.68756287,3.88629954 L8.68756287,12.5485999 L17.3498632,12.5485999 C17.0196127,16.6843097 13.5517529,19.9496097 9.33152835,19.9496097 Z M18.6616787,11.2620468 L9.97595316,11.2620468 L9.97595316,1.30584441 C15.3187538,1.62736784 19.6087949,5.91878689 19.929859,11.2620468 L18.6616787,11.2620468 Z" id="Page-1-Copy-2" fill="#A1A6AA"></path>
    </g>
</svg>